<svg width="100" height="100" viewBox="0 0 100 100" fill="none" xmlns="http://www.w3.org/2000/svg">
<path d="M74.8167 6.37646C74.8454 6.40407 74.8742 6.43053 74.9029 6.45928C74.8742 6.43168 74.8454 6.40407 74.8167 6.37646Z" fill="#007CFF"/>
<path d="M74.6292 6.21069C74.6591 6.236 74.689 6.26246 74.7189 6.28891C74.689 6.2613 74.6591 6.236 74.6292 6.21069Z" fill="#007CFF"/>
<path d="M74.4336 6.05273C74.4643 6.07661 74.4961 6.10049 74.5268 6.1255C74.4961 6.10049 74.4654 6.07661 74.4336 6.05273Z" fill="#007CFF"/>
<path d="M74.9939 6.55298C75.0215 6.58174 75.0491 6.61049 75.0756 6.63925C75.0491 6.60934 75.0215 6.58058 74.9939 6.55298Z" fill="#007CFF"/>
<path d="M74.2302 5.90491C74.2632 5.92765 74.295 5.95039 74.3269 5.97313C74.295 5.95039 74.2632 5.92765 74.2302 5.90491Z" fill="#007CFF"/>
<path d="M75.1646 6.73706C75.191 6.76697 75.2163 6.79687 75.2416 6.82678C75.2163 6.79687 75.1899 6.76697 75.1646 6.73706Z" fill="#007CFF"/>
<path d="M72.8608 5.2373C72.8984 5.24868 72.9359 5.26232 72.9734 5.27483C72.9359 5.26232 72.8984 5.24868 72.8608 5.2373Z" fill="#007CFF"/>
<path d="M73.3442 5.41602C73.3806 5.43193 73.417 5.44785 73.4523 5.46491C73.4159 5.44785 73.3806 5.43193 73.3442 5.41602Z" fill="#007CFF"/>
<path d="M73.1055 5.32019C73.143 5.33383 73.1794 5.34862 73.2169 5.3634C73.1794 5.34862 73.143 5.33383 73.1055 5.32019Z" fill="#007CFF"/>
<path d="M75.325 6.92932C75.3488 6.96002 75.3738 6.99072 75.3966 7.02142C75.3727 6.99072 75.3488 6.96002 75.325 6.92932Z" fill="#007CFF"/>
<path d="M73.8015 5.63892C73.8368 5.65825 73.8709 5.67758 73.905 5.69804C73.8697 5.67871 73.8356 5.65825 73.8015 5.63892Z" fill="#007CFF"/>
<path d="M73.5762 5.52173C73.6114 5.53878 73.6467 5.55698 73.6819 5.57517C73.6467 5.55811 73.6114 5.53992 73.5762 5.52173Z" fill="#007CFF"/>
<path d="M74.0195 5.76746C74.0536 5.78792 74.0866 5.80953 74.1196 5.83113C74.0866 5.80953 74.0525 5.78792 74.0195 5.76746Z" fill="#007CFF"/>
<path d="M76.314 9.03955C76.3186 9.05926 76.3232 9.0778 76.3267 9.09751C76.3232 9.0778 76.3174 9.05926 76.314 9.03955Z" fill="#007CFF"/>
<path d="M76.2437 8.7511C76.2516 8.7818 76.2618 8.81136 76.2687 8.8432C76.2618 8.8125 76.2516 8.7818 76.2437 8.7511Z" fill="#007CFF"/>
<path d="M75.4763 7.13074C75.4991 7.16257 75.5218 7.19441 75.5434 7.22625C75.5207 7.19441 75.4979 7.16257 75.4763 7.13074Z" fill="#007CFF"/>
<path d="M76.4038 9.61853C76.4072 9.6515 76.4084 9.68562 76.4118 9.71973C76.4084 9.68675 76.4072 9.65264 76.4038 9.61853Z" fill="#007CFF"/>
<path d="M76.3721 9.35583C76.3755 9.37902 76.3779 9.4022 76.3802 9.42423C76.3767 9.40104 76.3744 9.37786 76.3721 9.35583Z" fill="#007CFF"/>
<path d="M76.4187 10.4542C76.4244 10.3541 76.4267 10.2552 76.4278 10.1562C76.4278 10.2552 76.4255 10.3541 76.4187 10.4542Z" fill="#007CFF"/>
<path d="M76.4221 9.88586C76.4244 9.92339 76.4244 9.96091 76.4244 9.99843C76.4244 9.96205 76.4244 9.92339 76.4221 9.88586Z" fill="#007CFF"/>
<path d="M72.6106 5.16565C72.6481 5.17588 72.6856 5.18612 72.7232 5.19749C72.6856 5.18725 72.6481 5.17588 72.6106 5.16565Z" fill="#007CFF"/>
<path d="M76.1663 8.4939C76.1776 8.52687 76.189 8.55984 76.1992 8.59396C76.189 8.55984 76.1776 8.52687 76.1663 8.4939Z" fill="#007CFF"/>
<path d="M75.7478 7.55469C75.7671 7.5888 75.7865 7.62177 75.8047 7.65588C75.7865 7.62177 75.7671 7.5888 75.7478 7.55469Z" fill="#007CFF"/>
<path d="M75.6172 7.33875C75.6377 7.37172 75.6593 7.40356 75.6797 7.43767C75.6593 7.40469 75.6377 7.37172 75.6172 7.33875Z" fill="#007CFF"/>
<path d="M75.8682 7.77771C75.8852 7.81182 75.9034 7.84593 75.9205 7.88118C75.9034 7.84593 75.8852 7.81296 75.8682 7.77771Z" fill="#007CFF"/>
<path d="M75.9788 8.00842C75.9947 8.04253 76.0106 8.07778 76.0254 8.11189C76.0106 8.07778 75.9935 8.04367 75.9788 8.00842Z" fill="#007CFF"/>
<path d="M76.0776 8.24719C76.0913 8.2813 76.1049 8.31541 76.1174 8.35066C76.1049 8.31541 76.0913 8.2813 76.0776 8.24719Z" fill="#007CFF"/>
<path d="M26.1319 94.6792C26.0944 94.6655 26.058 94.6508 26.0205 94.636C26.058 94.6508 26.0944 94.6655 26.1319 94.6792Z" fill="#007CFF"/>
<path d="M24.2435 93.4486C24.2159 93.4198 24.1883 93.3911 24.1606 93.3623C24.1883 93.3911 24.2159 93.4198 24.2435 93.4486Z" fill="#007CFF"/>
<path d="M24.8039 93.9481C24.7721 93.9243 24.7414 93.8992 24.7107 93.8754C24.7414 93.8992 24.7721 93.9231 24.8039 93.9481Z" fill="#007CFF"/>
<path d="M23.7616 92.8703C23.7388 92.8385 23.7161 92.8067 23.6934 92.7737C23.7161 92.8067 23.7388 92.8385 23.7616 92.8703Z" fill="#007CFF"/>
<path d="M24.4222 93.6241C24.3935 93.5965 24.3635 93.5689 24.3359 93.5413C24.3647 93.57 24.3935 93.5976 24.4222 93.6241Z" fill="#007CFF"/>
<path d="M23.9126 93.0714C23.8876 93.0407 23.8637 93.01 23.8398 92.9781C23.8637 93.0088 23.8887 93.0396 23.9126 93.0714Z" fill="#007CFF"/>
<path d="M24.0736 93.2647C24.0471 93.2348 24.0207 93.2049 23.9954 93.1738C24.0218 93.2049 24.0471 93.2348 24.0736 93.2647Z" fill="#007CFF"/>
<path d="M24.6094 93.7909C24.5784 93.7656 24.5485 93.7391 24.5186 93.7126C24.5485 93.7391 24.5784 93.7656 24.6094 93.7909Z" fill="#007CFF"/>
<path d="M25.8931 94.5849C25.8567 94.569 25.8203 94.5531 25.7839 94.536C25.8203 94.5519 25.8567 94.569 25.8931 94.5849Z" fill="#007CFF"/>
<path d="M22.8083 89.8447C22.8083 89.7457 22.8118 89.6468 22.8174 89.5468C22.8118 89.6468 22.8095 89.7457 22.8083 89.8447Z" fill="#007CFF"/>
<path d="M25.6613 94.478C25.6249 94.461 25.5897 94.4417 25.5544 94.4235C25.5908 94.4428 25.6261 94.461 25.6613 94.478Z" fill="#007CFF"/>
<path d="M25.0066 94.0958C24.9736 94.0731 24.9417 94.0503 24.9099 94.0276C24.9417 94.0503 24.9747 94.0731 25.0066 94.0958Z" fill="#007CFF"/>
<path d="M25.218 94.2334C25.1839 94.2129 25.1509 94.1913 25.1179 94.1697C25.1509 94.1913 25.1839 94.2129 25.218 94.2334Z" fill="#007CFF"/>
<path d="M22.9937 91.25C22.9857 91.2193 22.9755 91.1886 22.9675 91.1567C22.9755 91.1886 22.9846 91.2193 22.9937 91.25Z" fill="#007CFF"/>
<path d="M23.6202 92.6622C23.5986 92.6292 23.5781 92.5962 23.5576 92.5632C23.5781 92.5962 23.5997 92.6292 23.6202 92.6622Z" fill="#007CFF"/>
<path d="M22.9248 90.9657C22.9202 90.9448 22.9155 90.9239 22.9109 90.9031C22.9144 90.9239 22.9202 90.9448 22.9248 90.9657Z" fill="#007CFF"/>
<path d="M22.8334 90.3812C22.83 90.3482 22.8289 90.3141 22.8254 90.28C22.8289 90.3141 22.83 90.3482 22.8334 90.3812Z" fill="#007CFF"/>
<path d="M26.3767 94.7621C26.3392 94.7508 26.3017 94.7371 26.2642 94.7246C26.3017 94.7371 26.3381 94.7508 26.3767 94.7621Z" fill="#007CFF"/>
<path d="M22.8143 90.1141C22.812 90.0765 22.812 90.0379 22.812 90.0004C22.8131 90.0379 22.8131 90.0765 22.8143 90.1141Z" fill="#007CFF"/>
<path d="M22.8654 90.6458C22.862 90.6228 22.8597 90.5986 22.8562 90.5745C22.8597 90.5975 22.862 90.6216 22.8654 90.6458Z" fill="#007CFF"/>
<path d="M23.0712 91.5079C23.0599 91.4737 23.0485 91.4408 23.0371 91.4055C23.0485 91.4408 23.0599 91.4737 23.0712 91.5079Z" fill="#007CFF"/>
<path d="M23.3692 92.222C23.3521 92.1879 23.334 92.1538 23.3169 92.1185C23.334 92.1538 23.351 92.1879 23.3692 92.222Z" fill="#007CFF"/>
<path d="M23.4896 92.446C23.4703 92.4119 23.451 92.379 23.4316 92.3448C23.451 92.3778 23.4703 92.4119 23.4896 92.446Z" fill="#007CFF"/>
<path d="M23.2585 91.9913C23.2426 91.9561 23.2267 91.922 23.2119 91.8867C23.2267 91.9231 23.2426 91.9572 23.2585 91.9913Z" fill="#007CFF"/>
<path d="M23.1598 91.7548C23.1462 91.7195 23.1325 91.6854 23.1189 91.6501C23.1314 91.6854 23.1462 91.7195 23.1598 91.7548Z" fill="#007CFF"/>
<path d="M25.4362 94.3609C25.401 94.3415 25.3669 94.3222 25.3328 94.3018C25.3669 94.3222 25.401 94.3415 25.4362 94.3609Z" fill="#007CFF"/>
<path d="M72.0942 5.06006C72.1318 5.06574 72.1693 5.0737 72.2057 5.07939C72.1681 5.07257 72.1318 5.06574 72.0942 5.06006Z" fill="#007CFF"/>
<path d="M71.8284 5.026C71.8648 5.02941 71.9 5.0351 71.9353 5.03965C71.9 5.0351 71.8648 5.02941 71.8284 5.026Z" fill="#007CFF"/>
<path d="M72.355 5.10681C72.3925 5.11477 72.43 5.12387 72.4687 5.13296C72.43 5.12387 72.3936 5.11477 72.355 5.10681Z" fill="#007CFF"/>
<path d="M27.4091 94.9737C27.3727 94.9703 27.3375 94.9646 27.3022 94.9601C27.3375 94.9646 27.3727 94.9703 27.4091 94.9737Z" fill="#007CFF"/>
<path d="M71.5579 5.00549C71.5889 5.00664 71.6188 5.01009 71.6487 5.01239C71.6188 5.01009 71.5889 5.00779 71.5579 5.00549Z" fill="#007CFF"/>
<path d="M27.1429 94.9396C27.1054 94.9339 27.0679 94.9271 27.0315 94.9203C27.069 94.9271 27.1054 94.9339 27.1429 94.9396Z" fill="#007CFF"/>
<path d="M27.6795 94.9942C27.6484 94.9931 27.6185 94.9896 27.5886 94.9873C27.6185 94.9896 27.6496 94.9931 27.6795 94.9942Z" fill="#007CFF"/>
<path d="M26.6269 94.834C26.5882 94.8237 26.5507 94.8124 26.5132 94.8021C26.5507 94.8135 26.5882 94.8249 26.6269 94.834Z" fill="#007CFF"/>
<path d="M26.8825 94.8931C26.845 94.8851 26.8075 94.876 26.7688 94.8669C26.8063 94.876 26.8438 94.8851 26.8825 94.8931Z" fill="#007CFF"/>
<path d="M76.4289 10.1393C76.4289 10.0927 76.4266 10.0461 76.4255 9.9983C76.4243 9.96078 76.4243 9.92326 76.4232 9.88574C76.4209 9.83002 76.4164 9.77544 76.4118 9.71973C76.4095 9.68562 76.4073 9.65151 76.4039 9.61853C76.397 9.55258 76.3891 9.48777 76.38 9.42296C76.3766 9.40022 76.3754 9.37748 76.372 9.35588C76.3595 9.26832 76.3436 9.18191 76.3265 9.09663C76.3231 9.0773 76.3174 9.05911 76.314 9.03978C76.3004 8.97383 76.2856 8.90788 76.2697 8.84307C76.2617 8.81237 76.2526 8.78167 76.2447 8.75097C76.2299 8.69867 76.2162 8.64523 76.2003 8.59406C76.1901 8.55995 76.1776 8.52698 76.1674 8.494C76.1514 8.44625 76.1367 8.39735 76.1185 8.35073C76.1059 8.31549 76.0923 8.28251 76.0787 8.24726C76.0616 8.20178 76.0445 8.15744 76.0252 8.11309C76.0104 8.07784 75.9945 8.04373 75.9786 8.00962C75.9593 7.96641 75.9411 7.92434 75.9206 7.88227C75.9036 7.84703 75.8865 7.81291 75.8683 7.7788C75.8478 7.73787 75.8274 7.69694 75.8046 7.65714C75.7864 7.62303 75.7671 7.59005 75.7478 7.55594C75.725 7.51615 75.7023 7.47749 75.6796 7.43883C75.6591 7.40585 75.6386 7.37288 75.617 7.33991C75.5931 7.30238 75.5681 7.26372 75.5431 7.22734C75.5215 7.1955 75.4988 7.16366 75.476 7.13183C75.4499 7.09544 75.4237 7.05906 75.3976 7.02381C75.3737 6.99311 75.3498 6.96241 75.3259 6.93171C75.2987 6.89646 75.2702 6.86235 75.2418 6.82824C75.2168 6.79867 75.1906 6.76911 75.1656 6.73955C75.1361 6.70657 75.1076 6.6736 75.0769 6.64063C75.0508 6.6122 75.0235 6.58377 74.9962 6.55535C74.9655 6.52351 74.9348 6.49167 74.903 6.46097C74.8745 6.43369 74.8461 6.4064 74.8177 6.37911C74.7858 6.34841 74.7529 6.31884 74.7199 6.28928C74.6903 6.26313 74.6608 6.23698 74.6312 6.21196C74.5971 6.18354 74.563 6.15511 74.5289 6.12782C74.4982 6.10281 74.4675 6.07893 74.4356 6.05505C74.4004 6.02776 74.3651 6.00161 74.3288 5.97546C74.2969 5.95272 74.2651 5.92884 74.2321 5.90724C74.1957 5.88222 74.1582 5.85721 74.1207 5.83333C74.0877 5.81172 74.0547 5.79012 74.0206 5.76965C73.9831 5.74578 73.9444 5.72304 73.9058 5.70143C73.8717 5.68097 73.8376 5.66164 73.8023 5.64231C73.7625 5.6207 73.7227 5.60024 73.6829 5.57863C73.6477 5.56044 73.6124 5.54225 73.5772 5.52519C73.5362 5.50472 73.4953 5.48653 73.4532 5.4672C73.4169 5.45128 73.3816 5.43423 73.3452 5.41831C73.3031 5.40012 73.2599 5.38306 73.2179 5.36601C73.1815 5.35122 73.144 5.33644 73.1064 5.3228C73.0632 5.30688 73.0189 5.2921 72.9745 5.27732C72.937 5.26481 72.9006 5.25116 72.862 5.23979C72.8165 5.22615 72.771 5.2125 72.7244 5.2C72.6869 5.18976 72.6493 5.17839 72.6118 5.16816C72.5652 5.15565 72.5175 5.14542 72.4697 5.13405C72.4322 5.12495 72.3947 5.11586 72.356 5.1079C72.3071 5.09766 72.2571 5.0897 72.207 5.08061C72.1695 5.07379 72.1331 5.06696 72.0956 5.06128C72.0433 5.05332 71.9899 5.04763 71.9364 5.04081C71.9012 5.03626 71.8659 5.03058 71.8295 5.02717C71.7704 5.02148 71.7102 5.01693 71.6499 5.01352C71.6192 5.01125 71.5896 5.00784 71.5601 5.0067C71.4691 5.00215 71.3781 4.99988 71.286 4.99988H33.2316C30.2309 4.99874 27.6328 7.45361 27.4566 10.4543L22.8174 89.5467C22.8118 89.6468 22.8083 89.7457 22.8083 89.8446C22.8083 89.8503 22.8083 89.8549 22.8083 89.8606C22.8083 89.9072 22.8106 89.9538 22.8118 90.0004C22.8129 90.0379 22.8129 90.0766 22.814 90.1141C22.8163 90.1698 22.8209 90.2244 22.8254 90.2801C22.8277 90.3142 22.83 90.3483 22.8334 90.3813C22.8402 90.4461 22.8481 90.5098 22.8572 90.5746C22.8607 90.5974 22.8629 90.6212 22.8663 90.6451C22.8788 90.7327 22.8936 90.8179 22.9118 90.9044C22.9164 90.9248 22.9209 90.9453 22.9255 90.9658C22.9391 91.0306 22.9528 91.0954 22.9698 91.159C22.9778 91.1909 22.9869 91.2216 22.996 91.2523C23.0096 91.3046 23.0244 91.3569 23.0403 91.4081C23.0505 91.4422 23.063 91.4763 23.0744 91.5104C23.0903 91.5582 23.1051 91.6048 23.1222 91.6514C23.1347 91.6866 23.1495 91.7207 23.1631 91.756C23.1802 91.8003 23.1972 91.8447 23.2154 91.889C23.2302 91.9243 23.2461 91.9584 23.262 91.9936C23.2814 92.0357 23.2996 92.0789 23.32 92.121C23.3371 92.1562 23.3541 92.1903 23.3723 92.2245C23.3928 92.2654 23.4133 92.3063 23.436 92.3461C23.4542 92.3802 23.4747 92.4143 23.494 92.4473C23.5167 92.486 23.5383 92.5258 23.5622 92.5644C23.5827 92.5974 23.6043 92.6304 23.6247 92.6634C23.6486 92.7009 23.6725 92.7384 23.6975 92.7759C23.7191 92.8089 23.743 92.8407 23.7657 92.8726C23.7919 92.909 23.8169 92.9442 23.8442 92.9806C23.8681 93.0124 23.8919 93.0431 23.917 93.0738C23.9443 93.1079 23.9715 93.1432 24 93.1762C24.025 93.2069 24.0511 93.2364 24.0773 93.266C24.1068 93.299 24.1353 93.3319 24.166 93.3649C24.1933 93.3933 24.2206 93.4229 24.2478 93.4502C24.2785 93.482 24.3092 93.5127 24.3411 93.5434C24.3695 93.5707 24.3979 93.598 24.4264 93.6253C24.4582 93.6549 24.4912 93.6856 24.5241 93.714C24.5537 93.7401 24.5833 93.7663 24.614 93.7913C24.6481 93.8197 24.6811 93.8482 24.7163 93.8754C24.747 93.9005 24.7777 93.9243 24.8095 93.9482C24.8448 93.9755 24.88 94.0016 24.9164 94.0278C24.9483 94.0505 24.9812 94.0744 25.0131 94.096C25.0495 94.121 25.087 94.1461 25.1234 94.1699C25.1563 94.1915 25.1904 94.2131 25.2234 94.2336C25.2609 94.2575 25.2996 94.2791 25.3383 94.3018C25.3724 94.3223 25.4065 94.3416 25.4417 94.361C25.4804 94.3826 25.5202 94.403 25.56 94.4235C25.5952 94.4417 25.6305 94.4599 25.6669 94.4781C25.7078 94.4974 25.7487 94.5167 25.7897 94.5349C25.8261 94.5508 25.8624 94.5679 25.8988 94.5838C25.9409 94.602 25.983 94.6191 26.0262 94.635C26.0637 94.6498 26.1001 94.6646 26.1376 94.6782C26.1808 94.6941 26.2252 94.7089 26.2695 94.7237C26.307 94.7362 26.3445 94.7498 26.3821 94.7612C26.4275 94.7748 26.473 94.7885 26.5185 94.801C26.556 94.8112 26.5936 94.8226 26.6322 94.8328C26.6788 94.8453 26.7266 94.8556 26.7743 94.8658C26.8119 94.8749 26.8494 94.884 26.888 94.892C26.9369 94.9022 26.987 94.9101 27.037 94.9192C27.0745 94.9261 27.1109 94.9329 27.1484 94.9386C27.2007 94.9465 27.2542 94.9522 27.3076 94.959C27.3429 94.9636 27.3792 94.9693 27.4145 94.9727C27.4736 94.9784 27.5339 94.9829 27.5942 94.9863C27.6248 94.9886 27.6544 94.992 27.684 94.9931C27.7749 94.9977 27.8659 95 27.958 95H66.0045C69.0051 95 71.6044 92.5451 71.7795 89.5445L76.4186 10.452C76.4243 10.3519 76.4266 10.253 76.4277 10.1541C76.4277 10.1507 76.4289 10.145 76.4289 10.1393ZM74.057 10.4156L69.4384 89.1624C69.3144 91.2716 67.4883 92.9965 65.3791 92.9965H28.3889C26.2797 92.9965 24.656 91.2716 24.78 89.1624L29.3986 10.4156C29.5226 8.30639 31.3487 6.5815 33.4579 6.5815H70.4492C72.5572 6.5815 74.1809 8.30639 74.057 10.4156Z" fill="#CCE5FF"/>
<path d="M70.4479 6.58142H33.4577C31.3485 6.58142 29.5224 8.30631 29.3985 10.4155L24.7798 89.1612C24.6559 91.2704 26.2807 92.9953 28.3888 92.9953H65.3801C67.4893 92.9953 69.3154 91.2704 69.4393 89.1612L74.058 10.4144C74.1808 8.30631 72.5571 6.58142 70.4479 6.58142ZM35.1951 33.5509C35.6863 25.1697 42.8804 18.3748 51.2615 18.3748C59.6426 18.3748 66.0396 25.1697 65.5473 33.5509C65.0561 41.932 57.862 48.7269 49.4809 48.7269C41.0998 48.7269 34.7039 41.9331 35.1951 33.5509ZM68.7355 54.851L66.8094 87.6978C66.7332 89.0009 65.6041 90.0674 64.3011 90.0674H29.8124C28.5093 90.0674 27.5053 89.0009 27.5815 87.6978L29.5076 54.851C29.5838 53.548 30.7129 52.4814 32.016 52.4814H66.5046C67.8077 52.4814 68.8117 53.548 68.7355 54.851Z" fill="white"/>
<path d="M66.5048 52.4816H32.0173C30.7142 52.4816 29.5852 53.5481 29.509 54.8512L27.5817 87.698C27.5055 89.001 28.5095 90.0676 29.8126 90.0676H64.3001C65.6032 90.0676 66.7323 89.001 66.8084 87.698L68.7346 54.8512C68.8119 53.5481 67.8079 52.4816 66.5048 52.4816ZM63.4826 80.8598C63.3678 82.8223 61.6679 84.4278 59.7053 84.4278H35.0691C33.1066 84.4278 31.5955 82.8223 31.7103 80.8598C31.8251 78.8973 33.525 77.2918 35.4875 77.2918H60.1249C62.0863 77.2918 63.5974 78.8973 63.4826 80.8598ZM64.0454 71.2746C63.9306 73.2371 62.2307 74.8426 60.2682 74.8426H35.6308C33.6683 74.8426 32.1571 73.2371 32.272 71.2746C32.3868 69.312 34.0867 67.7065 36.0492 67.7065H60.6866C62.6491 67.7065 64.1603 69.312 64.0454 71.2746ZM64.6071 61.6893C64.4923 63.6518 62.7924 65.2573 60.8299 65.2573H36.1936C34.2311 65.2573 32.72 63.6518 32.8348 61.6893C32.9497 59.7268 34.6495 58.1213 36.6121 58.1213H61.2494C63.2108 58.1213 64.722 59.7268 64.6071 61.6893Z" fill="#E5F2FF"/>
<path d="M49.481 48.727C57.8621 48.727 65.0561 41.9321 65.5473 33.5509C66.0385 25.1698 59.6427 18.3749 51.2616 18.3749C42.8805 18.3749 35.6864 25.1698 35.1952 33.5509C34.704 41.9332 41.0999 48.727 49.481 48.727ZM49.5958 46.7747C44.7588 46.7747 40.6814 44.1766 38.6029 40.3004C39.7218 38.994 41.1522 38.0127 42.9237 38.0127H47.5093L47.7197 35.9626H44.005C44.005 35.9626 44.1426 35.2156 43.8083 34.8415C43.474 34.4674 42.7451 32.7584 44.7122 31.9909C44.7122 31.9909 43.3159 30.1034 44.6929 27.8032C44.6929 27.8032 45.8731 26.1124 47.465 25.6599C47.465 25.6599 48.0221 25.4086 47.9562 25.1096C47.9562 25.1096 47.2683 23.1038 49.6868 22.4352C49.6868 22.4352 51.0831 22.1203 51.8688 23.4188C51.8688 23.4188 52.4191 24.068 51.9472 25.1096C51.9472 25.1096 52.5169 25.4837 52.6351 25.5621C52.7534 25.6406 55.5448 26.1716 55.9973 29.2973C55.9973 29.2973 56.5283 31.0074 55.4072 31.9511C55.4072 31.9511 57.2549 32.9142 56.7239 34.2912C56.7239 34.2912 56.6455 34.7812 56.1736 35.1451C56.1736 35.1451 55.8791 35.6283 56.1338 35.9615H52.8193L52.933 37.9376H57.6665V37.9718L57.6938 37.9206C59.2754 37.9206 60.5853 38.7108 61.645 39.8206C59.1708 43.9617 54.6295 46.7747 49.5958 46.7747Z" fill="#E5F2FF"/>
<path d="M61.2482 58.121H36.612C34.6495 58.121 32.9507 59.7265 32.8347 61.689C32.7199 63.6515 34.231 65.257 36.1936 65.257H60.8298C62.7923 65.257 64.4922 63.6515 64.607 61.689C64.7219 59.7265 63.2108 58.121 61.2482 58.121ZM38.4802 61.0091L36.2663 63.2286L35.1304 62.0767C34.9883 61.9323 34.9883 61.6992 35.1304 61.5548C35.2726 61.4104 35.5034 61.4104 35.6455 61.5548L36.2697 62.187L37.9685 60.4837C38.1118 60.3405 38.3414 60.3416 38.4836 60.486C38.6246 60.6316 38.6223 60.8658 38.4802 61.0091ZM56.5079 63.2286H41.4546C41.1351 63.2286 40.8884 62.967 40.9077 62.6475C40.9259 62.328 41.2034 62.0665 41.5229 62.0665H56.575C56.8945 62.0665 57.1412 62.328 57.1219 62.6475C57.1037 62.967 56.8274 63.2286 56.5079 63.2286ZM60.0009 61.3115H41.5672C41.2477 61.3115 41.001 61.05 41.0203 60.7305C41.0385 60.411 41.3159 60.1494 41.6354 60.1494H60.0691C60.3886 60.1494 60.6342 60.411 60.616 60.7305C60.5978 61.05 60.3204 61.3115 60.0009 61.3115Z" fill="white"/>
<path d="M60.6866 67.7064H36.0493C34.0867 67.7064 32.388 69.3119 32.272 71.2745C32.1572 73.237 33.6683 74.8425 35.6308 74.8425H60.2682C62.2307 74.8425 63.9295 73.237 64.0454 71.2745C64.1603 69.3119 62.6492 67.7064 60.6866 67.7064ZM37.7059 72.0249C37.7059 72.2773 37.6024 72.5093 37.4364 72.6741C37.2704 72.8402 37.0396 72.9436 36.7872 72.9436H35.317C35.0646 72.9436 34.8326 72.8402 34.6677 72.6741C34.5017 72.5081 34.3983 72.2773 34.3983 72.0249V70.5547C34.3983 70.3023 34.5017 70.0703 34.6677 69.9055C34.8338 69.7395 35.0646 69.636 35.317 69.636H36.7872C37.0396 69.636 37.2716 69.7395 37.4364 69.9055C37.6024 70.0715 37.7059 70.3023 37.7059 70.5547V72.0249ZM51.2685 72.814H40.893C40.5735 72.814 40.3268 72.5525 40.3461 72.233C40.3643 71.9135 40.6418 71.6519 40.9613 71.6519H51.3367C51.6563 71.6519 51.9019 71.9135 51.8837 72.233C51.8643 72.5525 51.588 72.814 51.2685 72.814ZM56.0577 70.897H41.0056C40.6861 70.897 40.4394 70.6354 40.4587 70.3159C40.478 69.9964 40.7543 69.7349 41.0738 69.7349H56.126C56.4455 69.7349 56.6911 69.9964 56.6729 70.3159C56.6547 70.6354 56.3772 70.897 56.0577 70.897Z" fill="white"/>
<path d="M36.7872 70.0952H35.317C35.1897 70.0952 35.076 70.1464 34.9918 70.2294C34.9088 70.3135 34.8577 70.4261 34.8577 70.5546V72.0248C34.8577 72.1521 34.9088 72.2658 34.9918 72.35C35.076 72.433 35.1885 72.4841 35.317 72.4841H36.7872C36.9146 72.4841 37.0283 72.433 37.1124 72.35C37.1954 72.2658 37.2466 72.1533 37.2466 72.0248V70.5546C37.2466 70.4272 37.1954 70.3135 37.1124 70.2294C37.0283 70.1464 36.9146 70.0952 36.7872 70.0952Z" fill="white"/>
<path d="M60.124 77.2917H35.4877C33.5252 77.2917 31.8253 78.8972 31.7105 80.8598C31.5956 82.8223 33.1068 84.4278 35.0693 84.4278H59.7055C61.6681 84.4278 63.3668 82.8223 63.4828 80.8598C63.5976 78.8972 62.0865 77.2917 60.124 77.2917ZM40.5112 79.3202H55.5633C55.8828 79.3202 56.1295 79.5817 56.1102 79.9013C56.0909 80.2208 55.8146 80.4823 55.4951 80.4823H40.4429C40.1234 80.4823 39.8767 80.2208 39.896 79.9013C39.9154 79.5817 40.1917 79.3202 40.5112 79.3202ZM37.1887 81.8081C37.3002 81.9195 37.3002 82.1003 37.1887 82.2129C37.0773 82.3243 36.8965 82.3243 36.784 82.2129L35.8357 81.2646L34.8874 82.2129C34.7759 82.3243 34.5952 82.3243 34.4826 82.2129C34.3712 82.1014 34.3712 81.9206 34.4826 81.8081L35.4309 80.8598L34.4826 79.9115C34.3712 79.8001 34.3712 79.6193 34.4826 79.5067C34.594 79.3953 34.7759 79.3953 34.8874 79.5067L35.8357 80.455L36.784 79.5067C36.8954 79.3953 37.0762 79.3953 37.1887 79.5067C37.3013 79.6181 37.3002 79.7989 37.1887 79.9115L36.2404 80.8598L37.1887 81.8081ZM58.7641 82.3993H40.3304C40.0109 82.3993 39.7653 82.1378 39.7835 81.8183C39.8028 81.4988 40.0791 81.2373 40.3986 81.2373H58.8323C59.1518 81.2373 59.3985 81.4988 59.3792 81.8183C59.361 82.1378 59.0847 82.3993 58.7641 82.3993Z" fill="white"/>
<path d="M60.0692 60.1498H41.6355C41.316 60.1498 41.0385 60.4113 41.0203 60.7308C41.001 61.0503 41.2478 61.3118 41.5673 61.3118H60.001C60.3205 61.3118 60.5968 61.0503 60.6161 60.7308C60.6354 60.4113 60.3887 60.1498 60.0692 60.1498Z" fill="#CCE5FF"/>
<path d="M56.5765 62.0667H41.5232C41.2037 62.0667 40.9262 62.3282 40.908 62.6477C40.8887 62.9672 41.1355 63.2287 41.455 63.2287H56.5071C56.8266 63.2287 57.104 62.9672 57.1222 62.6477C57.1416 62.3282 56.896 62.0667 56.5765 62.0667Z" fill="#CCE5FF"/>
<path d="M51.3369 71.6522H40.9614C40.6419 71.6522 40.3656 71.9137 40.3463 72.2332C40.3269 72.5528 40.5737 72.8143 40.8932 72.8143H51.2687C51.5882 72.8143 51.8656 72.5528 51.8838 72.2332C51.902 71.9137 51.6564 71.6522 51.3369 71.6522Z" fill="#CCE5FF"/>
<path d="M56.126 69.7347H41.0739C40.7543 69.7347 40.4769 69.9963 40.4587 70.3158C40.4405 70.6353 40.6861 70.8968 41.0056 70.8968H56.0578C56.3773 70.8968 56.6547 70.6353 56.6729 70.3158C56.6911 69.9963 56.4455 69.7347 56.126 69.7347Z" fill="#CCE5FF"/>
<path d="M58.832 81.2373H40.3983C40.0788 81.2373 39.8025 81.4988 39.7832 81.8183C39.765 82.1378 40.0106 82.3994 40.3301 82.3994H58.7638C59.0833 82.3994 59.3607 82.1378 59.3789 81.8183C59.3983 81.4988 59.1527 81.2373 58.832 81.2373Z" fill="#CCE5FF"/>
<path d="M40.4426 80.4824H55.4948C55.8143 80.4824 56.0917 80.2208 56.1099 79.9013C56.1281 79.5818 55.8825 79.3203 55.563 79.3203H40.5109C40.1914 79.3203 39.9139 79.5818 39.8957 79.9013C39.8775 80.2208 40.1231 80.4824 40.4426 80.4824Z" fill="#CCE5FF"/>
<path d="M57.6689 37.9397H52.9354L52.8217 35.9635L52.6113 32.3216C54.2487 31.1709 53.7029 28.2521 53.7029 28.2521C51.0195 28.1338 50.086 24.9342 50.086 24.9342C49.0194 28.0599 46.286 28.1782 46.286 28.1782C46.2712 28.4147 46.419 30.3306 46.419 30.3306C46.5361 31.3687 47.2195 32.068 47.6652 32.4216C47.6652 32.4216 49.4708 33.6837 51.1809 33.0936C51.1809 33.0936 49.8483 34.1465 47.9028 34.1704L47.7186 35.9646L47.5083 38.0147H42.9226C42.9226 38.0147 45.3991 39.5338 50.2952 39.5338C55.4653 39.5315 57.197 38.8095 57.6689 37.9397Z" fill="#B28B67"/>
<path d="M51.181 33.0927C49.4709 33.6828 47.6653 32.4207 47.6653 32.4207C47.2196 32.0682 46.5362 31.3678 46.4191 30.3296C46.4191 30.3296 46.2713 28.4126 46.2861 28.1772C46.2861 28.1772 49.0195 28.059 50.0861 24.9333C50.0861 24.9333 51.0196 28.1329 53.703 28.2511C53.703 28.2511 54.2488 31.1711 52.6114 32.3206L52.8218 35.9625H56.1363C55.8804 35.6283 56.1761 35.1461 56.1761 35.1461C56.6479 34.7812 56.7264 34.2922 56.7264 34.2922C57.2574 32.9164 55.4097 31.9522 55.4097 31.9522C56.5308 31.0085 55.9998 29.2984 55.9998 29.2984C55.5473 26.1726 52.7558 25.6416 52.6376 25.5632C52.5193 25.4847 51.9497 25.1106 51.9497 25.1106C52.4216 24.0691 51.8712 23.4199 51.8712 23.4199C51.0844 22.1225 49.6892 22.4363 49.6892 22.4363C47.2708 23.1049 47.9587 25.1106 47.9587 25.1106C48.0246 25.4108 47.4675 25.661 47.4675 25.661C45.8745 26.1135 44.6954 27.8043 44.6954 27.8043C43.3195 30.1045 44.7147 31.992 44.7147 31.992C42.7476 32.7595 43.4765 34.4696 43.8107 34.8426C44.145 35.2155 44.0075 35.9637 44.0075 35.9637H47.7222L47.9064 34.1694C49.8484 34.1455 51.181 33.0927 51.181 33.0927ZM54.0293 28.4251C54.0293 28.4251 55.2096 28.4649 55.2096 29.4473C55.2096 29.4473 55.3869 30.6276 54.0293 30.5684V28.4251ZM45.9518 30.6548C44.5953 30.714 44.7715 29.5337 44.7715 29.5337C44.7715 28.5502 45.9518 28.5115 45.9518 28.5115V30.6548Z" fill="#00276F"/>
<path d="M44.7715 29.5338C44.7715 29.5338 44.5941 30.7129 45.9518 30.6549V28.5116C45.9518 28.5116 44.7715 28.5514 44.7715 29.5338Z" fill="#B28B67"/>
<path d="M55.2098 29.4474C55.2098 28.4638 54.0295 28.4252 54.0295 28.4252V30.5685C55.3872 30.6265 55.2098 29.4474 55.2098 29.4474Z" fill="#B28B67"/>
<path d="M57.6974 37.9229L57.6701 37.974V37.9399C57.1983 38.8097 55.4665 39.5329 50.2976 39.5329C45.4003 39.5329 42.925 38.0138 42.925 38.0138C41.1535 38.0138 39.7231 38.9951 38.6042 40.3015C40.6828 44.1777 44.7602 46.7758 49.5971 46.7758C54.6308 46.7758 59.1722 43.9628 61.6498 39.8228C60.5889 38.7131 59.279 37.9229 57.6974 37.9229Z" fill="#5B60F5"/>
<path d="M37.9676 60.4838L36.2689 62.1871L35.6446 61.5549C35.5025 61.4105 35.2717 61.4105 35.1295 61.5549C34.9874 61.6993 34.9874 61.9324 35.1295 62.0768L36.2654 63.2286L38.4793 61.0091C38.6225 60.8658 38.6237 60.6316 38.4815 60.4872C38.3417 60.3417 38.1109 60.3405 37.9676 60.4838Z" fill="#59F7AB"/>
<path d="M37.1887 79.5053C37.0772 79.3939 36.8964 79.3939 36.7839 79.5053L35.8356 80.4536L34.8873 79.5053C34.7759 79.3939 34.5951 79.3939 34.4825 79.5053C34.3711 79.6168 34.3711 79.7975 34.4825 79.9101L35.4308 80.8584L34.4825 81.8067C34.3711 81.9181 34.3711 82.0989 34.4825 82.2115C34.5939 82.3229 34.7759 82.3229 34.8873 82.2115L35.8356 81.2632L36.7839 82.2115C36.8953 82.3229 37.0772 82.3229 37.1887 82.2115C37.3001 82.1 37.3001 81.9193 37.1887 81.8067L36.2404 80.8584L37.1887 79.9101C37.3001 79.7987 37.3001 79.6179 37.1887 79.5053Z" fill="#4285F4"/>
<path d="M36.7874 69.636H35.3172C35.0647 69.636 34.8328 69.7395 34.6679 69.9055C34.5019 70.0715 34.3984 70.3023 34.3984 70.5547V72.0249C34.3984 72.2773 34.5019 72.5093 34.6679 72.6742C34.8339 72.8402 35.0647 72.9436 35.3172 72.9436H36.7874C37.0398 72.9436 37.2717 72.8402 37.4366 72.6742C37.6026 72.5082 37.7061 72.2773 37.7061 72.0249V70.5547C37.7061 70.3023 37.6026 70.0703 37.4366 69.9055C37.2717 69.7395 37.0409 69.636 36.7874 69.636ZM37.2467 72.0249C37.2467 72.1523 37.1956 72.266 37.1126 72.3501C37.0284 72.4331 36.9158 72.4843 36.7874 72.4843H35.3172C35.1898 72.4843 35.0761 72.4331 34.992 72.3501C34.909 72.266 34.8578 72.1534 34.8578 72.0249V70.5547C34.8578 70.4274 34.909 70.3137 34.992 70.2295C35.0761 70.1465 35.1887 70.0954 35.3172 70.0954H36.7874C36.9147 70.0954 37.0284 70.1465 37.1126 70.2295C37.1956 70.3137 37.2467 70.4262 37.2467 70.5547V72.0249Z" fill="#D8AFFF"/>
</svg>
