<svg width="38" height="39" viewBox="0 0 38 39" fill="none" xmlns="http://www.w3.org/2000/svg">
<path d="M1.0166 14.4168C1.06094 14.2886 1.10869 14.1604 1.15645 14.0322C1.10869 14.1604 1.06094 14.2886 1.0166 14.4168Z" fill="#FBBC05"/>
<path d="M1.66797 12.7853C1.72595 12.6606 1.78394 12.5359 1.84192 12.4111C1.78053 12.5359 1.72254 12.6606 1.66797 12.7853Z" fill="#FBBC05"/>
<path d="M2.04688 11.9917C2.10827 11.8705 2.17308 11.7492 2.23788 11.6279C2.17308 11.7492 2.11168 11.8705 2.04688 11.9917Z" fill="#FBBC05"/>
<path d="M2.46582 11.2196C2.53404 11.1018 2.60225 10.984 2.67388 10.8662C2.60225 10.984 2.53404 11.1018 2.46582 11.2196Z" fill="#FBBC05"/>
<path d="M0.525391 16.1083C0.556088 15.9767 0.593607 15.8485 0.627715 15.7168C0.590196 15.8485 0.556088 15.9767 0.525391 16.1083Z" fill="#FBBC05"/>
<path d="M0.337891 16.9701C0.361766 16.8419 0.392464 16.7102 0.41975 16.582C0.392464 16.7137 0.361766 16.8419 0.337891 16.9701Z" fill="#FBBC05"/>
<path d="M0.75 15.2592C0.787519 15.1275 0.828449 14.9993 0.869379 14.8711C0.828449 14.9993 0.787519 15.1275 0.75 15.2592Z" fill="#FBBC05"/>
<path d="M1.32324 13.593C1.3744 13.4648 1.42557 13.3401 1.48014 13.2119C1.42557 13.3401 1.3744 13.4683 1.32324 13.593Z" fill="#FBBC05"/>
<path d="M2.92285 10.4641C2.99448 10.3498 3.06952 10.2354 3.14456 10.1211C3.06952 10.2354 2.99448 10.3498 2.92285 10.4641Z" fill="#FBBC05"/>
<path d="M32.4502 32.0186C32.382 32.1086 32.3138 32.1987 32.2422 32.2853C32.3138 32.1953 32.382 32.1052 32.4502 32.0186Z" fill="#FBBC05"/>
<path d="M31.6797 32.9433C31.7445 32.874 31.8025 32.7978 31.8639 32.7285C31.8025 32.8013 31.7411 32.874 31.6797 32.9433Z" fill="#FBBC05"/>
<path d="M32.9795 31.3076C32.9113 31.4046 32.8431 31.5016 32.7715 31.5987C32.8431 31.5016 32.9113 31.4046 32.9795 31.3076Z" fill="#FBBC05"/>
<path d="M3.41406 9.72955C3.49251 9.61867 3.57096 9.5078 3.64941 9.40039C3.57096 9.51126 3.49251 9.61867 3.41406 9.72955Z" fill="#FBBC05"/>
<path d="M17.7359 38.9899C17.5927 38.9864 17.446 38.9864 17.3027 38.9795C17.4494 38.9864 17.5927 38.9864 17.7359 38.9899Z" fill="#FBBC05"/>
<path d="M4.5127 8.32576C4.59797 8.22874 4.67983 8.12826 4.76851 8.03125C4.67983 8.12826 4.59797 8.22874 4.5127 8.32576Z" fill="#FBBC05"/>
<path d="M3.94629 9.01549C4.02815 8.91155 4.11001 8.80414 4.19187 8.7002C4.1066 8.8076 4.02815 8.91155 3.94629 9.01549Z" fill="#FBBC05"/>
<path d="M0.0205078 19.6144C0.0239186 19.5139 0.0341511 19.4169 0.0409728 19.3164C0.0375619 19.4169 0.0273295 19.5139 0.0205078 19.6144Z" fill="#FBBC05"/>
<path d="M15.7481 38.8265C15.673 38.8162 15.5946 38.8092 15.5195 38.7988C15.598 38.8092 15.673 38.8162 15.7481 38.8265Z" fill="#FBBC05"/>
<path d="M14.8336 38.6772C14.7688 38.6634 14.704 38.6564 14.6426 38.6426C14.704 38.653 14.7688 38.6634 14.8336 38.6772Z" fill="#FBBC05"/>
<path d="M0.0849609 18.7241C0.0951934 18.6063 0.112248 18.4885 0.125891 18.3672C0.112248 18.4885 0.0951934 18.6063 0.0849609 18.7241Z" fill="#FBBC05"/>
<path d="M8.2268 35.9717C8.18928 35.9475 8.14835 35.9232 8.10742 35.8955C8.14494 35.9198 8.18587 35.944 8.2268 35.9717Z" fill="#FBBC05"/>
<path d="M7.67467 35.5873C7.57576 35.5146 7.47343 35.4487 7.37793 35.376C7.47343 35.4453 7.57576 35.5146 7.67467 35.5873Z" fill="#FBBC05"/>
<path d="M16.7264 38.9344C16.6207 38.924 16.5149 38.9205 16.4092 38.9102C16.5149 38.9205 16.6207 38.924 16.7264 38.9344Z" fill="#FBBC05"/>
<path d="M0.191406 17.8435C0.20846 17.7188 0.232336 17.5906 0.252801 17.4658C0.232336 17.5906 0.20846 17.7188 0.191406 17.8435Z" fill="#FBBC05"/>
<path d="M32.2425 32.2849C32.3142 32.1983 32.3824 32.1082 32.4506 32.0182C32.5597 31.8796 32.6689 31.741 32.7712 31.5989C32.8428 31.5019 32.911 31.4049 32.9793 31.3079C33.0407 31.2178 33.1089 31.1312 33.1703 31.0411C33.1634 31.048 33.1532 31.0584 33.1464 31.0653C32.9895 31.2351 32.8326 31.4049 32.6689 31.5712C29.2546 35.0395 24.6227 36.9902 19.7964 36.9902H19.793C19.6259 36.9902 19.4588 36.9832 19.295 36.9763C19.162 36.9728 19.0256 36.9728 18.8926 36.9659C18.6879 36.9555 18.4833 36.9382 18.2786 36.9209C18.1865 36.9139 18.091 36.9105 17.9989 36.9001C17.7158 36.8724 17.4361 36.8343 17.1564 36.7927C17.1394 36.7892 17.1257 36.7892 17.1087 36.7857C16.5289 36.6991 15.9558 36.5813 15.3931 36.4393C15.3828 36.4358 15.3726 36.4358 15.3589 36.4323C12.1937 35.625 9.27062 33.9584 6.92056 31.5747C3.50633 28.1064 1.58944 23.4011 1.58603 18.4984C1.58603 18.2212 1.59286 17.9441 1.6065 17.6669C1.60991 17.5803 1.61673 17.4971 1.62014 17.4105C1.63037 17.213 1.64402 17.0155 1.66448 16.8215C1.6713 16.7314 1.68154 16.6413 1.68836 16.5512C1.71223 16.3364 1.73611 16.1181 1.76681 15.9033C1.77363 15.8444 1.78045 15.7855 1.79068 15.7266C1.83161 15.4563 1.87595 15.1861 1.93053 14.9193C1.94417 14.85 1.96122 14.7807 1.97487 14.7114C2.0158 14.5104 2.06014 14.3095 2.10789 14.1085C2.12835 14.0219 2.15223 13.9318 2.1727 13.8452C2.22045 13.6546 2.27502 13.464 2.32959 13.2735C2.35006 13.1973 2.37393 13.121 2.3944 13.0448C2.47285 12.7849 2.55471 12.5285 2.6468 12.2721C2.66044 12.2375 2.67409 12.2029 2.68432 12.1682C2.76277 11.9465 2.84804 11.7247 2.93672 11.5064C2.97083 11.4337 3.00153 11.354 3.03563 11.2743C3.11067 11.0941 3.18912 10.9174 3.26757 10.7407C3.30509 10.661 3.3392 10.5813 3.37672 10.5051C3.47563 10.2937 3.57796 10.0858 3.6871 9.88142C3.70416 9.84678 3.72462 9.80866 3.74167 9.77401C3.86788 9.53494 4.0009 9.29587 4.13733 9.06373C4.17485 8.9979 4.21578 8.93206 4.25671 8.86623C4.35903 8.69646 4.46477 8.52668 4.57392 8.3569C4.62167 8.28068 4.67283 8.20792 4.72058 8.13169C4.75469 8.07972 4.78539 8.03121 4.8195 7.97924C4.82291 7.97231 4.82632 7.96884 4.82973 7.96191C4.80926 7.98617 4.7888 8.01042 4.76833 8.03468C4.67965 8.13169 4.59779 8.23217 4.51252 8.32919C4.40337 8.45392 4.29764 8.57865 4.1919 8.70685C4.10663 8.81079 4.02818 8.91474 3.94632 9.02215C3.84741 9.15035 3.7485 9.27508 3.65299 9.40674C3.57113 9.51415 3.4961 9.62503 3.41765 9.7359C3.32555 9.8641 3.23687 9.99576 3.14819 10.1274C3.06974 10.2348 2.9947 10.3492 2.92308 10.4635C2.83781 10.5952 2.75595 10.7303 2.67409 10.8654C2.60246 10.9832 2.53424 11.101 2.46603 11.2188C2.38758 11.354 2.31254 11.4891 2.2375 11.6277C2.1727 11.749 2.10789 11.8702 2.04649 11.9915C1.97487 12.1301 1.90665 12.2687 1.83843 12.4107C1.78045 12.5355 1.72247 12.6602 1.66448 12.7849C1.59968 12.927 1.53828 13.0691 1.47689 13.2146C1.42231 13.3393 1.37115 13.4675 1.31999 13.5957C1.26201 13.7412 1.20743 13.8868 1.15286 14.0357C1.10511 14.1639 1.05736 14.2921 1.01301 14.4203C0.961853 14.5693 0.914101 14.7183 0.866349 14.8708C0.82542 14.999 0.78449 15.1306 0.746971 15.2588C0.70263 15.4113 0.6617 15.5672 0.62077 15.7196C0.586662 15.8513 0.552554 15.9795 0.518445 16.1112C0.480926 16.2705 0.446818 16.4265 0.41271 16.5858C0.385423 16.714 0.354726 16.8422 0.33085 16.9739C0.300153 17.1368 0.272866 17.3031 0.245579 17.4694C0.225114 17.5941 0.201239 17.7188 0.184185 17.847C0.160309 18.0203 0.139844 18.197 0.119379 18.3737C0.105736 18.4915 0.0886814 18.6093 0.078449 18.7306C0.0613948 18.9281 0.0477515 19.1256 0.0341082 19.3196C0.0272866 19.4201 0.0170541 19.5171 0.0136433 19.6176C0.00682165 19.9121 0 20.21 0 20.508C0 25.4142 1.92029 30.116 5.33453 33.5842C5.97576 34.2356 6.65793 34.8316 7.37761 35.3721C7.47653 35.4449 7.57544 35.5142 7.67436 35.5835C7.81761 35.6874 7.96086 35.7948 8.10753 35.8918C8.14505 35.9195 8.18598 35.9403 8.22691 35.968C10.1779 37.2674 12.354 38.1751 14.6427 38.6394C14.7075 38.6533 14.7723 38.6602 14.8337 38.6741C15.0622 38.7191 15.2907 38.7607 15.5227 38.7953C15.5977 38.8057 15.6761 38.8127 15.7512 38.8231C15.9695 38.8542 16.1912 38.8854 16.4129 38.9062C16.5186 38.9166 16.6244 38.9201 16.7301 38.9305C16.9211 38.9478 17.1155 38.9651 17.3065 38.9755C17.4498 38.9824 17.593 38.9824 17.7397 38.9859C17.8966 38.9894 18.0535 38.9963 18.2104 38.9963H18.2138C23.0435 38.9963 27.672 37.0456 31.0863 33.5773C31.2909 33.3694 31.4887 33.1581 31.6831 32.9398C31.748 32.8705 31.8059 32.7943 31.8673 32.725C31.9901 32.5829 32.1197 32.4339 32.2425 32.2849Z" fill="#F89601"/>
<path d="M4.57041 8.35368C4.46126 8.51999 4.35553 8.68976 4.2532 8.86301C4.21227 8.92884 4.17475 8.99467 4.13382 9.0605C3.99739 9.29611 3.86437 9.53172 3.73817 9.77079C3.7177 9.80544 3.70065 9.84355 3.68359 9.8782C3.57786 10.0861 3.47212 10.294 3.37321 10.5019C3.3391 10.5816 3.30499 10.6612 3.26747 10.7409C3.18561 10.9176 3.11058 11.0943 3.03554 11.2745C3.00143 11.3542 2.96732 11.4339 2.93662 11.5136C2.84794 11.7319 2.76608 11.9536 2.68422 12.1754C2.67058 12.21 2.65694 12.2447 2.6467 12.2793C2.55802 12.5357 2.47275 12.7921 2.3943 13.052C2.37043 13.1282 2.34996 13.2044 2.3295 13.2807C2.27492 13.4712 2.22376 13.6618 2.1726 13.8523C2.14872 13.939 2.12826 14.0291 2.10779 14.1157C2.06004 14.3166 2.0157 14.5176 1.97477 14.7185C1.96113 14.7878 1.94407 14.8571 1.93043 14.9264C1.87927 15.1932 1.83152 15.4635 1.79059 15.7337C1.78035 15.7926 1.77694 15.8515 1.76671 15.9104C1.73601 16.1253 1.70873 16.3401 1.68826 16.5584C1.67803 16.6485 1.67121 16.7385 1.66439 16.8286C1.64733 17.0261 1.63369 17.2201 1.62005 17.4176C1.61663 17.5043 1.60981 17.5874 1.6064 17.674C1.59276 17.9512 1.58594 18.2284 1.58594 18.5056C1.58594 23.4118 3.50623 28.1135 6.92047 31.5818C9.26712 33.9656 12.1902 35.6322 15.3588 36.4395C15.3691 36.443 15.3793 36.443 15.393 36.4464C15.9592 36.5885 16.5322 36.7063 17.1086 36.7929C17.1257 36.7964 17.1393 36.7964 17.1564 36.7998C17.436 36.8414 17.7157 36.8761 17.9988 36.9072C18.0909 36.9176 18.1864 36.9211 18.2785 36.928C18.4832 36.9454 18.6878 36.9627 18.8925 36.9731C19.0255 36.98 19.1619 36.98 19.2949 36.9835C19.4621 36.9869 19.6258 36.9973 19.7929 36.9973H19.7963C24.6261 36.9973 29.2545 35.0466 32.6688 31.5784C32.8325 31.412 32.9894 31.2457 33.1463 31.0725C33.1497 31.0656 33.1565 31.0586 33.1599 31.0517C36.2638 27.6389 37.9999 23.1588 37.9999 18.4987C37.9999 13.5925 36.0796 8.89072 32.6654 5.42244C29.2511 1.94723 24.6192 0 19.7895 0C14.9632 0 10.3313 1.95069 6.91706 5.41898C6.14621 6.20549 5.45381 7.05437 4.83986 7.95522C4.83304 7.96215 4.82622 7.96908 4.8194 7.97948C4.78529 8.03145 4.75459 8.07996 4.72049 8.13193C4.66932 8.20469 4.61816 8.28092 4.57041 8.35368ZM25.124 3.03172C27.3888 3.83555 29.466 5.15219 31.1953 6.90885C34.2207 9.98214 35.9193 14.1469 35.9193 18.4917V18.4952C35.9193 22.8401 34.2207 27.0048 31.1987 30.0781C28.1767 33.1514 24.0735 34.8769 19.7963 34.8769C15.5192 34.8769 11.4159 33.1514 8.39394 30.0816C5.36854 27.0083 3.66995 22.8435 3.66995 18.4987V18.4952C3.66995 14.1503 5.36854 9.98561 8.39053 6.91578C11.4125 3.83902 15.5157 2.11354 19.7929 2.11354C20.1852 2.11354 20.5024 2.43577 20.5024 2.83422C20.5024 3.23268 20.1852 3.5549 19.7929 3.5549C15.8943 3.5549 12.1527 5.1314 9.39673 7.93097C6.64419 10.7271 5.09568 14.5176 5.09227 18.4709V18.4744V18.4952C5.09227 22.4555 6.64419 26.2564 9.40014 29.056C12.1595 31.8555 15.8978 33.4286 19.7997 33.4286C23.6983 33.4286 27.44 31.8521 30.1959 29.0525C32.9519 26.2495 34.5004 22.452 34.5004 18.4917V18.4883C34.5004 14.5245 32.9485 10.7271 30.1925 7.9275C28.6167 6.32676 26.7203 5.12793 24.6568 4.39339C24.285 4.26173 24.0906 3.84941 24.2202 3.47521C24.3225 3.17724 24.5988 2.99014 24.8921 2.99014C24.9671 2.9936 25.0456 3.004 25.124 3.03172ZM24.8989 26.2425C24.9057 26.5925 24.7147 26.9147 24.4112 27.0741C24.2543 27.1572 24.0803 27.1884 23.9098 27.1711C23.7495 27.1572 23.5926 27.0983 23.4596 26.9944L19.1005 23.7305L13.9809 25.5253C13.8547 25.5704 13.7251 25.5842 13.5989 25.5704C13.3942 25.5496 13.1998 25.4595 13.0497 25.3105C12.8041 25.0645 12.7189 24.6972 12.828 24.3681L14.5402 19.1466L11.2761 14.7532C11.068 14.4725 11.0339 14.0983 11.1908 13.7865C11.3443 13.4747 11.6615 13.2772 12.006 13.2807L17.4224 13.3222L20.5262 8.81103C20.7138 8.53731 21.031 8.39179 21.3517 8.42297L21.4028 8.4299C21.7439 8.48188 22.0236 8.72788 22.1293 9.0605L23.7665 14.3062L28.9476 15.9104C29.275 16.0109 29.5206 16.295 29.5752 16.6415C29.6297 16.988 29.4899 17.3345 29.2102 17.5354L24.8034 20.7369L24.8989 26.2425Z" fill="#FBBC05"/>
<path d="M24.2172 3.47495C24.0876 3.85262 24.282 4.26147 24.6538 4.39313C26.7173 5.12767 28.6138 6.3265 30.1896 7.92725C32.9489 10.7268 34.4974 14.5277 34.4974 18.488V18.4915C34.4974 22.4518 32.9489 26.2527 30.193 29.0522C27.437 31.8553 23.6954 33.4283 19.7968 33.4283C15.8948 33.4283 12.1565 31.8553 9.39718 29.0557C6.63782 26.2561 5.08931 22.4552 5.08931 18.4949V18.4742V18.4707C5.09613 14.5173 6.64464 10.7268 9.39377 7.93071C12.1497 5.12767 15.8914 3.55465 19.79 3.55465C20.1822 3.55465 20.4994 3.23242 20.4994 2.83396C20.4994 2.43551 20.1822 2.11328 19.79 2.11328C15.5128 2.11328 11.413 3.84223 8.38757 6.91206C5.36558 9.98535 3.66699 14.1501 3.66699 18.4915V18.4949C3.66699 22.8398 5.36899 27.0045 8.39099 30.0778C11.4164 33.1477 15.5162 34.8731 19.7934 34.8731C24.0705 34.8731 28.1704 33.1442 31.1958 30.0744C34.2178 27.0011 35.9163 22.8364 35.9163 18.4915V18.488C35.9163 14.1431 34.2178 9.97495 31.1924 6.90513C29.4631 5.14846 27.3825 3.8353 25.1211 3.02799C25.0426 3.00027 24.9642 2.98642 24.8857 2.98642C24.5958 2.99335 24.3195 3.17698 24.2172 3.47495Z" fill="#F9A302"/>
<path d="M29.5716 16.6417C29.517 16.2952 29.2714 16.0145 28.944 15.9106L23.763 14.3064L22.1258 9.06063C22.0234 8.72801 21.7403 8.48201 21.3993 8.43004L21.3481 8.42311C21.0241 8.39192 20.7069 8.53745 20.5227 8.81117L17.4188 13.3224L12.0024 13.2808C11.6579 13.2773 11.3441 13.4748 11.1872 13.7866C11.0338 14.0985 11.0645 14.4727 11.2725 14.7533L14.5367 19.1467L12.8244 24.3682C12.7153 24.7008 12.8006 25.0646 13.0461 25.3106C13.1962 25.4631 13.3941 25.5532 13.5953 25.5705C13.7215 25.5844 13.8511 25.567 13.9773 25.5255L19.1004 23.7307L23.4594 26.998C23.5958 27.0985 23.7493 27.1574 23.9096 27.1747C24.0802 27.192 24.2541 27.1574 24.411 27.0777C24.718 26.9183 24.9056 26.5961 24.8988 26.2461L24.7999 20.744L29.2066 17.5425C29.4863 17.3346 29.6296 16.9847 29.5716 16.6417Z" fill="white"/>
</svg>
