<svg width="100" height="100" viewBox="0 0 100 100" fill="none" xmlns="http://www.w3.org/2000/svg">
<path d="M18.4265 48.4539C18.5115 48.2111 18.603 47.9684 18.6945 47.7256C18.603 47.9684 18.5115 48.2111 18.4265 48.4539Z" fill="#FBBC05"/>
<path d="M19.675 45.3633C19.7862 45.1271 19.8973 44.8909 20.0084 44.6547C19.8908 44.8909 19.7796 45.1271 19.675 45.3633Z" fill="#FBBC05"/>
<path d="M20.4004 43.8619C20.518 43.6323 20.6422 43.4026 20.7664 43.173C20.6422 43.4026 20.5246 43.6323 20.4004 43.8619Z" fill="#FBBC05"/>
<path d="M21.2046 42.3975C21.3353 42.1744 21.466 41.9514 21.6033 41.7283C21.466 41.9514 21.3353 42.1744 21.2046 42.3975Z" fill="#FBBC05"/>
<path d="M17.4851 51.6559C17.5439 51.4065 17.6158 51.1638 17.6812 50.9144C17.6093 51.1638 17.5439 51.4065 17.4851 51.6559Z" fill="#FBBC05"/>
<path d="M17.1257 53.2905C17.1715 53.0478 17.2303 52.7984 17.2826 52.5557C17.2303 52.805 17.1715 53.0478 17.1257 53.2905Z" fill="#FBBC05"/>
<path d="M17.917 50.0484C17.9889 49.799 18.0673 49.5562 18.1458 49.3135C18.0673 49.5562 17.9889 49.799 17.917 50.0484Z" fill="#FBBC05"/>
<path d="M19.0146 46.8919C19.1127 46.6491 19.2107 46.4129 19.3153 46.1702C19.2107 46.4129 19.1127 46.6557 19.0146 46.8919Z" fill="#FBBC05"/>
<path d="M22.0803 40.9685C22.2176 40.752 22.3614 40.5355 22.5052 40.319C22.3614 40.5355 22.2176 40.752 22.0803 40.9685Z" fill="#FBBC05"/>
<path d="M78.6663 81.7865C78.5356 81.9571 78.4048 82.1277 78.2676 82.2917C78.4048 82.1211 78.5356 81.9505 78.6663 81.7865Z" fill="#FBBC05"/>
<path d="M77.1892 83.5377C77.3134 83.4064 77.4245 83.2621 77.5422 83.1309C77.4245 83.2686 77.3069 83.4064 77.1892 83.5377Z" fill="#FBBC05"/>
<path d="M79.6795 80.4407C79.5488 80.6244 79.418 80.8081 79.2808 80.9918C79.418 80.8081 79.5488 80.6244 79.6795 80.4407Z" fill="#FBBC05"/>
<path d="M23.0217 39.5772C23.1721 39.3672 23.3224 39.1573 23.4727 38.9539C23.3224 39.1638 23.1721 39.3672 23.0217 39.5772Z" fill="#FBBC05"/>
<path d="M50.4678 94.9871C50.1933 94.9805 49.9122 94.9805 49.6377 94.9674C49.9188 94.9805 50.1933 94.9805 50.4678 94.9871Z" fill="#FBBC05"/>
<path d="M25.1262 36.9188C25.2896 36.7351 25.4465 36.5448 25.6165 36.3611C25.4465 36.5448 25.2896 36.7351 25.1262 36.9188Z" fill="#FBBC05"/>
<path d="M24.0413 38.2259C24.1981 38.029 24.355 37.8256 24.5119 37.6288C24.3485 37.8322 24.1981 38.029 24.0413 38.2259Z" fill="#FBBC05"/>
<path d="M16.5181 58.2966C16.5246 58.1063 16.5443 57.9226 16.5574 57.7323C16.5509 57.9226 16.5312 58.1063 16.5181 58.2966Z" fill="#FBBC05"/>
<path d="M46.6574 94.6791C46.5136 94.6594 46.3633 94.6463 46.2195 94.6266C46.3698 94.6463 46.5136 94.6594 46.6574 94.6791Z" fill="#FBBC05"/>
<path d="M44.9058 94.3969C44.7816 94.3707 44.6575 94.3575 44.5398 94.3313C44.6575 94.351 44.7816 94.3707 44.9058 94.3969Z" fill="#FBBC05"/>
<path d="M16.6423 56.6108C16.662 56.3877 16.6948 56.1646 16.7211 55.9349C16.6948 56.1646 16.662 56.3877 16.6423 56.6108Z" fill="#FBBC05"/>
<path d="M32.2446 89.2725C32.1727 89.2266 32.0943 89.1807 32.0159 89.1282C32.0878 89.1741 32.1662 89.22 32.2446 89.2725Z" fill="#FBBC05"/>
<path d="M31.1859 88.544C30.9963 88.4062 30.8002 88.2816 30.6172 88.1438C30.8002 88.275 30.9963 88.4062 31.1859 88.544Z" fill="#FBBC05"/>
<path d="M48.5337 94.8821C48.331 94.8624 48.1284 94.8559 47.9258 94.8362C48.1284 94.8559 48.331 94.8624 48.5337 94.8821Z" fill="#FBBC05"/>
<path d="M16.8445 54.9443C16.8772 54.7081 16.9229 54.4653 16.9621 54.2291C16.9229 54.4653 16.8772 54.7081 16.8445 54.9443Z" fill="#FBBC05"/>
<path d="M78.2678 82.2907C78.405 82.1266 78.5358 81.956 78.6665 81.7854C78.8757 81.523 79.0848 81.2605 79.2809 80.9915C79.4182 80.8078 79.5489 80.6241 79.6796 80.4404C79.7973 80.2698 79.928 80.1057 80.0457 79.9351C80.0326 79.9483 80.013 79.968 79.9999 79.9811C79.6992 80.3026 79.3986 80.6241 79.0848 80.939C72.5418 87.507 63.6654 91.201 54.4163 91.201H54.4097C54.0895 91.201 53.7692 91.1879 53.4554 91.1748C53.2005 91.1682 52.939 91.1682 52.6841 91.1551C52.2919 91.1354 51.8998 91.1026 51.5076 91.0698C51.3311 91.0567 51.1481 91.0501 50.9716 91.0304C50.4291 90.9779 49.8931 90.9058 49.3571 90.827C49.3244 90.8205 49.2982 90.8205 49.2656 90.8139C48.1544 90.6499 47.0562 90.4268 45.9777 90.1578C45.9581 90.1512 45.9385 90.1512 45.9124 90.1446C39.8465 88.6158 34.2448 85.4598 29.7412 80.9456C23.1982 74.3777 19.5247 65.4673 19.5182 56.183C19.5182 55.6581 19.5313 55.1332 19.5574 54.6083C19.564 54.4442 19.577 54.2867 19.5836 54.1227C19.6032 53.7487 19.6293 53.3747 19.6685 53.0073C19.6816 52.8367 19.7012 52.6661 19.7143 52.4955C19.7601 52.0887 19.8058 51.6753 19.8646 51.2685C19.8777 51.157 19.8908 51.0454 19.9104 50.9339C19.9888 50.4221 20.0738 49.9103 20.1784 49.4051C20.2045 49.2739 20.2372 49.1426 20.2634 49.0114C20.3418 48.6308 20.4268 48.2503 20.5183 47.8697C20.5575 47.7057 20.6033 47.5351 20.6425 47.3711C20.734 47.0102 20.8386 46.6493 20.9432 46.2884C20.9824 46.1441 21.0281 45.9997 21.0673 45.8554C21.2177 45.3633 21.3746 44.8777 21.551 44.3922C21.5772 44.3266 21.6033 44.261 21.6229 44.1954C21.7733 43.7754 21.9367 43.3555 22.1066 42.9421C22.172 42.8044 22.2308 42.6534 22.2962 42.5025C22.44 42.1613 22.5903 41.8267 22.7407 41.4921C22.8126 41.3412 22.8779 41.1903 22.9498 41.0459C23.1394 40.6457 23.3355 40.252 23.5447 39.8649C23.5773 39.7992 23.6166 39.7271 23.6492 39.6615C23.8911 39.2087 24.146 38.756 24.4075 38.3164C24.4794 38.1917 24.5578 38.067 24.6362 37.9424C24.8323 37.6209 25.035 37.2994 25.2441 36.9779C25.3356 36.8335 25.4337 36.6957 25.5252 36.5514C25.5906 36.4529 25.6494 36.3611 25.7148 36.2627C25.7213 36.2495 25.7278 36.243 25.7344 36.2299C25.6951 36.2758 25.6559 36.3217 25.6167 36.3676C25.4468 36.5514 25.2899 36.7416 25.1265 36.9254C24.9173 37.1616 24.7147 37.3978 24.512 37.6406C24.3486 37.8374 24.1983 38.0342 24.0414 38.2376C23.8519 38.4804 23.6623 38.7166 23.4793 38.9659C23.3224 39.1694 23.1786 39.3793 23.0283 39.5893C22.8518 39.8321 22.6818 40.0814 22.5119 40.3307C22.3616 40.5341 22.2178 40.7506 22.0805 40.9672C21.9171 41.2165 21.7602 41.4724 21.6033 41.7283C21.4661 41.9514 21.3353 42.1745 21.2046 42.3975C21.0543 42.6534 20.9105 42.9093 20.7667 43.1718C20.6425 43.4014 20.5183 43.6311 20.4006 43.8607C20.2634 44.1232 20.1326 44.3856 20.0019 44.6547C19.8908 44.8909 19.7797 45.1271 19.6685 45.3633C19.5444 45.6323 19.4267 45.9013 19.309 46.1769C19.2045 46.4131 19.1064 46.6559 19.0084 46.8986C18.8972 47.1742 18.7927 47.4498 18.6881 47.7319C18.5966 47.9747 18.5051 48.2175 18.4201 48.4602C18.322 48.7424 18.2305 49.0245 18.139 49.3132C18.0606 49.556 17.9821 49.8053 17.9102 50.0481C17.8253 50.3368 17.7468 50.6321 17.6684 50.9208C17.603 51.1701 17.5377 51.4129 17.4723 51.6622C17.4004 51.964 17.335 52.2593 17.2697 52.5611C17.2174 52.8039 17.1586 53.0466 17.1128 53.296C17.054 53.6044 17.0017 53.9193 16.9494 54.2343C16.9102 54.4705 16.8644 54.7067 16.8317 54.9494C16.786 55.2775 16.7468 55.6121 16.7075 55.9468C16.6814 56.1699 16.6487 56.3929 16.6291 56.6226C16.5964 56.9966 16.5703 57.3706 16.5441 57.738C16.5311 57.9283 16.5114 58.112 16.5049 58.3023C16.4918 58.86 16.4788 59.4243 16.4788 59.9886C16.4788 69.2795 20.1588 78.1833 26.7018 84.7512C27.9306 85.9847 29.2379 87.1133 30.6171 88.1369C30.8066 88.2746 30.9962 88.4059 31.1858 88.5371C31.4603 88.7339 31.7348 88.9373 32.0159 89.1211C32.0878 89.1735 32.1662 89.2129 32.2447 89.2654C35.9835 91.7259 40.1538 93.445 44.5397 94.3242C44.6639 94.3505 44.7881 94.3636 44.9058 94.3898C45.3437 94.4751 45.7816 94.5539 46.2261 94.6195C46.3699 94.6392 46.5203 94.6523 46.6641 94.672C47.0824 94.731 47.5073 94.7901 47.9321 94.8294C48.1348 94.8491 48.3374 94.8557 48.54 94.8754C48.9061 94.9082 49.2786 94.941 49.6447 94.9607C49.9192 94.9738 50.1937 94.9738 50.4748 94.9804C50.7755 94.9869 51.0762 95 51.3768 95H51.3834C60.639 95 69.5089 91.306 76.0519 84.7381C76.4441 84.3444 76.8232 83.9441 77.1958 83.5308C77.32 83.3995 77.4311 83.2552 77.5488 83.124C77.7841 82.8549 78.0325 82.5728 78.2678 82.2907Z" fill="#FF8840"/>
<path d="M25.2377 36.9718C25.0285 37.2868 24.8259 37.6083 24.6298 37.9363C24.5514 38.061 24.4795 38.1857 24.401 38.3103C24.1396 38.7565 23.8847 39.2027 23.6428 39.6554C23.6036 39.721 23.5709 39.7932 23.5382 39.8588C23.3356 40.2525 23.133 40.6462 22.9434 41.0399C22.878 41.1908 22.8127 41.3417 22.7408 41.4926C22.5839 41.8272 22.4401 42.1619 22.2963 42.503C22.2309 42.654 22.1656 42.8049 22.1067 42.9558C21.9368 43.3691 21.7799 43.7891 21.623 44.209C21.5969 44.2746 21.5708 44.3402 21.5511 44.4058C21.3812 44.8914 21.2178 45.3769 21.0674 45.869C21.0217 46.0134 20.9825 46.1577 20.9433 46.3021C20.8387 46.663 20.7406 47.0238 20.6426 47.3847C20.5968 47.5487 20.5576 47.7193 20.5184 47.8834C20.4269 48.2639 20.3419 48.6445 20.2635 49.025C20.2373 49.1563 20.2046 49.2875 20.1785 49.4187C20.0804 49.924 19.9889 50.4357 19.9105 50.9475C19.8909 51.0591 19.8844 51.1706 19.8647 51.2822C19.8059 51.689 19.7536 52.0958 19.7144 52.5091C19.6948 52.6797 19.6817 52.8503 19.6686 53.0209C19.636 53.3949 19.6098 53.7624 19.5837 54.1364C19.5771 54.3004 19.5641 54.4579 19.5575 54.6219C19.5314 55.1468 19.5183 55.6717 19.5183 56.1966C19.5183 65.4875 23.1983 74.3913 29.7413 80.9592C34.2384 85.4735 39.8401 88.6295 45.9125 90.1583C45.9321 90.1648 45.9517 90.1648 45.9778 90.1714C47.0629 90.4404 48.161 90.6635 49.2657 90.8275C49.2983 90.8341 49.3245 90.8341 49.3572 90.8407C49.8932 90.9194 50.4292 90.985 50.9717 91.0441C51.1482 91.0637 51.3312 91.0703 51.5077 91.0834C51.8999 91.1162 52.292 91.149 52.6842 91.1687C52.9391 91.1818 53.2006 91.1818 53.4555 91.1884C53.7758 91.195 54.0896 91.2147 54.4098 91.2147H54.4164C63.672 91.2147 72.5419 87.5206 79.0849 80.9527C79.3987 80.6377 79.6994 80.3228 80 79.9947C80.0066 79.9816 80.0196 79.9685 80.0262 79.9553C85.9743 73.4924 89.3014 65.0085 89.3014 56.1835C89.3014 46.8926 85.6214 37.9888 79.0784 31.4209C72.5354 24.8398 63.6589 21.1523 54.4033 21.1523C45.1542 21.1523 36.2778 24.8464 29.7348 31.4143C28.2575 32.9038 26.9306 34.5113 25.7541 36.2172C25.741 36.2304 25.7279 36.2435 25.7149 36.2632C25.6495 36.3616 25.5907 36.4535 25.5253 36.5519C25.4273 36.6897 25.3292 36.834 25.2377 36.9718ZM64.6263 26.8935C68.9665 28.4158 72.9472 30.9091 76.2612 34.2357C82.059 40.0557 85.3142 47.9424 85.3142 56.1704V56.1769C85.3142 64.4049 82.059 72.2917 76.2677 78.1116C70.4764 83.9315 62.6131 87.1991 54.4164 87.1991C46.2197 87.1991 38.3563 83.9315 32.5651 78.1182C26.7672 72.2982 23.5121 64.4115 23.5121 56.1835V56.1769C23.5121 47.949 26.7672 40.0622 32.5585 34.2488C38.3498 28.4223 46.2131 25.1548 54.4098 25.1548C55.1615 25.1548 55.7694 25.765 55.7694 26.5195C55.7694 27.2741 55.1615 27.8843 54.4098 27.8843C46.9387 27.8843 39.7682 30.8697 34.4868 36.1713C29.2119 41.4663 26.2443 48.6445 26.2378 56.131V56.1376V56.1769C26.2378 63.6766 29.2119 70.8744 34.4933 76.176C39.7813 81.4776 46.9452 84.4564 54.4229 84.4564C61.8941 84.4564 69.0646 81.471 74.346 76.1694C79.6274 70.8613 82.595 63.67 82.595 56.1704V56.1638C82.595 48.6576 79.6209 41.4663 74.3395 36.1648C71.3196 33.1334 67.6854 30.8632 63.7308 29.4722C63.0183 29.2228 62.6458 28.442 62.8942 27.7334C63.0902 27.1691 63.6197 26.8148 64.1818 26.8148C64.3256 26.8214 64.476 26.8411 64.6263 26.8935Z" fill="#FFBD2E"/>
<path d="M62.8872 27.7332C62.6388 28.4483 63.0114 29.2226 63.7239 29.4719C67.6784 30.8629 71.3127 33.1332 74.3325 36.1645C79.6205 41.4661 82.588 48.6639 82.588 56.1636V56.1701C82.588 63.6698 79.6205 70.8676 74.3391 76.1692C69.0576 81.4773 61.8871 84.4562 54.416 84.4562C46.9383 84.4562 39.7743 81.4773 34.4864 76.1758C29.1984 70.8742 26.2308 63.6763 26.2308 56.1767V56.1373V56.1308C26.2439 48.6442 29.2114 41.4661 34.4798 36.1711C39.7613 30.8629 46.9317 27.8841 54.4029 27.8841C55.1546 27.8841 55.7625 27.2739 55.7625 26.5193C55.7625 25.7647 55.1546 25.1545 54.4029 25.1545C46.2062 25.1545 38.3494 28.4287 32.5516 34.242C26.7603 40.062 23.5051 47.9487 23.5051 56.1701V56.1767C23.5051 64.4047 26.7668 72.2914 32.5581 78.1114C38.3559 83.9247 46.2127 87.1923 54.4094 87.1923C62.6061 87.1923 70.4629 83.9182 76.2608 78.1048C82.0521 72.2849 85.3072 64.3981 85.3072 56.1701V56.1636C85.3072 47.9356 82.0521 40.0423 76.2542 34.2289C72.9403 30.9023 68.953 28.4155 64.6194 26.8867C64.469 26.8343 64.3187 26.808 64.1683 26.808C63.6128 26.8211 63.0833 27.1689 62.8872 27.7332Z" fill="#FF8840"/>
<path d="M37.436 58.3461C37.116 58.3461 36.8493 58.2395 36.636 58.0261C36.4227 57.8128 36.316 57.5461 36.316 57.2261C36.316 56.9061 36.4227 56.6461 36.636 56.4461C36.8493 56.2461 37.116 56.1461 37.436 56.1461H45.576C45.896 56.1461 46.1627 56.2528 46.376 56.4661C46.5893 56.6661 46.696 56.9261 46.696 57.2461C46.696 57.5661 46.5893 57.8328 46.376 58.0461C46.1627 58.2461 45.896 58.3461 45.576 58.3461H37.436ZM41.476 62.2461C41.1027 62.2461 40.7893 62.1261 40.536 61.8861C40.296 61.6461 40.176 61.3395 40.176 60.9661V53.1661C40.176 52.7928 40.3027 52.4861 40.556 52.2461C40.8093 52.0061 41.1227 51.8861 41.496 51.8861C41.8827 51.8861 42.1893 52.0061 42.416 52.2461C42.656 52.4861 42.776 52.7928 42.776 53.1661V60.9661C42.776 61.3395 42.656 61.6461 42.416 61.8861C42.176 62.1261 41.8627 62.2461 41.476 62.2461ZM56.0785 60.9461C56.3985 60.9461 56.6652 61.0528 56.8785 61.2661C57.0918 61.4795 57.1985 61.7461 57.1985 62.0661C57.1985 62.3728 57.0918 62.6328 56.8785 62.8461C56.6652 63.0461 56.3985 63.1461 56.0785 63.1461H49.2785C48.9318 63.1461 48.6585 63.0395 48.4585 62.8261C48.2585 62.6128 48.1585 62.3395 48.1585 62.0061C48.1585 61.6728 48.2785 61.3795 48.5185 61.1261L52.8785 56.4661C53.3585 55.9461 53.7452 55.4195 54.0385 54.8861C54.3318 54.3395 54.4785 53.8328 54.4785 53.3661C54.4785 52.9528 54.3785 52.5795 54.1785 52.2461C53.9785 51.9128 53.7185 51.6461 53.3985 51.4461C53.0785 51.2461 52.7318 51.1461 52.3585 51.1461C51.9718 51.1461 51.5785 51.2795 51.1785 51.5461C50.7785 51.7995 50.4252 52.1395 50.1185 52.5661C49.9585 52.7795 49.7985 52.9128 49.6385 52.9661C49.4785 53.0195 49.3318 53.0461 49.1985 53.0461C48.9052 53.0461 48.6318 52.9395 48.3785 52.7261C48.1385 52.4995 48.0185 52.2395 48.0185 51.9461C48.0185 51.7195 48.0918 51.4995 48.2385 51.2861C48.3985 51.0728 48.5918 50.8528 48.8185 50.6261C49.3252 50.1195 49.9118 49.7128 50.5785 49.4061C51.2452 49.0995 51.8852 48.9461 52.4985 48.9461C53.4052 48.9461 54.1852 49.1328 54.8385 49.5061C55.4918 49.8795 55.9985 50.3928 56.3585 51.0461C56.7185 51.6995 56.8985 52.4395 56.8985 53.2661C56.8985 53.8261 56.7918 54.3995 56.5785 54.9861C56.3785 55.5595 56.0985 56.1195 55.7385 56.6661C55.3785 57.2128 54.9652 57.7395 54.4985 58.2461L51.7985 61.1261L51.5785 60.9461H56.0785ZM67.1812 63.1461C66.8478 63.1461 66.5678 63.0328 66.3412 62.8061C66.1145 62.5661 66.0012 62.2728 66.0012 61.9261V52.5261L66.4212 52.6261L62.5612 57.4061L62.4612 57.1461H69.2412C69.5612 57.1461 69.8278 57.2528 70.0412 57.4661C70.2545 57.6795 70.3612 57.9461 70.3612 58.2661C70.3612 58.5728 70.2545 58.8328 70.0412 59.0461C69.8278 59.2461 69.5612 59.3461 69.2412 59.3461H60.8012C60.5212 59.3461 60.2478 59.2328 59.9812 59.0061C59.7278 58.7795 59.6012 58.4995 59.6012 58.1661C59.6012 57.8728 59.7012 57.6061 59.9012 57.3661L66.2212 49.6261C66.3278 49.4795 66.4678 49.3661 66.6412 49.2861C66.8145 49.1928 67.0078 49.1461 67.2212 49.1461C67.5678 49.1461 67.8478 49.2661 68.0612 49.5061C68.2878 49.7328 68.4012 50.0195 68.4012 50.3661V61.9261C68.4012 62.2728 68.2812 62.5661 68.0412 62.8061C67.8145 63.0328 67.5278 63.1461 67.1812 63.1461Z" fill="#1A152E"/>
<path d="M86.6377 4.74173L86.6377 24.2295C86.6377 18.8491 82.2741 14.4856 76.8938 14.4856L96.3816 14.4856C91.0012 14.4856 86.6377 10.1221 86.6377 4.74173Z" fill="#F8BB16"/>
<path d="M76.8938 14.4856L96.3816 14.4856C91.0012 14.4856 86.6377 18.8491 86.6377 24.2295L86.6377 4.74173C86.6377 10.1221 82.2741 14.4856 76.8938 14.4856Z" fill="#FFBD2E"/>
<path d="M13.5085 21.4191L13.5085 32.3135C13.5085 29.3057 11.0691 26.8663 8.06128 26.8663L18.9557 26.8663C15.9478 26.8663 13.5085 24.4269 13.5085 21.4191Z" fill="#F8BB16"/>
<path d="M8.06128 26.8663L18.9557 26.8663C15.9478 26.8663 13.5085 29.3057 13.5085 32.3135L13.5085 21.4191C13.5085 24.4269 11.0691 26.8663 8.06128 26.8663Z" fill="#FFBD2E"/>
</svg>
