<svg width="55" height="55" viewBox="0 0 55 55" fill="none" xmlns="http://www.w3.org/2000/svg">
<g clip-path="url(#clip0_3008_11144)">
<path fill-rule="evenodd" clip-rule="evenodd" d="M14.0136 23.2296C14.9573 27.3805 16.5751 30.4245 19.6758 31.1163C13.3395 21.4309 27.4949 13.9593 26.2816 5.7959C38.28 14.3744 35.0445 21.7076 33.966 26.2736C32.483 32.0849 39.4933 33.7452 38.28 24.4749C42.8636 29.871 42.8636 36.5125 40.1674 41.6319C34.3704 52.2858 18.058 52.2858 12.6655 41.4935C9.96921 36.2357 10.3737 29.3176 14.0136 23.2296Z" fill="#FFBD2E"/>
<path fill-rule="evenodd" clip-rule="evenodd" d="M17.2482 21.9845C12.9342 14.5129 20.3489 11.6073 20.2141 7.59473C23.7193 15.0663 16.8438 15.8965 17.2482 21.9845Z" fill="#FFBD2E"/>
</g>
<defs>
<clipPath id="clip0_3008_11144">
<rect width="31.0879" height="43.8057" fill="white" transform="translate(10.9121 5.7959)"/>
</clipPath>
</defs>
</svg>
