<svg width="134" height="210" viewBox="0 0 134 210" fill="none" xmlns="http://www.w3.org/2000/svg">
<path d="M0 25.76C0 16.6481 0 12.0922 1.80138 8.62441C3.31939 5.70212 5.70212 3.31939 8.62441 1.80138C12.0922 0 16.6481 0 25.76 0H108.24C117.352 0 121.908 0 125.376 1.80138C128.298 3.31939 130.681 5.70212 132.199 8.62441C134 12.0922 134 16.6481 134 25.76V46H0V25.76Z" fill="#3589F9"/>
<path d="M134 199C134 205.075 129.075 210 123 210L11 210C4.92487 210 -4.30546e-07 205.075 -9.61652e-07 199V199L134 199V199Z" fill="#3589F9"/>
<path d="M134 199L1.52588e-05 199L1.8831e-06 46L134 46L134 199Z" fill="#1A152E"/>
</svg>
