<svg width="134" height="210" viewBox="0 0 134 210" fill="none" xmlns="http://www.w3.org/2000/svg">
<path d="M0 11C0 4.92487 4.92487 0 11 0H123C129.075 0 134 4.92487 134 11V11H0V11Z" fill="#1A152E"/>
<path d="M134 184.24C134 193.352 134 197.908 132.199 201.376C130.681 204.298 128.298 206.681 125.376 208.199C121.908 210 117.352 210 108.24 210L25.76 210C16.6481 210 12.0922 210 8.62441 208.199C5.70212 206.681 3.31939 204.298 1.80138 201.376C-1.05714e-06 197.908 -1.45543e-06 193.352 -2.25201e-06 184.24L-4.02145e-06 164L134 164L134 184.24Z" fill="#1A152E"/>
<path d="M134 164L1.52588e-05 164L1.8831e-06 11L134 11L134 164Z" fill="#1A152E"/>
</svg>
