<svg width="134" height="210" viewBox="0 0 134 210" fill="none" xmlns="http://www.w3.org/2000/svg">
<path d="M0 25.76C0 16.6481 0 12.0922 1.80138 8.62441C3.31939 5.70212 5.70212 3.31939 8.62441 1.80138C12.0922 0 16.6481 0 25.76 0H108.24C117.352 0 121.908 0 125.376 1.80138C128.298 3.31939 130.681 5.70212 132.199 8.62441C134 12.0922 134 16.6481 134 25.76V46H0V25.76Z" fill="#3589F9"/>
<path d="M134 184.24C134 193.352 134 197.908 132.199 201.376C130.681 204.298 128.298 206.681 125.376 208.199C121.908 210 117.352 210 108.24 210L25.76 210C16.6481 210 12.0922 210 8.62441 208.199C5.70212 206.681 3.3194 204.298 1.80139 201.376C-1.05714e-06 197.908 -1.45543e-06 193.352 -2.25201e-06 184.24L-4.02145e-06 164L134 164L134 184.24Z" fill="#3589F9"/>
<path d="M134 164L1.52588e-05 164L4.9429e-06 46L134 46L134 164Z" fill="#1A152E"/>
</svg>
