<svg width="20" height="21" viewBox="0 0 20 21" fill="none" xmlns="http://www.w3.org/2000/svg">
<path d="M14.5456 4.62476H4.5363C3.86413 4.62476 3.21944 4.87565 2.74387 5.32231C2.2683 5.76898 2.00075 6.37488 2 7.00691V15.8072C2 16.6018 2.3357 17.3638 2.93325 17.9257C3.53079 18.4875 4.34124 18.8032 5.1863 18.8032H14.5456C15.2182 18.8032 15.8633 18.5519 16.339 18.1047C16.8146 17.6575 17.0818 17.0509 17.0818 16.4184V7.00691C17.0811 6.37488 16.8136 5.76898 16.338 5.32231C15.8624 4.87565 15.2177 4.62476 14.5456 4.62476Z" fill="#74A9FF"/>
<path d="M15.3784 3.87905L5.66374 3.80581C4.96036 3.80297 4.2845 4.06253 3.78435 4.52756C3.2842 4.9926 3.00061 5.62515 2.99574 6.2865L2.91785 15.4503C2.91105 16.1108 3.18323 16.7469 3.67467 17.219C4.1661 17.6911 4.83663 17.9605 5.53912 17.9683L15.2538 18.0415C15.9563 18.0454 16.6318 17.7871 17.1319 17.3233C17.6321 16.8594 17.9162 16.228 17.9218 15.5675L17.9997 6.40368C18.0044 6.07595 17.9402 5.75057 17.8109 5.44619C17.6816 5.14181 17.4897 4.86441 17.2462 4.62989C17.0027 4.39536 16.7124 4.20831 16.3919 4.07947C16.0714 3.95063 15.727 3.88252 15.3784 3.87905Z" fill="#2979FF"/>
<path d="M14.4504 11.774C14.9671 9.6051 13.6112 7.43192 11.4219 6.92002C9.23265 6.40812 7.039 7.75136 6.52228 9.92022C6.00556 12.0891 7.36144 14.2623 9.55074 14.7742C11.74 15.2861 13.9337 13.9428 14.4504 11.774Z" fill="#1E6FDB"/>
<path d="M10.4883 15.179C9.62616 15.179 8.78342 14.9257 8.06661 14.4512C7.34979 13.9767 6.79111 13.3023 6.4612 12.5133C6.13128 11.7242 6.04496 10.856 6.21315 10.0184C6.38134 9.18071 6.79648 8.41128 7.40608 7.80737C8.01568 7.20346 8.79235 6.79219 9.63789 6.62558C10.4834 6.45896 11.3598 6.54447 12.1563 6.87131C12.9528 7.19814 13.6336 7.75161 14.1125 8.46173C14.5915 9.17186 14.8471 10.0067 14.8471 10.8608C14.8463 12.0058 14.3868 13.1036 13.5695 13.9133C12.7522 14.7229 11.644 15.1781 10.4883 15.179ZM10.4883 7.10903C9.73924 7.10903 9.00705 7.32906 8.38426 7.74131C7.76148 8.15356 7.27607 8.73951 6.98943 9.42505C6.7028 10.1106 6.6278 10.8649 6.77393 11.5927C6.92005 12.3205 7.28074 12.989 7.81037 13.5137C8.34001 14.0384 9.01481 14.3957 9.74943 14.5405C10.4841 14.6852 11.2455 14.6109 11.9375 14.327C12.6295 14.043 13.221 13.5621 13.6371 12.9452C14.0533 12.3282 14.2754 11.6028 14.2754 10.8608C14.2762 10.3674 14.1789 9.87871 13.989 9.42261C13.7991 8.96652 13.5203 8.55197 13.1686 8.20265C12.8169 7.85334 12.3992 7.57612 11.9393 7.38683C11.4793 7.19754 10.9863 7.0999 10.4883 7.09948V7.10903Z" fill="white"/>
<path d="M12.7559 11.3777C13.0517 10.1359 12.2754 8.89166 11.0219 8.59857C9.76843 8.30548 8.51245 9.07456 8.21659 10.3164C7.92074 11.5581 8.69706 12.8024 9.95055 13.0955C11.204 13.3886 12.46 12.6195 12.7559 11.3777Z" fill="#1E6FDB"/>
<path d="M10.4883 13.4447C9.97048 13.4447 9.46434 13.2926 9.03383 13.0076C8.60332 12.7227 8.26778 12.3176 8.06964 11.8437C7.8715 11.3699 7.81965 10.8484 7.92066 10.3453C8.02168 9.84223 8.27101 9.38012 8.63713 9.01742C9.00324 8.65472 9.4697 8.40772 9.97753 8.30765C10.4853 8.20758 11.0117 8.25893 11.4901 8.45523C11.9684 8.65152 12.3773 8.98393 12.6649 9.41042C12.9526 9.83691 13.1061 10.3383 13.1061 10.8513C13.1061 11.1918 13.0384 11.5291 12.9069 11.8437C12.7753 12.1584 12.5825 12.4443 12.3394 12.6851C12.0963 12.9259 11.8077 13.117 11.4901 13.2473C11.1725 13.3776 10.832 13.4447 10.4883 13.4447ZM10.4883 8.82424C10.0827 8.82361 9.686 8.94222 9.34849 9.16506C9.01099 9.38791 8.74782 9.70495 8.59231 10.076C8.4368 10.4472 8.39595 10.8556 8.47492 11.2497C8.55389 11.6439 8.74914 12.0059 9.03594 12.29C9.32274 12.5742 9.68819 12.7676 10.086 12.8458C10.4839 12.924 10.8962 12.8836 11.2708 12.7295C11.6454 12.5755 11.9654 12.3147 12.1903 11.9804C12.4153 11.646 12.535 11.2531 12.5344 10.8513C12.5352 10.5844 12.4829 10.32 12.3805 10.0731C12.2781 9.82628 12.1276 9.60185 11.9376 9.4127C11.7475 9.22354 11.5217 9.07337 11.273 8.97075C11.0243 8.86814 10.7576 8.81511 10.4883 8.81469V8.82424Z" fill="white"/>
</svg>
