<svg width="83" height="42" viewBox="0 0 83 42" fill="none" xmlns="http://www.w3.org/2000/svg">
<rect x="6.08643" y="6.17578" width="70.8276" height="29.5862" rx="14.7931" fill="#FEEC4B"/>
<path d="M13.834 17.891C13.859 17.8206 13.8859 17.7501 13.9129 17.6797C13.8859 17.7501 13.859 17.8206 13.834 17.891Z" fill="#FBBC05"/>
<path d="M14.2031 16.9908C14.2358 16.9222 14.2685 16.8537 14.3012 16.7852C14.2666 16.8537 14.2339 16.9222 14.2031 16.9908Z" fill="#FBBC05"/>
<path d="M14.4165 16.5515C14.4511 16.4848 14.4877 16.4182 14.5242 16.3516C14.4877 16.4182 14.4531 16.4848 14.4165 16.5515Z" fill="#FBBC05"/>
<path d="M14.6562 16.1278C14.6947 16.0631 14.7332 15.9983 14.7736 15.9336C14.7332 15.9983 14.6947 16.0631 14.6562 16.1278Z" fill="#FBBC05"/>
<path d="M13.5566 18.8254C13.574 18.7528 13.5953 18.682 13.6146 18.6094C13.5933 18.682 13.574 18.7528 13.5566 18.8254Z" fill="#FBBC05"/>
<path d="M13.4497 19.2992C13.4632 19.2287 13.4805 19.1564 13.4959 19.0859C13.4805 19.1583 13.4632 19.2287 13.4497 19.2992Z" fill="#FBBC05"/>
<path d="M13.6831 18.3578C13.7043 18.2854 13.7273 18.215 13.7504 18.1445C13.7273 18.215 13.7043 18.2854 13.6831 18.3578Z" fill="#FBBC05"/>
<path d="M14.0093 17.436C14.0381 17.3656 14.067 17.297 14.0978 17.2266C14.067 17.297 14.0381 17.3675 14.0093 17.436Z" fill="#FBBC05"/>
<path d="M14.9136 15.7119C14.954 15.6491 14.9963 15.5863 15.0386 15.5234C14.9963 15.5863 14.954 15.6491 14.9136 15.7119Z" fill="#FBBC05"/>
<path d="M31.6335 27.6016C31.595 27.6511 31.5565 27.7006 31.5161 27.7482C31.5565 27.6987 31.595 27.6492 31.6335 27.6016Z" fill="#FBBC05"/>
<path d="M31.1982 28.1154C31.2352 28.0769 31.2682 28.0346 31.3032 27.9961C31.2682 28.0365 31.2332 28.0769 31.1982 28.1154Z" fill="#FBBC05"/>
<path d="M31.9333 27.2109C31.8948 27.2642 31.8563 27.3176 31.8159 27.3709C31.8563 27.3176 31.8948 27.2642 31.9333 27.2109Z" fill="#FBBC05"/>
<path d="M15.1909 15.3059C15.2352 15.245 15.2794 15.184 15.3236 15.125C15.2794 15.1859 15.2352 15.245 15.1909 15.3059Z" fill="#FBBC05"/>
<path d="M23.3036 31.4511C23.2221 31.4492 23.1386 31.4492 23.0571 31.4453C23.1406 31.4492 23.2221 31.4492 23.3036 31.4511Z" fill="#FBBC05"/>
<path d="M15.8145 14.529C15.8625 14.4757 15.9087 14.4205 15.9587 14.3672C15.9087 14.4205 15.8625 14.4757 15.8145 14.529Z" fill="#FBBC05"/>
<path d="M15.4932 14.9115C15.5393 14.8544 15.5855 14.7954 15.6317 14.7383C15.5836 14.7973 15.5393 14.8544 15.4932 14.9115Z" fill="#FBBC05"/>
<path d="M13.2705 20.7614C13.2724 20.7062 13.278 20.6529 13.2818 20.5977C13.2799 20.6529 13.2743 20.7062 13.2705 20.7614Z" fill="#FBBC05"/>
<path d="M22.1758 31.359C22.1334 31.3533 22.0892 31.3495 22.0469 31.3438C22.0911 31.3495 22.1334 31.3533 22.1758 31.359Z" fill="#FBBC05"/>
<path d="M21.6597 31.2771C21.6227 31.2694 21.5858 31.2655 21.5508 31.2578C21.5858 31.2636 21.6227 31.2694 21.6597 31.2771Z" fill="#FBBC05"/>
<path d="M13.3076 20.2664C13.3132 20.2017 13.3226 20.137 13.3301 20.0703C13.3226 20.137 13.3132 20.2017 13.3076 20.2664Z" fill="#FBBC05"/>
<path d="M17.92 29.7854C17.8982 29.7716 17.8744 29.7579 17.8506 29.7422C17.8724 29.7559 17.8962 29.7697 17.92 29.7854Z" fill="#FBBC05"/>
<path d="M17.6044 29.5732C17.5486 29.5332 17.4909 29.497 17.437 29.457C17.4909 29.4951 17.5486 29.5332 17.6044 29.5732Z" fill="#FBBC05"/>
<path d="M22.7302 31.4196C22.6705 31.4139 22.6109 31.412 22.5513 31.4062C22.6109 31.412 22.6705 31.4139 22.7302 31.4196Z" fill="#FBBC05"/>
<path d="M13.3662 19.7818C13.3756 19.7132 13.3887 19.6428 13.3999 19.5742C13.3887 19.6428 13.3756 19.7132 13.3662 19.7818Z" fill="#FBBC05"/>
<path d="M31.5164 27.7526C31.5569 27.7048 31.5956 27.6551 31.6342 27.6054C31.696 27.529 31.7578 27.4525 31.8158 27.3741C31.8563 27.3206 31.8949 27.2671 31.9336 27.2135C31.9683 27.1638 32.007 27.116 32.0417 27.0663C32.0379 27.0701 32.0321 27.0759 32.0282 27.0797C31.9394 27.1734 31.8505 27.2671 31.7578 27.3588C29.8245 29.2725 27.2016 30.3488 24.4687 30.3488H24.4667C24.3721 30.3488 24.2775 30.345 24.1848 30.3412C24.1094 30.3393 24.0322 30.3393 23.9569 30.3354C23.841 30.3297 23.7251 30.3201 23.6092 30.3106C23.5571 30.3068 23.503 30.3049 23.4508 30.2991C23.2905 30.2838 23.1321 30.2628 22.9738 30.2399C22.9641 30.2379 22.9564 30.2379 22.9467 30.236C22.6184 30.1882 22.2939 30.1232 21.9752 30.0448C21.9694 30.0429 21.9636 30.0429 21.9559 30.041C20.1636 29.5956 18.5084 28.676 17.1776 27.3607C15.2443 25.447 14.1588 22.8509 14.1569 20.1457C14.1569 19.9928 14.1608 19.8398 14.1685 19.6869C14.1704 19.6391 14.1743 19.5932 14.1762 19.5454C14.182 19.4365 14.1897 19.3275 14.2013 19.2204C14.2052 19.1707 14.211 19.121 14.2148 19.0713C14.2284 18.9528 14.2419 18.8323 14.2593 18.7138C14.2631 18.6813 14.267 18.6488 14.2728 18.6163C14.296 18.4672 14.3211 18.3181 14.352 18.1709C14.3597 18.1326 14.3693 18.0944 14.3771 18.0562C14.4003 17.9453 14.4254 17.8344 14.4524 17.7235C14.464 17.6757 14.4775 17.626 14.4891 17.5782C14.5161 17.4731 14.547 17.3679 14.5779 17.2628C14.5895 17.2207 14.603 17.1787 14.6146 17.1366C14.6591 16.9932 14.7054 16.8517 14.7576 16.7103C14.7653 16.6912 14.773 16.672 14.7788 16.6529C14.8232 16.5306 14.8715 16.4082 14.9217 16.2878C14.941 16.2476 14.9584 16.2037 14.9777 16.1597C15.0202 16.0603 15.0647 15.9628 15.1091 15.8653C15.1303 15.8213 15.1496 15.7773 15.1709 15.7353C15.2269 15.6187 15.2848 15.5039 15.3466 15.3912C15.3563 15.372 15.3679 15.351 15.3775 15.3319C15.449 15.2 15.5243 15.0681 15.6016 14.94C15.6228 14.9036 15.646 14.8673 15.6692 14.831C15.7271 14.7373 15.787 14.6436 15.8488 14.55C15.8758 14.5079 15.9048 14.4678 15.9319 14.4257C15.9512 14.397 15.9686 14.3703 15.9879 14.3416C15.9898 14.3378 15.9917 14.3359 15.9937 14.332C15.9821 14.3454 15.9705 14.3588 15.9589 14.3722C15.9087 14.4257 15.8623 14.4811 15.814 14.5347C15.7522 14.6035 15.6924 14.6723 15.6325 14.7431C15.5842 14.8004 15.5398 14.8578 15.4934 14.917C15.4374 14.9878 15.3814 15.0566 15.3273 15.1292C15.281 15.1885 15.2385 15.2497 15.1941 15.3109C15.1419 15.3816 15.0917 15.4542 15.0415 15.5269C14.9971 15.5862 14.9546 15.6492 14.914 15.7123C14.8657 15.785 14.8194 15.8595 14.773 15.9341C14.7325 15.9991 14.6938 16.0641 14.6552 16.1291C14.6108 16.2037 14.5683 16.2782 14.5258 16.3547C14.4891 16.4216 14.4524 16.4885 14.4176 16.5554C14.3771 16.6319 14.3384 16.7084 14.2998 16.7867C14.267 16.8556 14.2341 16.9244 14.2013 16.9932C14.1646 17.0716 14.1299 17.15 14.0951 17.2303C14.0642 17.2991 14.0352 17.3698 14.0062 17.4406C13.9734 17.5209 13.9425 17.6012 13.9116 17.6834C13.8846 17.7541 13.8575 17.8248 13.8324 17.8956C13.8034 17.9778 13.7764 18.06 13.7494 18.1441C13.7262 18.2148 13.703 18.2875 13.6818 18.3582C13.6567 18.4423 13.6335 18.5284 13.6103 18.6125C13.591 18.6851 13.5717 18.7559 13.5524 18.8285C13.5311 18.9165 13.5118 19.0025 13.4925 19.0904C13.477 19.1612 13.4597 19.2319 13.4461 19.3045C13.4288 19.3944 13.4133 19.4862 13.3979 19.5779C13.3863 19.6467 13.3727 19.7156 13.3631 19.7863C13.3496 19.8819 13.338 19.9794 13.3264 20.0769C13.3187 20.1419 13.309 20.2069 13.3032 20.2738C13.2936 20.3828 13.2858 20.4917 13.2781 20.5988C13.2742 20.6542 13.2684 20.7078 13.2665 20.7632C13.2627 20.9257 13.2588 21.0901 13.2588 21.2545C13.2588 23.9616 14.3462 26.5559 16.2795 28.4696C16.6426 28.829 17.0289 29.1578 17.4364 29.456C17.4924 29.4962 17.5484 29.5344 17.6045 29.5726C17.6856 29.63 17.7667 29.6893 17.8497 29.7428C17.871 29.7581 17.8942 29.7696 17.9173 29.7848C19.0221 30.5018 20.2543 31.0026 21.5503 31.2588C21.587 31.2665 21.6237 31.2703 21.6585 31.2779C21.7879 31.3028 21.9173 31.3257 22.0486 31.3449C22.0911 31.3506 22.1355 31.3544 22.178 31.3601C22.3016 31.3774 22.4272 31.3946 22.5527 31.406C22.6126 31.4118 22.6725 31.4137 22.7323 31.4194C22.8405 31.429 22.9506 31.4385 23.0587 31.4443C23.1399 31.4481 23.221 31.4481 23.304 31.45C23.3929 31.4519 23.4817 31.4557 23.5706 31.4557H23.5725C26.3074 31.4557 28.9283 30.3794 30.8616 28.4657C30.9775 28.351 31.0895 28.2344 31.1996 28.114C31.2363 28.0757 31.2692 28.0337 31.3039 27.9954C31.3735 27.9171 31.4468 27.8348 31.5164 27.7526Z" fill="#F89601"/>
<path d="M15.8462 14.5468C15.7844 14.6385 15.7246 14.7322 15.6666 14.8278C15.6434 14.8641 15.6222 14.9004 15.599 14.9368C15.5218 15.0668 15.4464 15.1968 15.375 15.3287C15.3634 15.3478 15.3537 15.3688 15.3441 15.3879C15.2842 15.5027 15.2243 15.6174 15.1683 15.7321C15.149 15.776 15.1297 15.82 15.1084 15.864C15.0621 15.9615 15.0196 16.059 14.9771 16.1584C14.9578 16.2024 14.9385 16.2463 14.9211 16.2903C14.8709 16.4107 14.8245 16.5331 14.7782 16.6555C14.7704 16.6746 14.7627 16.6937 14.7569 16.7128C14.7067 16.8543 14.6584 16.9957 14.614 17.1391C14.6005 17.1812 14.5889 17.2232 14.5773 17.2653C14.5464 17.3705 14.5174 17.4756 14.4885 17.5807C14.4749 17.6285 14.4633 17.6782 14.4518 17.726C14.4247 17.8369 14.3996 17.9478 14.3764 18.0587C14.3687 18.0969 14.359 18.1352 14.3513 18.1734C14.3224 18.3206 14.2953 18.4697 14.2721 18.6188C14.2663 18.6513 14.2644 18.6838 14.2586 18.7163C14.2412 18.8349 14.2258 18.9534 14.2142 19.0738C14.2084 19.1235 14.2045 19.1732 14.2007 19.223C14.191 19.3319 14.1833 19.439 14.1756 19.548C14.1736 19.5957 14.1698 19.6416 14.1678 19.6894C14.1601 19.8424 14.1562 19.9953 14.1562 20.1483C14.1562 22.8553 15.2436 25.4496 17.177 27.3633C18.5058 28.6786 20.161 29.5981 21.9553 30.0436C21.9611 30.0455 21.9669 30.0455 21.9746 30.0474C22.2952 30.1258 22.6197 30.1908 22.9461 30.2386C22.9557 30.2405 22.9635 30.2405 22.9731 30.2424C23.1315 30.2653 23.2899 30.2844 23.4502 30.3016C23.5023 30.3074 23.5564 30.3093 23.6086 30.3131C23.7244 30.3227 23.8403 30.3322 23.9562 30.338C24.0315 30.3418 24.1088 30.3418 24.1841 30.3437C24.2788 30.3456 24.3715 30.3514 24.4661 30.3514H24.468C27.2029 30.3514 29.8238 29.275 31.7572 27.3614C31.8499 27.2696 31.9387 27.1778 32.0276 27.0822C32.0295 27.0784 32.0334 27.0746 32.0353 27.0708C33.7929 25.1877 34.776 22.7158 34.776 20.1444C34.776 17.4374 33.6886 14.8431 31.7552 12.9294C29.8219 11.0119 27.199 9.9375 24.4642 9.9375C21.7312 9.9375 19.1084 11.0138 17.175 12.9275C16.7385 13.3615 16.3465 13.8299 15.9988 14.3269C15.9949 14.3307 15.9911 14.3346 15.9872 14.3403C15.9679 14.369 15.9505 14.3957 15.9312 14.4244C15.9022 14.4646 15.8733 14.5066 15.8462 14.5468ZM27.4849 11.6103C28.7673 12.0538 29.9436 12.7803 30.9228 13.7496C32.636 15.4453 33.5978 17.7432 33.5978 20.1406V20.1425C33.5978 22.5399 32.636 24.8378 30.9247 26.5336C29.2135 28.2293 26.89 29.1814 24.468 29.1814C22.046 29.1814 19.7226 28.2293 18.0113 26.5355C16.2982 24.8397 15.3363 22.5418 15.3363 20.1444V20.1425C15.3363 17.7452 16.2982 15.4472 18.0094 13.7534C19.7206 12.0557 22.0441 11.1037 24.4661 11.1037C24.6882 11.1037 24.8678 11.2815 24.8678 11.5013C24.8678 11.7212 24.6882 11.899 24.4661 11.899C22.2585 11.899 20.1398 12.7688 18.5792 14.3135C17.0205 15.8563 16.1437 17.9478 16.1417 20.1291V20.131V20.1425C16.1417 22.3277 17.0205 24.4249 18.5811 25.9696C20.1436 27.5143 22.2604 28.3822 24.47 28.3822C26.6776 28.3822 28.7963 27.5124 30.3569 25.9677C31.9175 24.4211 32.7943 22.3258 32.7943 20.1406V20.1387C32.7943 17.9516 31.9155 15.8563 30.355 14.3116C29.4627 13.4284 28.3888 12.7669 27.2203 12.3616C27.0098 12.289 26.8997 12.0615 26.9731 11.855C27.031 11.6906 27.1875 11.5874 27.3536 11.5874C27.396 11.5893 27.4405 11.595 27.4849 11.6103Z" fill="#FBBC05"/>
<path d="M29.4466 19.2928C29.4178 19.1171 29.2882 18.9749 29.1155 18.9222L26.3816 18.1091L25.5177 15.4502C25.4637 15.2817 25.3143 15.157 25.1343 15.1306L25.1073 15.1271C24.9363 15.1113 24.7689 15.1851 24.6718 15.3238L23.0339 17.6103L20.1759 17.5893C19.9941 17.5875 19.8285 17.6876 19.7457 17.8457C19.6647 18.0037 19.6809 18.1934 19.7907 18.3356L21.5131 20.5625L20.6096 23.209C20.552 23.3776 20.597 23.562 20.7266 23.6867C20.8058 23.764 20.9102 23.8097 21.0164 23.8184C21.083 23.8255 21.1513 23.8167 21.2179 23.7956L23.9212 22.8859L26.2214 24.542C26.2934 24.5929 26.3744 24.6228 26.459 24.6315C26.5489 24.6403 26.6407 24.6228 26.7235 24.5824C26.8855 24.5016 26.9845 24.3383 26.9809 24.1609L26.9287 21.3721L29.254 19.7494C29.4016 19.644 29.4772 19.4666 29.4466 19.2928Z" fill="white"/>
<path d="M26.9712 11.8529C26.8978 12.0613 27.0079 12.2869 27.2184 12.3595C28.3869 12.7648 29.4608 13.4263 30.3531 14.3095C31.9156 15.8542 32.7925 17.9514 32.7925 20.1366V20.1385C32.7925 22.3236 31.9156 24.4208 30.355 25.9656C28.7945 27.5122 26.6757 28.3801 24.4681 28.3801C22.2586 28.3801 20.1417 27.5122 18.5792 25.9675C17.0167 24.4228 16.1399 22.3256 16.1399 20.1404V20.1289V20.127C16.1437 17.9457 17.0206 15.8542 18.5773 14.3114C20.1379 12.7648 22.2566 11.8969 24.4642 11.8969C24.6863 11.8969 24.866 11.7191 24.866 11.4992C24.866 11.2794 24.6863 11.1016 24.4642 11.1016C22.0423 11.1016 19.7207 12.0555 18.0075 13.7494C16.2963 15.4451 15.3345 17.743 15.3345 20.1385V20.1404C15.3345 22.5378 16.2982 24.8357 18.0095 26.5314C19.7226 28.2253 22.0442 29.1773 24.4662 29.1773C26.8882 29.1773 29.2097 28.2234 30.9229 26.5295C32.6341 24.8338 33.5959 22.5358 33.5959 20.1385V20.1366C33.5959 17.7392 32.6341 15.4394 30.9209 13.7455C29.9417 12.7763 28.7635 12.0517 27.483 11.6063C27.4386 11.591 27.3942 11.5833 27.3498 11.5833C27.1856 11.5872 27.0291 11.6885 26.9712 11.8529Z" fill="#F9A302"/>
<path d="M41.7638 25.8705C40.9612 25.8705 40.2798 25.6605 39.7198 25.2405C39.1692 24.8111 38.7492 24.2185 38.4598 23.4625C38.1705 22.6971 38.0258 21.8198 38.0258 20.8305C38.0258 19.8318 38.1705 18.9545 38.4598 18.1985C38.7492 17.4425 39.1692 16.8545 39.7198 16.4345C40.2798 16.0051 40.9612 15.7905 41.7638 15.7905C42.5665 15.7905 43.2432 16.0051 43.7938 16.4345C44.3538 16.8545 44.7785 17.4425 45.0678 18.1985C45.3572 18.9545 45.5018 19.8318 45.5018 20.8305C45.5018 21.8198 45.3572 22.6971 45.0678 23.4625C44.7785 24.2185 44.3538 24.8111 43.7938 25.2405C43.2432 25.6605 42.5665 25.8705 41.7638 25.8705ZM41.7638 24.1905C42.1558 24.1905 42.4918 24.0691 42.7718 23.8265C43.0612 23.5745 43.2852 23.2011 43.4438 22.7065C43.6025 22.2025 43.6818 21.5771 43.6818 20.8305C43.6818 20.0745 43.6025 19.4491 43.4438 18.9545C43.2852 18.4598 43.0612 18.0911 42.7718 17.8485C42.4918 17.5965 42.1558 17.4705 41.7638 17.4705C41.3812 17.4705 41.0452 17.5965 40.7558 17.8485C40.4665 18.0911 40.2425 18.4598 40.0838 18.9545C39.9252 19.4491 39.8458 20.0745 39.8458 20.8305C39.8458 21.5771 39.9252 22.2025 40.0838 22.7065C40.2425 23.2011 40.4665 23.5745 40.7558 23.8265C41.0452 24.0691 41.3812 24.1905 41.7638 24.1905Z" fill="#1E1A32"/>
<rect opacity="0.2" x="2.5" y="2.58594" width="78" height="36.7586" rx="18.3793" stroke="#DBDADE" stroke-width="3.5"/>
</svg>
