<svg xmlns="http://www.w3.org/2000/svg" data-name="Layer 1" viewBox="0 0 64 64"><path d="M45.39,64H18.61a3.31,3.31,0,0,1-3.31-3.31V3.31A3.31,3.31,0,0,1,18.61,0H45.39A3.31,3.31,0,0,1,48.7,3.31V60.69A3.31,3.31,0,0,1,45.39,64ZM18.61,1a2.33,2.33,0,0,0-2.33,2.33V60.69A2.33,2.33,0,0,0,18.61,63H45.39a2.33,2.33,0,0,0,2.33-2.33V3.31A2.33,2.33,0,0,0,45.39,1Z"/><path d="M48.21 7.63H15.79a.49.49 0 010-1H48.21a.49.49 0 010 1zM48.21 57.35H15.79a.49.49 0 010-1H48.21a.49.49 0 010 1zM34.26 4.31H29.74a.5.5 0 010-1h4.52a.5.5 0 010 1zM32 61.51a1.71 1.71 0 111.71-1.71A1.72 1.72 0 0132 61.51zm0-2.43a.72.72 0 10.72.72A.72.72 0 0032 59.08z"/></svg>