<svg width="610" height="134" viewBox="0 0 610 134" fill="none" xmlns="http://www.w3.org/2000/svg">
<path d="M573.465 75.4741C573.465 81.0049 572.671 86.8129 569.458 91.487C567.284 94.4144 564.093 96.4231 560.513 97.1185C556.047 97.9455 551.476 98.0307 546.982 97.3705C543.897 97.0523 540.926 96.0261 538.302 94.3721C535.475 92.2683 533.449 89.2645 532.557 85.8554C531.64 82.8244 531.182 79.6736 531.196 76.5072C531.045 69.3638 530.856 61.7038 534.686 55.3793C537.395 50.8186 542.737 48.6894 547.801 48.1477C552.179 47.5496 556.626 47.6987 560.954 48.5886C563.601 49.2095 566.028 50.5427 567.972 52.4438C570.158 54.7073 571.683 57.5264 572.381 60.5951C573.447 65.4782 573.812 70.4881 573.465 75.4741ZM590.095 70.0315C590.059 64.9585 589.437 59.9066 588.243 54.9761C587.037 49.3737 584.303 44.2149 580.343 40.0719C577.475 37.3525 574.03 35.3156 570.265 34.1128C562.705 31.5931 554.705 31.8576 546.932 32.5631C540.444 33.2813 533.64 34.8939 528.702 39.442C528.513 38.1065 528.462 36.7711 528.324 35.4482C528.229 34.9676 527.958 34.5397 527.564 34.2484C527.17 33.957 526.682 33.8233 526.195 33.8734C522.931 34.012 519.681 34.3773 516.405 34.4529C514.957 34.5537 514.642 36.1915 514.629 37.3632C514.629 68.8094 514.629 100.247 514.629 131.677C514.588 131.919 514.601 132.167 514.667 132.403C514.734 132.639 514.852 132.858 515.014 133.042C515.176 133.227 515.377 133.373 515.602 133.47C515.828 133.568 516.072 133.613 516.317 133.604C520.706 133.881 525.107 133.881 529.495 133.604C530.629 133.529 530.957 132.344 530.944 131.362C530.944 123.135 530.944 114.895 530.944 106.681C533.456 108.786 536.41 110.298 539.587 111.103C545.095 112.46 550.761 113.061 556.431 112.892C563.575 112.829 571.046 111.506 576.992 107.298C581.742 103.93 585.277 99.1176 587.071 93.5783C589.448 85.9714 590.454 78.003 590.044 70.0441" fill="black"/>
<path d="M484.833 86.1957C483.848 89.8428 481.534 92.9889 478.345 95.0147C473.016 98.2022 466.578 98.1896 460.581 98.0258C457.028 97.8872 453.022 97.3203 450.502 94.4352C448.574 92.117 448.663 88.9296 448.726 86.0949C448.67 84.4745 449.037 82.8676 449.79 81.4319C450.543 79.9962 451.657 78.781 453.022 77.9058C455.631 76.4851 458.479 75.5583 461.425 75.1719C469.503 74.1354 477.649 73.7142 485.791 73.912C485.866 77.994 486.03 82.1767 484.783 86.1201L484.833 86.1957ZM508.443 96.9675C506.654 95.8588 504.248 97.0683 502.547 95.7076C501.552 94.1454 501.766 92.2178 501.728 90.4666C501.69 88.7154 501.627 87.3044 501.615 85.7169C501.615 76.5283 501.615 67.3439 501.615 58.1637C501.57 53.4795 500.718 48.8381 499.095 44.4438C498.244 42.2379 496.954 40.2275 495.304 38.5341C493.654 36.8407 491.678 35.4995 489.495 34.5917C485.127 32.8909 480.487 31.9946 475.8 31.946C474.401 31.8304 472.995 31.7967 471.592 31.8452C471.453 31.8452 471.327 31.8452 471.189 31.8452H454.773C452.724 31.9268 450.787 32.7981 449.366 34.2765C447.945 35.7549 447.152 37.7257 447.152 39.776C447.152 41.8263 447.945 43.7971 449.366 45.2755C450.787 46.7539 452.724 47.6252 454.773 47.7068H471.327C472.383 47.6838 473.438 47.7175 474.49 47.8076C477.602 47.9588 480.978 48.5383 483.221 50.8943C485.463 53.2502 485.74 56.4881 485.892 59.4992C474.616 59.4992 463.214 59.6252 452.178 62.4851C446.886 63.9339 441.532 66.2646 438.029 70.6993C434.25 75.2727 433.204 81.3704 432.99 87.0776C432.788 93.6037 433.985 100.735 438.697 105.585C443.736 110.624 451.056 112.149 457.885 112.59C465.444 112.867 473.066 112.451 480.247 110.07C483.502 108.927 486.466 107.082 488.928 104.665C489.879 106.843 491.504 108.658 493.564 109.843C497.747 111.796 502.484 111.557 506.982 111.292C507.889 111.292 509.098 110.876 509.098 109.793C509.186 106.177 509.098 102.561 509.098 98.9455C509.098 98.2526 509.098 97.3959 508.481 96.9675" fill="black"/>
<path d="M433.532 31.6687H409.972C409.972 21.8291 409.972 11.9896 409.972 2.15004C409.972 1.23034 409.607 0.109066 408.549 0.0334743C404.24 -0.0421175 399.919 0.0334743 395.61 0.0334743C395.358 -4.3717e-05 395.101 0.0238975 394.859 0.103527C394.618 0.183156 394.397 0.316413 394.214 0.493312C394.031 0.670211 393.89 0.886193 393.803 1.12509C393.715 1.36399 393.682 1.6196 393.707 1.87286C393.707 33.0335 393.707 64.1899 393.707 95.3422C393.932 98.3199 394.791 101.215 396.227 103.834C398.201 106.947 401.279 109.197 404.845 110.133C408.355 111.131 411.993 111.602 415.642 111.531C419.421 111.531 423.302 111.531 427.144 111.531C427.403 111.558 427.665 111.53 427.912 111.448C428.16 111.366 428.387 111.232 428.578 111.056C428.77 110.88 428.922 110.665 429.025 110.425C429.127 110.186 429.177 109.927 429.173 109.667C429.173 105.887 429.173 102.183 429.173 98.454C429.248 97.3831 428.139 96.7658 427.207 96.791C423.004 96.8974 418.798 96.7712 414.609 96.413C412.467 96.0855 410.149 94.624 409.972 92.2681C409.972 78.082 409.972 63.9086 409.972 49.7225V47.4673H433.519C434.579 47.5098 435.636 47.3377 436.628 46.9614C437.619 46.5851 438.525 46.0124 439.289 45.2776C440.054 44.5428 440.663 43.6611 441.078 42.6854C441.494 41.7097 441.708 40.66 441.708 39.5995C441.708 38.5389 441.494 37.4893 441.078 36.5136C440.663 35.5379 440.054 34.6562 439.289 33.9214C438.525 33.1866 437.619 32.6139 436.628 32.2376C435.636 31.8613 434.579 31.6892 433.519 31.7317" fill="black"/>
<path d="M364.479 76.6585C364.214 81.6979 363.42 86.9641 360.397 91.1343C358.047 94.1486 354.686 96.2114 350.935 96.9423C346.82 97.775 342.605 97.9999 338.425 97.61C333.902 97.1816 329.24 95.317 326.557 91.4997C323.583 87.3421 322.702 82.1263 322.412 77.1498C322.06 72.3806 322.259 67.5867 323.004 62.8629C323.508 58.9828 325.213 55.3575 327.88 52.4943C330.224 50.3272 333.164 48.9139 336.321 48.4375C341.904 47.5646 347.607 47.8476 353.077 49.269C354.895 49.749 356.597 50.594 358.079 51.7528C359.56 52.9116 360.791 54.3598 361.694 56.0093C364.025 60.4062 364.453 65.4583 364.592 70.3465C364.705 72.4463 364.667 74.5515 364.479 76.6459V76.6585ZM389.033 98.8699C389.071 98.5155 388.988 98.1588 388.799 97.8572C388.609 97.5555 388.323 97.3265 387.988 97.2068C386.136 96.6651 384.057 97.2068 382.293 96.3375C381.429 95.3608 380.978 94.0874 381.033 92.7847V1.89815C381.056 1.64379 381.021 1.38758 380.932 1.1483C380.843 0.909026 380.701 0.692743 380.518 0.515217C380.334 0.337692 380.113 0.203434 379.871 0.122279C379.629 0.0411235 379.372 0.0151117 379.118 0.046152C374.797 0.046152 370.476 0.046152 366.142 0.046152C365.083 0.121744 364.693 1.24301 364.743 2.16271C364.743 14.2826 364.743 26.4151 364.743 38.5476C362.035 36.3222 358.834 34.7758 355.408 34.0373C349.639 32.8097 343.735 32.3396 337.845 32.6388C332.388 32.6666 327 33.8653 322.046 36.1539C316.493 38.934 312.121 43.6145 309.725 49.3446C307.261 55.2628 305.977 61.6053 305.945 68.0158C305.567 76.4695 305.882 85.1247 308.604 93.2131C310.204 98.3958 313.266 103.007 317.423 106.492C321.639 109.759 326.656 111.83 331.949 112.489C335.614 112.984 339.316 113.153 343.011 112.993C347.658 112.903 352.277 112.252 356.768 111.053C360.755 110.047 364.4 107.994 367.326 105.106C368.485 106.996 369.694 109.05 371.761 110.057C374.911 111.518 378.372 112.184 381.84 111.998C383.847 112.038 385.854 111.945 387.849 111.72C388.247 111.619 388.594 111.377 388.826 111.038C389.058 110.7 389.158 110.288 389.109 109.881C389.109 106.227 389.109 102.586 389.109 98.9328" fill="black"/>
<path d="M189.572 34.9065C189.572 33.8104 190.832 33.3569 191.739 33.4199C195.606 33.4199 199.487 33.4199 203.355 33.4199C204.4 33.4199 205.874 33.4199 206.214 34.6797C212.06 51.8517 217.994 69.011 223.853 86.2081C229.396 69.6157 234.7 52.9226 240.231 36.3176C240.621 35.2215 240.81 33.5837 242.259 33.4199C245.308 33.2813 248.382 33.4199 251.444 33.4199C252.984 33.3162 254.531 33.4221 256.042 33.7348C257.1 34.327 257.138 35.6624 257.541 36.6829C262.896 53.1493 268.326 69.5906 273.693 86.0444C274.181 85.0363 274.602 83.9967 274.953 82.9325C280.429 66.9323 285.939 50.9446 291.482 34.9695C291.575 34.5351 291.815 34.1461 292.162 33.8684C292.508 33.5906 292.94 33.4411 293.384 33.4451C297.479 33.3821 301.574 33.4451 305.681 33.4451C306.726 33.3695 308.037 34.0624 307.923 35.2593C307.555 36.8147 307.092 38.3463 306.537 39.8452C302.229 51.9399 298.184 64.1353 293.775 76.2048C291.726 82.1682 289.655 88.1232 287.564 94.0697C286.052 98.0131 285.044 102.133 283.457 106.064C282.246 108.603 280.1 110.576 277.467 111.569C274.835 112.563 271.92 112.499 269.334 111.393C266.499 110.045 265 107.109 263.677 104.426C262.014 100.482 260.893 96.3375 259.519 92.2807C255.929 81.5719 252.514 70.863 248.722 60.192C243.683 74.6552 239.034 89.257 234.171 103.783C233.56 106.227 232.161 108.401 230.19 109.969C228.659 111.167 226.836 111.935 224.909 112.194C222.983 112.453 221.022 112.194 219.229 111.443C217.083 110.226 215.383 108.354 214.378 106.101C212.902 103.128 211.692 100.029 210.763 96.8414C203.972 77.4521 197.358 58.0124 190.605 38.6231C190.094 37.4554 189.799 36.2047 189.735 34.9317" fill="black"/>
<path d="M174.1 82.5672C173.13 87.3295 170.711 92.1044 166.415 94.6619C161.174 97.736 154.799 98.0635 148.891 97.4462C143.927 97.0179 138.812 94.9265 135.813 90.8571C132.286 86.0318 131.542 79.8585 131.379 74.0505C131.379 67.5496 131.719 60.5196 135.612 55.014C138.131 51.3478 142.402 49.395 146.635 48.4501C148.49 48.1271 150.373 47.9921 152.254 48.047C154.979 47.9008 157.711 48.0784 160.393 48.5761C163.574 49.2778 166.526 50.773 168.973 52.9226C171.933 56.0281 173.814 60.0037 174.34 64.2614C175.288 70.3336 175.207 76.5219 174.1 82.5672ZM189.597 55.4549C188.404 50.0976 185.722 45.1864 181.859 41.2877C177.996 37.389 173.11 34.6615 167.763 33.4199C160.624 31.7026 153.24 31.2422 145.943 32.0593C141.052 32.5427 136.283 33.8682 131.845 35.9775C126.935 38.4323 122.879 42.3088 120.204 47.1021C117.921 51.3758 116.399 56.014 115.706 60.8094C114.597 68.3261 114.572 75.9629 115.63 83.4869C116.563 89.4335 118.314 95.4178 121.93 100.331C125.642 105.408 130.932 109.111 136.972 110.864C144.711 113.084 152.821 113.71 160.809 112.703C167.108 111.897 173.546 110.183 178.737 106.29C183.76 102.479 187.376 97.1086 189.017 91.0209C190.235 86.9429 191 82.7433 191.298 78.4978C192.012 70.7744 191.428 62.9858 189.572 55.4549" fill="black"/>
<path d="M98.7481 35.1584C103.003 33.888 107.423 33.2554 111.863 33.2812C113.01 33.2812 113.614 34.4025 113.602 35.423C113.665 39.2781 113.602 43.1459 113.602 47.0011C113.665 47.9586 113.337 49.1555 112.254 49.3571C109.734 49.8484 107.214 49.7476 104.695 50.2516C101.007 50.8786 97.5955 52.6043 94.9055 55.2028C92.5247 57.7947 90.9794 61.0434 90.4708 64.5258C89.9814 68.1491 89.8128 71.8085 89.9669 75.4614C89.9669 86.649 89.9669 97.845 89.9669 109.049C90.0247 109.444 89.9823 109.847 89.8436 110.222C89.7049 110.596 89.4743 110.929 89.1731 111.191C88.154 111.543 87.0722 111.676 85.9983 111.582C82.4203 111.582 78.8423 111.683 75.2768 111.494C75.023 111.465 74.7773 111.387 74.554 111.263C74.3306 111.139 74.1341 110.972 73.9759 110.772C73.8176 110.572 73.7008 110.342 73.6322 110.096C73.5635 109.85 73.5444 109.593 73.576 109.339C73.576 85.2758 73.576 61.2082 73.576 37.1364C73.5334 36.8746 73.545 36.6069 73.6099 36.3498C73.6748 36.0927 73.7918 35.8516 73.9535 35.6414C74.1153 35.4313 74.3184 35.2565 74.5503 35.1279C74.7823 34.9993 75.0381 34.9197 75.302 34.8938C78.4034 34.5135 81.5256 34.3284 84.6502 34.3395C85.5195 34.3395 86.6786 34.4151 87.0188 35.3726C87.4208 37.1804 87.7153 39.0103 87.9007 40.853C90.9957 38.1443 94.6796 36.1945 98.6599 35.1584" fill="black"/>
<path d="M33.8147 32.3491C36.4982 32.3491 39.1818 32.2357 41.8653 32.3491C50.004 32.8278 58.2435 35.5366 64.3916 40.9666C65.6149 41.9584 66.6553 43.1565 67.4657 44.5068C67.8563 45.3635 67.2137 46.195 66.6216 46.7494C63.5853 49.5085 60.7884 52.5321 57.6136 55.1148C57.223 55.3803 56.7468 55.4889 56.2798 55.4188C55.8128 55.3488 55.3893 55.1053 55.0938 54.7369C51.1455 50.7202 45.8172 48.3556 40.1896 48.1226C37.1002 47.9366 33.9996 48.1569 30.9675 48.7777C27.3292 49.5167 24.0075 51.3602 21.4555 54.0566C18.9783 57.1691 17.4244 60.9142 16.9704 64.8662C16.2841 69.7392 16.2206 74.6798 16.7814 79.5688C17.0173 83.8888 18.4575 88.0565 20.9389 91.6005C23.4015 94.5472 26.7901 96.5724 30.5517 97.3455C36.2463 98.4289 42.3566 98.6809 47.8244 96.4258C50.7685 95.1144 53.4892 93.3503 55.8876 91.1974C56.1919 90.8637 56.6098 90.6555 57.0595 90.6136C57.5091 90.5716 57.9583 90.6989 58.3191 90.9706C61.0152 93.2761 63.5097 95.7958 66.0421 98.2652C66.7303 98.7977 67.2472 99.5205 67.5287 100.344C67.5111 100.665 67.4283 100.979 67.2854 101.267C67.1424 101.555 66.9423 101.811 66.6972 102.02C62.8811 105.743 58.3386 108.641 53.353 110.531C48.3675 112.421 43.0459 113.263 37.7203 113.006C29.1658 113.069 20.1956 111.544 13.0144 106.631C8.94433 103.695 5.75159 99.7051 3.77959 95.0903C0.755918 87.9469 0 80.098 0 72.4128C0 64.4253 0.919696 56.2235 4.43472 48.9667C7.43792 42.7437 12.7138 37.9097 19.1751 35.461C23.8487 33.6707 28.7779 32.6372 33.7769 32.3995" fill="black"/>
<path d="M595.336 96.0476H607.935C608.456 96.0476 608.956 96.2547 609.324 96.6233C609.693 96.9919 609.9 97.4918 609.9 98.013V110.612C609.9 111.133 609.693 111.633 609.324 112.001C608.956 112.37 608.456 112.577 607.935 112.577H595.336C594.815 112.577 594.315 112.37 593.946 112.001C593.578 111.633 593.37 111.133 593.37 110.612V98.013C593.37 97.4918 593.578 96.9919 593.946 96.6233C594.315 96.2547 594.815 96.0476 595.336 96.0476Z" fill="black"/>
<path d="M595.336 96.0476H607.935C608.456 96.0476 608.956 96.2547 609.324 96.6233C609.693 96.9919 609.9 97.4918 609.9 98.013V110.612C609.9 111.133 609.693 111.633 609.324 112.001C608.956 112.37 608.456 112.577 607.935 112.577H595.336C594.815 112.577 594.315 112.37 593.946 112.001C593.578 111.633 593.37 111.133 593.37 110.612V98.013C593.37 97.4918 593.578 96.9919 593.946 96.6233C594.315 96.2547 594.815 96.0476 595.336 96.0476Z" fill="black"/>
<path d="M595.437 29.5775V31.694C595.432 31.7198 595.434 31.7463 595.442 31.7712C595.45 31.7962 595.464 31.8188 595.482 31.8374C595.501 31.8559 595.524 31.8697 595.548 31.8776C595.573 31.8855 595.6 31.8874 595.626 31.883H596.709C597.043 31.883 597.364 31.7503 597.6 31.514C597.836 31.2777 597.969 30.9573 597.969 30.6231C597.982 30.4516 597.959 30.2793 597.903 30.1168C597.847 29.9543 597.758 29.805 597.642 29.6782C597.398 29.4562 597.077 29.3386 596.747 29.3507H595.664C595.638 29.3463 595.611 29.3481 595.586 29.3561C595.561 29.364 595.539 29.3778 595.52 29.3963C595.502 29.4148 595.488 29.4375 595.48 29.4624C595.472 29.4874 595.47 29.5139 595.475 29.5397L595.437 29.5775ZM599.09 31.9082C598.889 32.2897 598.552 32.5818 598.145 32.7271C598.103 32.7606 598.072 32.8063 598.056 32.8581C598.04 32.9099 598.04 32.9653 598.057 33.0169L599.317 35.9271V36.1162C599.317 36.3681 599.166 36.4815 598.889 36.4815H598.284C598.169 36.4887 598.055 36.4564 597.961 36.39C597.867 36.3235 597.799 36.2269 597.767 36.1162L596.508 33.1051C596.494 33.0651 596.469 33.0303 596.435 33.0055C596.401 32.9806 596.361 32.967 596.319 32.9665H595.613C595.587 32.9621 595.561 32.9639 595.536 32.9719C595.511 32.9798 595.488 32.9936 595.47 33.0121C595.451 33.0306 595.437 33.0533 595.43 33.0782C595.422 33.1032 595.42 33.1297 595.424 33.1555V36.0153C595.435 36.079 595.431 36.1444 595.411 36.206C595.392 36.2677 595.358 36.3237 595.312 36.3694C595.266 36.4151 595.21 36.4491 595.149 36.4686C595.087 36.4881 595.022 36.4925 594.958 36.4815H594.441C594.378 36.4925 594.312 36.4881 594.251 36.4686C594.189 36.4491 594.133 36.4151 594.087 36.3694C594.042 36.3237 594.008 36.2677 593.988 36.206C593.969 36.1444 593.964 36.079 593.975 36.0153V28.557C593.964 28.4933 593.969 28.4279 593.988 28.3663C594.008 28.3047 594.042 28.2486 594.087 28.2029C594.133 28.1572 594.189 28.1232 594.251 28.1037C594.312 28.0842 594.378 28.0798 594.441 28.0908H596.886C597.219 28.075 597.551 28.1297 597.862 28.2512C598.172 28.3728 598.453 28.5586 598.687 28.7963C598.914 29.0319 599.09 29.3105 599.207 29.6156C599.324 29.9208 599.379 30.2462 599.368 30.5727C599.374 31.0386 599.262 31.4984 599.04 31.9082H599.09ZM600.136 38.6989C601.266 38.0469 602.208 37.1138 602.87 35.9902C603.543 34.8451 603.891 33.5385 603.878 32.2106C603.884 30.9073 603.536 29.6269 602.87 28.5066C602.202 27.3968 601.261 26.4771 600.136 25.8357C598.981 25.189 597.68 24.8494 596.356 24.8494C595.033 24.8494 593.732 25.189 592.577 25.8357C591.453 26.4771 590.519 27.405 589.871 28.5249C589.222 29.6448 588.882 30.9165 588.885 32.2106C588.868 33.5374 589.212 34.844 589.881 35.9902C590.52 37.1185 591.452 38.0541 592.577 38.6989C593.732 39.3455 595.033 39.6851 596.356 39.6851C597.68 39.6851 598.981 39.3455 600.136 38.6989ZM601.005 24.3364C602.395 25.1254 603.554 26.2631 604.369 27.6373C605.199 29.018 605.635 30.5997 605.629 32.2106C605.628 33.8444 605.194 35.4488 604.369 36.8595C603.563 38.2543 602.397 39.4072 600.993 40.1981C599.572 40.9995 597.969 41.4207 596.338 41.4207C594.706 41.4207 593.103 40.9995 591.682 40.1981C590.293 39.4009 589.141 38.2487 588.344 36.8595C587.519 35.4488 587.085 33.8444 587.084 32.2106C587.108 30.6006 587.553 29.0249 588.373 27.6394C589.194 26.254 590.362 25.1068 591.762 24.3113C593.162 23.5159 594.745 23.0998 596.355 23.1042C597.966 23.1086 599.547 23.5333 600.942 24.3364" fill="black"/>
</svg>
