<svg width="606" height="134" viewBox="0 0 606 134" fill="none" xmlns="http://www.w3.org/2000/svg">
<path d="M573.465 75.4741C573.465 81.0049 572.671 86.8129 569.458 91.487C567.284 94.4145 564.093 96.4232 560.513 97.1186C556.047 97.9456 551.476 98.0307 546.982 97.3706C543.897 97.0523 540.926 96.0262 538.302 94.3721C535.475 92.2683 533.449 89.2645 532.557 85.8554C531.64 82.8245 531.182 79.6737 531.196 76.5072C531.045 69.3638 530.856 61.7038 534.686 55.3793C537.395 50.8186 542.737 48.6894 547.801 48.1477C552.179 47.5496 556.626 47.6987 560.954 48.5886C563.601 49.2096 566.028 50.5427 567.972 52.4438C570.158 54.7074 571.683 57.5264 572.381 60.5951C573.447 65.4782 573.812 70.4882 573.465 75.4741ZM590.095 70.0315C590.059 64.9585 589.437 59.9066 588.243 54.9762C587.037 49.3738 584.303 44.2149 580.343 40.0719C577.475 37.3526 574.03 35.3156 570.265 34.1128C562.705 31.5931 554.705 31.8576 546.932 32.5632C540.444 33.2813 533.64 34.8939 528.702 39.442C528.513 38.1066 528.462 36.7711 528.324 35.4483C528.229 34.9676 527.958 34.5397 527.564 34.2484C527.17 33.9571 526.682 33.8234 526.195 33.8734C522.931 34.012 519.681 34.3774 516.405 34.453C514.957 34.5538 514.642 36.1916 514.629 37.3633C514.629 68.8094 514.629 100.247 514.629 131.677C514.588 131.919 514.601 132.167 514.667 132.403C514.734 132.639 514.852 132.858 515.014 133.042C515.176 133.227 515.377 133.373 515.602 133.47C515.828 133.568 516.072 133.613 516.317 133.604C520.706 133.881 525.107 133.881 529.495 133.604C530.629 133.529 530.957 132.344 530.944 131.362C530.944 123.135 530.944 114.895 530.944 106.681C533.456 108.786 536.41 110.298 539.587 111.103C545.095 112.46 550.761 113.062 556.431 112.892C563.575 112.829 571.046 111.506 576.992 107.298C581.742 103.93 585.277 99.1177 587.071 93.5784C589.448 85.9715 590.454 78.003 590.044 70.0441" fill="white"/>
<path d="M484.833 86.1958C483.848 89.8429 481.534 92.9891 478.345 95.0149C473.016 98.2023 466.578 98.1897 460.581 98.0259C457.028 97.8873 453.022 97.3204 450.502 94.4353C448.574 92.1171 448.663 88.9297 448.726 86.095C448.67 84.4747 449.037 82.8678 449.79 81.432C450.543 79.9963 451.657 78.7811 453.022 77.9059C455.631 76.4853 458.479 75.5585 461.425 75.172C469.503 74.1355 477.649 73.7144 485.791 73.9121C485.866 77.9941 486.03 82.1769 484.783 86.1202L484.833 86.1958ZM508.443 96.9676C506.654 95.859 504.248 97.0684 502.547 95.7078C501.552 94.1455 501.766 92.2179 501.728 90.4667C501.69 88.7155 501.627 87.3045 501.615 85.7171C501.615 76.5285 501.615 67.3441 501.615 58.1639C501.57 53.4797 500.718 48.8382 499.095 44.4439C498.244 42.238 496.954 40.2276 495.304 38.5342C493.654 36.8409 491.678 35.4997 489.495 34.5918C485.127 32.891 480.487 31.9947 475.8 31.9461C474.401 31.8305 472.995 31.7969 471.592 31.8453C471.453 31.8453 471.327 31.8453 471.189 31.8453H454.773C452.724 31.927 450.787 32.7983 449.366 34.2767C447.945 35.755 447.152 37.7258 447.152 39.7761C447.152 41.8265 447.945 43.7972 449.366 45.2756C450.787 46.754 452.724 47.6253 454.773 47.707H471.327C472.383 47.6839 473.438 47.7176 474.49 47.8078C477.602 47.959 480.978 48.5385 483.221 50.8944C485.463 53.2504 485.74 56.4882 485.892 59.4993C474.616 59.4993 463.214 59.6253 452.178 62.4852C446.886 63.934 441.532 66.2648 438.029 70.6995C434.25 75.2728 433.204 81.3705 432.99 87.0777C432.788 93.6038 433.985 100.735 438.697 105.585C443.736 110.625 451.056 112.149 457.885 112.59C465.444 112.867 473.066 112.451 480.247 110.07C483.502 108.927 486.466 107.082 488.928 104.665C489.879 106.843 491.504 108.658 493.564 109.843C497.747 111.796 502.484 111.557 506.982 111.292C507.889 111.292 509.098 110.877 509.098 109.793C509.186 106.177 509.098 102.561 509.098 98.9456C509.098 98.2527 509.098 97.396 508.481 96.9676" fill="white"/>
<path d="M433.532 31.6688H409.972C409.972 21.8293 409.972 11.9897 409.972 2.15016C409.972 1.23046 409.607 0.109188 408.549 0.0335964C404.24 -0.0419955 399.919 0.0335964 395.61 0.0335964C395.358 7.83533e-05 395.101 0.0240195 394.859 0.103649C394.618 0.183278 394.397 0.316535 394.214 0.493434C394.031 0.670333 393.89 0.886315 393.803 1.12521C393.715 1.36411 393.682 1.61973 393.707 1.87299C393.707 33.0336 393.707 64.19 393.707 95.3423C393.932 98.3201 394.791 101.215 396.227 103.834C398.201 106.947 401.279 109.197 404.845 110.133C408.355 111.131 411.993 111.603 415.642 111.532C419.421 111.532 423.302 111.532 427.144 111.532C427.403 111.558 427.665 111.53 427.912 111.448C428.16 111.366 428.387 111.232 428.578 111.056C428.77 110.88 428.922 110.665 429.025 110.425C429.127 110.186 429.177 109.927 429.173 109.667C429.173 105.887 429.173 102.183 429.173 98.4541C429.248 97.3833 428.139 96.766 427.207 96.7912C423.004 96.8976 418.798 96.7714 414.609 96.4132C412.467 96.0856 410.149 94.6242 409.972 92.2682C409.972 78.0821 409.972 63.9087 409.972 49.7226V47.4675H433.519C434.579 47.5099 435.636 47.3378 436.628 46.9615C437.619 46.5852 438.525 46.0125 439.289 45.2777C440.054 44.543 440.663 43.6613 441.078 42.6855C441.494 41.7098 441.708 40.6602 441.708 39.5996C441.708 38.5391 441.494 37.4894 441.078 36.5137C440.663 35.538 440.054 34.6563 439.289 33.9215C438.525 33.1867 437.619 32.614 436.628 32.2377C435.636 31.8615 434.579 31.6894 433.519 31.7318" fill="white"/>
<path d="M364.479 76.6585C364.214 81.698 363.42 86.9642 360.397 91.1344C358.047 94.1486 354.686 96.2115 350.935 96.9424C346.82 97.775 342.605 98 338.425 97.6101C333.902 97.1817 329.24 95.3171 326.557 91.4997C323.583 87.3422 322.702 82.1263 322.412 77.1499C322.06 72.3806 322.259 67.5868 323.004 62.863C323.508 58.9829 325.213 55.3575 327.88 52.4944C330.224 50.3273 333.164 48.914 336.321 48.4376C341.904 47.5647 347.607 47.8477 353.077 49.2691C354.895 49.749 356.597 50.5941 358.079 51.7529C359.56 52.9117 360.791 54.3599 361.694 56.0094C364.025 60.4063 364.453 65.4583 364.592 70.3466C364.705 72.4464 364.667 74.5516 364.479 76.6459V76.6585ZM389.033 98.8699C389.071 98.5156 388.988 98.1589 388.799 97.8573C388.609 97.5556 388.323 97.3265 387.988 97.2069C386.136 96.6652 384.057 97.2069 382.293 96.3376C381.429 95.3609 380.978 94.0874 381.033 92.7848V1.89823C381.056 1.64386 381.021 1.38765 380.932 1.14838C380.843 0.909102 380.701 0.692819 380.518 0.515294C380.334 0.337769 380.113 0.203511 379.871 0.122355C379.629 0.0411998 379.372 0.015188 379.118 0.0462283C374.797 0.0462283 370.476 0.0462283 366.142 0.0462283C365.083 0.12182 364.693 1.24309 364.743 2.16279C364.743 14.2827 364.743 26.4152 364.743 38.5477C362.035 36.3223 358.834 34.7759 355.408 34.0373C349.639 32.8098 343.735 32.3397 337.845 32.6389C332.388 32.6667 327 33.8654 322.046 36.1539C316.493 38.9341 312.121 43.6145 309.725 49.3447C307.261 55.2628 305.977 61.6054 305.945 68.0159C305.567 76.4695 305.882 85.1248 308.604 93.2131C310.204 98.3959 313.266 103.007 317.423 106.492C321.639 109.759 326.656 111.83 331.949 112.489C335.614 112.984 339.316 113.153 343.011 112.993C347.658 112.904 352.277 112.252 356.768 111.053C360.755 110.047 364.4 107.994 367.326 105.106C368.485 106.996 369.694 109.05 371.761 110.058C374.911 111.518 378.372 112.184 381.84 111.998C383.847 112.038 385.854 111.945 387.849 111.721C388.247 111.619 388.594 111.377 388.826 111.038C389.058 110.7 389.158 110.288 389.109 109.881C389.109 106.228 389.109 102.587 389.109 98.9329" fill="white"/>
<path d="M189.572 34.9066C189.572 33.8105 190.832 33.357 191.739 33.42C195.606 33.42 199.487 33.42 203.355 33.42C204.4 33.42 205.874 33.42 206.214 34.6799C212.06 51.8518 217.994 69.0111 223.853 86.2083C229.396 69.6159 234.7 52.9227 240.231 36.3177C240.621 35.2216 240.81 33.5838 242.259 33.42C245.308 33.2814 248.382 33.42 251.444 33.42C252.984 33.3163 254.531 33.4223 256.042 33.735C257.1 34.3271 257.138 35.6625 257.541 36.683C262.896 53.1495 268.326 69.5907 273.693 86.0445C274.181 85.0364 274.602 83.9968 274.953 82.9327C280.429 66.9324 285.939 50.9447 291.482 34.9696C291.575 34.5352 291.815 34.1463 292.162 33.8685C292.508 33.5907 292.94 33.4412 293.384 33.4452C297.479 33.3822 301.574 33.4452 305.681 33.4452C306.726 33.3696 308.037 34.0625 307.923 35.2594C307.555 36.8149 307.092 38.3464 306.537 39.8453C302.229 51.94 298.184 64.1355 293.775 76.2049C291.726 82.1683 289.655 88.1233 287.564 94.0698C286.052 98.0132 285.044 102.133 283.457 106.064C282.246 108.603 280.1 110.576 277.467 111.57C274.835 112.563 271.92 112.5 269.334 111.393C266.499 110.045 265 107.109 263.677 104.426C262.014 100.483 260.893 96.3376 259.519 92.2808C255.929 81.572 252.514 70.8631 248.722 60.1921C243.683 74.6553 239.034 89.2572 234.171 103.783C233.56 106.227 232.161 108.401 230.19 109.969C228.659 111.167 226.836 111.935 224.909 112.194C222.983 112.453 221.022 112.194 219.229 111.443C217.083 110.226 215.383 108.354 214.378 106.102C212.902 103.128 211.692 100.029 210.763 96.8415C203.972 77.4522 197.358 58.0125 190.605 38.6232C190.094 37.4555 189.799 36.2048 189.735 34.9318" fill="white"/>
<path d="M174.1 82.5673C173.13 87.3296 170.711 92.1045 166.415 94.662C161.174 97.7361 154.799 98.0636 148.891 97.4463C143.927 97.0179 138.812 94.9265 135.813 90.8572C132.286 86.0319 131.542 79.8586 131.379 74.0506C131.379 67.5497 131.719 60.5197 135.612 55.0141C138.131 51.3479 142.402 49.3951 146.635 48.4502C148.49 48.1272 150.373 47.9921 152.254 48.047C154.979 47.9008 157.711 48.0784 160.393 48.5761C163.574 49.2778 166.526 50.7731 168.973 52.9227C171.933 56.0281 173.814 60.0037 174.34 64.2615C175.288 70.3336 175.207 76.522 174.1 82.5673ZM189.597 55.455C188.404 50.0976 185.722 45.1865 181.859 41.2878C177.996 37.389 173.11 34.6616 167.763 33.42C160.624 31.7026 153.24 31.2422 145.943 32.0594C141.052 32.5427 136.283 33.8683 131.845 35.9775C126.935 38.4324 122.879 42.3089 120.204 47.1021C117.921 51.3759 116.399 56.0141 115.706 60.8094C114.597 68.3262 114.572 75.963 115.63 83.487C116.563 89.4335 118.314 95.4179 121.93 100.331C125.642 105.408 130.932 109.112 136.972 110.864C144.711 113.084 152.821 113.71 160.809 112.703C167.108 111.897 173.546 110.183 178.737 106.29C183.76 102.479 187.376 97.1087 189.017 91.021C190.235 86.943 191 82.7433 191.298 78.4979C192.012 70.7744 191.428 62.9859 189.572 55.455" fill="white"/>
<path d="M98.7481 35.1585C103.003 33.8881 107.423 33.2555 111.863 33.2813C113.01 33.2813 113.614 34.4026 113.602 35.4231C113.665 39.2783 113.602 43.1461 113.602 47.0012C113.665 47.9587 113.337 49.1556 112.254 49.3572C109.734 49.8485 107.214 49.7478 104.695 50.2517C101.007 50.8787 97.5955 52.6044 94.9055 55.203C92.5247 57.7948 90.9794 61.0435 90.4708 64.5259C89.9814 68.1492 89.8128 71.8086 89.9669 75.4615C89.9669 86.6491 89.9669 97.8451 89.9669 109.05C90.0247 109.444 89.9823 109.848 89.8436 110.222C89.7049 110.596 89.4743 110.929 89.1731 111.191C88.154 111.543 87.0722 111.676 85.9983 111.582C82.4203 111.582 78.8423 111.683 75.2768 111.494C75.023 111.466 74.7773 111.387 74.554 111.263C74.3306 111.14 74.1341 110.973 73.9759 110.772C73.8176 110.572 73.7008 110.342 73.6322 110.096C73.5635 109.85 73.5444 109.593 73.576 109.339C73.576 85.2759 73.576 61.2083 73.576 37.1365C73.5334 36.8748 73.545 36.607 73.6099 36.3499C73.6748 36.0928 73.7918 35.8517 73.9535 35.6415C74.1153 35.4314 74.3184 35.2566 74.5503 35.128C74.7823 34.9995 75.0381 34.9198 75.302 34.894C78.4034 34.5136 81.5256 34.3285 84.6502 34.3396C85.5195 34.3396 86.6786 34.4152 87.0188 35.3727C87.4208 37.1805 87.7153 39.0105 87.9007 40.8531C90.9957 38.1444 94.6796 36.1946 98.6599 35.1585" fill="white"/>
<path d="M33.8147 32.3492C36.4982 32.3492 39.1818 32.2358 41.8653 32.3492C50.004 32.8279 58.2435 35.5366 64.3916 40.9666C65.6149 41.9584 66.6553 43.1566 67.4657 44.5069C67.8563 45.3636 67.2137 46.1951 66.6216 46.7494C63.5853 49.5085 60.7884 52.5322 57.6136 55.1149C57.223 55.3804 56.7468 55.4889 56.2798 55.4189C55.8128 55.3488 55.3893 55.1054 55.0938 54.737C51.1455 50.7203 45.8172 48.3557 40.1896 48.1227C37.1002 47.9367 33.9996 48.1569 30.9675 48.7778C27.3292 49.5168 24.0075 51.3602 21.4555 54.0566C18.9783 57.1691 17.4244 60.9143 16.9704 64.8662C16.2841 69.7393 16.2206 74.6798 16.7814 79.5689C17.0173 83.8888 18.4575 88.0565 20.9389 91.6005C23.4015 94.5473 26.7901 96.5724 30.5517 97.3455C36.2463 98.429 42.3566 98.681 47.8244 96.4258C50.7685 95.1145 53.4892 93.3503 55.8876 91.1974C56.1919 90.8637 56.6098 90.6556 57.0595 90.6136C57.5091 90.5717 57.9583 90.699 58.3191 90.9706C61.0152 93.2762 63.5097 95.7959 66.0421 98.2652C66.7303 98.7978 67.2472 99.5206 67.5287 100.344C67.5111 100.665 67.4283 100.979 67.2854 101.267C67.1424 101.555 66.9423 101.811 66.6972 102.02C62.8811 105.743 58.3386 108.641 53.353 110.531C48.3675 112.421 43.0459 113.263 37.7203 113.006C29.1658 113.069 20.1956 111.544 13.0144 106.631C8.94433 103.695 5.75159 99.7051 3.77959 95.0904C0.755918 87.947 0 80.098 0 72.4128C0 64.4253 0.919696 56.2236 4.43472 48.9668C7.43792 42.7437 12.7138 37.9098 19.1751 35.461C23.8487 33.6707 28.7779 32.6373 33.7769 32.3996" fill="white"/>
<path d="M595.437 29.5775V31.694C595.432 31.7198 595.434 31.7463 595.442 31.7713C595.45 31.7962 595.464 31.8189 595.482 31.8374C595.501 31.8559 595.524 31.8697 595.548 31.8776C595.573 31.8856 595.6 31.8874 595.626 31.883H596.709C597.043 31.883 597.364 31.7503 597.6 31.514C597.836 31.2778 597.969 30.9573 597.969 30.6232C597.982 30.4516 597.959 30.2793 597.903 30.1168C597.847 29.9543 597.758 29.8051 597.642 29.6783C597.398 29.4562 597.077 29.3386 596.747 29.3507H595.664C595.638 29.3463 595.611 29.3482 595.586 29.3561C595.561 29.364 595.539 29.3779 595.52 29.3964C595.502 29.4149 595.488 29.4375 595.48 29.4624C595.472 29.4874 595.47 29.5139 595.475 29.5397L595.437 29.5775ZM599.09 31.9082C598.889 32.2897 598.552 32.5819 598.145 32.7271C598.103 32.7606 598.072 32.8063 598.056 32.8581C598.04 32.91 598.04 32.9654 598.057 33.0169L599.317 35.9272V36.1162C599.317 36.3682 599.166 36.4815 598.889 36.4815H598.284C598.169 36.4888 598.055 36.4565 597.961 36.39C597.867 36.3235 597.799 36.2269 597.767 36.1162L596.508 33.1051C596.494 33.0652 596.469 33.0304 596.435 33.0055C596.401 32.9807 596.361 32.967 596.319 32.9665H595.613C595.587 32.9621 595.561 32.964 595.536 32.9719C595.511 32.9798 595.488 32.9937 595.47 33.0122C595.451 33.0307 595.437 33.0533 595.43 33.0783C595.422 33.1032 595.42 33.1297 595.424 33.1555V36.0154C595.435 36.079 595.431 36.1445 595.411 36.2061C595.392 36.2677 595.358 36.3237 595.312 36.3694C595.266 36.4151 595.21 36.4491 595.149 36.4686C595.087 36.4882 595.022 36.4926 594.958 36.4815H594.441C594.378 36.4926 594.312 36.4882 594.251 36.4686C594.189 36.4491 594.133 36.4151 594.087 36.3694C594.042 36.3237 594.008 36.2677 593.988 36.2061C593.969 36.1445 593.964 36.079 593.975 36.0154V28.557C593.964 28.4933 593.969 28.4279 593.988 28.3663C594.008 28.3047 594.042 28.2487 594.087 28.203C594.133 28.1573 594.189 28.1233 594.251 28.1037C594.312 28.0842 594.378 28.0798 594.441 28.0909H596.886C597.219 28.075 597.551 28.1297 597.862 28.2513C598.172 28.3728 598.453 28.5586 598.687 28.7964C598.914 29.032 599.09 29.3105 599.207 29.6157C599.324 29.9208 599.379 30.2462 599.368 30.5728C599.374 31.0386 599.262 31.4985 599.04 31.9082H599.09ZM600.136 38.6989C601.266 38.047 602.208 37.1138 602.87 35.9902C603.543 34.8451 603.891 33.5386 603.878 32.2106C603.884 30.9073 603.536 29.6269 602.87 28.5066C602.202 27.3968 601.261 26.4771 600.136 25.8357C598.981 25.189 597.68 24.8495 596.356 24.8495C595.033 24.8495 593.732 25.189 592.577 25.8357C591.453 26.4771 590.519 27.4051 589.871 28.5249C589.222 29.6448 588.882 30.9165 588.885 32.2106C588.868 33.5375 589.212 34.8441 589.881 35.9902C590.52 37.1185 591.452 38.0541 592.577 38.6989C593.732 39.3455 595.033 39.6851 596.356 39.6851C597.68 39.6851 598.981 39.3455 600.136 38.6989ZM601.005 24.3364C602.395 25.1254 603.554 26.2632 604.369 27.6373C605.199 29.018 605.635 30.5997 605.629 32.2106C605.628 33.8445 605.194 35.4488 604.369 36.8595C603.563 38.2543 602.397 39.4072 600.993 40.1981C599.572 40.9996 597.969 41.4207 596.338 41.4207C594.706 41.4207 593.103 40.9996 591.682 40.1981C590.293 39.4009 589.141 38.2487 588.344 36.8595C587.519 35.4488 587.085 33.8445 587.084 32.2106C587.108 30.6006 587.553 29.0249 588.373 27.6395C589.194 26.254 590.362 25.1068 591.762 24.3113C593.162 23.5159 594.745 23.0998 596.355 23.1042C597.966 23.1086 599.547 23.5334 600.942 24.3364" fill="white"/>
</svg>
