<svg width="85" height="84" viewBox="0 0 85 84" fill="currentColor" xmlns="http://www.w3.org/2000/svg">
<g clip-path="url(#clip0_1973_8859)">
<path fill-rule="evenodd" clip-rule="evenodd" d="M50.2551 0.00012207C48.486 0.00012207 47.0486 1.43751 47.0486 3.2066V34.7185C47.0486 36.4876 48.486 37.925 50.2551 37.925H81.7671C83.5361 37.925 84.9735 36.4876 84.9735 34.7185V3.2066C84.9735 1.43751 83.5361 0.00012207 81.7671 0.00012207H50.2551ZM50.2551 45.7753C48.486 45.7753 47.0486 47.2127 47.0486 48.9818V80.4938C47.0486 82.2628 48.486 83.7002 50.2551 83.7002H81.7671C83.5361 83.7002 84.9735 82.2628 84.9735 80.4938V48.9818C84.9735 47.2127 83.5361 45.7753 81.7671 45.7753H50.2551ZM0.720581 48.9818C0.720581 47.2127 2.15797 45.7753 3.92706 45.7753H35.439C37.2081 45.7753 38.6455 47.2127 38.6455 48.9818V80.4938C38.6455 82.2628 37.2081 83.7002 35.439 83.7002H3.92706C2.15797 83.7002 0.720581 82.2628 0.720581 80.4938V48.9818ZM0.720581 3.2066C0.720581 1.43751 2.15797 0.00012207 3.92706 0.00012207H35.439C37.2081 0.00012207 38.6455 1.43751 38.6455 3.2066V34.7185C38.6455 36.4876 37.2081 37.925 35.439 37.925H3.92706C2.15797 37.925 0.720581 36.4876 0.720581 34.7185V3.2066ZM16.9741 28.4161L10.1189 21.5609C9.23433 20.6764 9.23433 19.3496 10.1189 18.465C11.0034 17.5805 12.3302 17.5805 13.2148 18.465L16.9741 22.2243L27.2569 12.0521C28.1415 11.1675 29.4683 11.1675 30.3528 12.0521C31.2374 12.9366 31.2374 14.2634 30.3528 15.148L16.9741 28.4161Z" fill="white"/>
</g>
<defs>
<clipPath id="clip0_1973_8859">
<rect width="84.2529" height="83.7001" fill="white" transform="translate(0.720581 0.00012207)"/>
</clipPath>
</defs>
</svg>
