<svg width="201" height="45" viewBox="0 0 201 45" fill="none" xmlns="http://www.w3.org/2000/svg">
<path d="M189.565 25.5468C189.565 27.3733 189.303 29.2913 188.242 30.8348C187.524 31.8016 186.47 32.4649 185.288 32.6946C183.813 32.9677 182.303 32.9958 180.819 32.7778C179.8 32.6727 178.819 32.3338 177.953 31.7876C177.019 31.0929 176.35 30.1009 176.056 28.9751C175.753 27.9742 175.602 26.9337 175.606 25.888C175.556 23.529 175.494 20.9994 176.759 18.9108C177.653 17.4047 179.417 16.7016 181.09 16.5227C182.536 16.3252 184.004 16.3744 185.433 16.6683C186.308 16.8734 187.109 17.3136 187.751 17.9414C188.473 18.6889 188.977 19.6199 189.207 20.6333C189.559 22.2458 189.679 23.9003 189.565 25.5468ZM195.057 23.7495C195.045 22.0742 194.84 20.4059 194.445 18.7777C194.047 16.9276 193.144 15.2239 191.836 13.8558C190.889 12.9578 189.751 12.2851 188.508 11.8879C186.012 11.0558 183.37 11.1431 180.803 11.3761C178.66 11.6133 176.413 12.1458 174.783 13.6478C174.72 13.2068 174.703 12.7657 174.658 12.3289C174.626 12.1702 174.537 12.0289 174.407 11.9326C174.277 11.8364 174.116 11.7923 173.955 11.8088C172.877 11.8546 171.804 11.9752 170.722 12.0002C170.243 12.0335 170.139 12.5744 170.135 12.9613C170.135 23.3459 170.135 33.7278 170.135 44.1069C170.122 44.1868 170.126 44.2687 170.148 44.3468C170.17 44.4248 170.209 44.4969 170.262 44.5579C170.316 44.6189 170.382 44.6672 170.457 44.6993C170.531 44.7314 170.612 44.7465 170.693 44.7434C172.142 44.8349 173.595 44.8349 175.045 44.7434C175.419 44.7185 175.527 44.3274 175.523 44.0029C175.523 41.286 175.523 38.5651 175.523 35.8524C176.353 36.5476 177.328 37.0467 178.377 37.3128C180.196 37.7607 182.067 37.9595 183.94 37.9036C186.299 37.8828 188.766 37.4459 190.73 36.0563C192.298 34.9438 193.466 33.3548 194.058 31.5255C194.843 29.0134 195.175 26.382 195.04 23.7537" fill="white"/>
<path d="M160.295 29.0876C159.97 30.292 159.206 31.3309 158.153 31.9999C156.393 33.0525 154.267 33.0484 152.286 32.9943C151.113 32.9485 149.79 32.7613 148.958 31.8085C148.321 31.043 148.351 29.9904 148.371 29.0543C148.353 28.5192 148.474 27.9885 148.723 27.5144C148.972 27.0403 149.339 26.639 149.79 26.35C150.652 25.8808 151.593 25.5748 152.565 25.4471C155.233 25.1049 157.923 24.9658 160.612 25.0311C160.637 26.3791 160.691 27.7604 160.279 29.0626L160.295 29.0876ZM168.092 32.6448C167.501 32.2787 166.707 32.6781 166.145 32.2288C165.816 31.7129 165.887 31.0763 165.875 30.498C165.862 29.9197 165.841 29.4537 165.837 28.9295C165.837 25.8951 165.837 22.8621 165.837 19.8304C165.823 18.2836 165.541 16.7508 165.005 15.2996C164.724 14.5712 164.298 13.9073 163.753 13.3481C163.208 12.7888 162.556 12.3459 161.835 12.0461C160.392 11.4845 158.86 11.1885 157.312 11.1724C156.85 11.1343 156.386 11.1231 155.923 11.1391C155.877 11.1391 155.835 11.1391 155.79 11.1391H150.368C149.692 11.1661 149.052 11.4538 148.583 11.9421C148.114 12.4303 147.852 13.0811 147.852 13.7582C147.852 14.4353 148.114 15.0861 148.583 15.5743C149.052 16.0625 149.692 16.3502 150.368 16.3772H155.835C156.184 16.3696 156.532 16.3807 156.88 16.4105C157.907 16.4604 159.022 16.6518 159.763 17.4298C160.503 18.2078 160.595 19.2771 160.645 20.2715C156.921 20.2715 153.156 20.3131 149.511 21.2575C147.764 21.736 145.996 22.5056 144.839 23.9701C143.591 25.4804 143.246 27.4941 143.175 29.3788C143.108 31.534 143.504 33.8888 145.06 35.4906C146.724 37.1548 149.141 37.6582 151.396 37.8038C153.892 37.8954 156.41 37.7581 158.781 36.9717C159.856 36.5942 160.835 35.9849 161.648 35.1869C161.962 35.9061 162.498 36.5055 163.179 36.8969C164.56 37.5417 166.124 37.4627 167.61 37.3753C167.909 37.3753 168.309 37.238 168.309 36.8802C168.338 35.6861 168.309 34.4921 168.309 33.298C168.309 33.0692 168.309 32.7863 168.105 32.6448" fill="white"/>
<path d="M143.354 11.0808H135.574C135.574 7.83141 135.574 4.58204 135.574 1.33268C135.574 1.02896 135.453 0.658677 135.104 0.633714C133.681 0.608751 132.254 0.633714 130.831 0.633714C130.748 0.622646 130.663 0.630552 130.583 0.656848C130.503 0.683144 130.43 0.727151 130.37 0.785569C130.31 0.843987 130.263 0.915312 130.234 0.994204C130.205 1.0731 130.195 1.15751 130.203 1.24115C130.203 11.5315 130.203 21.8204 130.203 32.108C130.277 33.0914 130.561 34.0475 131.035 34.9122C131.687 35.9402 132.703 36.6834 133.881 36.9924C135.04 37.3221 136.241 37.4777 137.446 37.4542C138.694 37.4542 139.976 37.4542 141.245 37.4542C141.33 37.4631 141.417 37.4537 141.498 37.4266C141.58 37.3995 141.655 37.3554 141.718 37.2972C141.782 37.239 141.832 37.168 141.866 37.0889C141.9 37.0099 141.916 36.9245 141.915 36.8385C141.915 35.5903 141.915 34.3671 141.915 33.1356C141.94 32.782 141.573 32.5781 141.266 32.5865C139.877 32.6216 138.489 32.5799 137.105 32.4616C136.398 32.3535 135.632 31.8708 135.574 31.0928C135.574 26.4081 135.574 21.7275 135.574 17.0428V16.298H143.35C143.7 16.312 144.049 16.2552 144.377 16.131C144.704 16.0067 145.003 15.8176 145.256 15.5749C145.508 15.3323 145.709 15.0411 145.846 14.7189C145.984 14.3967 146.054 14.05 146.054 13.6998C146.054 13.3496 145.984 13.0029 145.846 12.6807C145.709 12.3585 145.508 12.0673 145.256 11.8247C145.003 11.582 144.704 11.3929 144.377 11.2687C144.049 11.1444 143.7 11.0876 143.35 11.1016" fill="white"/>
<path d="M120.55 25.9379C120.463 27.6021 120.201 29.3412 119.202 30.7184C118.426 31.7138 117.316 32.395 116.078 32.6364C114.719 32.9114 113.327 32.9856 111.946 32.8569C110.453 32.7154 108.913 32.0997 108.027 30.839C107.045 29.4661 106.754 27.7436 106.658 26.1002C106.542 24.5252 106.608 22.9421 106.854 21.3822C107.02 20.1008 107.583 18.9036 108.464 17.9581C109.238 17.2424 110.209 16.7757 111.251 16.6184C113.095 16.3301 114.979 16.4236 116.785 16.893C117.385 17.0515 117.947 17.3305 118.437 17.7132C118.926 18.0959 119.332 18.5741 119.631 19.1189C120.4 20.5709 120.542 22.2392 120.588 23.8535C120.625 24.5469 120.612 25.2421 120.55 25.9338V25.9379ZM128.659 33.2729C128.671 33.1559 128.644 33.0381 128.581 32.9385C128.519 32.8389 128.424 32.7632 128.314 32.7237C127.702 32.5448 127.016 32.7237 126.433 32.4367C126.148 32.1141 125.999 31.6936 126.017 31.2634V1.24946C126.024 1.16546 126.013 1.08085 125.984 1.00183C125.954 0.922814 125.907 0.851389 125.847 0.792764C125.786 0.734139 125.713 0.689803 125.633 0.663002C125.553 0.636202 125.468 0.627612 125.385 0.637863C123.958 0.637863 122.531 0.637863 121.099 0.637863C120.75 0.662826 120.621 1.03311 120.638 1.33683C120.638 5.33924 120.638 9.34581 120.638 13.3524C119.743 12.6175 118.686 12.1068 117.555 11.8629C115.65 11.4575 113.7 11.3023 111.755 11.4011C109.953 11.4103 108.174 11.8061 106.538 12.5619C104.703 13.48 103.26 15.0256 102.469 16.9179C101.655 18.8723 101.231 20.9668 101.22 23.0838C101.096 25.8755 101.2 28.7338 102.098 31.4048C102.627 33.1164 103.638 34.639 105.011 35.79C106.403 36.8688 108.06 37.5529 109.808 37.7704C111.018 37.934 112.24 37.9897 113.461 37.9369C114.995 37.9073 116.521 37.6922 118.004 37.2961C119.32 36.9641 120.524 36.2861 121.49 35.3324C121.873 35.9564 122.273 36.6346 122.955 36.9675C123.995 37.4497 125.138 37.6697 126.283 37.6082C126.946 37.6214 127.609 37.5908 128.268 37.5166C128.399 37.4832 128.514 37.4032 128.59 37.2914C128.667 37.1796 128.7 37.0437 128.684 36.9092C128.684 35.7027 128.684 34.5003 128.684 33.2937" fill="white"/>
<path d="M62.7898 12.15C62.7898 11.788 63.2058 11.6382 63.5054 11.659C64.7827 11.659 66.0641 11.659 67.3414 11.659C67.6867 11.659 68.1735 11.659 68.2858 12.0751C70.2163 17.7459 72.1759 23.4125 74.1105 29.0916C75.9412 23.6122 77.6927 18.0995 79.5192 12.616C79.6482 12.254 79.7106 11.7131 80.1891 11.659C81.1959 11.6133 82.2111 11.659 83.2221 11.659C83.7306 11.6248 84.2415 11.6598 84.7407 11.7631C85.0901 11.9586 85.1026 12.3996 85.2358 12.7366C87.004 18.1744 88.7971 23.6039 90.5695 29.0375C90.7309 28.7046 90.8699 28.3613 90.9856 28.0099C92.794 22.726 94.6135 17.4463 96.4442 12.1708C96.4748 12.0273 96.5541 11.8989 96.6686 11.8072C96.7831 11.7154 96.9257 11.666 97.0724 11.6674C98.4246 11.6466 99.7767 11.6674 101.133 11.6674C101.478 11.6424 101.911 11.8712 101.874 12.2665C101.752 12.7801 101.599 13.2859 101.416 13.7809C99.9931 17.775 98.6576 21.8024 97.2014 25.7881C96.5246 27.7574 95.8409 29.724 95.1503 31.6877C94.651 32.99 94.3181 34.3505 93.7939 35.6486C93.394 36.4872 92.6853 37.1387 91.816 37.4668C90.9467 37.7948 89.9842 37.7739 89.13 37.4085C88.1939 36.9633 87.6988 35.9939 87.2619 35.1077C86.7127 33.8055 86.3424 32.4366 85.889 31.097C84.7032 27.5605 83.5757 24.0241 82.3234 20.5001C80.6592 25.2764 79.124 30.0984 77.518 34.8955C77.3163 35.7025 76.8542 36.4205 76.2033 36.9383C75.6977 37.3338 75.0957 37.5874 74.4595 37.673C73.8233 37.7586 73.1758 37.673 72.5836 37.4251C71.8751 37.0232 71.3138 36.405 70.9818 35.661C70.4943 34.679 70.0947 33.6556 69.7878 32.6031C67.5453 26.2 65.361 19.7804 63.131 13.3773C62.9623 12.9917 62.865 12.5787 62.8439 12.1583" fill="white"/>
<path d="M57.6808 27.8893C57.3605 29.462 56.5616 31.0388 55.1429 31.8834C53.4121 32.8985 51.3069 33.0067 49.3556 32.8029C47.7164 32.6614 46.0272 31.9707 45.037 30.6269C43.8721 29.0334 43.6266 26.9948 43.5725 25.0768C43.5725 22.93 43.6849 20.6084 44.9704 18.7903C45.8026 17.5795 47.213 16.9347 48.6109 16.6226C49.2234 16.516 49.8451 16.4714 50.4665 16.4895C51.3661 16.4412 52.2683 16.4999 53.1542 16.6642C54.2046 16.8959 55.1793 17.3897 55.9875 18.0996C56.9649 19.1251 57.5864 20.438 57.7599 21.8441C58.0728 23.8493 58.0461 25.8929 57.6808 27.8893ZM62.7982 18.9359C62.4045 17.1667 61.5186 15.5448 60.2429 14.2573C58.9672 12.9698 57.3536 12.0691 55.5881 11.6591C53.2304 11.092 50.7919 10.9399 48.3821 11.2098C46.7672 11.3694 45.1921 11.8072 43.7265 12.5037C42.1051 13.3144 40.7655 14.5946 39.8821 16.1774C39.1283 17.5888 38.6257 19.1205 38.3968 20.7041C38.0307 23.1864 38.0223 25.7083 38.3719 28.193C38.6798 30.1568 39.2581 32.133 40.4521 33.7556C41.6782 35.432 43.4251 36.6551 45.4198 37.2338C47.9755 37.9671 50.6535 38.1737 53.2915 37.8412C55.3717 37.575 57.4977 37.0091 59.2119 35.7235C60.8706 34.4649 62.0647 32.6914 62.6069 30.681C63.009 29.3343 63.2615 27.9474 63.3599 26.5454C63.5958 23.9949 63.4031 21.4228 62.7899 18.9359" fill="white"/>
<path d="M32.7969 12.2333C34.202 11.8137 35.6615 11.6048 37.1279 11.6133C37.5065 11.6133 37.7063 11.9836 37.7021 12.3206C37.7229 13.5937 37.7021 14.871 37.7021 16.1441C37.7229 16.4603 37.6147 16.8556 37.2569 16.9222C36.4248 17.0844 35.5927 17.0511 34.7606 17.2176C33.543 17.4246 32.4162 17.9945 31.5279 18.8526C30.7417 19.7086 30.2313 20.7814 30.0634 21.9314C29.9018 23.1279 29.8461 24.3364 29.897 25.5427C29.897 29.2373 29.897 32.9346 29.897 36.6347C29.9161 36.7651 29.9021 36.8982 29.8563 37.0218C29.8105 37.1454 29.7343 37.2555 29.6349 37.342C29.2983 37.458 28.9411 37.5019 28.5864 37.4709C27.4048 37.4709 26.2232 37.5042 25.0458 37.4418C24.962 37.4325 24.8808 37.4067 24.8071 37.3658C24.7333 37.3249 24.6685 37.2697 24.6162 37.2035C24.5639 37.1374 24.5254 37.0614 24.5027 36.9802C24.48 36.899 24.4737 36.814 24.4841 36.7304C24.4841 28.7838 24.4841 20.8358 24.4841 12.8865C24.4701 12.8 24.4739 12.7116 24.4953 12.6267C24.5168 12.5418 24.5554 12.4622 24.6088 12.3928C24.6622 12.3234 24.7293 12.2657 24.8059 12.2232C24.8825 12.1807 24.967 12.1544 25.0541 12.1459C26.0783 12.0203 27.1094 11.9592 28.1412 11.9628C28.4283 11.9628 28.8111 11.9878 28.9234 12.304C29.0562 12.901 29.1534 13.5053 29.2147 14.1138C30.2367 13.2193 31.4533 12.5754 32.7677 12.2333" fill="white"/>
<path d="M11.3535 11.3055C12.2396 11.3055 13.1258 11.2681 14.012 11.3055C16.6997 11.4636 19.4207 12.3581 21.451 14.1513C21.855 14.4788 22.1985 14.8745 22.4662 15.3204C22.5952 15.6033 22.383 15.8779 22.1874 16.061C21.1847 16.9721 20.2611 17.9707 19.2127 18.8236C19.0837 18.9112 18.9264 18.9471 18.7722 18.924C18.618 18.9008 18.4781 18.8204 18.3806 18.6988C17.0767 17.3723 15.3171 16.5914 13.4587 16.5145C12.4384 16.4531 11.4145 16.5258 10.4132 16.7308C9.2117 16.9749 8.11475 17.5836 7.272 18.4741C6.45395 19.5019 5.94078 20.7387 5.79086 22.0438C5.56422 23.653 5.54324 25.2846 5.72844 26.8991C5.80636 28.3257 6.28195 29.702 7.10141 30.8724C7.91464 31.8455 9.03366 32.5143 10.2759 32.7696C12.1564 33.1274 14.1743 33.2106 15.9799 32.4659C16.9522 32.0328 17.8506 31.4503 18.6427 30.7393C18.7432 30.6291 18.8812 30.5603 19.0297 30.5465C19.1782 30.5326 19.3265 30.5747 19.4457 30.6644C20.336 31.4258 21.1598 32.2579 21.996 33.0733C22.2233 33.2492 22.394 33.4879 22.487 33.7598C22.4812 33.8659 22.4538 33.9696 22.4066 34.0647C22.3594 34.1599 22.2933 34.2444 22.2124 34.3132C20.9522 35.5429 19.4521 36.4997 17.8057 37.1239C16.1593 37.7481 14.4019 38.0263 12.6432 37.9411C9.81823 37.9619 6.85595 37.4585 4.48446 35.8359C3.14038 34.8664 2.08602 33.5488 1.4348 32.0249C0.436276 29.6659 0.186646 27.0739 0.186646 24.536C0.186646 21.8982 0.490361 19.1897 1.65114 16.7932C2.64291 14.7382 4.38519 13.1418 6.51894 12.3332C8.06232 11.742 9.6901 11.4007 11.341 11.3222" fill="white"/>
<path d="M196.821 10.3902V11.0892C196.819 11.0977 196.82 11.1064 196.823 11.1147C196.825 11.1229 196.83 11.1304 196.836 11.1365C196.842 11.1426 196.849 11.1472 196.858 11.1498C196.866 11.1524 196.875 11.153 196.883 11.1516H197.241C197.351 11.1516 197.457 11.1077 197.535 11.0297C197.613 10.9517 197.657 10.8459 197.657 10.7355C197.661 10.6789 197.654 10.622 197.635 10.5683C197.617 10.5146 197.587 10.4653 197.549 10.4235C197.468 10.3501 197.362 10.3113 197.253 10.3153H196.896C196.887 10.3139 196.878 10.3145 196.87 10.3171C196.862 10.3197 196.854 10.3243 196.848 10.3304C196.842 10.3365 196.838 10.344 196.835 10.3522C196.832 10.3604 196.832 10.3692 196.833 10.3777L196.821 10.3902ZM198.027 11.1599C197.961 11.2859 197.849 11.3823 197.715 11.4303C197.701 11.4414 197.691 11.4565 197.686 11.4736C197.68 11.4907 197.681 11.509 197.686 11.526L198.102 12.4871V12.5495C198.102 12.6327 198.052 12.6701 197.961 12.6701H197.761C197.723 12.6725 197.686 12.6619 197.654 12.6399C197.623 12.618 197.601 12.5861 197.59 12.5495L197.174 11.5551C197.17 11.5419 197.162 11.5305 197.151 11.5222C197.139 11.514 197.126 11.5095 197.112 11.5094H196.879C196.871 11.5079 196.862 11.5085 196.854 11.5111C196.845 11.5138 196.838 11.5183 196.832 11.5244C196.826 11.5306 196.821 11.538 196.818 11.5463C196.816 11.5545 196.815 11.5633 196.817 11.5718V12.5162C196.82 12.5372 196.819 12.5588 196.812 12.5792C196.806 12.5995 196.795 12.618 196.78 12.6331C196.764 12.6482 196.746 12.6594 196.726 12.6659C196.705 12.6723 196.684 12.6738 196.663 12.6701H196.492C196.471 12.6738 196.449 12.6723 196.429 12.6659C196.409 12.6594 196.39 12.6482 196.375 12.6331C196.36 12.618 196.349 12.5995 196.342 12.5792C196.336 12.5588 196.335 12.5372 196.338 12.5162V10.0532C196.335 10.0322 196.336 10.0106 196.342 9.99022C196.349 9.96987 196.36 9.95137 196.375 9.93628C196.39 9.92119 196.409 9.90995 196.429 9.90351C196.449 9.89706 196.471 9.89561 196.492 9.89926H197.299C197.409 9.89403 197.519 9.91208 197.622 9.95223C197.724 9.99238 197.817 10.0537 197.894 10.1322C197.969 10.21 198.027 10.302 198.066 10.4028C198.105 10.5036 198.123 10.611 198.119 10.7189C198.121 10.8727 198.084 11.0246 198.011 11.1599H198.027ZM198.373 13.4024C198.746 13.1871 199.057 12.879 199.275 12.5079C199.498 12.1297 199.613 11.6983 199.608 11.2597C199.61 10.8294 199.495 10.4065 199.275 10.0365C199.055 9.67005 198.744 9.36634 198.373 9.15452C197.991 8.94097 197.562 8.82883 197.125 8.82883C196.687 8.82883 196.258 8.94097 195.876 9.15452C195.505 9.36635 195.197 9.67279 194.983 10.0426C194.769 10.4124 194.656 10.8324 194.657 11.2597C194.652 11.6979 194.765 12.1294 194.986 12.5079C195.197 12.8805 195.505 13.1895 195.876 13.4024C196.258 13.6159 196.687 13.7281 197.125 13.7281C197.562 13.7281 197.991 13.6159 198.373 13.4024ZM198.66 8.65942C199.119 8.91996 199.501 9.29568 199.771 9.74947C200.045 10.2054 200.188 10.7278 200.187 11.2597C200.186 11.7993 200.043 12.3291 199.771 12.795C199.504 13.2556 199.119 13.6363 198.656 13.8975C198.186 14.1622 197.657 14.3012 197.118 14.3012C196.58 14.3012 196.05 14.1622 195.581 13.8975C195.122 13.6342 194.742 13.2537 194.478 12.795C194.206 12.3291 194.063 11.7993 194.062 11.2597C194.07 10.7281 194.217 10.2077 194.488 9.75019C194.759 9.29267 195.145 8.91381 195.607 8.65113C196.07 8.38844 196.592 8.25103 197.124 8.25248C197.656 8.25394 198.178 8.39421 198.639 8.65942" fill="white"/>
</svg>
