<svg width="374" height="70" viewBox="0 0 374 70" fill="currentColor" xmlns="http://www.w3.org/2000/svg">
<path d="M354.415 39.7065C354.415 42.562 354.005 45.5606 352.347 47.9738C351.224 49.4853 349.577 50.5223 347.729 50.8814C345.423 51.3083 343.063 51.3523 340.743 51.0115C339.15 50.8471 337.616 50.3174 336.261 49.4634C334.802 48.3772 333.755 46.8264 333.295 45.0663C332.822 43.5014 332.585 41.8747 332.592 40.2399C332.514 36.5518 332.417 32.597 334.394 29.3317C335.793 26.977 338.551 25.8778 341.166 25.5981C343.426 25.2893 345.722 25.3663 347.956 25.8258C349.323 26.1463 350.576 26.8346 351.579 27.8161C352.708 28.9848 353.495 30.4402 353.856 32.0246C354.406 34.5457 354.595 37.1323 354.415 39.7065ZM363.001 36.8965C362.983 34.2774 362.662 31.6691 362.045 29.1236C361.423 26.2311 360.011 23.5676 357.967 21.4286C356.486 20.0247 354.707 18.973 352.763 18.352C348.86 17.0511 344.73 17.1877 340.717 17.5519C337.367 17.9227 333.854 18.7553 331.305 21.1034C331.207 20.4139 331.181 19.7245 331.109 19.0415C331.06 18.7933 330.921 18.5724 330.717 18.422C330.514 18.2716 330.262 18.2026 330.01 18.2284C328.325 18.3 326.647 18.4886 324.956 18.5276C324.208 18.5797 324.045 19.4252 324.039 20.0302C324.039 36.2656 324.039 52.4967 324.039 68.7234C324.018 68.8483 324.024 68.9765 324.059 69.0985C324.093 69.2204 324.154 69.3332 324.238 69.4285C324.321 69.5239 324.425 69.5994 324.541 69.6496C324.658 69.6997 324.784 69.7234 324.911 69.7186C327.176 69.8617 329.449 69.8617 331.714 69.7186C332.3 69.6796 332.469 69.0682 332.462 68.5608C332.462 64.3133 332.462 60.0593 332.462 55.8183C333.759 56.9052 335.284 57.6856 336.925 58.1015C339.768 58.8018 342.694 59.1126 345.621 59.0251C349.309 58.9926 353.166 58.3096 356.237 56.1371C358.689 54.3979 360.514 51.9135 361.44 49.0536C362.667 45.1262 363.187 41.0122 362.975 36.903" fill="white"/>
<path d="M308.656 45.2421C308.147 47.1251 306.952 48.7494 305.306 49.7953C302.554 51.441 299.23 51.4344 296.134 51.3499C294.3 51.2783 292.232 50.9856 290.931 49.4961C289.935 48.2992 289.981 46.6536 290.013 45.1901C289.985 44.3535 290.174 43.5239 290.563 42.7826C290.952 42.0413 291.527 41.414 292.232 40.9621C293.579 40.2286 295.049 39.7501 296.57 39.5506C300.741 39.0155 304.946 38.798 309.15 38.9001C309.189 41.0076 309.274 43.1671 308.63 45.2031L308.656 45.2421ZM320.845 50.8035C319.921 50.2311 318.679 50.8555 317.801 50.153C317.287 49.3465 317.398 48.3513 317.378 47.4471C317.359 46.543 317.326 45.8145 317.32 44.9949C317.32 40.2509 317.32 35.5091 317.32 30.7694C317.297 28.351 316.857 25.9547 316.019 23.6859C315.579 22.547 314.914 21.5091 314.062 20.6348C313.21 19.7605 312.189 19.0681 311.062 18.5993C308.807 17.7213 306.412 17.2585 303.992 17.2334C303.269 17.1737 302.544 17.1563 301.819 17.1814C301.748 17.1814 301.683 17.1814 301.611 17.1814H293.136C292.078 17.2235 291.078 17.6734 290.344 18.4367C289.611 19.1999 289.201 20.2174 289.201 21.276C289.201 22.3346 289.611 23.3521 290.344 24.1153C291.078 24.8786 292.078 25.3284 293.136 25.3706H301.683C302.227 25.3587 302.772 25.3761 303.315 25.4227C304.922 25.5007 306.665 25.7999 307.823 27.0163C308.981 28.2326 309.124 29.9043 309.202 31.4589C303.38 31.4589 297.494 31.5239 291.796 33.0005C289.064 33.7485 286.299 34.9519 284.491 37.2415C282.54 39.6026 282 42.7508 281.889 45.6974C281.785 49.0668 282.403 52.7484 284.836 55.2526C287.438 57.8545 291.217 58.6415 294.742 58.8692C298.645 59.0123 302.58 58.7976 306.288 57.5683C307.968 56.978 309.498 56.0254 310.77 54.7778C311.261 55.9022 312.1 56.8393 313.163 57.4512C315.323 58.4594 317.768 58.3358 320.091 58.1992C320.559 58.1992 321.183 57.9846 321.183 57.4252C321.229 55.5583 321.183 53.6915 321.183 51.8247C321.183 51.467 321.183 51.0247 320.865 50.8035" fill="white"/>
<path d="M282.169 17.0902H270.005C270.005 12.0101 270.005 6.93005 270.005 1.84998C270.005 1.37514 269.817 0.796241 269.27 0.757214C267.046 0.718186 264.815 0.757214 262.59 0.757214C262.46 0.739909 262.327 0.752269 262.203 0.793381C262.078 0.834493 261.964 0.903293 261.87 0.994624C261.775 1.08596 261.702 1.19747 261.657 1.32081C261.612 1.44415 261.595 1.57612 261.608 1.70688C261.608 17.7949 261.608 33.8807 261.608 49.9643C261.724 51.5017 262.168 52.9966 262.909 54.3484C263.928 55.9556 265.517 57.1176 267.358 57.6007C269.17 58.1161 271.049 58.3594 272.932 58.3227C274.884 58.3227 276.887 58.3227 278.871 58.3227C279.005 58.3366 279.14 58.3218 279.268 58.2795C279.395 58.2372 279.513 58.1683 279.612 58.0772C279.711 57.9862 279.789 57.8752 279.842 57.7516C279.895 57.628 279.921 57.4945 279.918 57.36C279.918 55.4087 279.918 53.4963 279.918 51.571C279.957 51.0181 279.385 50.6994 278.904 50.7124C276.734 50.7673 274.562 50.7022 272.399 50.5172C271.293 50.3481 270.096 49.5936 270.005 48.3772C270.005 41.0531 270.005 33.7354 270.005 26.4113V25.2469H282.162C282.71 25.2688 283.255 25.18 283.767 24.9857C284.279 24.7915 284.747 24.4958 285.142 24.1164C285.536 23.737 285.851 23.2818 286.065 22.7781C286.28 22.2743 286.39 21.7324 286.39 21.1848C286.39 20.6373 286.28 20.0954 286.065 19.5916C285.851 19.0878 285.536 18.6326 285.142 18.2533C284.747 17.8739 284.279 17.5782 283.767 17.384C283.255 17.1897 282.71 17.1008 282.162 17.1227" fill="white"/>
<path d="M246.517 40.318C246.381 42.9198 245.971 45.6387 244.41 47.7917C243.197 49.348 241.462 50.413 239.525 50.7903C237.4 51.2202 235.224 51.3364 233.066 51.1351C230.731 50.9139 228.324 49.9512 226.939 47.9804C225.404 45.8338 224.948 43.1409 224.799 40.5716C224.617 38.1093 224.72 35.6343 225.104 33.1954C225.365 31.1922 226.245 29.3204 227.622 27.8422C228.832 26.7233 230.35 25.9937 231.98 25.7477C234.862 25.297 237.807 25.4432 240.631 26.177C241.57 26.4248 242.448 26.8611 243.213 27.4594C243.978 28.0576 244.613 28.8053 245.08 29.657C246.283 31.9271 246.504 34.5354 246.576 37.0592C246.634 38.1433 246.615 39.2302 246.517 40.3115V40.318ZM259.195 51.7855C259.214 51.6026 259.172 51.4184 259.074 51.2627C258.976 51.107 258.828 50.9887 258.655 50.9269C257.699 50.6472 256.626 50.9269 255.715 50.4781C255.269 49.9738 255.036 49.3164 255.064 48.6438V1.71981C255.076 1.58849 255.058 1.45621 255.012 1.33267C254.966 1.20913 254.893 1.09747 254.798 1.00581C254.703 0.914159 254.589 0.844843 254.464 0.802943C254.339 0.761043 254.207 0.747614 254.076 0.763639C251.845 0.763639 249.614 0.763639 247.376 0.763639C246.83 0.802667 246.628 1.38157 246.654 1.8564C246.654 8.1138 246.654 14.3777 246.654 20.6416C245.256 19.4927 243.603 18.6943 241.834 18.313C238.856 17.6792 235.808 17.4365 232.767 17.591C229.949 17.6053 227.168 18.2242 224.61 19.4058C221.743 20.8411 219.485 23.2576 218.249 26.216C216.976 29.2715 216.314 32.5461 216.297 35.8558C216.102 40.2204 216.265 44.689 217.67 48.865C218.496 51.5408 220.077 53.9213 222.223 55.7208C224.399 57.4074 226.99 58.4769 229.723 58.817C231.615 59.0727 233.526 59.1598 235.434 59.0772C237.833 59.0309 240.218 58.6946 242.537 58.0754C244.595 57.5564 246.477 56.4964 247.987 55.0053C248.586 55.981 249.21 57.0412 250.277 57.5616C251.904 58.3156 253.69 58.6595 255.481 58.5633C256.517 58.5839 257.553 58.5361 258.583 58.4202C258.789 58.368 258.968 58.2428 259.088 58.068C259.207 57.8932 259.259 57.6808 259.234 57.4705C259.234 55.5842 259.234 53.7044 259.234 51.818" fill="white"/>
<path d="M156.214 18.7619C156.214 18.196 156.865 17.9618 157.333 17.9943C159.33 17.9943 161.333 17.9943 163.33 17.9943C163.87 17.9943 164.631 17.9943 164.807 18.6448C167.825 27.5105 170.889 36.3697 173.913 45.2485C176.775 36.682 179.514 28.0634 182.369 19.4904C182.571 18.9245 182.668 18.0789 183.416 17.9943C184.991 17.9228 186.578 17.9943 188.158 17.9943C188.953 17.9408 189.752 17.9955 190.533 18.1569C191.079 18.4627 191.098 19.1521 191.307 19.679C194.071 28.1805 196.874 36.669 199.645 45.1639C199.898 44.6435 200.115 44.1067 200.296 43.5573C203.123 35.2965 205.968 27.0422 208.83 18.7944C208.878 18.5701 209.002 18.3693 209.181 18.2259C209.36 18.0825 209.583 18.0053 209.812 18.0073C211.926 17.9748 214.04 18.0073 216.161 18.0073C216.7 17.9683 217.377 18.3261 217.318 18.944C217.128 19.7471 216.889 20.5378 216.603 21.3117C214.378 27.5561 212.29 33.8525 210.014 40.0839C208.956 43.1627 207.887 46.2372 206.807 49.3074C206.026 51.3433 205.506 53.4703 204.686 55.4997C204.061 56.8109 202.953 57.8295 201.594 58.3423C200.235 58.8551 198.73 58.8225 197.395 58.2512C195.931 57.5552 195.157 56.0396 194.474 54.6541C193.616 52.6182 193.037 50.4782 192.328 48.3837C190.474 42.8548 188.711 37.3259 186.753 31.8165C184.152 39.2838 181.751 46.8226 179.241 54.3224C178.925 55.584 178.203 56.7066 177.185 57.5161C176.395 58.1345 175.454 58.531 174.459 58.6648C173.464 58.7985 172.452 58.6647 171.526 58.2772C170.418 57.6488 169.541 56.6823 169.022 55.5192C168.26 53.9839 167.635 52.384 167.155 50.7384C163.649 40.7278 160.234 30.6913 156.748 20.6807C156.484 20.0778 156.332 19.4321 156.299 18.7749" fill="white"/>
<path d="M148.227 43.3687C147.726 45.8274 146.477 48.2927 144.259 49.6131C141.553 51.2002 138.262 51.3693 135.211 51.0506C132.648 50.8294 130.007 49.7497 128.459 47.6487C126.638 45.1574 126.254 41.9702 126.17 38.9716C126.17 35.6152 126.345 31.9857 128.355 29.1432C129.656 27.2503 131.861 26.2421 134.047 25.7543C135.004 25.5875 135.976 25.5178 136.948 25.5462C138.354 25.4707 139.765 25.5624 141.15 25.8193C142.792 26.1816 144.316 26.9536 145.579 28.0634C147.107 29.6667 148.079 31.7193 148.35 33.9175C148.84 37.0525 148.798 40.2475 148.227 43.3687ZM156.227 29.3708C155.612 26.6049 154.227 24.0693 152.232 22.0564C150.238 20.0435 147.715 18.6354 144.955 17.9943C141.269 17.1077 137.457 16.87 133.689 17.2918C131.164 17.5414 128.702 18.2258 126.41 19.3148C123.876 20.5822 121.781 22.5836 120.4 25.0583C119.222 27.2648 118.436 29.6595 118.078 32.1353C117.506 36.0161 117.492 39.9589 118.039 43.8435C118.52 46.9137 119.424 50.0034 121.291 52.5401C123.208 55.1611 125.939 57.0733 129.058 57.978C133.053 59.1244 137.24 59.4475 141.364 58.9276C144.617 58.5113 147.94 57.6267 150.62 55.6168C153.214 53.6491 155.081 50.8763 155.928 47.7333C156.557 45.6278 156.952 43.4596 157.105 41.2677C157.474 37.2801 157.173 33.259 156.214 29.3708" fill="white"/>
<path d="M109.323 18.8919C111.52 18.236 113.802 17.9094 116.094 17.9228C116.686 17.9228 116.998 18.5017 116.992 19.0285C117.024 21.0189 116.992 23.0158 116.992 25.0062C117.024 25.5006 116.855 26.1185 116.296 26.2226C114.995 26.4763 113.694 26.4242 112.393 26.6844C110.489 27.0081 108.728 27.8991 107.339 29.2407C106.11 30.5789 105.312 32.2561 105.049 34.0541C104.797 35.9248 104.71 37.8141 104.789 39.7001C104.789 45.4761 104.789 51.2565 104.789 57.0413C104.819 57.2452 104.797 57.4533 104.726 57.6465C104.654 57.8397 104.535 58.0118 104.379 58.1471C103.853 58.3285 103.295 58.3972 102.74 58.3487C100.893 58.3487 99.0457 58.4007 97.2049 58.3032C97.0739 58.2887 96.947 58.2483 96.8317 58.1843C96.7164 58.1204 96.6149 58.0341 96.5332 57.9307C96.4515 57.8272 96.3912 57.7085 96.3558 57.5815C96.3203 57.4545 96.3105 57.3217 96.3268 57.1909C96.3268 44.7671 96.3268 32.3412 96.3268 19.9132C96.3048 19.778 96.3107 19.6398 96.3443 19.507C96.3778 19.3743 96.4382 19.2498 96.5217 19.1413C96.6052 19.0328 96.7101 18.9426 96.8298 18.8762C96.9496 18.8098 97.0816 18.7687 97.2179 18.7553C98.8191 18.559 100.431 18.4634 102.044 18.4691C102.493 18.4691 103.092 18.5082 103.267 19.0025C103.475 19.9359 103.627 20.8807 103.722 21.832C105.32 20.4335 107.222 19.4269 109.277 18.8919" fill="white"/>
<path d="M75.7983 17.4415C77.1838 17.4415 78.5693 17.383 79.9547 17.4415C84.1567 17.6887 88.4107 19.0872 91.5849 21.8907C92.2165 22.4027 92.7536 23.0213 93.172 23.7185C93.3737 24.1608 93.0419 24.5901 92.7362 24.8763C91.1686 26.3008 89.7246 27.8619 88.0855 29.1953C87.8838 29.3324 87.6379 29.3884 87.3968 29.3523C87.1557 29.3161 86.9371 29.1904 86.7845 29.0002C84.746 26.9264 81.9951 25.7056 79.0896 25.5853C77.4945 25.4893 75.8938 25.603 74.3283 25.9235C72.4499 26.3051 70.7349 27.2568 69.4173 28.6489C68.1384 30.2559 67.3361 32.1895 67.1017 34.2299C66.7474 36.7458 66.7146 39.2965 67.0041 41.8207C67.1259 44.0511 67.8695 46.2028 69.1506 48.0326C70.422 49.5539 72.1715 50.5995 74.1136 50.9986C77.0537 51.558 80.2084 51.6881 83.0314 50.5238C84.5514 49.8468 85.9561 48.936 87.1943 47.8244C87.3515 47.6522 87.5672 47.5447 87.7994 47.523C88.0315 47.5014 88.2634 47.5671 88.4497 47.7073C89.8417 48.8977 91.1296 50.1986 92.437 51.4735C92.7924 51.7484 93.0592 52.1216 93.2046 52.5467C93.1955 52.7125 93.1527 52.8747 93.0789 53.0235C93.0051 53.1722 92.9018 53.3044 92.7753 53.4119C90.8051 55.3344 88.4598 56.8303 85.8858 57.8061C83.3118 58.782 80.5643 59.217 77.8147 59.0839C73.3981 59.1164 68.7669 58.3293 65.0593 55.7925C62.9579 54.2768 61.3095 52.2169 60.2914 49.8343C58.7303 46.1462 58.34 42.0939 58.34 38.1261C58.34 34.0022 58.8149 29.7677 60.6296 26.0211C62.1802 22.8082 64.9041 20.3125 68.24 19.0482C70.6529 18.1239 73.1978 17.5903 75.7788 17.4676" fill="white"/>
<path d="M365.707 50.3286H372.212C372.481 50.3286 372.739 50.4355 372.929 50.6258C373.12 50.8161 373.227 51.0742 373.227 51.3433V57.8479C373.227 58.117 373.12 58.3751 372.929 58.5654C372.739 58.7557 372.481 58.8626 372.212 58.8626H365.707C365.438 58.8626 365.18 58.7557 364.99 58.5654C364.799 58.3751 364.693 58.117 364.693 57.8479V51.3433C364.693 51.0742 364.799 50.8161 364.99 50.6258C365.18 50.4355 365.438 50.3286 365.707 50.3286Z" fill="white"/>
<g clip-path="url(#clip0_1973_8861)">
<path fill-rule="evenodd" clip-rule="evenodd" d="M25.3468 17.3251C24.4646 17.3251 23.7478 18.0466 23.7478 18.9347V34.7531C23.7478 35.6411 24.4646 36.3627 25.3468 36.3627H41.0614C41.9436 36.3627 42.6604 35.6411 42.6604 34.7531V18.9347C42.6604 18.0466 41.9436 17.3251 41.0614 17.3251H25.3468ZM25.3468 40.3034C24.4646 40.3034 23.7478 41.0249 23.7478 41.913V57.7314C23.7478 58.6194 24.4646 59.341 25.3468 59.341H41.0614C41.9436 59.341 42.6604 58.6194 42.6604 57.7314V41.913C42.6604 41.0249 41.9436 40.3034 41.0614 40.3034H25.3468ZM0.644531 41.913C0.644531 41.0249 1.36134 40.3034 2.24356 40.3034H17.9582C18.8404 40.3034 19.5572 41.0249 19.5572 41.913V57.7314C19.5572 58.6194 18.8404 59.341 17.9582 59.341H2.24356C1.36134 59.341 0.644531 58.6194 0.644531 57.7314V41.913ZM0.644531 18.9347C0.644531 18.0466 1.36134 17.3251 2.24356 17.3251H17.9582C18.8404 17.3251 19.5572 18.0466 19.5572 18.9347V34.7531C19.5572 35.6411 18.8404 36.3627 17.9582 36.3627H2.24356C1.36134 36.3627 0.644531 35.6411 0.644531 34.7531V18.9347ZM8.74996 31.5894L5.33134 28.1482C4.89023 27.7042 4.89023 27.0381 5.33134 26.5941C5.77246 26.1501 6.43412 26.1501 6.87524 26.5941L8.74996 28.4812L13.8779 23.3749C14.319 22.9309 14.9807 22.9309 15.4218 23.3749C15.8629 23.8189 15.8629 24.485 15.4218 24.929L8.74996 31.5894Z" fill="white"/>
</g>
<defs>
<clipPath id="clip0_1973_8861">
<rect width="42.0159" height="42.0159" fill="white" transform="translate(0.644531 17.3251)"/>
</clipPath>
</defs>
</svg>
