<svg xmlns="http://www.w3.org/2000/svg" class="bg-ctlight" data-name="Layer 1" viewBox="0 0 128 128"><path d="M58.9043 60.17188a11.9387 11.9387 0 0 0-2.34961 4.209 2.00044 2.00044 0 0 0 3.81445 1.207 7.95161 7.95161 0 0 1 1.56641-2.80566 2.00015 2.00015 0 0 0-3.03125-2.61035zM58 81.09229a2.0001 2.0001 0 0 0 2-2V75.04736a2 2 0 0 0-4 0v4.04492A2.0001 2.0001 0 0 0 58 81.09229zM56 107.40479a2 2 0 0 0 4 0v-4.04443a2 2 0 0 0-4 0zM60.09082 117.21a2.00014 2.00014 0 0 0-3.95508.59961 11.87033 11.87033 0 0 0 1.67169 4.5246 2.05939 2.05939 0 0 0 2.75505.64093 1.99975 1.99975 0 0 0 .63966-2.75488A7.92526 7.92526 0 0 1 60.09082 117.21zM56 93.24854a2 2 0 1 0 4 0V89.20361a2 2 0 0 0-4 0zM67.50684 58a2.0001 2.0001 0 0 0 2 2h4.04395a2 2 0 0 0 0-4H69.50684A2.0001 2.0001 0 0 0 67.50684 58zM97.81934 60h4.04492a2 2 0 1 0 0-4H97.81934a2 2 0 0 0 0 4zM123.90723 66.77393a2.05722 2.05722 0 0 0 2.28026 1.67236 1.99971 1.99971 0 0 0 1.67287-2.28076 11.90721 11.90721 0 0 0-1.67969-4.52051 2.00028 2.00028 0 0 0-3.39258 2.12012A7.921 7.921 0 0 1 123.90723 66.77393zM83.66309 60H87.708a2 2 0 0 0 0-4H83.66309a2 2 0 0 0 0 4zM114.51367 124h-4.04492a2 2 0 0 0 0 4h4.04492a2 2 0 1 0 0-4zM126.14258 117.08838a2.0027 2.0027 0 0 0-2.50781 1.30908 7.94347 7.94347 0 0 1-1.55957 2.80762 2 2 0 0 0 .2146 2.82007 2.05194 2.05194 0 0 0 2.82056-.21558 11.92325 11.92325 0 0 0 2.34082-4.21387A1.9999 1.9999 0 0 0 126.14258 117.08838zM126 102.8877a2.0001 2.0001 0 0 0-2 2v4.04443a2 2 0 1 0 4 0V104.8877A2.0001 2.0001 0 0 0 126 102.8877zM126 88.731a2.0001 2.0001 0 0 0-2 2v4.04492a2 2 0 1 0 4 0V90.731A2.0001 2.0001 0 0 0 126 88.731zM126 74.57471a2.0001 2.0001 0 0 0-2 2v4.04443a2 2 0 0 0 4 0V76.57471A2.0001 2.0001 0 0 0 126 74.57471zM72.04492 124H67.959a1.9827 1.9827 0 0 0-1.97949 2A2.01771 2.01771 0 0 0 68 128h4.04492a2 2 0 0 0 0-4zM100.35742 124H96.31248a2 2 0 0 0 0 4h4.04494a2 2 0 1 0 0-4zM86.20117 124H82.15625a2 2 0 0 0 0 4h4.04492a2 2 0 0 0 0-4zM116 56h-4.02441a2 2 0 0 0 0 4h4.04492A2 2 0 1 0 116 56zM99.33105 84.86328A2.00037 2.00037 0 0 0 95.54 86.1416l2.83582 8.40613L73.43652 69.6084a1.99979 1.99979 0 0 0-2.82812 2.82813l24.939 24.939-8.40576-2.835a2.00006 2.00006 0 1 0-1.2793 3.79l16.498 5.56445a2.04688 2.04688 0 0 0 2.04315-.47437 2.06049 2.06049 0 0 0 .492-2.05981z"/><path d="M72,52V12A12.01344,12.01344,0,0,0,60,0H12A12.01344,12.01344,0,0,0,0,12V60A12.01344,12.01344,0,0,0,12,72H52.838a6.05917,6.05917,0,0,1,2.14557-2.13086,6.00914,6.00914,0,0,1-2.24231-6.69434A15.92834,15.92834,0,0,1,55.873,57.56152,5.9551,5.9551,0,0,1,63.709,56.48181,6.0049,6.0049,0,0,1,69.50684,52Zm-18.6084.3916a2.03761,2.03761,0,0,1-2.82825-.00012c-.06165-.06171-24.93921-24.93921-24.93921-24.93921L28.46,35.8584a2.001,2.001,0,0,1-1.25586,2.53418,2.03539,2.03539,0,0,1-2.53516-1.25586c-.00262-.00781-5.56445-16.49756-5.56445-16.49756a2.07454,2.07454,0,0,1,.48145-2.05322,2.04856,2.04856,0,0,1,2.05371-.481l16.498,5.56445a2.00006,2.00006,0,1,1-1.2793,3.79l-8.40576-2.835,24.939,24.939A1.99927,1.99927,0,0,1,53.3916,52.3916Z"/></svg>