<svg width="28" height="44" viewBox="0 0 28 44" fill="none" xmlns="http://www.w3.org/2000/svg">
<path d="M14 40C13.8684 40.0008 13.7379 39.9755 13.6161 39.9258C13.4943 39.876 13.3834 39.8027 13.29 39.71C13.1963 39.617 13.1219 39.5064 13.0711 39.3846C13.0203 39.2627 12.9942 39.132 12.9942 39C12.9942 38.868 13.0203 38.7373 13.0711 38.6154C13.1219 38.4936 13.1963 38.383 13.29 38.29C13.4306 38.1512 13.6092 38.0572 13.8032 38.0199C13.9972 37.9825 14.1979 38.0034 14.38 38.08C14.4414 38.1 14.4989 38.1304 14.55 38.17C14.6072 38.2046 14.6608 38.2448 14.71 38.29C14.8037 38.383 14.8781 38.4936 14.9289 38.6154C14.9797 38.7373 15.0058 38.868 15.0058 39C15.0058 39.132 14.9797 39.2627 14.9289 39.3846C14.8781 39.5064 14.8037 39.617 14.71 39.71C14.6608 39.7552 14.6072 39.7954 14.55 39.83C14.4989 39.8696 14.4414 39.9 14.38 39.92C14.2598 39.9712 14.1307 39.9984 14 40ZM9 40C8.73523 39.9963 8.48164 39.8927 8.29 39.71C8.19732 39.6166 8.12399 39.5057 8.07423 39.3839C8.02447 39.2621 7.99924 39.1316 8 39C8.00158 38.8693 8.02876 38.7402 8.08 38.62C8.12491 38.4959 8.19657 38.3832 8.28989 38.2899C8.3832 38.1966 8.49591 38.1249 8.62 38.08C8.79895 38.0005 8.99842 37.9795 9.19 38.02C9.2562 38.0295 9.32038 38.0497 9.38 38.08C9.44143 38.1 9.49895 38.1304 9.55 38.17C9.60721 38.2046 9.66081 38.2448 9.71 38.29C9.89273 38.4816 9.99632 38.7352 10 39C10.0048 39.0666 10.0048 39.1334 10 39.2C9.98936 39.2627 9.96912 39.3234 9.94 39.38C9.9179 39.4436 9.88765 39.5041 9.85 39.56L9.73 39.71L9.57 39.83C9.51895 39.8696 9.46143 39.9 9.4 39.92C9.34032 39.9501 9.27615 39.9704 9.21 39.98L9 40ZM19 40C18.7352 39.9963 18.4816 39.8927 18.29 39.71C18.1973 39.6166 18.124 39.5057 18.0742 39.3839C18.0245 39.2621 17.9992 39.1316 18 39C17.9952 38.9368 17.9952 38.8732 18 38.81C18.0096 38.7438 18.0299 38.6797 18.06 38.62C18.0817 38.5562 18.1119 38.4956 18.15 38.44C18.1869 38.3876 18.2269 38.3375 18.27 38.29C18.363 38.1963 18.4736 38.1219 18.5954 38.0711C18.7173 38.0203 18.848 37.9942 18.98 37.9942C19.112 37.9942 19.2427 38.0203 19.3646 38.0711C19.4864 38.1219 19.597 38.1963 19.69 38.29L19.81 38.44C19.8476 38.4959 19.8779 38.5564 19.9 38.62C19.9306 38.6795 19.9509 38.7437 19.96 38.81C19.9787 38.8721 19.9921 38.9356 20 39C19.9963 39.2648 19.8927 39.5184 19.71 39.71C19.6166 39.8027 19.5057 39.876 19.3839 39.9258C19.2621 39.9755 19.1316 40.0008 19 40Z" fill="#57B3FE"/>
<path d="M23.79 44H4.21C3.65713 44 3.10968 43.8911 2.5989 43.6795C2.08812 43.468 1.62402 43.1579 1.23308 42.7669C0.443553 41.9774 0 40.9066 0 39.79V4.21C0 3.09344 0.443553 2.02261 1.23308 1.23308C2.02261 0.443552 3.09344 0 4.21 0H23.79C24.9066 0 25.9774 0.443552 26.7669 1.23308C27.5564 2.02261 28 3.09344 28 4.21V39.79C28 40.9066 27.5564 41.9774 26.7669 42.7669C25.9774 43.5564 24.9066 44 23.79 44V44ZM4.21 2C3.62387 2 3.06175 2.23284 2.64729 2.64729C2.23284 3.06175 2 3.62387 2 4.21V39.79C2 40.3761 2.23284 40.9383 2.64729 41.3527C3.06175 41.7672 3.62387 42 4.21 42H23.79C24.3761 42 24.9383 41.7672 25.3527 41.3527C25.7672 40.9383 26 40.3761 26 39.79V4.21C26 3.62387 25.7672 3.06175 25.3527 2.64729C24.9383 2.23284 24.3761 2 23.79 2H4.21Z" fill="#57B3FE"/>
<path d="M19 6H9C8.73478 6 8.48043 5.89464 8.29289 5.70711C8.10536 5.51957 8 5.26522 8 5C8 4.73478 8.10536 4.48043 8.29289 4.29289C8.48043 4.10536 8.73478 4 9 4H19C19.2652 4 19.5196 4.10536 19.7071 4.29289C19.8946 4.48043 20 4.73478 20 5C20 5.26522 19.8946 5.51957 19.7071 5.70711C19.5196 5.89464 19.2652 6 19 6ZM23 20C22.7348 20 22.4804 19.8946 22.2929 19.7071C22.1054 19.5196 22 19.2652 22 19V11H17C16.7348 11 16.4804 10.8946 16.2929 10.7071C16.1054 10.5196 16 10.2652 16 10C16 9.73478 16.1054 9.48043 16.2929 9.29289C16.4804 9.10536 16.7348 9 17 9H23C23.2652 9 23.5196 9.10536 23.7071 9.29289C23.8946 9.48043 24 9.73478 24 10V19C24 19.2652 23.8946 19.5196 23.7071 19.7071C23.5196 19.8946 23.2652 20 23 20ZM5 20C4.73478 20 4.48043 19.8946 4.29289 19.7071C4.10536 19.5196 4 19.2652 4 19V10C4 9.73478 4.10536 9.48043 4.29289 9.29289C4.48043 9.10536 4.73478 9 5 9H11C11.2652 9 11.5196 9.10536 11.7071 9.29289C11.8946 9.48043 12 9.73478 12 10C12 10.2652 11.8946 10.5196 11.7071 10.7071C11.5196 10.8946 11.2652 11 11 11H6V19C6 19.2652 5.89464 19.5196 5.70711 19.7071C5.51957 19.8946 5.26522 20 5 20ZM23 35H17C16.7348 35 16.4804 34.8946 16.2929 34.7071C16.1054 34.5196 16 34.2652 16 34C16 33.7348 16.1054 33.4804 16.2929 33.2929C16.4804 33.1054 16.7348 33 17 33H22V25C22 24.7348 22.1054 24.4804 22.2929 24.2929C22.4804 24.1054 22.7348 24 23 24C23.2652 24 23.5196 24.1054 23.7071 24.2929C23.8946 24.4804 24 24.7348 24 25V34C24 34.2652 23.8946 34.5196 23.7071 34.7071C23.5196 34.8946 23.2652 35 23 35ZM11 35H5C4.73478 35 4.48043 34.8946 4.29289 34.7071C4.10536 34.5196 4 34.2652 4 34V25C4 24.7348 4.10536 24.4804 4.29289 24.2929C4.48043 24.1054 4.73478 24 5 24C5.26522 24 5.51957 24.1054 5.70711 24.2929C5.89464 24.4804 6 24.7348 6 25V33H11C11.2652 33 11.5196 33.1054 11.7071 33.2929C11.8946 33.4804 12 33.7348 12 34C12 34.2652 11.8946 34.5196 11.7071 34.7071C11.5196 34.8946 11.2652 35 11 35Z" fill="#57B3FE"/>
</svg>
