<svg width="102" height="100" viewBox="0 0 102 100" fill="none" xmlns="http://www.w3.org/2000/svg">
<g filter="url(#filter0_d_2982_11603)">
<path d="M78.5868 55.2982C77.8026 55.3874 75.6724 55.7115 74.1647 56.6395C74.0676 56.7003 73.9585 56.7327 73.8494 56.7489C74.1323 57.223 74.4597 57.7377 74.7629 58.2644L79.6862 56.7003C79.2861 56.1573 78.9182 55.6913 78.5868 55.2982Z" fill="#8D6E63"/>
<path d="M88.0695 79.4334L87.2732 65.8381L81.0442 56.2627L79.682 56.6963L74.7587 58.2605L74.5364 58.3293L82.4711 79.1052C84.6054 79.3281 86.5254 79.4496 88.0695 79.4334Z" fill="#4CA8ED"/>
<path d="M47.8298 89.0169H49.4507C49.0304 89.0048 48.5049 88.9886 47.8581 88.9602L47.8298 89.0169Z" fill="#62B4FF"/>
<path d="M28.5125 69.2662L29.9313 80.4788C31.1884 81.654 34.0381 83.9232 37.1344 86.16C41.6778 85.0984 43.5048 83.0358 44.1758 81.816C46.6132 77.3829 40.4692 73.1929 40.4692 73.1929L43.4563 68.1924C39.7901 68.6179 34.9961 62.5801 33.5975 62.3774C33.6218 62.4544 33.646 62.5274 33.6743 62.6044C34.1271 63.8484 29.6969 64.1037 29.3695 62.7908C29.3573 62.7421 29.3492 62.7057 29.3371 62.6611C28.4761 62.884 27.1584 63.3095 26.3015 63.7552C26.0549 63.9862 24.9595 64.825 23.9853 65.2991C23.189 66.0447 22.5463 66.8997 22.0693 67.8642H27.0452C27.7849 67.8642 28.4115 68.4639 28.5125 69.2662Z" fill="#AB4DFF"/>
<path d="M51.1892 88.9441L55.9306 74.3398L55.9347 74.3317C55.9347 74.3317 52.6524 74.2507 47.5512 73.266C48.97 75.5839 50.1948 78.4569 50.122 81.4029C50.017 85.5889 45.5625 87.6514 42.1348 88.624C44.6975 88.7982 46.5407 88.8995 47.8584 88.9603C48.5052 88.9887 49.0307 89.0089 49.4511 89.017C50.1584 89.0333 50.5869 89.0292 50.8375 89.017C51.2862 88.9968 51.1892 88.9441 51.1892 88.9441Z" fill="#AB4DFF"/>
<path d="M19.3733 87.0193C20.1372 85.8928 21.4267 85.1553 22.8859 85.1553C24.1996 85.1553 25.3718 85.751 26.1519 86.6911C26.8189 86.7195 27.5667 86.7519 28.4155 86.7924C29.2321 86.8289 30.0041 86.841 30.7398 86.837L29.9354 80.479L28.5166 69.2665C28.4155 68.4641 27.789 67.8644 27.0453 67.8644H22.0694H2.48518C1.58378 67.8644 0.892571 68.7356 1.01384 69.7122L3.50784 89.4142H20.6385C19.4177 89.4142 18.6821 88.0364 19.3733 87.0193Z" fill="#D6D6D6"/>
<path d="M50.1178 81.4028C50.1905 78.4568 48.9657 75.5838 47.5469 73.2659C45.825 70.4536 43.8282 68.464 43.5291 68.1763C43.5048 68.1803 43.4805 68.1844 43.4563 68.1884L40.4691 73.1889C40.4691 73.1889 46.6132 77.3789 44.1758 81.8121C43.5048 83.0358 41.6737 85.0944 37.1344 86.1561C35.4205 86.5572 33.3145 86.8166 30.7397 86.8328C30.004 86.8368 29.232 86.8247 28.4155 86.7882C27.5666 86.7477 26.8148 86.7153 26.1519 86.6869C25.3717 85.7508 24.1995 85.1511 22.8858 85.1511C21.4266 85.1511 20.1371 85.8886 19.3732 87.0151C18.682 88.0322 19.4136 89.41 20.6424 89.41H26.5278H27.1341H31.0671H38.2258C38.2258 89.41 39.976 89.2317 42.1305 88.6198C45.5582 87.6554 50.0167 85.5887 50.1178 81.4028Z" fill="#B28B67"/>
<path d="M92.2612 54.4919L92.2491 54.504C92.2491 54.504 89.4842 54.0745 87.3944 54.7026C87.2974 54.731 87.1964 54.7391 87.0993 54.735C87.0387 54.731 86.9821 54.7148 86.9255 54.6986C86.9781 55.201 87.0347 55.7197 87.0872 56.2263H92.245C92.1561 55.5455 92.1682 54.9741 92.2612 54.4919Z" fill="#8D6E63"/>
<path d="M100.843 82.5779L93.5345 56.2222H92.241H87.0832H86.7073L87.2692 65.8381L88.0655 79.4334C86.5214 79.4496 84.6013 79.328 82.4671 79.1092C78.6715 78.7202 74.2009 78.0313 69.9688 77.2979C68.837 75.6851 66.8806 74.2627 64.4391 73.4766C61.0963 72.4028 57.7979 72.8242 55.9264 74.3397L51.1849 88.944C51.1849 88.944 51.2819 88.9926 50.8333 89.0169H93.8174L93.8013 88.944H95.8911C99.2177 88.944 101.655 85.8116 100.843 82.5779Z" fill="#62B4FF"/>
<path d="M33.5732 62.3735C33.2539 60.8822 31.2288 58.0254 32.4495 55.59L32.5748 50.857C31.4592 50.233 30.3355 49.0781 29.717 46.9587C29.8787 49.1834 31.6694 50.8529 31.6694 50.8529C31.6694 50.8529 29.2441 50.2654 28.1042 47.2221C27.3968 49.1632 28.852 50.5328 28.852 50.5328C28.852 50.5328 24.7573 50.4639 24.6603 47.907C24.6562 47.911 24.6522 47.911 24.6482 47.9151C24.5552 48.0285 24.4784 48.1542 24.4178 48.2798C24.3814 48.377 24.341 48.4783 24.3046 48.5796C24.0338 49.4792 24.345 50.468 24.345 50.468C24.345 50.468 24.1227 50.3383 23.9125 50.0303C23.8357 50.4031 23.767 50.7922 23.7185 51.2136C23.4072 53.7625 23.8357 55.5616 24.4218 56.8948C25.2141 58.694 26.5156 59.3343 28.7065 59.1317C28.7065 59.1317 29.4098 61.3807 29.4381 62.6328C29.4098 62.6409 29.3734 62.649 29.3411 62.6571C29.3532 62.7017 29.3613 62.7382 29.3734 62.7868C29.7008 64.0997 34.131 63.8444 33.6783 62.6004C33.65 62.5234 33.6258 62.4505 33.6015 62.3735C33.5894 62.3735 33.5813 62.3735 33.5732 62.3735Z" fill="#B28B67"/>
<path d="M29.3371 62.6611C29.3694 62.653 29.4058 62.6449 29.4341 62.6368C29.4058 61.3846 28.7025 59.1356 28.7025 59.1356C26.5076 59.3382 25.2101 58.698 24.4178 56.8988C23.8317 55.5656 23.3992 53.7664 23.7145 51.2176C23.767 50.7961 23.8317 50.4071 23.9085 50.0343C24.1187 50.3463 24.341 50.4719 24.341 50.4719C24.341 50.4719 24.0338 49.4832 24.3006 48.5836C24.337 48.4782 24.3774 48.381 24.4138 48.2837C24.4744 48.1541 24.5512 48.0325 24.6442 47.919C24.6482 47.915 24.6523 47.9109 24.6563 47.9028C24.6563 47.9069 24.6563 47.9069 24.6563 47.9109C24.7533 50.4679 28.848 50.5368 28.848 50.5368C28.848 50.5368 27.3969 49.1671 28.1002 47.2261C29.2401 50.2653 31.6654 50.8569 31.6654 50.8569C31.6654 50.8569 29.8747 49.1874 29.713 46.9627C30.3315 49.082 31.4552 50.2369 32.5708 50.861L32.4455 55.594C31.2248 58.0294 33.2499 60.8862 33.5692 62.3774C33.5773 62.3774 33.5854 62.3815 33.5935 62.3815C34.9961 62.5841 39.7901 68.6179 43.4523 68.1964C43.4765 68.1924 43.5008 68.1883 43.525 68.1843C44.5234 68.0465 45.437 67.4144 46.1686 66.0447C46.4435 63.816 45.247 62.1424 44.1799 61.1212C44.5396 61.3522 44.9762 61.6237 45.5138 61.9317C47.5914 63.123 47.357 64.8128 47.264 65.2181C48.4848 60.7971 44.1758 62.4017 43.7191 57.2189C43.2583 51.9996 39.2161 55.7358 37.4942 49.0293C37.1627 47.7367 36.6776 46.7398 36.1077 45.9659C37.0859 45.3985 38.2824 44.2436 37.3567 42.1811C35.9137 38.9636 30.4487 38.7367 30.1051 43.417C29.9636 43.4332 29.8788 43.4494 29.8788 43.4494C19.6683 43.9316 24.8139 51.6633 21.9561 56.3923C19.1954 60.9632 21.366 63.7187 21.366 63.7187C21.366 63.7187 23.0799 65.7408 23.957 65.3194C23.9651 65.3153 23.9732 65.3113 23.9813 65.3072C24.9514 64.8331 26.0468 63.9983 26.2974 63.7633C27.1584 63.3094 28.4761 62.884 29.3371 62.6611Z" fill="#00276F"/>
<path d="M7.19832 61.4739C7.64296 61.4739 8.00675 61.1092 8.00675 60.6634V57.4217C8.00675 56.9759 7.64296 56.6112 7.19832 56.6112C6.75369 56.6112 6.38989 56.9759 6.38989 57.4217V60.6634C6.38989 61.1132 6.75369 61.4739 7.19832 61.4739Z" fill="#9AA0A6"/>
<path d="M7.19832 35.5396C7.64296 35.5396 8.00675 35.1749 8.00675 34.7291V31.4873C8.00675 31.0416 7.64296 30.6769 7.19832 30.6769C6.75369 30.6769 6.38989 31.0416 6.38989 31.4873V34.7291C6.38989 35.1789 6.75369 35.5396 7.19832 35.5396Z" fill="#9AA0A6"/>
<path d="M11.3901 23.7678C12.1136 23.2694 12.9989 22.7872 14.0862 22.3617C14.5025 22.1996 14.7046 21.7255 14.543 21.3122C14.3813 20.8948 13.9083 20.6922 13.496 20.8543C12.3076 21.3243 11.3092 21.8592 10.4766 22.4346C10.1087 22.6899 10.0157 23.1924 10.2664 23.5612C10.517 23.9259 11.0222 24.0191 11.3901 23.7678Z" fill="#9AA0A6"/>
<path d="M7.19832 54.9904C7.64296 54.9904 8.00675 54.6257 8.00675 54.1799V50.9381C8.00675 50.4924 7.64296 50.1277 7.19832 50.1277C6.75369 50.1277 6.38989 50.4924 6.38989 50.9381V54.1799C6.38989 54.6297 6.75369 54.9904 7.19832 54.9904Z" fill="#9AA0A6"/>
<path d="M23.3102 20.7003C23.8963 20.6801 24.5026 20.6679 25.1372 20.6679C25.5818 20.6679 25.9456 20.3032 25.9456 19.8574C25.9456 19.4117 25.5818 19.047 25.1372 19.047C24.4864 19.047 23.8599 19.0592 23.2536 19.0794C22.8089 19.0956 22.4573 19.4725 22.4734 19.9182C22.4896 20.364 22.8615 20.7165 23.3102 20.7003Z" fill="#9AA0A6"/>
<rect x="30.1753" y="11" width="15.8125" height="15.8125" rx="1.93096" fill="#C484FF"/>
<path d="M17.0531 21.4579C17.9869 21.2472 19.0136 21.0689 20.1535 20.9393C20.5981 20.8866 20.9134 20.4854 20.8649 20.0397C20.8123 19.5939 20.4122 19.2778 19.9675 19.3265C18.7791 19.4642 17.6918 19.6506 16.6974 19.8776C16.2609 19.9748 15.9901 20.4084 16.0871 20.8461C16.1841 21.2837 16.6166 21.5552 17.0531 21.4579Z" fill="#9AA0A6"/>
<path d="M7.13362 29.0438C7.57421 29.1248 7.9946 28.8371 8.07544 28.3954C8.18862 27.7876 8.4837 26.8313 9.24766 25.7939C9.51444 25.4332 9.43764 24.9267 9.07789 24.6593C8.71814 24.3918 8.21287 24.4688 7.94609 24.8295C7.0164 26.0938 6.63644 27.2932 6.48688 28.0956C6.40603 28.5413 6.69707 28.9627 7.13362 29.0438Z" fill="#9AA0A6"/>
<path d="M7.19832 48.5067C7.64296 48.5067 8.00675 48.142 8.00675 47.6963V44.4545C8.00675 44.0087 7.64296 43.644 7.19832 43.644C6.75369 43.644 6.38989 44.0087 6.38989 44.4545V47.6963C6.38989 48.1461 6.75369 48.5067 7.19832 48.5067Z" fill="#9AA0A6"/>
<path d="M7.19832 42.0232C7.64296 42.0232 8.00675 41.6585 8.00675 41.2128V37.971C8.00675 37.5252 7.64296 37.1605 7.19832 37.1605C6.75369 37.1605 6.38989 37.5252 6.38989 37.971V41.2128C6.38989 41.6626 6.75369 42.0232 7.19832 42.0232Z" fill="#9AA0A6"/>
<path d="M78.5865 55.2983C78.7805 55.274 78.8937 55.2659 78.8937 55.2659C78.9503 55.1564 79.015 55.047 79.0756 54.9376C80.6723 52.1173 83.3805 49.7224 84.9529 48.4743C85.5916 47.9678 85.6926 46.9588 85.1388 46.282L84.8923 45.9822L76.424 49.8926L71.4845 52.174C71.4845 52.174 71.1449 52.7454 71.3672 53.1587C71.5855 53.572 71.7997 53.9691 71.7997 53.9691L72.4344 55.1605L73.0568 56.3316C73.166 56.5342 73.3479 56.6679 73.546 56.7206C73.643 56.7449 73.7481 56.753 73.8451 56.7409C73.9542 56.7287 74.0633 56.6922 74.1604 56.6315C75.6721 55.7075 77.7983 55.3874 78.5865 55.2983Z" fill="#E4E4E4"/>
<path d="M87.3946 54.7026C89.4844 54.0785 92.2492 54.504 92.2492 54.504L92.2614 54.4919L92.2654 54.4878C94.5209 52.1983 97.8799 50.5693 99.7595 49.771C100.499 49.459 100.855 48.5797 100.503 47.8543L100.346 47.5342L91.2832 49.1834L85.996 50.1438C85.996 50.1438 85.4908 50.4315 85.6282 50.9948C85.7656 51.5621 86.4124 54.192 86.4124 54.192C86.477 54.4514 86.6791 54.6256 86.9217 54.6945C86.9783 54.7107 87.0349 54.7269 87.0955 54.731C87.1965 54.7431 87.2976 54.731 87.3946 54.7026Z" fill="#E4E4E4"/>
</g>
<defs>
<filter id="filter0_d_2982_11603" x="0.227614" y="11" width="101.545" height="79.959" filterUnits="userSpaceOnUse" color-interpolation-filters="sRGB">
<feFlood flood-opacity="0" result="BackgroundImageFix"/>
<feColorMatrix in="SourceAlpha" type="matrix" values="0 0 0 0 0 0 0 0 0 0 0 0 0 0 0 0 0 0 127 0" result="hardAlpha"/>
<feOffset dy="0.772386"/>
<feGaussianBlur stdDeviation="0.386193"/>
<feColorMatrix type="matrix" values="0 0 0 0 0 0 0 0 0 0 0 0 0 0 0 0 0 0 0.25 0"/>
<feBlend mode="normal" in2="BackgroundImageFix" result="effect1_dropShadow_2982_11603"/>
<feBlend mode="normal" in="SourceGraphic" in2="effect1_dropShadow_2982_11603" result="shape"/>
</filter>
</defs>
</svg>
