<svg width="100" height="100" viewBox="0 0 100 100" fill="none" xmlns="http://www.w3.org/2000/svg">
<path d="M55.335 8.7123C54.4247 9.65624 53.1897 10.1871 51.9028 10.1871H51.9019C51.8564 10.1871 51.8101 10.1853 51.7646 10.1834C51.73 10.1824 51.6955 10.1824 51.6618 10.1805C51.6136 10.1777 51.5663 10.173 51.519 10.1692C51.4872 10.1664 51.4545 10.1655 51.4226 10.1617C51.3781 10.157 51.3335 10.1504 51.289 10.1447C51.2544 10.14 51.2198 10.1362 51.1853 10.1315C51.1425 10.1249 51.0998 10.1164 51.0571 10.1079C51.0216 10.1013 50.9861 10.0957 50.9507 10.0891C50.8979 10.0778 50.8452 10.0655 50.7933 10.0523C50.7688 10.0466 50.7433 10.041 50.7187 10.0353C50.6451 10.0165 50.5714 9.99478 50.4987 9.97214C50.4959 9.9712 50.4932 9.97026 50.4905 9.96931C50.4268 9.94951 50.3641 9.92688 50.3022 9.90425C50.2904 9.89953 50.2777 9.89576 50.2659 9.89199C49.5965 9.64398 48.9817 9.24321 48.4697 8.71324C47.5594 7.7693 47.0483 6.48871 47.0474 5.15437C47.0474 5.07893 47.0492 5.00349 47.0529 4.92805C47.0538 4.90542 47.0556 4.88184 47.0565 4.85921C47.0592 4.80546 47.0629 4.75171 47.0683 4.6989C47.0701 4.67438 47.0729 4.64986 47.0747 4.62534C47.081 4.56688 47.0874 4.50841 47.0956 4.44995C47.0974 4.43392 47.0992 4.41694 47.102 4.40091C47.1129 4.32736 47.1247 4.25475 47.1383 4.18214C47.142 4.16328 47.1465 4.14442 47.1502 4.12556C47.1611 4.07086 47.1729 4.01711 47.1856 3.96242C47.1911 3.9379 47.1975 3.91432 47.2029 3.88981C47.2156 3.83794 47.2302 3.78608 47.2447 3.73515C47.2511 3.71441 47.2566 3.69366 47.262 3.67292C47.2829 3.60219 47.3048 3.53241 47.3293 3.46263C47.333 3.4532 47.3366 3.44283 47.3402 3.4334C47.3611 3.37304 47.3839 3.31363 47.4066 3.25423C47.4157 3.23254 47.4248 3.2099 47.4339 3.18822C47.4539 3.14012 47.4739 3.09203 47.4957 3.04394C47.5057 3.02225 47.5148 3.00056 47.5248 2.97887C47.5512 2.92229 47.5785 2.86571 47.6067 2.81007C47.6121 2.7997 47.6167 2.78933 47.6222 2.77895C47.6558 2.71389 47.6913 2.64976 47.7276 2.58564C47.7376 2.56772 47.7486 2.54981 47.7595 2.53189C47.7868 2.48568 47.815 2.43948 47.8441 2.39327C47.8568 2.37252 47.8704 2.35272 47.8832 2.33197C47.8923 2.31783 47.9004 2.30368 47.9095 2.29048C47.9104 2.2886 47.9113 2.28765 47.9123 2.28577C47.9068 2.29237 47.9013 2.29897 47.8959 2.30557C47.8722 2.33197 47.8495 2.35932 47.8268 2.38667C47.7986 2.42062 47.7695 2.45456 47.7422 2.48851C47.7195 2.5168 47.6976 2.54603 47.6758 2.57432C47.6494 2.60922 47.6231 2.64316 47.5976 2.67805C47.5758 2.70823 47.5558 2.73841 47.5348 2.76858C47.5103 2.80347 47.4866 2.83931 47.463 2.87514C47.443 2.90532 47.423 2.93644 47.4039 2.96755C47.3812 3.00339 47.3593 3.03922 47.3375 3.076C47.3184 3.10806 47.3002 3.14012 47.282 3.17313C47.2611 3.2099 47.2411 3.24668 47.2211 3.2844C47.2038 3.31741 47.1865 3.35041 47.1702 3.38436C47.1511 3.42208 47.1329 3.4598 47.1156 3.49752C47.1001 3.53147 47.0838 3.56542 47.0692 3.59936C47.0519 3.63803 47.0356 3.67669 47.0192 3.71535C47.0047 3.75024 46.991 3.78419 46.9774 3.81908C46.9619 3.85869 46.9474 3.89829 46.9328 3.93884C46.9201 3.97373 46.9073 4.00862 46.8955 4.04352C46.8819 4.08406 46.8691 4.12461 46.8564 4.1661C46.8455 4.201 46.8346 4.23683 46.8246 4.27172C46.8128 4.31321 46.8018 4.35565 46.7909 4.39808C46.7818 4.43297 46.7727 4.46881 46.7646 4.5037C46.7546 4.54708 46.7455 4.59045 46.7364 4.63383C46.7291 4.66872 46.7218 4.70361 46.7145 4.7385C46.7064 4.78377 46.6991 4.82903 46.6918 4.8743C46.6864 4.90824 46.68 4.94219 46.6754 4.97614C46.6691 5.02423 46.6636 5.07233 46.6582 5.12042C46.6545 5.15248 46.65 5.18454 46.6472 5.2166C46.6427 5.27036 46.6391 5.32411 46.6354 5.37786C46.6336 5.4052 46.6309 5.43161 46.63 5.45896C46.6263 5.53911 46.6245 5.62021 46.6245 5.70131C46.6245 7.03659 47.1365 8.31624 48.0469 9.26018C48.1251 9.34128 48.206 9.41766 48.2888 9.49216C48.387 9.5808 48.487 9.66661 48.5916 9.74582C48.628 9.77411 48.6662 9.80052 48.7035 9.82692C48.7317 9.84673 48.7589 9.86841 48.7871 9.88727C48.808 9.90142 48.8299 9.91462 48.8508 9.92877C48.8963 9.95894 48.9417 9.99006 48.9881 10.0184C49.0008 10.0268 49.0145 10.0334 49.0281 10.0419C49.0836 10.0749 49.1382 10.1089 49.1945 10.14C49.2264 10.1579 49.2591 10.1739 49.2919 10.1909C49.3301 10.2107 49.3682 10.2315 49.4064 10.2503C49.4374 10.2654 49.4692 10.2796 49.501 10.2937C49.542 10.3126 49.582 10.3324 49.6229 10.3493C49.6565 10.3635 49.6911 10.3767 49.7247 10.3899C49.7648 10.4059 49.8039 10.4229 49.8439 10.437C49.8803 10.4502 49.9166 10.4616 49.953 10.4748C49.9912 10.488 50.0303 10.5021 50.0685 10.5144C50.1031 10.5247 50.1376 10.5342 50.1722 10.5445C50.214 10.5568 50.2549 10.5691 50.2968 10.5804C50.3322 10.5898 50.3677 10.5974 50.4041 10.6049C50.4459 10.6143 50.4868 10.6256 50.5287 10.6341C50.5669 10.6417 50.606 10.6483 50.6451 10.6549C50.6842 10.6624 50.7242 10.67 50.7633 10.6766C50.7997 10.6822 50.837 10.686 50.8743 10.6907C50.9161 10.6964 50.9579 10.703 51.0007 10.7067C51.037 10.7105 51.0743 10.7124 51.1107 10.7152C51.1535 10.719 51.1962 10.7228 51.2398 10.7256C51.278 10.7275 51.3162 10.7275 51.3544 10.7284C51.3963 10.7294 51.4381 10.7313 51.4799 10.7313H51.4808C52.7686 10.7313 54.0027 10.2003 54.913 9.25641C54.9676 9.19983 55.0203 9.14231 55.0713 9.08384C55.0885 9.06404 55.1049 9.04329 55.1222 9.02349C55.1558 8.98388 55.1895 8.94428 55.2222 8.90373C55.2413 8.87921 55.2595 8.85469 55.2786 8.83017C55.3077 8.79245 55.3359 8.75473 55.3641 8.71701C55.3832 8.69061 55.4014 8.66421 55.4205 8.63686C55.4368 8.61328 55.455 8.58971 55.4705 8.56519C55.4687 8.56708 55.466 8.56991 55.4641 8.57179C55.4205 8.62083 55.3786 8.66703 55.335 8.7123Z" fill="#F89601"/>
<path d="M50.9599 3.17985C50.8489 3.3213 50.7935 3.49387 50.7935 3.69944C50.7935 3.91916 50.8544 4.10022 50.9772 4.24072C51.099 4.38217 51.2545 4.49911 51.4437 4.59246C51.5683 4.65376 51.6956 4.71034 51.8238 4.76409V2.7489C51.6729 2.76493 51.5319 2.79888 51.4019 2.85263C51.2182 2.92996 51.0708 3.0384 50.9599 3.17985Z" fill="#FBBC05"/>
<path d="M52.1008 7.32239C52.2781 7.30919 52.4391 7.27242 52.5846 7.21018C52.7692 7.13097 52.9138 7.01875 53.0202 6.87353C53.1266 6.72736 53.1793 6.55668 53.1793 6.36054C53.1748 6.1163 53.1102 5.9211 52.9856 5.7721C52.861 5.62405 52.701 5.50241 52.5045 5.40622C52.3745 5.34304 52.239 5.28363 52.0999 5.22705V7.32239H52.1008Z" fill="#FBBC05"/>
<path d="M47.8429 2.39344C47.8138 2.43871 47.7865 2.48491 47.7583 2.53206C47.7474 2.54998 47.7365 2.5679 47.7265 2.58581C47.6901 2.64994 47.6546 2.71406 47.621 2.77913C47.6155 2.7895 47.611 2.79987 47.6055 2.81025C47.5773 2.86588 47.55 2.92246 47.5237 2.97904C47.5146 2.99979 47.5055 3.02148 47.4955 3.04317C47.4745 3.09126 47.4536 3.13841 47.4336 3.18745C47.4245 3.20913 47.4154 3.23177 47.4063 3.25346C47.3827 3.31286 47.3609 3.37227 47.34 3.43263C47.3363 3.44206 47.3327 3.45243 47.329 3.46186C47.3054 3.53164 47.2827 3.60142 47.2617 3.67215C47.2554 3.69289 47.2499 3.71364 47.2445 3.73438C47.2299 3.78625 47.2163 3.83717 47.2026 3.88904C47.1963 3.91355 47.1908 3.93713 47.1854 3.96165C47.1726 4.0154 47.1608 4.07009 47.1499 4.12479C47.1462 4.14365 47.1417 4.16251 47.1381 4.18137C47.1244 4.25398 47.1117 4.32659 47.1017 4.40014C47.099 4.41617 47.0971 4.4322 47.0953 4.44918C47.0871 4.50764 47.0808 4.56611 47.0744 4.62458C47.0717 4.64909 47.0699 4.67361 47.068 4.69813C47.0635 4.75188 47.0599 4.80469 47.0562 4.85844C47.0553 4.88107 47.0535 4.90465 47.0526 4.92728C47.0489 5.00272 47.0471 5.07816 47.0471 5.1536C47.0471 6.48888 47.5591 7.76853 48.4695 8.71247C48.9815 9.24338 49.5962 9.64321 50.2656 9.89122C50.2774 9.89593 50.2901 9.89971 50.302 9.90348C50.3647 9.92611 50.4275 9.9478 50.4902 9.96854C50.4929 9.96949 50.4957 9.97043 50.4984 9.97137C50.5711 9.99401 50.6448 10.0157 50.7185 10.0346C50.743 10.0412 50.7685 10.0459 50.793 10.0515C50.8458 10.0647 50.8976 10.077 50.9504 10.0883C50.9858 10.0958 51.0213 10.1006 51.0568 10.1072C51.0995 10.1147 51.1423 10.1241 51.185 10.1307C51.2196 10.1364 51.2541 10.1392 51.2887 10.1439C51.3332 10.1496 51.3778 10.1562 51.4224 10.1609C51.4542 10.1637 51.486 10.1656 51.5188 10.1685C51.5661 10.1722 51.6143 10.1769 51.6615 10.1798C51.6961 10.1817 51.7307 10.1817 51.7643 10.1826C51.8098 10.1835 51.8553 10.1864 51.9016 10.1864H51.9025C53.1903 10.1864 54.4244 9.65547 55.3347 8.71153C55.3784 8.66626 55.4202 8.621 55.462 8.57479C55.4629 8.57291 55.4648 8.57102 55.4657 8.56914C56.2933 7.64028 56.7562 6.42099 56.7562 5.15171C56.7562 3.81643 56.2441 2.53678 55.3338 1.59284C54.4235 0.649838 53.1885 0.119873 51.9007 0.119873C50.6139 0.119873 49.3789 0.650781 48.4686 1.59472C48.263 1.80784 48.0784 2.03982 47.9147 2.28405C47.9129 2.28594 47.9111 2.28783 47.9093 2.29065C47.9002 2.3048 47.8911 2.31894 47.8829 2.33215C47.8692 2.35289 47.8556 2.37364 47.8429 2.39344ZM52.7856 2.59807C53.0348 2.69614 53.2303 2.84325 53.3731 3.0394C53.4195 3.10635 53.4422 3.15633 53.4422 3.19027C53.4422 3.22328 53.4249 3.25723 53.3904 3.29023C53.3558 3.32418 53.3176 3.34021 53.2767 3.34021C53.2394 3.34021 53.2094 3.32607 53.1867 3.29683C53.1039 3.18179 53.0029 3.08277 52.8856 2.99885C52.7683 2.91492 52.6355 2.8508 52.4882 2.80553C52.3654 2.76781 52.2363 2.74707 52.1008 2.74046V4.87447C52.2499 4.92916 52.3991 4.98763 52.5473 5.05081C52.7201 5.12531 52.8765 5.21678 53.0175 5.32711C53.1585 5.43744 53.2703 5.57606 53.3531 5.74297C53.4358 5.91082 53.4777 6.12111 53.4777 6.37384C53.4777 6.59355 53.4167 6.79724 53.294 6.98301C53.1721 7.16973 53.0002 7.31966 52.7783 7.43471C52.5864 7.53467 52.3591 7.5903 52.1008 7.60633V8.54556C52.1008 8.58422 52.0881 8.61723 52.0626 8.64552C52.0371 8.67381 52.0035 8.6889 51.9626 8.6889C51.9207 8.6889 51.8871 8.67475 51.8625 8.64552C51.8371 8.61723 51.8243 8.58328 51.8243 8.54556V7.61011C51.5324 7.5969 51.2759 7.53655 51.0568 7.42622C50.7985 7.29703 50.5493 7.10843 50.3101 6.85948C50.301 6.85005 50.292 6.83685 50.2829 6.81987C50.2738 6.8029 50.2692 6.78027 50.2692 6.75198C50.2692 6.71332 50.2856 6.67654 50.3174 6.64071C50.3492 6.60487 50.3838 6.58695 50.4211 6.58695C50.4629 6.58695 50.502 6.60864 50.5384 6.65108C50.723 6.8708 50.9386 7.03865 51.185 7.15275C51.3905 7.24894 51.6043 7.30363 51.8252 7.31966V5.11493C51.6761 5.05553 51.5279 4.99517 51.3824 4.93294C51.2159 4.86127 51.0668 4.77357 50.9331 4.67078C50.7994 4.568 50.693 4.4388 50.6148 4.28321C50.5366 4.12761 50.4975 3.93524 50.4975 3.70609C50.4975 3.47223 50.5584 3.26006 50.6812 3.07146C50.803 2.88286 50.9786 2.73198 51.2068 2.61976C51.386 2.53112 51.5933 2.47925 51.8262 2.46039V1.80595C51.8262 1.76729 51.8389 1.73429 51.8643 1.706C51.8898 1.67771 51.9235 1.66262 51.9644 1.66262C52.0062 1.66262 52.039 1.67676 52.0644 1.706C52.0899 1.73429 52.1026 1.76823 52.1026 1.80595V2.45568C52.3345 2.46511 52.5628 2.51132 52.7856 2.59807ZM48.8614 2.00115C49.6672 1.16472 50.7612 0.695102 51.9016 0.695102C52.0062 0.695102 52.0908 0.782801 52.0908 0.891245C52.0908 0.99969 52.0062 1.08739 51.9016 1.08739C50.8622 1.08739 49.8645 1.51645 49.1297 2.2784C48.3958 3.0394 47.9838 4.07009 47.982 5.14605V5.1536C47.982 6.23144 48.3958 7.26591 49.1306 8.02785C49.8654 8.7898 50.8631 9.21792 51.9035 9.21792C52.9429 9.21792 53.9406 8.78885 54.6754 8.02691C55.4102 7.26403 55.8231 6.2305 55.8231 5.15265V5.15171C55.8231 4.07386 55.4093 3.0394 54.6745 2.27745C54.2543 1.84179 53.7487 1.51551 53.1985 1.31559C53.0993 1.27976 53.0475 1.16754 53.0821 1.0657C53.1094 0.984602 53.183 0.934623 53.2612 0.934623C53.2821 0.934623 53.3031 0.938395 53.324 0.945939C53.9278 1.16471 54.4826 1.52305 54.9428 2.00115C55.7494 2.83759 56.2023 3.97108 56.2023 5.1536V5.15548C56.2023 6.33706 55.7494 7.47054 54.9437 8.30604C54.137 9.14248 53.0439 9.61209 51.9035 9.61209C50.763 9.61209 49.669 9.14248 48.8632 8.30698C48.0566 7.47054 47.6037 6.33706 47.6037 5.15454V5.1536C47.6019 3.97108 48.0548 2.83759 48.8614 2.00115Z" fill="#FBBC05"/>
<path d="M47.6021 5.15451C47.6021 6.33703 48.0559 7.47051 48.8616 8.30695C49.6683 9.14245 50.7614 9.61206 51.9018 9.61206C53.0422 9.61206 54.1354 9.1415 54.942 8.30601C55.7478 7.47051 56.2007 6.33703 56.2007 5.15545V5.15356C56.2007 3.97104 55.7469 2.83756 54.9411 2.00112C54.48 1.52302 53.9253 1.16562 53.3223 0.945906C53.3014 0.938362 53.2805 0.93459 53.2596 0.93459C53.1814 0.93459 53.1077 0.985512 53.0804 1.06567C53.0459 1.16845 53.0977 1.27973 53.1968 1.31556C53.747 1.51548 54.2527 1.84175 54.6728 2.27742C55.4086 3.03936 55.8214 4.07383 55.8214 5.15168V5.15262C55.8214 6.23047 55.4086 7.26494 54.6737 8.02688C53.9389 8.78976 52.9413 9.21789 51.9018 9.21789C50.8614 9.21789 49.8647 8.78976 49.129 8.02782C48.3933 7.26588 47.9804 6.23141 47.9804 5.15356V5.14602C47.9822 4.07006 48.3951 3.03936 49.1281 2.27836C49.8629 1.51548 50.8605 1.08736 51.9 1.08736C52.0046 1.08736 52.0892 0.999657 52.0892 0.891212C52.0892 0.782767 52.0046 0.695068 51.9 0.695068C50.7596 0.695068 49.6664 1.16562 48.8598 2.00112C48.0549 2.83756 47.6021 3.97104 47.6021 5.15451C47.6021 5.15356 47.6021 5.15356 47.6021 5.15451Z" fill="#F9A302"/>
<path d="M52.0625 1.70585C52.0371 1.67756 52.0034 1.66248 51.9625 1.66248C51.9207 1.66248 51.887 1.67662 51.8625 1.70585C51.837 1.73414 51.8243 1.76809 51.8243 1.80581V2.46025C51.5915 2.47911 51.385 2.53192 51.205 2.61962C50.9767 2.73184 50.8012 2.88272 50.6793 3.07131C50.5574 3.25991 50.4956 3.47209 50.4956 3.70595C50.4956 3.9351 50.5347 4.12842 50.6129 4.28307C50.6911 4.43866 50.7975 4.56785 50.9312 4.67064C51.0649 4.77343 51.215 4.86113 51.3805 4.93279C51.526 4.99597 51.6742 5.05633 51.8234 5.11479V7.32235C51.6033 7.30632 51.3896 7.25163 51.1831 7.15544C50.9367 7.04039 50.7211 6.87348 50.5365 6.65377C50.4992 6.61039 50.4601 6.58964 50.4192 6.58964C50.3819 6.58964 50.3474 6.60756 50.3155 6.64339C50.2828 6.67923 50.2673 6.716 50.2673 6.75467C50.2673 6.78296 50.2719 6.80653 50.281 6.82256C50.2901 6.83954 50.2992 6.85274 50.3083 6.86217C50.5483 7.11112 50.7966 7.29972 51.0549 7.42891C51.2741 7.5383 51.5305 7.59959 51.8225 7.61279V8.54825C51.8225 8.58691 51.8352 8.61992 51.8606 8.64821C51.8861 8.6765 51.9198 8.69159 51.9607 8.69159C52.0025 8.69159 52.0353 8.67744 52.0607 8.64821C52.0862 8.61992 52.0989 8.58597 52.0989 8.54825V7.60902C52.3572 7.59205 52.5845 7.53641 52.7764 7.4374C52.9974 7.32235 53.1693 7.17241 53.2921 6.9857C53.4139 6.79899 53.4758 6.59624 53.4758 6.37652C53.4758 6.12286 53.434 5.91257 53.3512 5.74566C53.2684 5.57875 53.1566 5.44013 53.0156 5.3298C52.8747 5.21947 52.7182 5.12799 52.5454 5.0535C52.3972 4.99032 52.249 4.93185 52.0989 4.87716V2.74127C52.2344 2.74787 52.3636 2.76861 52.4863 2.80633C52.6337 2.8516 52.7664 2.91666 52.8838 2.99965C53.0011 3.08357 53.102 3.18259 53.1848 3.29763C53.2075 3.32592 53.2375 3.34101 53.2748 3.34101C53.3166 3.34101 53.3548 3.32404 53.3885 3.29103C53.423 3.25803 53.4403 3.22408 53.4403 3.19108C53.4403 3.15807 53.4176 3.10715 53.3712 3.0402C53.2284 2.84405 53.032 2.69694 52.7837 2.59887C52.5609 2.51117 52.3326 2.46497 52.0989 2.45554V1.80581C52.1007 1.76809 52.088 1.73414 52.0625 1.70585ZM51.8243 4.764C51.696 4.71025 51.5687 4.65367 51.4441 4.59237C51.255 4.49901 51.0995 4.38208 50.9776 4.24063C50.8557 4.09918 50.7939 3.91907 50.7939 3.69935C50.7939 3.49378 50.8494 3.32027 50.9603 3.17976C51.0713 3.03831 51.2186 2.92987 51.4032 2.85348C51.5333 2.79973 51.6742 2.76578 51.8252 2.74975V4.764H51.8243ZM52.5054 5.40618C52.7019 5.50142 52.8619 5.62401 52.9865 5.77206C53.1111 5.92011 53.1757 6.11626 53.1802 6.36049C53.1802 6.55664 53.1275 6.72732 53.0211 6.87348C52.9147 7.01965 52.7701 7.13187 52.5855 7.21013C52.44 7.27237 52.2781 7.30915 52.1016 7.32235V5.22701C52.2399 5.28359 52.3754 5.343 52.5054 5.40618Z" fill="white" stroke="white" stroke-width="0.2"/>
<path d="M56.5512 65.3292H44.1214C43.7524 65.3292 43.4553 65.0312 43.4553 64.661V52.1808C43.4553 51.8106 43.7524 51.5126 44.1214 51.5126H56.5606C56.9296 51.5126 57.2267 51.8106 57.2267 52.1808V64.661C57.2267 65.0312 56.9202 65.3292 56.5512 65.3292Z" fill="#A8C8F3"/>
<path d="M56.5512 49.3884H44.1214C43.7524 49.3884 43.4553 49.0904 43.4553 48.7202V36.24C43.4553 35.8698 43.7524 35.5718 44.1214 35.5718H56.5606C56.9296 35.5718 57.2267 35.8698 57.2267 36.24V48.7202C57.2267 49.0935 56.9202 49.3884 56.5512 49.3884Z" fill="#74AAF3"/>
<path opacity="0.05" d="M56.5512 33.451H44.1214C43.7524 33.451 43.4553 33.153 43.4553 32.7828V20.3026C43.4553 19.9324 43.7524 19.6344 44.1214 19.6344H56.5606C56.9296 19.6344 57.2267 19.9324 57.2267 20.3026V32.7828C57.2267 33.153 56.9202 33.451 56.5512 33.451Z" fill="#F2F2F2"/>
<path d="M72.4394 65.3292H60.0096C59.6406 65.3292 59.3435 65.0312 59.3435 64.661V52.1808C59.3435 51.8106 59.6406 51.5126 60.0096 51.5126H72.4488C72.8178 51.5126 73.1149 51.8106 73.1149 52.1808V64.661C73.1117 65.0312 72.8084 65.3292 72.4394 65.3292Z" fill="#DBB5FF"/>
<path d="M72.4394 49.3884H60.0096C59.6406 49.3884 59.3435 49.0904 59.3435 48.7202V36.24C59.3435 35.8698 59.6406 35.5718 60.0096 35.5718H72.4488C72.8178 35.5718 73.1149 35.8698 73.1149 36.24V48.7202C73.1117 49.0935 72.8084 49.3884 72.4394 49.3884Z" fill="#C88CFF"/>
<path d="M75.2288 32.7859V20.2995C75.2288 19.9324 75.5258 19.6344 75.8917 19.6344H88.3372C88.7031 19.6344 89.0001 19.9324 89.0001 20.2995V32.7859C89.0001 33.153 88.7031 33.451 88.3372 33.451H75.8917C75.5258 33.451 75.2288 33.153 75.2288 32.7859Z" fill="#D02461"/>
<path d="M75.2288 48.7266V36.2402C75.2288 35.8731 75.5258 35.5751 75.8917 35.5751H88.3372C88.7031 35.5751 89.0001 35.8731 89.0001 36.2402V48.7266C89.0001 49.0936 88.7031 49.3917 88.3372 49.3917H75.8917C75.5258 49.3885 75.2288 49.0936 75.2288 48.7266Z" fill="#E25189"/>
<path d="M89.0001 64.6641C89.0001 65.0312 88.7031 65.3292 88.3372 65.3292H75.8917C75.5258 65.3292 75.2288 65.0312 75.2288 64.6641V52.1777C75.2288 51.8106 75.5258 51.5126 75.8917 51.5126H88.3372C88.7031 51.5126 89.0001 51.8106 89.0001 52.1777V64.6641Z" fill="#E878A4"/>
<path d="M72.4394 33.451H60.0096C59.6406 33.451 59.3435 33.153 59.3435 32.7828V20.3026C59.3435 19.9324 59.6406 19.6344 60.0096 19.6344H72.4488C72.8178 19.6344 73.1149 19.9324 73.1149 20.3026V32.7828C73.1117 33.153 72.8084 33.451 72.4394 33.451Z" fill="#9858E8"/>
<path d="M25.0029 13.5167C25.0029 13.5167 20.4124 12.6382 19.0709 17.8649C17.7294 23.0917 14.5805 20.1803 14.2209 24.2493C13.8644 28.3152 10.4623 27.0164 11.4785 30.5521C11.4785 30.5521 10.972 28.9803 12.8231 27.9199C14.6743 26.8595 15.0433 26.3827 15.0433 26.3827C15.0433 26.3827 11.9413 28.0988 12.3134 31.1263C14.1334 30.9004 15.2466 30.6055 17.2135 32.149C19.1804 33.6926 25.991 34.5177 28.7084 31.4933C31.4257 28.469 31.6259 29.316 31.6259 29.316C31.6259 29.316 33.3145 27.167 31.1662 23.6062C28.946 19.9167 32.9548 13.8931 25.0029 13.5167Z" fill="#00276F"/>
<path fill-rule="evenodd" clip-rule="evenodd" d="M19.9058 50.7721L27.3199 76.3253L30.8065 95.5098H34.3056L30.8159 50.7721H19.9058Z" fill="#997659"/>
<path fill-rule="evenodd" clip-rule="evenodd" d="M16.5754 50.7721C17.0914 64.046 16.8881 71.2868 16.7724 72.4947C16.6567 73.6994 16.0001 81.7779 11.519 95.9177H15.1589C21.0908 82.352 23.164 74.2767 23.8426 72.4947C24.5243 70.7127 26.5318 63.4718 29.4681 50.7721H16.5754Z" fill="#B28B67"/>
<path fill-rule="evenodd" clip-rule="evenodd" d="M19.7461 50.7721C21.6755 59.5659 25.012 73.6021 29.7525 92.8808H34.8714C35.2498 73.0939 33.6394 60.0679 30.8564 50.7721H19.7461Z" fill="#2F80ED"/>
<path fill-rule="evenodd" clip-rule="evenodd" d="M16.5474 50.7721C17.054 64.046 15.7406 77.1253 11.6724 93.0879H17.1353C23.0797 79.7261 27.3387 66.7127 30.2499 50.7721H16.5474Z" fill="#62B4FF"/>
<path fill-rule="evenodd" clip-rule="evenodd" d="M11 98.5466L11.1595 95.9646C11.1814 95.6289 11.5097 95.3967 11.8412 95.4344C13.5423 95.6258 15.6186 94.9042 15.6186 94.9042C17.6824 96.3661 20.5155 97.1568 22.0853 97.5081C22.7013 97.6462 23.0984 98.2768 22.9264 98.8854L22.8514 99.1552H15.6217H11.4003L11 98.5466Z" fill="#E4E4E4"/>
<path fill-rule="evenodd" clip-rule="evenodd" d="M30.0278 98.5466L30.1873 95.9646C30.2092 95.6289 30.5375 95.3967 30.869 95.4344C32.5701 95.6258 34.6464 94.9042 34.6464 94.9042C36.7103 96.3661 39.5433 97.1568 41.1131 97.5081C41.7291 97.6462 42.1262 98.2768 41.9543 98.8854L41.8792 99.1552H34.6496H30.4312L30.0278 98.5466Z" fill="#E4E4E4"/>
<path fill-rule="evenodd" clip-rule="evenodd" d="M44.4873 27.5498L37.0544 29.5514L38.84 32.7608L44.6687 29.5419C47.3454 29.4635 48.6181 29.2376 48.4837 28.8612C48.368 28.5443 48.074 28.4815 47.8051 28.4251C47.5956 28.3811 47.3986 28.3404 47.311 28.1835C47.1109 27.8258 47.8739 26.9349 48.6306 26.1223C49.3905 25.3066 48.8026 25.2501 48.4493 25.3066C47.2141 25.7678 45.8945 26.5145 44.4873 27.5498Z" fill="#B28B67"/>
<path fill-rule="evenodd" clip-rule="evenodd" d="M16.9976 51.2457H31.9666C31.9666 51.2457 26.8789 35.6314 26.7695 29.8117C26.7663 29.6141 26.4036 29.2659 26.241 29.3129C24.4805 29.8117 22.473 28.9396 22.473 28.9396C18.9269 34.6839 17.698 41.7554 16.9976 51.2457Z" fill="#F2F2F2"/>
<path fill-rule="evenodd" clip-rule="evenodd" d="M26.3158 37.5357C28.3484 47.6974 27.9888 55.9548 22.8292 55.7948L14.8522 55.5501C13.8453 46.9413 17.5352 35.1577 20.8029 29.2564C20.928 29.0306 21.1906 28.607 21.7816 28.6258L24.0987 28.698C24.0987 28.7011 24.1019 28.7043 24.1019 28.7074C24.7992 28.7357 25.5653 28.7827 26.3971 28.836C30.6749 29.109 36.6412 29.4917 43.4268 27.5247L44.0991 31.5341C37.917 35.2769 31.6818 38.1318 26.3158 37.5357Z" fill="#C485FF"/>
<path d="M21.0811 28.9677L23.0855 20.8328L25.8998 24.312L25.118 29.1058C25.1212 29.1058 24.1361 29.203 21.0811 28.9677Z" fill="#B28B67"/>
<path d="M24.6432 14.4987C24.6432 14.4987 20.0965 14.4485 20.8595 20.6792C21.1034 22.6651 21.5068 24.2274 22.4605 24.8392C25.6657 26.9004 28.2987 26.182 29.2587 24.0016C29.7152 22.9631 30.0498 21.5608 29.8059 19.5748C29.0429 13.3442 24.6432 14.4987 24.6432 14.4987Z" fill="#B28B67"/>
<path d="M20.9531 15.8258C20.9531 15.8258 18.0512 15.0383 19.1769 12.5254C20.3027 10.0155 24.5648 9.83984 24.8275 13.4979C22.2946 13.9089 20.9531 15.8258 20.9531 15.8258Z" fill="#00276F"/>
<path d="M20.3654 19.829C20.3654 19.829 23.9427 20.3373 25.131 16.2588C25.0059 17.9906 23.6113 19.2925 23.6113 19.2925C23.6113 19.2925 25.5 18.8345 26.388 16.4658C26.9384 17.9812 25.8064 19.0447 25.8064 19.0447C25.8064 19.0447 29.0022 18.9882 29.071 16.9929C29.7058 17.7584 29.3181 18.9976 29.3181 18.9976C29.3181 18.9976 30.4125 18.3765 29.6933 16.4219C28.9741 14.4674 26.288 13.3568 22.9827 14.2039C19.6744 15.0509 20.3654 19.829 20.3654 19.829Z" fill="#00276F"/>
<path d="M23.0043 22.9819C24.3708 25.7051 25.3308 27.8291 25.9499 30.2448C24.0456 27.9828 19.058 30.7373 19.4019 28.5349C19.9117 25.2941 18.6139 18.4172 22.8917 18.7937" fill="#00276F"/>
<path d="M49.0244 20.3154C48.9994 20.2432 48.9838 20.1679 48.9806 20.0895L48.8305 17.9373C48.8055 17.5922 48.9587 17.2597 49.237 17.0526C49.5779 16.8016 50.0376 16.7859 50.3909 17.0212L50.4284 17.0463C50.7411 17.2534 50.9225 17.6079 50.9131 17.9812L50.8631 19.506C50.8475 19.942 50.7599 20.375 50.6004 20.7797L50.5129 21.0056C50.3065 21.6079 49.4559 21.6048 49.2558 21.0024L49.0244 20.3154Z" fill="#2F80ED"/>
<path d="M45.7347 23.4148C45.4377 23.3144 45.1812 23.1168 45.0093 22.8564L44.7497 22.4673C44.5996 22.2383 44.5934 21.9466 44.7403 21.7144C44.8248 21.5795 44.953 21.4791 45.1062 21.4258L45.1187 21.4226C45.372 21.3348 45.6565 21.3944 45.8535 21.5764L46.0881 21.7897C46.2694 21.956 46.3976 22.1693 46.4602 22.4046L46.751 23.5183C46.7666 23.5748 46.7447 23.6376 46.6978 23.6721C46.6572 23.7034 46.604 23.7128 46.5571 23.6972L45.7347 23.4148Z" fill="#2F80ED"/>
<path d="M53.9494 27.3898L54.9594 27.989C55.3065 28.196 55.6005 28.4784 55.8194 28.8204L56.0883 29.2408C56.279 29.5357 56.3478 29.8933 56.2822 30.2416C56.1727 30.8031 55.7224 31.2392 55.1596 31.3302C54.7562 31.3961 54.3372 31.2769 54.0307 31.0071L53.3928 30.4486C53.1958 30.2761 53.0176 30.0753 52.8706 29.8588L52.7768 29.7239C52.486 29.3004 52.2702 28.8298 52.1389 28.3309L51.9294 27.5372C51.92 27.4996 51.9044 27.4588 51.8856 27.4243C51.6323 26.9286 52.1733 26.4015 52.6611 26.6713L53.9494 27.3898Z" fill="#2F80ED"/>
</svg>
