<svg width="100" height="100" viewBox="0 0 100 100" fill="none" xmlns="http://www.w3.org/2000/svg">
<path d="M56.2878 65.7288L56.303 68.2828L57.8315 65.7896C57.3018 65.7744 56.8024 65.7592 56.2878 65.7288Z" fill="#F79D19"/>
<path d="M56.3634 83.2423L56.4088 95.6021C56.4088 97.1375 55.1829 98.3842 53.6543 98.3994L64.9143 98.3537C66.4429 98.3537 67.6839 97.0919 67.6688 95.5565L67.5931 75.1697C67.2753 71.5362 67.0482 67.8116 67.0331 64.847C65.7618 69.4078 60.1621 77.8453 56.3634 83.2423Z" fill="#CA618A"/>
<path d="M56.4089 95.6021L56.3634 83.2423C54.3052 86.1764 52.7615 88.1984 52.7615 88.1984L51.4296 87.2102L48.4936 90.2051C49.1746 92.3639 50.6729 94.4011 51.5507 95.4804C51.9139 95.9213 51.8383 96.6206 51.3691 97.0159L51.1572 97.1831L45.951 93.2609L42.909 90.9805L42.9695 90.2963L44.5737 88.3656C44.7856 88.1224 45.1489 88.1072 45.3759 88.32C45.4364 88.3808 45.5121 88.4416 45.5878 88.4872L48.1909 84.8082L46.7985 83.7744L56.3029 68.2981L56.2878 65.744C39.4129 65.0447 32.9505 63.9805 30.862 59.146C30.635 58.8572 30.4685 58.4771 30.3625 58.0363H30.0296L18.7545 58.0819C17.2259 58.0971 16 59.3437 16 60.8792L16.1362 95.7693C16.1362 97.3048 17.3924 98.5514 18.9209 98.5362L30.1809 98.4906L53.6544 98.3994C55.183 98.3842 56.4089 97.1375 56.4089 95.6021Z" fill="#F39FBD"/>
<path d="M36.2043 21.0786C36.2649 21.033 36.3103 20.9722 36.3708 20.9266C38.868 20.7746 41.8192 22.6597 43.2872 24.8945L43.3024 24.9097C44.8461 20.5465 42.016 18.9351 40.7144 15.2864L41.1684 10.604C42.3338 10.1327 43.5748 9.12933 44.4375 7.12257C44.0137 9.29656 42.0462 10.7256 42.0462 10.7256C42.0462 10.7256 44.498 10.4368 45.9812 7.57865C46.4352 9.5702 44.8461 10.7408 44.8461 10.7408C44.8461 10.7408 48.9021 11.1817 49.2956 8.67325C49.3713 8.77967 49.4167 8.90129 49.4621 9.02291C49.4923 9.11413 49.5226 9.20534 49.5378 9.31176C49.7345 10.2391 49.2956 11.2425 49.2956 11.2425C49.2956 11.2425 49.5226 11.1361 49.7648 10.8624C49.795 11.2425 49.8253 11.6226 49.8253 12.0482C49.8253 14.6023 49.1897 16.305 48.4481 17.5516C47.6005 18.9807 46.1628 19.7408 44.4526 19.6648L44.2861 20.5921C46.2385 20.4857 48.8567 22.5077 50.8242 24.3776C51.369 23.6479 52.6857 21.2915 50.915 17.3388C48.6751 12.3371 54.6683 5.35906 44.6947 3.64116C44.6947 3.64116 44.2558 3.50434 43.5899 3.44353C43.2267 -0.448358 38.6258 -0.265925 37.3848 2.47056C36.6735 4.02123 37.3848 4.9942 38.1264 5.52629C37.5362 6.19521 36.9762 7.06176 36.5373 8.20196C34.0401 14.6023 30.5138 10.4368 29.4393 15.5145C28.3647 20.5465 24.3541 18.479 24.9898 22.9182C24.9443 22.4621 24.9746 20.8354 27.1086 19.9384C27.6837 19.6952 28.1377 19.4823 28.5312 19.2999C27.3507 20.1817 25.9735 21.6715 25.9735 23.9063C28.3042 23.9063 29.7571 23.7087 31.997 25.9587C32.1937 26.1563 32.451 26.354 32.7386 26.5364C33.4953 22.7661 35.0693 21.4739 36.2043 21.0786Z" fill="#00276F"/>
<path d="M24.9897 22.9182C24.9897 22.9942 25.0049 23.055 25.0049 23.055C25.0049 23.0094 25.0049 22.9638 24.9897 22.9182Z" fill="#3F2E29"/>
<path d="M45.5879 88.4872C46.723 89.4449 48.4029 89.9466 48.4029 89.9466C48.4332 90.0378 48.4634 90.1139 48.4937 90.2051L51.4298 87.2101L48.191 84.8081L45.5879 88.4872Z" fill="#B28B67"/>
<path d="M50.9756 30.2762C51.3388 31.2948 51.5356 32.1158 51.5356 32.5262C51.5356 34.4114 51.3388 35.9772 51.0664 37.2847L53.4879 39.2914L53.8814 37.2999C54.0781 36.2813 54.9862 35.4603 55.9245 35.4603H56.4391C54.9559 33.0431 53.5938 30.8691 52.3377 28.984C51.9442 29.3793 51.5053 29.8202 50.9756 30.2762Z" fill="#A57E5D"/>
<path d="M44.2861 20.592L44.2407 20.8657C44.8612 21.9907 47.313 26.5971 48.0092 29.3488C48.5692 31.5988 47.7065 32.1157 46.7379 32.1005C47.9033 33.5903 49.1745 35.1866 50.6123 36.9197L51.0663 37.2998C51.3388 35.9923 51.5355 34.4265 51.5355 32.5413C51.5355 32.1309 51.3388 31.3251 50.9755 30.2913C51.5052 29.8353 51.9441 29.3792 52.3225 28.9839C53.1852 28.0718 53.6543 27.3876 53.6543 27.3876C53.6543 27.3876 52.4587 25.9586 50.8242 24.3927C48.8567 22.5076 46.2385 20.4856 44.2861 20.592Z" fill="#9758E8"/>
<path d="M75.2663 92.227L74.5701 88.9128H70.3325L71.6643 92.6983C71.7703 92.6527 71.8762 92.6223 71.9973 92.6223C73.1929 92.7591 74.5701 92.4247 75.2663 92.227Z" fill="#B28B67"/>
<path d="M82.1224 94.6444C80.5635 94.3099 77.7636 93.5346 75.7205 92.0903C75.7205 92.0903 75.5389 92.1511 75.2665 92.2272C74.5703 92.4248 73.1931 92.7592 71.9974 92.6224C71.8764 92.6072 71.7553 92.6376 71.6645 92.6984C71.4829 92.7897 71.3467 92.9417 71.3315 93.1545L71.1802 95.7086L71.5737 96.3015L75.7356 96.2863L82.8791 96.2559L82.9548 95.9822C83.1364 95.3893 82.7277 94.766 82.1224 94.6444Z" fill="#E4E4E4"/>
<path d="M51.3086 50.5261C51.248 50.5261 51.1875 50.5413 51.127 50.5413C51.1572 50.7998 51.1724 51.043 51.1875 51.2558H51.3388C51.2934 51.0278 51.2783 50.7846 51.3086 50.5261Z" fill="#4CA8ED"/>
<path d="M75.7356 88.9129C75.7356 88.9129 77.128 62.3386 74.9638 58.2947C73.299 55.3606 70.5899 53.445 67.4117 52.244L58.9667 52.2744L52.0352 52.2896C59.4813 53.369 64.9751 56.1967 67.0939 62.3082C67.3814 62.8555 67.336 63.7372 67.0182 64.847C67.0182 67.8268 67.2604 71.5514 67.5782 75.1697C68.1836 82.2237 69.0765 88.9129 69.0765 88.9129H70.3326H74.5703H75.7356Z" fill="#4CA8ED"/>
<path d="M56.2878 65.7289C56.8024 65.7442 57.2867 65.7746 57.8315 65.7898L56.3029 68.283L46.7985 83.7745L48.1909 84.8083L51.4296 87.2103L52.7615 88.1985C52.7615 88.1985 54.29 86.1766 56.3635 83.2424C60.1622 77.8455 65.7771 69.408 67.0332 64.8472C67.3359 63.7374 67.3964 62.8556 67.1089 62.3083C64.9901 56.1969 59.4963 53.3692 52.0502 52.2898L44.0441 52.3202C43.7565 52.3202 43.5295 52.0921 43.5295 51.8033C43.5295 51.5144 43.7565 51.2864 44.0441 51.2864L51.2178 51.2712C51.2026 51.0584 51.1724 50.8151 51.1572 50.5567C50.9756 48.6107 50.6275 45.4942 50.234 43.7459C49.7497 43.533 49.2957 43.3202 48.8568 43.0922C40.4572 44.5212 35.6596 43.5786 32.33 43.1226C31.4522 47.2729 29.5302 54.7222 30.3777 58.0516C30.4988 58.5077 30.6501 58.8877 30.8771 59.1614C32.9505 63.9806 39.4129 65.0448 56.2878 65.7289Z" fill="#62B4FF"/>
<path d="M48.8265 43.0768C46.1628 41.7389 41.6074 37.5126 38.414 33.0582C37.8389 33.1798 37.2487 33.271 36.6282 33.3166C36.6282 33.3166 32.2846 24.9856 35.9925 21.2609C36.0531 21.2001 36.1287 21.1393 36.1893 21.0785C35.0542 21.4738 33.4802 22.7508 32.7235 26.5515C32.3754 28.2542 32.1938 30.4281 32.2846 33.3014C32.4511 38.2879 32.0727 38.0751 32.2846 43.1224C35.6293 43.5785 40.4269 44.521 48.8265 43.0768Z" fill="#9758E8"/>
<path d="M53.4879 39.2763L51.0664 37.2695L50.6124 36.8895C49.1746 35.1563 47.8882 33.5601 46.738 32.0702C47.7066 32.1006 48.5692 31.5685 48.0093 29.3185C47.3282 26.5668 44.8613 21.9604 44.2408 20.8354L44.2862 20.5618L44.4527 19.6344C46.178 19.7256 47.6006 18.9655 48.4482 17.5212C49.1898 16.2746 49.8254 14.5567 49.8254 12.0179C49.8254 11.5922 49.7951 11.2121 49.7649 10.8321C49.5227 11.1361 49.2957 11.2425 49.2957 11.2425C49.2957 11.2425 49.7346 10.2544 49.5378 9.2966C49.5076 9.19018 49.4924 9.11417 49.4622 9.00775C49.4168 8.90133 49.3714 8.77971 49.2957 8.67329C48.9022 11.1817 44.8613 10.7561 44.8613 10.7561C44.8613 10.7561 46.4504 9.58545 45.9964 7.5939C44.5132 10.452 42.0615 10.7409 42.0615 10.7409C42.0615 10.7409 44.0289 9.3118 44.4527 7.13782C43.59 9.14457 42.349 10.1479 41.1837 10.6192L40.7296 15.3017C42.0312 18.9503 44.8765 20.577 43.3176 24.9249L43.3025 24.9097C44.71 27.1445 45.6483 29.3489 45.6483 29.3489C45.6483 29.3489 42.576 32.1462 38.4141 33.0584C41.6074 37.5128 46.1477 41.7391 48.8265 43.0769C49.2654 43.2898 49.7346 43.5178 50.2038 43.7307C50.9151 44.0499 51.6718 44.354 52.4437 44.658L53.4879 39.2763Z" fill="#B28B67"/>
<path d="M45.6483 29.3488C45.6483 29.3488 44.71 27.1292 43.3025 24.9096C41.8344 22.6596 38.8832 20.7745 36.386 20.9417C36.3255 20.9873 36.265 21.0482 36.2196 21.0938C36.159 21.1546 36.0833 21.2002 36.0228 21.2762C32.3149 25.0008 36.6585 33.3319 36.6585 33.3319C37.2638 33.2863 37.8692 33.1951 38.4443 33.0735C42.576 32.1461 45.6483 29.3488 45.6483 29.3488Z" fill="#9758E8"/>
<path d="M53.8661 37.2845L53.4726 39.2761L52.4283 44.6578L51.3084 50.45C51.3084 50.4804 51.3084 50.4956 51.3084 50.5261C51.263 50.7845 51.2781 51.0277 51.3386 51.2558H51.1873L44.0136 51.271C43.726 51.271 43.499 51.499 43.499 51.7879C43.499 52.0767 43.726 52.3048 44.0136 52.3048L52.0197 52.2744L58.9512 52.2592L67.3962 52.2287L75.4477 52.1983H76.0985C76.3558 52.1983 76.5677 52.0007 76.598 51.7423C77.0369 51.4078 77.3698 50.9213 77.4909 50.3588L80.0486 37.1933C80.2454 36.1747 79.6551 35.3538 78.7168 35.369L56.4238 35.4298H55.9092C54.986 35.445 54.0628 36.2659 53.8661 37.2845Z" fill="#D6D6D6"/>
<path d="M45.5877 88.4872C45.5272 88.4264 45.4515 88.3808 45.3758 88.32C45.164 88.1072 44.7856 88.1072 44.5737 88.3656L42.9695 90.2963L42.9089 90.9805L45.951 93.2609L51.1572 97.1832L51.3691 97.0159C51.8382 96.6359 51.9139 95.9365 51.5507 95.4805C50.6577 94.4011 49.1746 92.3639 48.4935 90.2051C48.4633 90.1139 48.433 90.0379 48.4027 89.9467C48.4027 89.9467 46.7077 89.445 45.5877 88.4872Z" fill="#E4E4E4"/>
</svg>
