<svg width="100" height="100" viewBox="0 0 100 100" fill="none" xmlns="http://www.w3.org/2000/svg">
<path d="M85.5745 40.3357L76.51 44.2976L80.4719 53.3621L89.5364 49.4001L85.5745 40.3357Z" fill="#AC6DFD" stroke="#AC6DFD" stroke-width="3.77661" stroke-miterlimit="10" stroke-linecap="round" stroke-linejoin="round"/>
<path d="M59.078 31.9685L33.8894 31.7655C30.106 31.7452 26.9903 34.7901 26.9701 38.586L26.7677 63.8788C26.7273 67.6748 29.7823 70.7805 33.5656 70.8211L58.7543 71.0241C62.5377 71.0647 65.6332 67.9996 65.6736 64.2036L65.8759 38.9311C65.9164 35.1148 62.8614 31.9888 59.078 31.9685Z" fill="#3589F9"/>
<path opacity="0.3" d="M59.078 31.9685L33.8894 31.7655C30.106 31.7452 26.9903 34.7901 26.9701 38.586L26.7677 63.8788C26.7273 67.6748 29.7823 70.7805 33.5656 70.8211L58.7543 71.0241C62.5377 71.0647 65.6332 67.9996 65.6736 64.2036L65.8759 38.9311C65.9164 35.1148 62.8614 31.9888 59.078 31.9685Z" fill="url(#paint0_linear_3010_11197)"/>
<path d="M61.2428 31.9889L36.0541 31.7859C32.2708 31.7656 29.1753 34.8104 29.1348 38.6267L28.9325 63.8992C28.8921 67.6952 31.9471 70.8009 35.7304 70.8415L60.9191 71.0445C64.7025 71.0851 67.798 68.0199 67.8384 64.224L68.0407 38.9515C68.0812 35.1352 65.0464 32.0295 61.2428 31.9889Z" fill="#3589F9"/>
<path d="M46.318 53.1239C46.318 52.8671 46.4011 52.6556 46.5673 52.4894C46.7485 52.3081 46.9676 52.2175 47.2244 52.2175C47.8891 52.1873 48.4858 52.0438 49.0145 51.7869C49.5432 51.515 49.9587 51.1374 50.2608 50.654C50.578 50.1555 50.7367 49.5663 50.7367 48.8865C50.7367 48.252 50.5931 47.6931 50.3061 47.2097C50.0342 46.7263 49.6565 46.3486 49.1731 46.0767C48.7048 45.8048 48.1761 45.6688 47.587 45.6688C47.028 45.6688 46.5068 45.7897 46.0234 46.0314C45.54 46.2731 45.1246 46.5903 44.7772 46.9831C44.611 47.1493 44.4146 47.2626 44.188 47.323C43.9765 47.3834 43.7575 47.3381 43.5309 47.187C43.2741 47.0058 43.1306 46.7943 43.1003 46.5526C43.0852 46.2958 43.1759 46.0616 43.3723 45.8501C43.8708 45.2459 44.4901 44.77 45.2303 44.4226C45.9706 44.06 46.7561 43.8787 47.587 43.8787C48.5084 43.8787 49.3469 44.0902 50.1022 44.5132C50.8575 44.9362 51.4618 45.5253 51.915 46.2806C52.3681 47.0209 52.5947 47.8895 52.5947 48.8865C52.5947 49.5512 52.4739 50.163 52.2322 50.7219C52.0056 51.2809 51.6808 51.7794 51.2578 52.2175C50.8348 52.6405 50.3439 52.9804 49.7849 53.2372C49.226 53.494 48.6217 53.6526 47.9722 53.713C47.9269 53.713 47.9269 53.713 47.9722 53.713C48.0175 53.6979 48.0628 53.6753 48.1081 53.645V55.5031C48.1081 55.7599 48.025 55.979 47.8589 56.1603C47.6927 56.3415 47.4812 56.4322 47.2244 56.4322C46.9525 56.4322 46.7334 56.3415 46.5673 56.1603C46.4011 55.979 46.318 55.7599 46.318 55.5031V53.1239ZM47.1791 60.6016C46.8618 60.6016 46.6201 60.5109 46.454 60.3296C46.2878 60.1333 46.2047 59.8765 46.2047 59.5592V59.106C46.2047 58.7888 46.2878 58.5395 46.454 58.3583C46.6201 58.177 46.8618 58.0863 47.1791 58.0863H47.383C47.7003 58.0863 47.942 58.177 48.1081 58.3583C48.2743 58.5395 48.3574 58.7888 48.3574 59.106V59.5592C48.3574 59.8765 48.2743 60.1333 48.1081 60.3296C47.942 60.5109 47.7003 60.6016 47.383 60.6016H47.1791Z" fill="white"/>
<path d="M24.1155 73.349L15.5288 68.4368L10.6166 77.0235L19.2033 81.9357L24.1155 73.349Z" fill="#68C97F" stroke="#68C97F" stroke-width="3.77661" stroke-miterlimit="10" stroke-linecap="round" stroke-linejoin="round"/>
<path d="M19.9861 17.6757L10.145 18.6829L11.1521 28.5239L20.9932 27.5168L19.9861 17.6757Z" fill="#FFBD2E" stroke="#FFBD2E" stroke-width="3.77661" stroke-miterlimit="10" stroke-linecap="round" stroke-linejoin="round"/>
<defs>
<linearGradient id="paint0_linear_3010_11197" x1="46.1031" y1="70.9421" x2="46.5476" y2="31.813" gradientUnits="userSpaceOnUse">
<stop stop-color="#686C71"/>
<stop offset="0.0977468" stop-color="#7B7F83"/>
<stop offset="0.4041" stop-color="#B4B6B8"/>
<stop offset="0.6675" stop-color="#DDDDDF"/>
<stop offset="0.8747" stop-color="#F6F6F6"/>
<stop offset="1" stop-color="white"/>
</linearGradient>
</defs>
</svg>
