<svg width="100" height="100" viewBox="0 0 100 100" fill="none" xmlns="http://www.w3.org/2000/svg">
<path d="M98.5432 37.8848C96.1044 54.1699 83.9712 69.9512 70.3264 67.9156C56.6815 65.8799 46.725 54.573 49.1638 38.2879C51.6025 22.0028 62.466 13.0943 76.5744 11.482C90.2998 9.90988 100.982 21.5997 98.5432 37.8848Z" fill="#9DD2F9"/>
<path opacity="0.1" d="M98.5432 37.8848C96.1044 54.1699 83.9712 69.9512 70.3264 67.9155C56.6815 65.8799 46.725 54.573 49.1638 38.2879C51.6025 22.0028 62.466 13.0943 76.5744 11.482C90.2998 9.90988 100.982 21.5997 98.5432 37.8848Z" stroke="#007CFF" stroke-width="0.201549" stroke-miterlimit="10"/>
<path d="M94.4109 51.2877C96.6279 47.821 79.3955 40.6056 79.3955 40.6056L72.2809 42.6815L72.1801 41.956C72.1801 41.956 66.0127 41.7343 56.3384 61.5666C64.7026 69.1046 72.8654 69.8301 80.3227 66.4038C88.4652 62.655 90.783 56.931 94.4109 51.2877Z" fill="#E4E4E4"/>
<path d="M69.3989 35.5266L74.2562 27.0212L78.126 33.7933L77.8841 35.3452L79.4159 40.4041C77.9244 44.8986 71.6563 45.4428 70.3462 43.0443L69.3989 35.5266Z" fill="#965F27"/>
<path d="M65.0255 24.1392C64.2394 27.1625 64.058 37.4414 66.4968 38.5096C68.9355 39.5778 73.8331 38.5298 75.244 36.6957C76.4734 35.1035 77.6223 26.5578 75.3851 24.4819C73.1277 22.4059 66.134 19.9067 65.0255 24.1392Z" fill="#965F27"/>
<path d="M72.4423 26.0942C70.1648 26.4973 68.1695 25.8725 66.3958 25.3082C64.6222 24.7438 62.9494 23.6152 62.0827 21.9826C61.3571 20.6121 61.2967 18.6571 63.0501 17.8912C63.4734 17.7098 63.9369 17.6292 64.3804 17.6695C65.8315 17.7702 67.0005 18.6369 68.109 19.5036C67.6454 17.2261 71.9787 18.254 72.8656 19.0602C73.1477 19.3222 73.3291 19.6447 73.6717 19.8462C74.6996 20.4508 76.0097 20.4912 77.0981 20.9547C78.4484 21.5392 79.5167 22.7283 79.9601 24.1392C80.3229 25.3082 80.7663 27.2632 79.819 28.674C79.3554 29.3593 78.912 30.0849 78.7911 30.8911L78.0454 34.1561C78.0454 34.1561 76.5136 33.0678 76.3322 32.9267C75.7275 32.443 75.5058 31.8383 75.0221 31.2538C73.7927 29.7825 72.9462 27.626 72.4423 26.0942Z" fill="#00276F"/>
<path d="M73.9741 30.5081C74.2563 29.9639 74.6594 29.3593 75.2237 29.2988C75.5059 29.2787 75.788 29.3996 76.0097 29.6011C77.0981 30.629 77.1989 32.6244 76.0501 33.6724C75.5663 34.1158 74.9214 34.3174 74.478 33.7127L73.8935 30.8709C73.833 30.7701 73.9136 30.629 73.9741 30.5081Z" fill="#965F27"/>
<path d="M56.2783 73.1387C60.9139 87.2471 45.4552 94.4827 31.4476 92.5479C19.7577 90.9355 7.10049 82.41 4.48036 68.1C1.69899 52.8831 2.04163 43.7126 16.1702 43.7126C30.2987 43.7126 51.6427 59.0102 56.2783 73.1387Z" fill="#E4CEF4"/>
<path d="M32.6566 48.0057C32.6566 48.0057 25.7435 46.6957 23.728 54.5157C21.7126 62.356 16.9762 57.9824 16.432 64.0893C15.8878 70.1962 10.7685 68.2412 12.3002 73.5419C12.3002 73.5419 11.5343 71.1838 14.3157 69.5916C17.0971 67.9993 17.6614 67.2939 17.6614 67.2939C17.6614 67.2939 13.0057 69.8737 13.5498 74.4086C16.2909 74.066 17.9637 73.6225 20.9265 75.9404C23.8893 78.2582 34.1279 79.4876 38.2194 74.9528C42.3108 70.4179 42.6131 71.6877 42.6131 71.6877C42.6131 71.6877 45.1526 68.4629 41.9279 63.1219C38.6023 57.5994 44.6286 48.5701 32.6566 48.0057Z" fill="#00276F"/>
<path fill-rule="evenodd" clip-rule="evenodd" d="M45.7576 91.1372C45.7576 91.1372 41.1219 93.3542 32.8585 92.9511C22.8012 92.2658 15.3237 85.2923 15.3237 85.2923C16.009 78.7016 26.9128 70.6397 27.8197 70.6598L31.3065 70.7606C31.3065 70.7606 31.3065 70.7606 31.3065 70.7808C32.3546 70.8211 33.5034 70.9017 34.753 70.9823C41.2026 71.3854 45.7576 91.1372 45.7576 91.1372Z" fill="#C485FF"/>
<path d="M26.7715 71.1635L29.7947 58.9698L34.0272 64.19L32.8583 71.3852C32.8381 71.3852 31.3466 71.5263 26.7715 71.1635Z" fill="#B28B67"/>
<path d="M32.1127 49.477C32.1127 49.477 25.2802 49.3963 26.429 58.7482C26.7918 61.7311 27.3964 64.0691 28.8274 64.9962C33.6444 68.0799 37.615 67.0117 39.0459 63.7466C39.7312 62.1947 40.2351 60.0986 39.8723 57.1156C38.7436 47.7436 32.1127 49.477 32.1127 49.477Z" fill="#B28B67"/>
<path d="M26.5704 51.4722C26.5704 51.4722 22.1968 50.283 23.8898 46.5342C25.5828 42.7653 31.992 42.5033 32.3951 47.9854C28.5859 48.59 26.5704 51.4722 26.5704 51.4722Z" fill="#00276F"/>
<path d="M25.683 57.4583C25.683 57.4583 31.0644 58.2241 32.8581 52.0971C32.6768 54.697 30.5806 56.6521 30.5806 56.6521C30.5806 56.6521 33.4225 55.9668 34.7527 52.4195C35.579 54.697 33.886 56.2893 33.886 56.2893C33.886 56.2893 38.6829 56.2086 38.8038 53.2056C39.7511 54.3544 39.1666 56.2086 39.1666 56.2086C39.1666 56.2086 40.8193 55.2815 39.7309 52.3389C38.6426 49.4165 34.6116 47.7436 29.6334 49.0134C24.6551 50.3033 25.683 57.4583 25.683 57.4583Z" fill="#00276F"/>
<path d="M29.654 62.1947C31.7098 66.2861 33.161 69.4706 34.0881 73.0783C31.2261 69.6923 23.7083 73.8241 24.2324 70.5187C24.9983 65.6613 23.0432 55.3421 29.4928 55.9064" fill="#00276F"/>
<path d="M15.6143 20.4692C15.6491 20.371 15.6866 20.2729 15.7241 20.1748C15.6866 20.2729 15.6491 20.371 15.6143 20.4692Z" fill="#FFBD2E"/>
<path d="M16.1257 19.22C16.1713 19.1245 16.2168 19.0291 16.2624 18.9336C16.2142 19.0291 16.1686 19.1245 16.1257 19.22Z" fill="#FFBD2E"/>
<path d="M16.4231 18.6128C16.4713 18.52 16.5222 18.4272 16.5732 18.3344C16.5222 18.4272 16.474 18.52 16.4231 18.6128Z" fill="#FFBD2E"/>
<path d="M16.7534 18.0218C16.807 17.9317 16.8606 17.8415 16.9169 17.7513C16.8606 17.8415 16.807 17.9317 16.7534 18.0218Z" fill="#FFBD2E"/>
<path d="M15.228 21.7638C15.2521 21.663 15.2816 21.5649 15.3084 21.4641C15.2789 21.5649 15.2521 21.663 15.228 21.7638Z" fill="#FFBD2E"/>
<path d="M15.0818 22.4234C15.1005 22.3252 15.1247 22.2245 15.1461 22.1263C15.1247 22.2271 15.1005 22.3252 15.0818 22.4234Z" fill="#FFBD2E"/>
<path d="M15.406 21.1139C15.4355 21.0131 15.4676 20.915 15.4998 20.8169C15.4676 20.915 15.4355 21.0131 15.406 21.1139Z" fill="#FFBD2E"/>
<path d="M15.8555 19.8387C15.8957 19.7406 15.9359 19.6451 15.9787 19.547C15.9359 19.6451 15.8957 19.7432 15.8555 19.8387Z" fill="#FFBD2E"/>
<path d="M17.1121 17.4434C17.1683 17.3559 17.2273 17.2684 17.2862 17.1809C17.2273 17.2684 17.1683 17.3559 17.1121 17.4434Z" fill="#FFBD2E"/>
<path d="M40.3116 33.9408C40.2577 34.0101 40.2038 34.0795 40.1472 34.1462C40.2038 34.0768 40.2577 34.0075 40.3116 33.9408Z" fill="#FFBD2E"/>
<path d="M39.7041 34.6499C39.7553 34.5965 39.8011 34.5378 39.8496 34.4845C39.8011 34.5405 39.7526 34.5965 39.7041 34.6499Z" fill="#FFBD2E"/>
<path d="M40.7271 33.3976C40.6732 33.4723 40.6193 33.5469 40.5627 33.6216C40.6193 33.5469 40.6732 33.4723 40.7271 33.3976Z" fill="#FFBD2E"/>
<path d="M17.498 16.8829C17.56 16.7975 17.622 16.7122 17.684 16.6295C17.622 16.7149 17.56 16.7975 17.498 16.8829Z" fill="#FFBD2E"/>
<path d="M28.7502 39.2765C28.6377 39.274 28.5225 39.274 28.4099 39.2688C28.5251 39.274 28.6377 39.274 28.7502 39.2765Z" fill="#FFBD2E"/>
<path d="M18.3613 15.8083C18.4287 15.7336 18.4934 15.6562 18.5635 15.5815C18.4934 15.6562 18.4287 15.7336 18.3613 15.8083Z" fill="#FFBD2E"/>
<path d="M17.9163 16.3365C17.9809 16.2564 18.0456 16.1738 18.1103 16.0938C18.0429 16.1764 17.9809 16.2564 17.9163 16.3365Z" fill="#FFBD2E"/>
<path d="M14.8318 24.4486C14.8345 24.3713 14.8426 24.2966 14.848 24.2192C14.8453 24.2966 14.8372 24.3713 14.8318 24.4486Z" fill="#FFBD2E"/>
<path d="M27.1889 39.1481C27.1296 39.1416 27.0676 39.1374 27.0083 39.131C27.0703 39.1374 27.1296 39.1416 27.1889 39.1481Z" fill="#FFBD2E"/>
<path d="M26.4708 39.0322C26.4195 39.0237 26.3683 39.0194 26.3198 39.0109C26.3683 39.0173 26.4195 39.0237 26.4708 39.0322Z" fill="#FFBD2E"/>
<path d="M14.8826 23.7658C14.8906 23.6757 14.904 23.5855 14.9147 23.4927C14.904 23.5855 14.8906 23.6757 14.8826 23.7658Z" fill="#FFBD2E"/>
<path d="M21.2787 36.9668C21.2493 36.9483 21.2173 36.9298 21.1853 36.9087C21.2146 36.9272 21.2467 36.9457 21.2787 36.9668Z" fill="#FFBD2E"/>
<path d="M20.8458 36.6733C20.7676 36.6173 20.6868 36.5666 20.6113 36.5106C20.6868 36.564 20.7676 36.6173 20.8458 36.6733Z" fill="#FFBD2E"/>
<path d="M27.9579 39.2309C27.8744 39.2245 27.7908 39.2223 27.7073 39.2159C27.7908 39.2223 27.8744 39.2245 27.9579 39.2309Z" fill="#FFBD2E"/>
<path d="M14.9653 23.0918C14.9787 22.9963 14.9975 22.8982 15.0136 22.8027C14.9975 22.8982 14.9787 22.9963 14.9653 23.0918Z" fill="#FFBD2E"/>
<path d="M40.1472 34.1453C40.2034 34.079 40.257 34.0101 40.3106 33.9411C40.3964 33.835 40.4821 33.7289 40.5625 33.6202C40.6188 33.546 40.6724 33.4717 40.726 33.3975C40.7742 33.3285 40.8278 33.2622 40.876 33.1933C40.8707 33.1986 40.8626 33.2065 40.8573 33.2118C40.734 33.3418 40.6107 33.4717 40.4821 33.599C37.7997 36.2536 34.1607 37.7466 30.3689 37.7466H30.3662C30.2349 37.7466 30.1036 37.7413 29.975 37.736C29.8705 37.7333 29.7633 37.7333 29.6588 37.728C29.498 37.7201 29.3372 37.7068 29.1764 37.6936C29.1041 37.6883 29.0291 37.6856 28.9567 37.6777C28.7343 37.6564 28.5146 37.6273 28.2948 37.5954C28.2814 37.5928 28.2707 37.5928 28.2573 37.5901C27.8018 37.5238 27.3516 37.4337 26.9094 37.325C26.9014 37.3223 26.8933 37.3223 26.8826 37.3196C24.3959 36.7017 22.0994 35.4262 20.253 33.6017C17.5707 30.9471 16.0647 27.3458 16.062 23.5933C16.062 23.3811 16.0673 23.169 16.0781 22.9568C16.0807 22.8905 16.0861 22.8269 16.0888 22.7606C16.0968 22.6094 16.1075 22.4583 16.1236 22.3098C16.129 22.2408 16.137 22.1719 16.1424 22.1029C16.1611 21.9385 16.1799 21.7714 16.204 21.607C16.2094 21.5619 16.2147 21.5168 16.2228 21.4718C16.2549 21.2649 16.2898 21.0581 16.3326 20.8539C16.3433 20.8008 16.3567 20.7478 16.3675 20.6948C16.3996 20.5409 16.4345 20.3871 16.472 20.2333C16.4881 20.167 16.5068 20.0981 16.5229 20.0318C16.5604 19.8859 16.6033 19.7401 16.6462 19.5942C16.6622 19.5359 16.681 19.4775 16.6971 19.4192C16.7587 19.2203 16.823 19.024 16.8954 18.8278C16.9061 18.8013 16.9168 18.7748 16.9248 18.7482C16.9865 18.5785 17.0535 18.4088 17.1231 18.2417C17.1499 18.186 17.1741 18.125 17.2009 18.064C17.2598 17.9261 17.3214 17.7909 17.3831 17.6556C17.4126 17.5947 17.4393 17.5337 17.4688 17.4753C17.5465 17.3136 17.6269 17.1544 17.7127 16.998C17.7261 16.9715 17.7422 16.9423 17.7556 16.9158C17.8547 16.7328 17.9592 16.5498 18.0664 16.3721C18.0959 16.3217 18.128 16.2713 18.1602 16.221C18.2406 16.091 18.3236 15.9611 18.4094 15.8311C18.4469 15.7728 18.4871 15.7171 18.5246 15.6588C18.5514 15.619 18.5755 15.5818 18.6023 15.5421C18.605 15.5368 18.6077 15.5341 18.6104 15.5288C18.5943 15.5474 18.5782 15.5659 18.5621 15.5845C18.4925 15.6588 18.4282 15.7357 18.3612 15.8099C18.2754 15.9054 18.1923 16.0009 18.1093 16.099C18.0423 16.1785 17.9806 16.2581 17.9163 16.3403C17.8386 16.4384 17.7609 16.5339 17.6859 16.6347C17.6216 16.7169 17.5626 16.8017 17.501 16.8866C17.4286 16.9847 17.359 17.0855 17.2893 17.1863C17.2277 17.2685 17.1687 17.356 17.1124 17.4435C17.0454 17.5443 16.9811 17.6477 16.9168 17.7511C16.8605 17.8413 16.8069 17.9314 16.7533 18.0216C16.6917 18.125 16.6328 18.2285 16.5738 18.3345C16.5229 18.4274 16.472 18.5202 16.4237 18.613C16.3675 18.7191 16.3139 18.8251 16.2603 18.9339C16.2147 19.0293 16.1692 19.1248 16.1236 19.2203C16.0727 19.329 16.0245 19.4377 15.9762 19.5491C15.9334 19.6446 15.8932 19.7427 15.853 19.8408C15.8074 19.9522 15.7645 20.0636 15.7217 20.1776C15.6841 20.2757 15.6466 20.3739 15.6118 20.472C15.5716 20.586 15.5341 20.7001 15.4966 20.8167C15.4644 20.9149 15.4322 21.0156 15.4028 21.1138C15.3679 21.2304 15.3358 21.3498 15.3036 21.4665C15.2768 21.5672 15.25 21.6654 15.2232 21.7661C15.1938 21.8881 15.167 22.0075 15.1402 22.1294C15.1187 22.2276 15.0946 22.3257 15.0758 22.4265C15.0517 22.5511 15.0303 22.6784 15.0089 22.8057C14.9928 22.9012 14.974 22.9966 14.9606 23.0947C14.9419 23.2273 14.9258 23.3626 14.9097 23.4978C14.899 23.588 14.8856 23.6782 14.8776 23.771C14.8642 23.9221 14.8534 24.0733 14.8427 24.2218C14.8374 24.2987 14.8293 24.373 14.8266 24.4499C14.8213 24.6753 14.8159 24.9034 14.8159 25.1314C14.8159 28.8865 16.3246 32.4852 19.007 35.1398C19.5108 35.6383 20.0467 36.0945 20.6121 36.5082C20.6898 36.5639 20.7675 36.6169 20.8453 36.6699C20.9578 36.7495 21.0703 36.8317 21.1856 36.9059C21.2151 36.9272 21.2472 36.9431 21.2794 36.9643C22.8122 37.9588 24.5218 38.6536 26.3199 39.0089C26.3708 39.0195 26.4217 39.0248 26.4699 39.0354C26.6495 39.0699 26.829 39.1017 27.0112 39.1283C27.0702 39.1362 27.1318 39.1415 27.1908 39.1495C27.3623 39.1733 27.5365 39.1972 27.7107 39.2131C27.7937 39.2211 27.8768 39.2237 27.9599 39.2317C28.1099 39.2449 28.2627 39.2582 28.4127 39.2662C28.5253 39.2715 28.6378 39.2715 28.7531 39.2741C28.8763 39.2768 28.9996 39.2821 29.1229 39.2821H29.1255C32.92 39.2821 36.5564 37.789 39.2387 35.1345C39.3995 34.9754 39.5549 34.8136 39.7077 34.6465C39.7586 34.5935 39.8042 34.5351 39.8524 34.4821C39.9489 34.3734 40.0507 34.2593 40.1472 34.1453Z" fill="#FF8840"/>
<path d="M18.406 15.8285C18.3203 15.9558 18.2372 16.0857 18.1568 16.2183C18.1247 16.2687 18.0952 16.3191 18.063 16.3695C17.9558 16.5498 17.8513 16.7301 17.7522 16.9131C17.7361 16.9396 17.7227 16.9688 17.7093 16.9953C17.6262 17.1544 17.5432 17.3136 17.4654 17.4727C17.4386 17.5337 17.4118 17.5947 17.3824 17.6557C17.3181 17.7909 17.2591 17.9261 17.2002 18.064C17.1734 18.125 17.1466 18.186 17.1224 18.247C17.0528 18.4141 16.9885 18.5838 16.9241 18.7535C16.9134 18.7801 16.9027 18.8066 16.8947 18.8331C16.825 19.0293 16.758 19.2256 16.6964 19.4245C16.6776 19.4828 16.6615 19.5412 16.6455 19.5995C16.6026 19.7454 16.5624 19.8912 16.5222 20.0371C16.5034 20.1034 16.4874 20.1723 16.4713 20.2386C16.4338 20.3924 16.3989 20.5462 16.3668 20.7001C16.356 20.7531 16.3426 20.8061 16.3319 20.8592C16.2917 21.0634 16.2542 21.2702 16.2221 21.4771C16.214 21.5222 16.2113 21.5672 16.2033 21.6123C16.1792 21.7767 16.1577 21.9412 16.1417 22.1082C16.1336 22.1772 16.1283 22.2461 16.1229 22.3151C16.1095 22.4662 16.0988 22.6147 16.0881 22.7659C16.0854 22.8322 16.08 22.8959 16.0774 22.9621C16.0666 23.1743 16.0613 23.3865 16.0613 23.5986C16.0613 27.3537 17.57 30.9524 20.2523 33.607C22.096 35.4315 24.3925 36.7071 26.8819 37.325C26.89 37.3276 26.898 37.3276 26.9087 37.3303C27.3535 37.439 27.8037 37.5292 28.2566 37.5955C28.27 37.5981 28.2807 37.5981 28.2941 37.6008C28.5139 37.6326 28.7336 37.6591 28.956 37.683C29.0284 37.6909 29.1034 37.6936 29.1757 37.6989C29.3365 37.7121 29.4973 37.7254 29.6581 37.7334C29.7626 37.7387 29.8698 37.7387 29.9743 37.7413C30.1056 37.744 30.2342 37.7519 30.3655 37.7519H30.3682C34.1627 37.7519 37.799 36.2589 40.4814 33.6043C40.61 33.477 40.7333 33.3497 40.8566 33.2171C40.8593 33.2118 40.8646 33.2065 40.8673 33.2012C43.3058 30.5891 44.6698 27.1601 44.6698 23.5933C44.6698 19.8382 43.1611 16.2395 40.4787 13.585C37.7964 10.9251 34.1573 9.43469 30.3629 9.43469C26.5711 9.43469 22.932 10.9277 20.2497 13.5823C19.644 14.1843 19.1001 14.834 18.6177 15.5235C18.6124 15.5288 18.607 15.5341 18.6016 15.5421C18.5748 15.5818 18.5507 15.619 18.5239 15.6588C18.4837 15.7144 18.4435 15.7728 18.406 15.8285ZM34.5539 11.7551C36.3332 12.3704 37.9652 13.3781 39.3238 14.7226C41.7007 17.0749 43.0352 20.2625 43.0352 23.588V23.5907C43.0352 26.9162 41.7007 30.1038 39.3265 32.456C36.9522 34.8083 33.7286 36.1289 30.3682 36.1289C27.0079 36.1289 23.7842 34.8083 21.41 32.4587C19.0331 30.1064 17.6986 26.9188 17.6986 23.5933V23.5907C17.6986 20.2651 19.0331 17.0775 21.4073 14.7279C23.7815 12.373 27.0052 11.0524 30.3655 11.0524C30.6737 11.0524 30.9229 11.299 30.9229 11.604C30.9229 11.9089 30.6737 12.1556 30.3655 12.1556C27.3026 12.1556 24.363 13.3622 22.1978 15.5049C20.0353 17.645 18.8187 20.5462 18.816 23.5721V23.5747V23.5907C18.816 26.6218 20.0353 29.531 22.2005 31.6737C24.3684 33.8165 27.3053 35.0204 30.3709 35.0204C33.4338 35.0204 36.3734 33.8138 38.5386 31.6711C40.7038 29.5257 41.9204 26.6192 41.9204 23.588V23.5854C41.9204 20.5516 40.7011 17.645 38.5359 15.5023C37.2979 14.2771 35.808 13.3595 34.1868 12.7973C33.8947 12.6966 33.742 12.381 33.8438 12.0946C33.9242 11.8665 34.1412 11.7233 34.3717 11.7233C34.4306 11.726 34.4923 11.7339 34.5539 11.7551ZM34.3771 29.5204C34.3824 29.7882 34.2323 30.0348 33.9939 30.1568C33.8706 30.2205 33.7339 30.2443 33.5999 30.2311C33.474 30.2205 33.3507 30.1754 33.2462 30.0958L29.8216 27.5977L25.7993 28.9714C25.7002 29.0059 25.5983 29.0165 25.4992 29.0059C25.3384 28.99 25.1857 28.921 25.0678 28.807C24.8748 28.6187 24.8078 28.3376 24.8936 28.0857L26.2388 24.0892L23.6743 20.7266C23.5109 20.5118 23.4841 20.2254 23.6073 19.9867C23.7279 19.748 23.9771 19.5969 24.2478 19.5995L28.5031 19.6313L30.9417 16.1785C31.0891 15.969 31.3383 15.8576 31.5902 15.8815L31.6304 15.8868C31.8983 15.9266 32.1181 16.1149 32.2011 16.3695L33.4874 20.3845L37.5579 21.6123C37.8151 21.6892 38.008 21.9067 38.0509 22.1719C38.0938 22.4371 37.9839 22.7023 37.7642 22.8561L34.302 25.3064L34.3771 29.5204Z" fill="#FFBD2E"/>
<path d="M33.8415 12.0943C33.7397 12.3834 33.8924 12.6963 34.1845 12.7971C35.8057 13.3593 37.2956 14.2769 38.5337 15.502C40.7015 17.6448 41.9181 20.554 41.9181 23.5851V23.5878C41.9181 26.6189 40.7015 29.5281 38.5363 31.6708C36.3711 33.8162 33.4315 35.0202 30.3686 35.0202C27.303 35.0202 24.3661 33.8162 22.1982 31.6735C20.0303 29.5307 18.8137 26.6216 18.8137 23.5904V23.5745V23.5718C18.8191 20.546 20.0357 17.6448 22.1955 15.5047C24.3607 13.3593 27.3003 12.1553 30.3632 12.1553C30.6714 12.1553 30.9206 11.9087 30.9206 11.6037C30.9206 11.2988 30.6714 11.0521 30.3632 11.0521C27.0029 11.0521 23.7819 12.3754 21.405 14.725C19.0308 17.0773 17.6963 20.2649 17.6963 23.5878V23.5904C17.6963 26.9159 19.0335 30.1035 21.4077 32.4558C23.7846 34.8054 27.0056 36.126 30.3659 36.126C33.7263 36.126 36.9473 34.8027 39.3242 32.4531C41.6984 30.1009 43.0329 26.9133 43.0329 23.5878V23.5851C43.0329 20.2596 41.6984 17.0693 39.3215 14.7197C37.9629 13.3752 36.3283 12.3701 34.5516 11.7522C34.49 11.731 34.4284 11.7204 34.3667 11.7204C34.1389 11.7257 33.9219 11.8663 33.8415 12.0943Z" fill="#FF8840"/>
<path d="M38.0484 22.1717C38.0055 21.9065 37.8126 21.6917 37.5553 21.6122L33.4849 20.3843L32.1986 16.3693C32.1182 16.1147 31.8958 15.9264 31.6278 15.8867L31.5876 15.8814C31.3331 15.8575 31.0839 15.9689 30.9392 16.1784L28.5006 19.6312L24.2453 19.5994C23.9746 19.5967 23.7281 19.7479 23.6048 19.9865C23.4842 20.2252 23.5083 20.5116 23.6718 20.7264L26.2363 24.0891L24.8911 28.0855C24.8053 28.3401 24.8723 28.6185 25.0653 28.8068C25.1832 28.9235 25.3386 28.9925 25.4967 29.0057C25.5958 29.0163 25.6977 29.0031 25.7968 28.9713L29.8217 27.5976L33.2464 30.0983C33.3536 30.1752 33.4742 30.2203 33.6001 30.2336C33.7341 30.2468 33.8708 30.2203 33.994 30.1593C34.2352 30.0373 34.3826 29.7907 34.3772 29.5229L34.2995 25.3116L37.7617 22.8612C37.9814 22.7021 38.094 22.4343 38.0484 22.1717Z" fill="white"/>
</svg>
