<svg width="205" height="227" viewBox="0 0 205 227" fill="none" xmlns="http://www.w3.org/2000/svg">
<path d="M159.163 157.393C157.563 157.575 153.217 158.236 150.14 160.129C149.942 160.253 149.72 160.319 149.497 160.353C150.074 161.32 150.742 162.37 151.361 163.445L161.406 160.253C160.59 159.145 159.839 158.195 159.163 157.393Z" fill="#8D6E63"/>
<path d="M178.511 206.636L176.887 178.897L164.178 159.36L161.398 160.245L151.353 163.436L150.899 163.577L167.089 205.966C171.443 206.421 175.361 206.669 178.511 206.636Z" fill="#4CA8ED"/>
<path d="M96.4092 226.19H99.7163C98.8586 226.165 97.7865 226.132 96.4669 226.074L96.4092 226.19Z" fill="#62B4FF"/>
<path d="M56.9958 185.892L59.8906 208.769C62.4555 211.167 68.2698 215.797 74.5872 220.361C83.8572 218.195 87.5849 213.986 88.954 211.498C93.9271 202.452 81.3912 193.904 81.3912 193.904L87.486 183.701C80.0057 184.569 70.2244 172.25 67.3708 171.837C67.4203 171.994 67.4698 172.142 67.5275 172.3C68.4512 174.838 59.4122 175.359 58.7442 172.68C58.7195 172.581 58.703 172.506 58.6782 172.415C56.9215 172.87 54.2329 173.738 52.4845 174.648C51.9814 175.119 49.7464 176.83 47.7588 177.798C46.1341 179.319 44.8228 181.064 43.8496 183.031H54.002C55.5113 183.031 56.7896 184.255 56.9958 185.892Z" fill="#AB4DFF"/>
<path d="M103.263 226.041L112.937 196.243L112.945 196.227C112.945 196.227 106.248 196.061 95.8404 194.052C98.7352 198.782 101.234 204.644 101.086 210.654C100.871 219.195 91.7828 223.403 84.7891 225.388C90.0178 225.743 93.7786 225.95 96.4672 226.074C97.7868 226.132 98.8589 226.173 99.7166 226.19C101.16 226.223 102.034 226.214 102.545 226.19C103.461 226.148 103.263 226.041 103.263 226.041Z" fill="#AB4DFF"/>
<path d="M38.3487 222.114C39.9074 219.815 42.5383 218.31 45.5156 218.31C48.196 218.31 50.5877 219.526 52.1794 221.444C53.5402 221.502 55.0659 221.568 56.7979 221.651C58.4638 221.725 60.0391 221.75 61.5401 221.742L59.8988 208.769L57.0041 185.892C56.7979 184.255 55.5195 183.031 54.002 183.031H43.8496H3.89157C2.05242 183.031 0.642139 184.809 0.889557 186.802L5.97813 227H40.9301C38.4394 227 36.9384 224.189 38.3487 222.114Z" fill="#D6D6D6"/>
<path d="M101.077 210.654C101.226 204.644 98.7268 198.782 95.832 194.052C92.3186 188.314 88.2445 184.255 87.6342 183.668C87.5847 183.676 87.5352 183.684 87.4857 183.693L81.391 193.895C81.391 193.895 93.9269 202.444 88.9537 211.489C87.5847 213.986 83.8487 218.186 74.587 220.352C71.0901 221.171 66.7933 221.7 61.5398 221.733C60.0388 221.741 58.4636 221.717 56.7976 221.642C55.0657 221.56 53.5317 221.493 52.1791 221.436C50.5874 219.526 48.1957 218.302 45.5153 218.302C42.5381 218.302 39.9072 219.807 38.3484 222.105C36.9382 224.18 38.4309 226.992 40.9381 226.992H52.9461H54.1832H62.2078H76.8138C76.8138 226.992 80.3848 226.628 84.7806 225.379C91.7743 223.412 100.871 219.195 101.077 210.654Z" fill="#B28B67"/>
<path d="M187.063 155.747L187.038 155.772C187.038 155.772 181.397 154.896 177.133 156.177C176.935 156.235 176.729 156.252 176.531 156.243C176.408 156.235 176.292 156.202 176.177 156.169C176.284 157.194 176.399 158.252 176.507 159.286H187.03C186.849 157.897 186.873 156.731 187.063 155.747Z" fill="#8D6E63"/>
<path d="M204.572 213.052L189.661 159.278H187.022H176.499H175.732L176.878 178.897L178.503 206.636C175.352 206.669 171.435 206.421 167.08 205.975C159.336 205.181 150.215 203.775 141.58 202.279C139.27 198.988 135.279 196.086 130.297 194.482C123.477 192.291 116.747 193.151 112.929 196.243L103.255 226.041C103.255 226.041 103.453 226.14 102.537 226.19H190.239L190.206 226.041H194.47C201.257 226.041 206.23 219.65 204.572 213.052Z" fill="#62B4FF"/>
<path d="M67.321 171.828C66.6694 168.786 62.5375 162.957 65.0282 157.988L65.2839 148.331C63.0076 147.058 60.7149 144.701 59.4531 140.377C59.7829 144.916 63.4365 148.323 63.4365 148.323C63.4365 148.323 58.4881 147.124 56.1624 140.915C54.7191 144.875 57.6881 147.67 57.6881 147.67C57.6881 147.67 49.3336 147.529 49.1357 142.312C49.1275 142.32 49.1192 142.32 49.111 142.329C48.9213 142.56 48.7646 142.816 48.6409 143.073C48.5666 143.271 48.4842 143.478 48.41 143.685C47.8574 145.52 48.4924 147.537 48.4924 147.537C48.4924 147.537 48.0388 147.273 47.61 146.644C47.4533 147.405 47.3131 148.199 47.2141 149.059C46.5791 154.259 47.4533 157.93 48.6491 160.65C50.2656 164.321 52.9212 165.627 57.3912 165.214C57.3912 165.214 58.8263 169.803 58.884 172.358C58.8263 172.374 58.752 172.391 58.6861 172.407C58.7108 172.498 58.7273 172.572 58.752 172.672C59.4201 175.35 68.4591 174.83 67.5354 172.291C67.4777 172.134 67.4282 171.985 67.3787 171.828C67.3539 171.828 67.3375 171.828 67.321 171.828Z" fill="#B28B67"/>
<path d="M58.6782 172.415C58.7442 172.399 58.8184 172.382 58.8762 172.366C58.8184 169.811 57.3834 165.222 57.3834 165.222C52.9051 165.636 50.2577 164.329 48.6413 160.658C47.4454 157.938 46.563 154.267 47.2063 149.067C47.3135 148.207 47.4454 147.413 47.6021 146.653C48.031 147.289 48.4846 147.545 48.4846 147.545C48.4846 147.545 47.8578 145.528 48.4021 143.693C48.4763 143.478 48.5588 143.279 48.633 143.081C48.7567 142.816 48.9134 142.568 49.1031 142.337C49.1114 142.328 49.1196 142.32 49.1279 142.304C49.1279 142.312 49.1279 142.312 49.1279 142.32C49.3258 147.537 57.6803 147.678 57.6803 147.678C57.6803 147.678 54.7195 144.883 56.1546 140.923C58.4803 147.124 63.4287 148.331 63.4287 148.331C63.4287 148.331 59.7751 144.925 59.4452 140.386C60.7071 144.71 62.9998 147.066 65.276 148.339L65.0204 157.996C62.5297 162.965 66.6616 168.794 67.3131 171.837C67.3296 171.837 67.3461 171.845 67.3626 171.845C70.2244 172.258 80.0057 184.569 87.4777 183.709C87.5272 183.701 87.5767 183.693 87.6262 183.684C89.6632 183.403 91.5271 182.113 93.0199 179.319C93.5807 174.772 91.1395 171.357 88.9622 169.273C89.6962 169.745 90.587 170.299 91.6838 170.927C95.9229 173.358 95.4446 176.806 95.2549 177.632C97.7456 168.612 88.954 171.886 88.022 161.311C87.0819 150.662 78.8346 158.285 75.3212 144.602C74.645 141.965 73.6553 139.931 72.4924 138.352C74.4883 137.194 76.9295 134.838 75.0408 130.629C72.0965 124.065 60.9462 123.602 60.2452 133.151C59.9565 133.184 59.7834 133.217 59.7834 133.217C38.9507 134.201 49.4495 149.976 43.6187 159.625C37.9858 168.951 42.4146 174.573 42.4146 174.573C42.4146 174.573 45.9114 178.699 47.7011 177.839C47.7176 177.831 47.7341 177.822 47.7506 177.814C49.7299 176.847 51.9649 175.144 52.4763 174.664C54.2329 173.738 56.9215 172.87 58.6782 172.415Z" fill="#00276F"/>
<path d="M13.5079 169.993C14.4151 169.993 15.1573 169.249 15.1573 168.339V161.725C15.1573 160.816 14.4151 160.071 13.5079 160.071C12.6007 160.071 11.8584 160.816 11.8584 161.725V168.339C11.8584 169.257 12.6007 169.993 13.5079 169.993Z" fill="#9AA0A6"/>
<path d="M13.5079 117.078C14.4151 117.078 15.1573 116.334 15.1573 115.425V108.811C15.1573 107.901 14.4151 107.157 13.5079 107.157C12.6007 107.157 11.8584 107.901 11.8584 108.811V115.425C11.8584 116.343 12.6007 117.078 13.5079 117.078Z" fill="#9AA0A6"/>
<path d="M22.0601 93.0603C23.5364 92.0434 25.3426 91.0595 27.5611 90.1914C28.4105 89.8607 28.8229 88.8933 28.493 88.05C28.1631 87.1984 27.1982 86.785 26.357 87.1157C23.9323 88.0748 21.8952 89.1662 20.1963 90.3402C19.4458 90.8611 19.2561 91.8863 19.7674 92.6387C20.2787 93.3828 21.3096 93.573 22.0601 93.0603Z" fill="#9AA0A6"/>
<path d="M13.5079 156.764C14.4151 156.764 15.1573 156.02 15.1573 155.111V148.496C15.1573 147.587 14.4151 146.843 13.5079 146.843C12.6007 146.843 11.8584 147.587 11.8584 148.496V155.111C11.8584 156.028 12.6007 156.764 13.5079 156.764Z" fill="#9AA0A6"/>
<path d="M33.6148 88.3477C35.5199 87.9177 37.6147 87.554 39.9404 87.2894C40.8476 87.1819 41.4909 86.3634 41.3919 85.4539C41.2847 84.5445 40.4683 83.8996 39.5611 83.9988C37.1364 84.2799 34.9178 84.6602 32.889 85.1232C31.9983 85.3216 31.4457 86.2063 31.6437 87.0992C31.8416 87.9922 32.7241 88.5461 33.6148 88.3477Z" fill="#9AA0A6"/>
<path d="M13.3754 103.825C14.2744 103.99 15.1321 103.403 15.297 102.502C15.5279 101.262 16.13 99.3108 17.6887 97.1943C18.2331 96.4584 18.0764 95.4249 17.3423 94.8793C16.6083 94.3336 15.5774 94.4907 15.0331 95.2265C13.1362 97.8061 12.361 100.253 12.0558 101.89C11.8909 102.8 12.4847 103.66 13.3754 103.825Z" fill="#9AA0A6"/>
<path d="M13.5079 143.536C14.4151 143.536 15.1573 142.792 15.1573 141.882V135.268C15.1573 134.358 14.4151 133.614 13.5079 133.614C12.6007 133.614 11.8584 134.358 11.8584 135.268V141.882C11.8584 142.8 12.6007 143.536 13.5079 143.536Z" fill="#9AA0A6"/>
<path d="M13.5079 130.307C14.4151 130.307 15.1573 129.563 15.1573 128.653V122.039C15.1573 121.13 14.4151 120.386 13.5079 120.386C12.6007 120.386 11.8584 121.13 11.8584 122.039V128.653C11.8584 129.571 12.6007 130.307 13.5079 130.307Z" fill="#9AA0A6"/>
<path d="M159.163 157.393C159.559 157.343 159.79 157.326 159.79 157.326C159.905 157.103 160.037 156.88 160.161 156.657C163.419 150.902 168.944 146.016 172.152 143.47C173.456 142.436 173.662 140.377 172.532 138.997L172.029 138.385L154.751 146.363L144.672 151.018C144.672 151.018 143.98 152.184 144.433 153.027C144.879 153.87 145.316 154.681 145.316 154.681L146.611 157.111L147.881 159.501C148.103 159.914 148.474 160.187 148.879 160.295C149.077 160.344 149.291 160.361 149.489 160.336C149.712 160.311 149.934 160.237 150.132 160.113C153.217 158.228 157.555 157.574 159.163 157.393Z" fill="#E4E4E4"/>
<path d="M177.134 156.177C181.398 154.904 187.039 155.772 187.039 155.772L187.064 155.747L187.072 155.739C191.674 151.068 198.527 147.744 202.362 146.115C203.872 145.479 204.597 143.684 203.88 142.205L203.558 141.551L185.068 144.916L174.28 146.876C174.28 146.876 173.249 147.463 173.53 148.612C173.81 149.77 175.13 155.136 175.13 155.136C175.262 155.665 175.674 156.02 176.169 156.161C176.284 156.194 176.4 156.227 176.524 156.235C176.73 156.26 176.936 156.235 177.134 156.177Z" fill="#E4E4E4"/>
<path fill-rule="evenodd" clip-rule="evenodd" d="M50.7566 26.7385H156.394C158.347 26.7385 160.15 28.4138 160.15 30.5459V39.5316C160.15 41.6637 158.497 43.339 156.394 43.339H50.7566C48.8032 43.339 47 41.6637 47 39.5316V30.5459C47 28.4138 48.6529 26.7385 50.7566 26.7385Z" fill="#85C3FD"/>
<path fill-rule="evenodd" clip-rule="evenodd" d="M52.8604 42.8823H154.14V101.822C154.14 104.563 152.036 106.695 149.331 106.695H57.6689C54.9641 106.695 52.8604 104.563 52.8604 101.822V42.8823Z" fill="#85C3FD"/>
<path fill-rule="evenodd" clip-rule="evenodd" d="M103.5 42.8823H154.14V101.822C154.14 104.563 152.036 106.695 149.331 106.695H108.309C105.604 106.695 103.5 104.563 103.5 101.822V42.8823Z" fill="#45A6FF"/>
<path fill-rule="evenodd" clip-rule="evenodd" d="M103.5 26.7385H156.393C158.497 26.7385 160.15 28.4138 160.15 30.5459V39.5316C160.15 41.6637 158.497 43.339 156.393 43.339H103.5C101.546 43.339 99.7432 41.6637 99.7432 39.5316V30.5459C99.8934 28.4138 101.546 26.7385 103.5 26.7385Z" fill="#45A6FF"/>
<path d="M154.14 43.1869H52.8604V48.9743H154.14V43.1869Z" fill="#85C3FD"/>
<path d="M154.14 43.1869H103.5V48.9743H154.14V43.1869Z" fill="#519AFC"/>
<path fill-rule="evenodd" clip-rule="evenodd" d="M73.1465 43.1869H83.2143V102.127C83.2143 104.868 85.318 107 88.0228 107H77.955C75.2502 107 73.1465 104.868 73.1465 102.127V43.1869Z" fill="#FBBC05"/>
<path d="M83.2143 43.1869H73.1465V48.9743H83.2143V43.1869Z" fill="#FFBD2E"/>
<path fill-rule="evenodd" clip-rule="evenodd" d="M133.854 43.1869H123.786V102.127C123.786 104.868 121.682 107 118.978 107H129.045C131.75 107 133.854 104.868 133.854 102.127V43.1869Z" fill="#FBBC05"/>
<path d="M133.854 43.1869H123.786V48.9743H133.854V43.1869Z" fill="#FFBD2E"/>
<path fill-rule="evenodd" clip-rule="evenodd" d="M73.1463 26.7385H83.2141C81.2607 26.7385 79.4575 28.4138 79.4575 30.5459V39.5316C79.4575 41.6637 81.1104 43.339 83.2141 43.339H73.1463C71.1928 43.339 69.3896 41.6637 69.3896 39.5316V30.5459C69.3896 28.4138 71.0426 26.7385 73.1463 26.7385Z" fill="#FBBC05"/>
<path fill-rule="evenodd" clip-rule="evenodd" d="M133.854 26.7385H123.786C125.74 26.7385 127.543 28.4138 127.543 30.5459V39.5316C127.543 41.6637 125.89 43.339 123.786 43.339H133.854C135.958 43.339 137.611 41.6637 137.611 39.5316V30.5459C137.611 28.4138 135.958 26.7385 133.854 26.7385Z" fill="#FBBC05"/>
<path fill-rule="evenodd" clip-rule="evenodd" d="M102.599 26.7385H82.3127C75.8512 22.9311 72.6956 18.0575 72.9962 12.2702C73.5972 -1.43674 95.0853 -6.9195 102.599 20.7989V26.7385Z" fill="#FBBC05"/>
<path fill-rule="evenodd" clip-rule="evenodd" d="M100.044 26.7385C91.4788 21.2558 85.1676 16.0776 84.7168 11.3564C84.266 6.48279 87.8724 4.04601 92.5306 7.70118C98.2407 12.1179 100.645 20.6466 102.598 26.7385H100.044Z" fill="#1A152E"/>
<path fill-rule="evenodd" clip-rule="evenodd" d="M104.401 26.7385H124.687C131.149 22.9311 134.304 18.0575 134.004 12.2702C133.403 -1.43674 111.915 -6.9195 104.401 20.7989V26.7385Z" fill="#FBBC05"/>
<path fill-rule="evenodd" clip-rule="evenodd" d="M106.956 26.7385C115.521 21.2558 121.832 16.0776 122.283 11.3564C122.734 6.48279 119.127 4.04601 114.469 7.70118C108.759 12.1179 106.355 20.6466 104.401 26.7385H106.956Z" fill="#1A152E"/>
<path fill-rule="evenodd" clip-rule="evenodd" d="M95.9863 26.7386H111.013V21.4081C111.013 19.4282 109.36 17.7529 107.407 17.7529H99.5927C97.6393 17.7529 95.9863 19.4282 95.9863 21.4081V26.7386Z" fill="#FBBC05"/>
</svg>
