<svg width="246" height="162" viewBox="0 0 246 162" fill="none" xmlns="http://www.w3.org/2000/svg">
<path d="M45.6796 63.5493L43.7975 63.5637C43.6054 63.5637 43.423 63.5877 43.2405 63.6213C43.4182 63.5829 43.6054 63.5637 43.7975 63.5637L45.6796 63.5493Z" fill="white"/>
<path d="M42.0355 64.2172C42.1078 64.1546 42.1848 64.0968 42.2619 64.0438C42.18 64.0968 42.1078 64.1546 42.0355 64.2172Z" fill="white"/>
<path d="M78.5494 63.3477C78.6119 63.3525 78.6695 63.3573 78.7271 63.3669L89.554 63.3236C91.0761 63.3188 92.3148 64.548 92.3244 66.07L92.4348 93.0582C92.454 92.9957 92.478 92.9381 92.502 92.8757L92.3292 66.0124C92.3196 64.4904 91.0761 63.2612 89.554 63.2756L87.6719 63.29C87.6383 63.29 87.6095 63.2996 87.5759 63.2996L78.5494 63.3477Z" fill="white"/>
<path d="M91.2825 102.896C91.6762 102.641 92.0027 102.291 92.2236 101.878V101.758C92.0219 102.214 91.6906 102.608 91.2825 102.896Z" fill="white"/>
<path d="M92.3244 66.0652C92.3196 64.5432 91.0808 63.3141 89.554 63.3189L78.7271 63.3621C80.0714 63.5397 81.1181 64.6824 81.1229 66.0748L81.3438 100.63C81.3486 101.408 81.0317 102.109 80.5179 102.613L88.8146 102.579C89.5492 102.574 90.231 102.79 90.8071 103.155C90.9704 103.083 91.1288 102.997 91.2729 102.891C91.681 102.603 92.0123 102.209 92.2139 101.749L92.1851 94.5226C92.1851 94.004 92.2715 93.5095 92.4252 93.0486L92.3244 66.0652Z" fill="#2F80ED"/>
<path d="M42.2131 102.771L73.7193 102.641L80.5276 102.613C81.0413 102.109 81.3582 101.408 81.3534 100.63L81.1325 66.0747C81.1229 64.6823 80.081 63.5348 78.7367 63.362C78.6791 63.3524 78.6166 63.3476 78.559 63.3428L77.3491 63.3524L56.0121 63.4916L45.7853 63.5588C45.7517 63.5588 45.7181 63.5492 45.6893 63.5492L43.8071 63.5636C43.6151 63.5636 43.4326 63.5876 43.2502 63.6213C42.8901 63.6981 42.5588 63.8421 42.2659 64.0438C42.1891 64.0966 42.1123 64.1542 42.0403 64.2166C41.4401 64.7255 41.0608 65.489 41.0656 66.334L41.2865 100.889C41.2913 101.619 41.5841 102.281 42.0499 102.771H42.2131Z" fill="#62B4FF"/>
<path d="M79.6442 29.2582L79.8458 60.822C79.8554 62.2144 78.7367 63.3475 77.3444 63.3571L78.5543 63.3475L87.5759 63.2899C87.6096 63.2899 87.6432 63.2803 87.672 63.2803C89.0163 63.2179 90.0822 62.1136 90.0774 60.7548L89.8758 29.191C89.8662 27.7986 88.7331 26.6799 87.3407 26.6895L77.1139 26.7567C78.4967 26.7471 79.6346 27.8658 79.6442 29.2582Z" fill="#185ABC"/>
<path d="M45.7805 63.5589L56.0073 63.4916L77.3443 63.3524C78.7367 63.3428 79.8554 62.2097 79.8458 60.8173L79.6442 29.2535C79.6346 27.8611 78.5014 26.7424 77.1091 26.752L55.772 26.8913L45.5452 26.9585C44.1529 26.9681 43.0342 28.1012 43.0438 29.4936L43.2454 61.0574C43.255 62.4161 44.3353 63.506 45.6797 63.5493C45.7133 63.5493 45.7469 63.5589 45.7805 63.5589Z" fill="#2F80ED"/>
<path d="M144.025 46.0533L144.044 51.2579L146.67 53.6249C147.045 53.7162 147.463 53.9226 147.914 54.3355C147.914 54.3355 148.375 54.4412 148.265 54.734L145.105 57.5284C145.105 57.5284 144.611 57.4372 144.755 57.1299C144.755 57.1299 144.568 56.8514 144.433 56.4337C144.423 56.4241 144.409 56.4241 144.399 56.4145L144.063 56.1696L144.188 86.6387C144.193 88.0503 143.295 89.2507 142.042 89.6972L154.703 89.6444H155.14C156.393 89.1978 157.291 87.9975 157.281 86.5859L157.118 46.0245C157.109 44.2384 155.659 42.7932 153.877 42.8028L141.216 42.8556C142.801 43.0669 144.02 44.416 144.025 46.0533Z" fill="#AB4DFF"/>
<path d="M142.047 89.702C143.3 89.2555 144.198 88.0503 144.193 86.6435L144.068 56.1744L128.987 45.2658L126.01 64.98C126.039 65.1385 126.068 65.3065 126.078 65.489C126.078 65.489 126.361 65.9211 126.058 66.0651L121.478 65.9115C121.478 65.9115 121.156 65.465 121.497 65.3353C121.497 65.3353 121.536 65.0953 121.665 64.7736C121.646 64.7112 121.632 64.6487 121.636 64.5815L122.601 42.8988L118.948 42.9132C118.948 42.9324 118.952 42.9516 118.952 42.9756L114.113 42.9948C114.113 42.9756 114.118 42.9564 114.118 42.9324L113.441 42.9372L100.333 42.99C98.5517 42.9996 97.1113 44.4544 97.1209 46.2405L97.2841 86.8308C97.2889 88.2424 98.1964 89.4379 99.4543 89.8748L115.563 89.8076L142.047 89.702Z" fill="#C687FF"/>
<path d="M144.049 51.2579L144.03 46.0533C144.025 44.416 142.805 43.0668 141.231 42.8604C141.086 42.8412 140.942 42.8268 140.789 42.8268L134.715 42.8508L144.049 51.2579Z" fill="#C687FF"/>
<path d="M92.238 104.802C91.9355 104.12 91.4409 103.549 90.8168 103.16C90.2406 102.795 89.554 102.584 88.8242 102.584L80.5276 102.617L73.7193 102.646C75.7743 102.637 77.4451 104.298 77.4547 106.348L77.642 152.954C77.6516 155.009 75.9903 156.68 73.9402 156.69L89.0451 156.627C90.7928 156.623 92.2476 155.408 92.6413 153.78C92.5116 153.353 92.4396 152.906 92.4348 152.436L92.238 104.802Z" fill="#72BBF7"/>
<path d="M170.653 153.497L170.49 112.883C170.485 111.341 171.551 110.055 172.991 109.719C171.964 109.426 171.21 108.499 171.205 107.38L171.133 89.5916L155.15 89.6588H154.713C157.262 89.6492 159.341 91.7089 159.351 94.2584L159.586 152.172C159.596 154.721 157.536 156.8 154.986 156.81L173.755 156.733C173.793 156.733 173.827 156.728 173.86 156.728C172.089 156.699 170.663 155.269 170.653 153.497Z" fill="#C485FF"/>
<path d="M159.581 152.167L159.346 94.2536C159.336 91.7041 157.257 89.6444 154.708 89.654L142.047 89.7068L115.563 89.8124L99.4543 89.8796L96.7944 89.8892C94.8259 89.8988 93.155 91.1376 92.4972 92.8708C92.4732 92.9285 92.454 92.9909 92.43 93.0533C92.2764 93.519 92.1899 94.0136 92.1899 94.5273L92.2188 101.753V101.873L92.2284 104.797L92.4204 152.431C92.4204 152.897 92.4972 153.348 92.6269 153.775C93.2126 155.667 94.9747 157.04 97.0585 157.031L115.827 156.954L154.972 156.795C157.531 156.795 159.596 154.717 159.581 152.167Z" fill="#D8AFFF"/>
<path d="M219.17 144.322L218.743 143.837L224.769 136.707C221.936 128.194 218.964 119.556 217.725 116.877C217.682 116.786 217.643 116.69 217.6 116.599L217.72 146.05L219.17 144.322Z" fill="#B50D53"/>
<path d="M225.647 151.648L222.814 148.446L218.93 151.615L219.045 156.546L227.64 156.512C228.97 156.507 230.108 155.701 230.602 154.553C230.151 153.161 229.459 151.019 228.624 148.446C226.852 150.39 225.647 151.648 225.647 151.648Z" fill="#B50D53"/>
<path d="M214.523 156.56L216.688 156.551L216.405 155.946C215.877 156.33 215.228 156.555 214.523 156.56Z" fill="#B50D53"/>
<path d="M213.015 148.667L216.597 147.39L217.72 146.05L217.6 116.599C216.544 114.213 216.001 111.793 215.737 109.781C215.526 109.68 215.296 109.599 215.06 109.546C214.844 109.608 214.623 109.651 214.383 109.656L204.416 109.695L183.626 109.781L173.659 109.819C173.423 109.819 173.198 109.776 172.982 109.719C171.546 110.055 170.475 111.346 170.48 112.883L170.643 153.497C170.648 155.269 172.079 156.699 173.841 156.723C173.86 156.723 173.875 156.728 173.894 156.728L187.054 156.675L214.508 156.565C215.214 156.56 215.862 156.335 216.39 155.95L213.015 148.667Z" fill="#DD3677"/>
<path d="M215.353 109.45C214.393 109.44 213.605 109.339 213.101 109.119C213.101 109.119 212.784 107.99 212.424 106.089C210.192 104.188 207.829 101.7 206.826 99.079L206.86 107.227C206.864 108.581 205.77 109.685 204.416 109.69L214.383 109.651C214.619 109.651 214.844 109.603 215.06 109.541C215.296 109.594 215.521 109.675 215.737 109.776C215.723 109.666 215.708 109.56 215.694 109.455H215.334C215.344 109.459 215.348 109.455 215.353 109.45Z" fill="#B50D53"/>
<path d="M206.74 76.4792L206.792 89.9565C207.253 88.2232 208.137 85.6017 209.755 82.7353C211.517 79.6145 215.046 77.9773 216.707 77.3579L216.702 76.4408C216.698 75.0869 215.593 73.9922 214.239 73.997L204.272 74.0354C205.631 74.0306 206.735 75.1205 206.74 76.4792Z" fill="#B50D53"/>
<path d="M172.991 109.719C173.207 109.781 173.433 109.824 173.668 109.819L183.636 109.781L204.425 109.695C205.779 109.69 206.874 108.586 206.869 107.232L206.836 99.0838C206.644 98.5892 206.5 98.0899 206.418 97.5858C206.173 96.0926 206.379 94.2104 206.73 92.434C206.596 92.3187 206.461 92.1987 206.341 92.0739C206.341 92.0739 206.451 91.272 206.802 89.9517L206.749 76.4744C206.744 75.1204 205.64 74.0257 204.286 74.0305L183.496 74.117L173.529 74.1554C172.175 74.1602 171.08 75.2645 171.085 76.6184L171.138 89.582L171.21 107.371C171.205 108.494 171.964 109.426 172.991 109.719Z" fill="#DB0A5B"/>
<path d="M125.017 30.3626C124.906 30.4298 124.786 30.4826 124.656 30.5259C123.735 30.8139 122.76 30.3002 122.472 29.3783C122.4 29.1383 122.381 28.8982 122.405 28.663L120.47 29.1575C120.302 29.2007 120.124 29.1047 120.071 28.9366L118.837 25.0236L118.266 34.3093L132.281 34.2517L132.828 30.7563C130.86 31.102 127.926 31.3037 125.017 30.3626Z" fill="#F0F0F0"/>
<path d="M118.122 22.7429C118.064 22.5605 118.175 22.3684 118.362 22.3204L121.382 21.605C121.55 21.5666 121.718 21.6578 121.771 21.8211L123.562 27.213C123.581 27.2034 123.6 27.1938 123.619 27.189C124.426 26.9393 125.276 27.2994 125.665 28.0148C126.63 28.1348 130.749 28.5669 133.131 27.2802L133.044 26.1759L132.108 22.9878L135.027 22.3012L135.584 22.1716C135.584 22.1716 134.955 20.2078 132.972 18.7915C132.963 18.7819 132.948 18.7771 132.939 18.7675C132.387 18.3785 131.729 18.0329 130.951 17.7784C130.768 17.716 130.581 17.6632 130.389 17.6199C130.077 17.5431 129.755 17.4807 129.414 17.4375L127.182 17.0342C125.77 19.7277 121.171 17.0246 121.271 17.0198C121.305 17.0198 121.358 17.0054 121.411 16.991L118.799 17.5335C116.321 18.0473 114.679 20.4095 115.068 22.911L118.203 23.007L118.122 22.7429Z" fill="#F0F0F0"/>
<path d="M117.863 40.9686C118.424 41.3383 118.818 41.9433 118.919 42.6395C119.356 42.8123 119.831 42.9132 120.335 42.9083L122.601 42.8987L122.697 40.719L122.141 40.3156C120.931 39.4418 120.859 37.6653 121.992 36.6907L122.044 36.6474C123.739 35.1974 126.25 35.2263 127.912 36.7195L132.439 40.8006C132.982 39.8883 133.193 38.7648 132.915 37.6269L132.473 34.2516H132.286L118.271 34.3092L117.863 40.9686Z" fill="#422A2C"/>
<path d="M122.698 40.7239L122.602 42.9037L121.636 64.5864C121.632 64.6536 121.651 64.716 121.665 64.7784C121.934 64.0871 122.601 63.0164 124.143 63.0596C124.143 63.0596 125.655 63.146 126.015 64.9849L128.992 45.2707L122.698 40.7239Z" fill="#A8754B"/>
<path d="M122.04 36.6523L121.987 36.6955C120.854 37.6654 120.926 39.4418 122.136 40.3205L122.693 40.7238L128.982 45.2706L144.063 56.1792L144.399 56.4241C144.409 56.4337 144.423 56.4337 144.433 56.4433C144.222 55.7903 144.13 54.7916 145.076 53.9418C145.076 53.9418 145.725 53.3993 146.67 53.6297L144.044 51.2627L134.71 42.8604L132.434 40.8102L127.907 36.7291C126.25 35.2311 123.739 35.1975 122.04 36.6523Z" fill="#B5845B"/>
<path d="M118.953 42.9804C118.953 42.9612 118.948 42.942 118.948 42.9179C118.943 42.8219 118.933 42.7355 118.919 42.6443C118.818 41.9481 118.429 41.3431 117.863 40.9734L118.271 34.3188L118.842 25.0331L118.204 23.0069L115.068 22.9109L115.087 41.0646C114.511 41.4968 114.137 42.1737 114.118 42.942C114.118 42.9612 114.113 42.9804 114.113 43.0044L118.953 42.9804Z" fill="#B5845B"/>
<path d="M127.835 5.8471C127.854 5.8711 127.869 5.89511 127.883 5.91912C131.556 3.71051 130.841 0.152743 127.878 0.0231078C124.772 -0.111329 124.599 2.68783 124.685 3.99859C125.881 4.21465 127.019 4.83882 127.835 5.8471Z" fill="#190D08"/>
<path d="M119.869 8.51191C120.715 8.55512 122.193 8.56473 123.787 8.25744C124.085 8.91522 124.685 9.52019 125.247 9.98591L125.252 10.0723C125.439 11.2967 125.962 10.9606 126.183 10.4516C126.38 10.2404 126.649 10.1011 126.956 10.0771C127.48 10.0387 127.94 10.3412 128.137 10.7925C128.589 9.50098 129.016 7.42201 127.878 5.92881C127.859 5.9048 127.849 5.88079 127.83 5.85679C127.014 4.84851 125.881 4.21954 124.68 4.00828C123.13 3.73461 121.468 4.16192 120.258 5.36705C116.825 8.78079 119.745 10.7109 119.745 10.7109L119.836 10.154L119.773 9.36174C119.754 9.05926 119.793 8.77598 119.869 8.51191Z" fill="#27160C"/>
<path d="M124.234 14.3166L122.606 14.4414C122.438 14.6239 122.323 14.8111 122.337 14.9696C122.347 15.1088 122.405 15.2384 122.477 15.3537C122.755 15.7714 123.274 15.9346 123.768 15.8386C124.906 15.6129 125.463 14.5519 125.689 13.9757C125.775 13.7548 125.814 13.606 125.814 13.606L125.751 13.6012C125.357 13.9997 124.834 14.2686 124.234 14.3166Z" fill="#A8754B"/>
<path d="M127.177 17.0293L125.9 16.746L125.684 13.9757C125.463 14.5518 124.906 15.6129 123.763 15.8386C123.274 15.9346 122.75 15.7714 122.472 15.3537C122.395 15.2384 122.342 15.1136 122.333 14.9696C122.318 14.8111 122.433 14.6239 122.601 14.4414L124.229 14.3166C124.829 14.2686 125.353 13.9997 125.746 13.606C126.097 13.2507 126.342 12.7898 126.419 12.276C126.63 12.4057 126.879 12.4777 127.144 12.4585C127.801 12.4057 128.296 11.8343 128.243 11.1765C128.233 11.0421 128.195 10.9124 128.142 10.7924C127.945 10.3363 127.48 10.0338 126.961 10.077C126.654 10.101 126.38 10.2451 126.188 10.4515C125.967 10.9653 125.444 11.2966 125.257 10.0722L125.252 9.9858C124.69 9.52487 124.09 8.9151 123.792 8.25732C122.198 8.56461 120.719 8.55501 119.874 8.51179C119.798 8.78067 119.759 9.06394 119.783 9.35682L119.846 10.149L120.009 12.2376C120.105 13.4667 121.108 14.3934 122.309 14.4414L122.472 16.5684C122.088 16.7412 121.66 16.9237 121.42 16.9909C121.363 17.0053 121.315 17.0197 121.281 17.0197C121.166 17.0197 125.766 19.7229 127.177 17.0293Z" fill="#B5845B"/>
<path d="M120.47 29.1575L122.405 28.6629C122.477 28.0196 122.914 27.4482 123.557 27.2177L121.766 21.8259C121.713 21.6626 121.545 21.5714 121.377 21.6098L118.357 22.3252C118.17 22.3684 118.059 22.5605 118.117 22.7477L118.199 23.0022L118.837 25.0283L120.071 28.9414C120.129 29.1047 120.302 29.2007 120.47 29.1575Z" fill="#383635"/>
<path d="M132.948 18.7675L132.934 18.7627C132.944 18.7724 132.958 18.7772 132.968 18.7869C132.963 18.7821 132.958 18.7724 132.948 18.7675Z" fill="#B5845B"/>
<path d="M132.108 22.9878L133.044 26.1758L133.131 27.2801C130.754 28.5621 126.63 28.1348 125.665 28.0147C125.271 27.3042 124.421 26.9393 123.619 27.1889C123.6 27.1937 123.581 27.2081 123.562 27.2129C122.914 27.4386 122.481 28.0099 122.409 28.6581C122.381 28.8934 122.4 29.1335 122.477 29.3735C122.765 30.2954 123.739 30.8091 124.661 30.521C124.791 30.4826 124.906 30.425 125.021 30.3578C127.931 31.2988 130.864 31.0972 132.838 30.7515C134.312 30.497 135.253 30.1609 135.253 30.1609C136.069 29.9593 136.458 29.2439 136.64 28.5285C136.852 27.6979 136.77 26.8192 136.463 26.0174L135.032 22.2964L132.108 22.9878Z" fill="#B5845B"/>
<path d="M77.642 152.954L77.4547 106.348C77.4451 104.293 75.7742 102.637 73.7193 102.646L42.2131 102.771H42.045L35.5153 102.8C36.3123 105.897 35.7073 108.667 33.7916 110.568C33.2586 111.097 31.9671 112.575 30.4211 114.39C28.5005 117.439 25.3701 122.85 23.488 126.129L23.4928 127.469L32.1351 139.948L31.2997 140.581L34.9343 145.69C35.1119 145.7 35.2848 145.776 35.4096 145.925L36.1298 146.785L36.7156 147.322C36.8164 147.414 36.8596 147.539 36.8596 147.663L37.359 148.259L37.431 149.094L33.7292 151.845L27.3818 156.565L27.1274 156.359C26.5464 155.898 26.4552 155.043 26.8969 154.51C27.9868 153.204 29.8113 150.746 30.6467 148.134L26.652 144.077L25.0196 145.311C25.0196 145.311 24.4626 144.821 23.5552 143.981L23.5936 153.175C23.6032 155.23 25.2741 156.887 27.329 156.877L42.4339 156.815L73.9401 156.685C75.9903 156.68 77.6516 155.009 77.642 152.954Z" fill="#A7D4FE"/>
<path d="M217.72 146.05L216.597 147.39L216.678 147.361C216.678 147.361 216.318 149.632 218.921 151.5L218.925 151.615L222.81 148.446L219.165 144.327L217.72 146.05Z" fill="#965F27"/>
<path d="M218.925 151.5C216.323 149.632 216.683 147.361 216.683 147.361L216.601 147.39L213.02 148.667L216.409 155.946L216.693 156.551L217.615 158.534C217.768 158.865 218.253 159.11 218.632 158.937C218.916 158.807 219.098 158.534 219.089 158.255L219.05 156.541L218.935 151.61L218.925 151.5Z" fill="#E4E4E4"/>
<path d="M229.287 112.163L236.954 138.666C240.469 134.167 243.436 129.663 243.402 127.296C243.33 122.509 235.25 111.121 232.047 108.221C231.337 107.577 230.77 106.785 230.396 105.902L230.256 105.57C229.757 105.916 229.143 106.252 228.442 106.574C229.123 109.968 229.287 112.163 229.287 112.163Z" fill="#A2A3A5"/>
<path d="M219.17 144.322L222.814 148.441L225.647 151.644C225.647 151.644 226.852 150.391 228.629 148.436C227.524 145.037 226.161 140.889 224.768 136.707L218.743 143.837L219.17 144.322Z" fill="#A2A3A5"/>
<path d="M239.398 157.165L239.504 157.213L238.5 153.19L233.723 155.221L234.693 157.516L234.702 157.429C234.698 157.434 236.599 158.726 239.398 157.165Z" fill="#965F27"/>
<path d="M245.582 159.897L239.504 157.213L239.398 157.165C236.599 158.726 234.698 157.429 234.698 157.429L234.688 157.516L234.318 161.304L245.203 161.347C245.568 161.347 246 161.011 246 160.598C246.005 160.291 245.837 160.008 245.582 159.897Z" fill="#E4E4E4"/>
<path d="M240.863 152.181L236.954 138.666L229.287 112.163C229.287 112.163 229.123 109.973 228.437 106.579C226.099 107.649 222.829 108.542 219.857 109.037L219.967 109.219C219.967 109.219 219.401 110.794 217.653 112.091C216.957 111.303 217.298 109.651 217.298 109.651C217.298 109.651 217.149 109.565 216.894 109.402C216.472 109.431 216.073 109.45 215.694 109.455C215.694 109.459 215.694 109.459 215.694 109.464C215.708 109.57 215.723 109.68 215.737 109.786C216.006 111.798 216.544 114.218 217.6 116.604C217.643 116.695 217.682 116.791 217.725 116.882C218.964 119.561 221.931 128.204 224.769 136.712C226.161 140.894 227.525 145.047 228.629 148.441C229.464 151.015 230.156 153.151 230.607 154.549C230.967 155.667 231.174 156.306 231.174 156.306L233.723 155.221L238.5 153.19L240.863 152.181Z" fill="#B7B7B7"/>
<path d="M243.201 79.1631C243.273 79.2255 243.297 79.3359 243.258 79.4272L243.124 79.7633L242.077 82.3896C242.149 82.3464 242.221 82.3079 242.293 82.2695C242.346 82.0727 242.668 81.2517 242.97 80.6899L243.455 79.48C243.494 79.3888 243.47 79.2783 243.398 79.2159L241.559 77.5979C241.53 77.5691 241.487 77.5594 241.453 77.5546C241.391 77.5402 241.304 77.5162 241.304 77.5162C241.328 77.521 241.352 77.5306 241.371 77.5498L243.201 79.1631Z" fill="#A2A3A5"/>
<path d="M239.23 82.7497L240.838 84.1613C240.843 83.95 240.887 83.7532 240.954 83.5803L239.312 82.1351L241.007 77.8956L243.134 79.7633L243.268 79.4272C243.306 79.3312 243.282 79.2255 243.21 79.1631L241.371 77.5451C241.352 77.5259 241.328 77.5163 241.304 77.5115C241.232 77.4923 241.155 77.5307 241.122 77.6123L240.027 80.3586L239.177 82.4856C239.129 82.5768 239.153 82.6873 239.23 82.7497Z" fill="#E4E4E4"/>
<path d="M243.124 79.7633L240.997 77.8956L239.302 82.1352L240.944 83.5804C241.16 83.0186 241.64 82.6393 242.072 82.3897L243.124 79.7633Z" fill="#8DADE0"/>
<path d="M227.952 92.866C228.307 94.2919 228.682 95.7852 229.042 97.2159C230.631 98.5411 232.388 99.535 233.987 99.3813C238.011 99.002 239.71 91.1567 241.775 86.0001C242.231 84.8766 242.918 83.1817 243.038 82.7304C243.22 82.0438 243.705 80.1473 243.402 80.1473C243.297 80.1473 243.134 80.3729 242.97 80.6802C242.668 81.242 242.346 82.063 242.293 82.2599C242.226 82.2983 242.154 82.3367 242.077 82.3799C241.65 82.6344 241.17 83.0089 240.949 83.5706C240.882 83.7483 240.839 83.9403 240.834 84.1516L239.225 82.74C239.153 82.6776 239.129 82.5671 239.168 82.4759L240.018 80.3489C240.037 79.9696 240.032 79.6191 239.941 79.6191C239.739 79.6191 239.456 80.1425 239.067 81.2324C238.678 82.3223 238.529 83.8155 238.529 83.8155L233.339 91.8529L232.105 89.8555C231.366 90.7102 229.656 91.9009 227.952 92.866Z" fill="#965F27"/>
<path d="M212.429 106.094C212.789 107.995 213.106 109.123 213.106 109.123C213.61 109.339 214.393 109.445 215.358 109.455C215.468 109.455 215.584 109.455 215.699 109.455C216.078 109.45 216.477 109.431 216.899 109.402C216.121 108.903 214.326 107.707 212.429 106.094Z" fill="#E4E4E4"/>
<path d="M213.918 96.4575C213.937 96.1694 214.018 95.7085 214.143 95.1371C211.675 95.0123 208.627 94.0808 206.72 92.434C206.37 94.2104 206.163 96.0926 206.408 97.5858C206.49 98.0851 206.634 98.5892 206.826 99.0838C207.83 101.7 210.192 104.188 212.424 106.094C214.321 107.712 216.117 108.907 216.89 109.402C217.144 109.565 217.293 109.651 217.293 109.651C217.293 109.651 216.952 111.303 217.648 112.091C219.396 110.794 219.962 109.219 219.962 109.219L219.852 109.037L219.137 107.841C219.146 107.841 213.75 99.271 213.918 96.4575Z" fill="#965F27"/>
<path d="M209.755 82.7353C208.137 85.6017 207.253 88.2232 206.792 89.9565C206.442 91.272 206.332 92.0786 206.332 92.0786C206.456 92.2035 206.586 92.3187 206.72 92.4387C208.627 94.0856 211.675 95.017 214.143 95.1419C214.018 95.7132 213.937 96.1694 213.918 96.4622C213.75 99.2758 219.141 107.846 219.141 107.846L219.857 109.042C222.829 108.547 226.099 107.654 228.437 106.583C229.138 106.262 229.752 105.926 230.252 105.58C230.535 105.383 230.78 105.186 230.986 104.985C230.986 104.985 230.079 101.355 229.042 97.2208C228.682 95.7853 228.312 94.2969 227.952 92.8709C229.656 91.9058 231.361 90.7151 232.1 89.87C232.177 89.7836 232.249 89.702 232.302 89.6204C228.331 81.4918 224.61 78.9519 222.829 78.1644L222.781 78.5582C222.032 79.9217 218.46 79.6192 217.61 77.0505C217.61 77.0505 217.264 77.1466 216.707 77.353C215.046 77.9772 211.512 79.6144 209.755 82.7353Z" fill="#E4E4E4"/>
<path d="M222.786 78.5581L222.834 78.1644L223.083 76.1958C223.794 76.2535 224.476 76.1958 224.98 75.975C226.295 75.394 226.276 70.103 225.882 68.0864C225.609 68.2305 225.326 68.3553 225.033 68.4465C224.02 68.773 222.886 69.1283 221.585 68.8978C221.364 69.5604 221.033 70.4295 220.577 71.1833C220.625 71.2601 220.673 71.3417 220.716 71.4185C220.755 71.4858 220.788 71.5626 220.764 71.6346L220.433 73.2526C220.178 73.5935 219.804 73.4783 219.53 73.2286C219.42 73.123 219.333 73.003 219.261 72.8733C219.017 73.051 218.383 73.5023 218.378 73.5071L218.484 74.1649L217.61 77.0553C218.464 79.6144 222.037 79.9169 222.786 78.5581Z" fill="#965F27"/>
<path d="M219.559 70.9096C219.679 70.7944 219.838 70.7175 220.006 70.732C220.246 70.756 220.428 70.9528 220.577 71.1785C221.033 70.4247 221.364 69.5556 221.585 68.893C222.886 69.1235 224.02 68.7682 225.033 68.4417C225.326 68.3505 225.609 68.2257 225.882 68.0816C226.555 67.7215 227.14 67.2126 227.491 66.5404C227.904 65.753 227.933 64.6487 226.939 64.2118C226.703 64.1061 226.435 64.0677 226.18 64.0821C225.35 64.1349 224.687 64.6391 224.058 65.124C224.327 63.8181 221.854 64.4086 221.34 64.8744C221.177 65.0232 221.072 65.2104 220.879 65.3257C220.294 65.6762 219.55 65.6954 218.925 65.9642C218.157 66.2955 217.543 66.9773 217.293 67.7791C217.086 68.4465 216.832 69.5604 217.375 70.367C217.634 70.7512 217.888 71.1737 217.956 71.6346L218.383 73.4975C218.388 73.4927 219.026 73.0414 219.266 72.8637C218.93 72.2492 219.045 71.3945 219.559 70.9096Z" fill="#00276F"/>
<path d="M220.006 70.732C219.838 70.7176 219.679 70.7944 219.559 70.9096C219.045 71.3945 218.93 72.2492 219.266 72.8733C219.338 73.003 219.42 73.1278 219.535 73.2286C219.804 73.4783 220.183 73.5935 220.438 73.2526L220.769 71.6346C220.793 71.5674 220.755 71.4858 220.721 71.4185C220.678 71.3417 220.635 71.2601 220.582 71.1833C220.428 70.9528 220.246 70.756 220.006 70.732Z" fill="#965F27"/>
<path d="M124.138 63.0595C122.597 63.0163 121.934 64.087 121.66 64.7784C121.536 65.1001 121.492 65.3401 121.492 65.3401C121.151 65.4698 121.473 65.9163 121.473 65.9163L126.054 66.0699C126.356 65.9259 126.073 65.4938 126.073 65.4938C126.058 65.3065 126.034 65.1433 126.006 64.9848C125.65 63.1459 124.138 63.0595 124.138 63.0595Z" fill="#BAB9B9"/>
<path d="M145.11 57.5284L148.269 54.734C148.38 54.4459 147.919 54.3355 147.919 54.3355C147.472 53.9226 147.05 53.7161 146.675 53.6249C145.725 53.3944 145.081 53.937 145.081 53.937C144.135 54.782 144.227 55.7855 144.438 56.4385C144.572 56.8562 144.76 57.1347 144.76 57.1347C144.615 57.4371 145.11 57.5284 145.11 57.5284Z" fill="#BAB9B9"/>
<path d="M20.0983 78.4573C19.3012 78.8558 18.3842 79.067 17.5728 78.7021C16.2284 78.0924 15.7483 74.0065 15.8875 71.3321C15.7435 71.1641 15.609 70.9288 15.5418 70.6119C15.4842 70.8136 15.4746 71.0777 15.489 71.2265C15.5034 71.3849 15.5034 71.5482 15.4938 71.7114C15.4794 71.9611 15.4218 72.206 15.3642 72.446C15.2105 73.099 15.2345 73.7232 15.3738 74.381C15.4266 74.6258 15.4314 74.8947 15.3354 75.1252C15.2489 75.3316 15.0857 75.4853 14.9368 75.6437C14.6392 75.9558 14.3655 76.3063 14.2022 76.7192C14.0438 77.1273 14.0006 77.6074 14.1638 78.0156C14.2503 78.2316 14.3847 78.4189 14.4855 78.6253C14.7448 79.1487 14.7832 79.7824 14.596 80.3394C14.5527 80.4642 15.3498 83.8588 15.4794 83.8828C16.6317 84.1036 17.808 84.2285 18.9699 84.1036C19.114 84.0892 19.2628 84.07 19.4069 84.046C20.0502 82.7352 20.6648 81.6982 20.8857 81.3669L20.0983 78.4573Z" fill="#00276F"/>
<path d="M23.0079 78.443C22.6574 77.934 22.7006 77.2618 22.8014 76.6521C22.8158 76.556 22.835 76.4648 22.8495 76.3688C22.3405 76.6761 21.5627 76.7625 21.4091 76.0663L21.822 74.2274C21.8316 74.141 21.9084 74.0834 21.9756 74.0354C22.0572 73.9777 22.1485 73.9249 22.2397 73.8721C22.1052 73.7377 21.966 73.6128 21.8172 73.4976L20.5592 71.2314C19.9735 70.9049 19.2293 70.2951 18.7059 69.1716C18.3026 70.612 19.4261 71.5195 19.4261 71.5195C19.4261 71.5195 16.4541 71.6923 16.2477 69.8486C15.7147 70.6024 16.3869 71.7067 16.3869 71.7067C16.3869 71.7067 16.1276 71.6059 15.8876 71.3322C15.7483 74.0066 16.2236 78.0925 17.5728 78.7022C18.3842 79.0671 19.3013 78.8559 20.0983 78.4574L20.8857 81.3622C20.8905 81.3526 20.9001 81.3381 20.9049 81.3285C21.2074 82.1304 22.7534 81.2469 23.8193 80.5123C23.6801 79.7777 23.5456 79.1824 23.464 79.0335C23.3488 78.8175 23.1471 78.6494 23.0079 78.443Z" fill="#B28B67"/>
<path d="M21.7116 66.8334C24.842 67.3855 24.5396 71.8556 24.5396 71.8556C24.5396 71.8556 21.2507 72.5806 19.8583 68.8884C20.0984 70.4824 21.4859 71.5915 21.4859 71.5915C21.4859 71.5915 21.0826 71.5243 20.5593 71.2314L21.8172 73.4976C21.9661 73.6128 22.1053 73.7377 22.2397 73.8721C22.499 73.7281 22.7871 73.6321 23.0512 73.7473C23.2336 73.8289 23.368 73.997 23.4401 74.1842C23.6897 74.8084 23.6129 75.6342 23.1376 76.1479C23.0608 76.2296 22.9599 76.3016 22.8495 76.3688C22.8351 76.4648 22.8159 76.5609 22.8015 76.6521C22.7007 77.2618 22.6574 77.934 23.0079 78.443C23.152 78.6494 23.3536 78.8175 23.4737 79.0383C23.5553 79.1872 23.6897 79.7825 23.829 80.5171C24.4195 80.1138 24.8612 79.7537 24.8612 79.7537C24.8612 79.7537 28.275 80.2531 30.5076 83.3643C31.7127 83.4699 32.9995 83.3643 33.8829 82.7689C33.8877 81.0981 30.5988 75.5862 30.3347 75.2453C29.7058 74.4435 30.3011 73.1807 29.821 72.2781C29.4753 71.6203 28.6879 71.3706 28.0541 70.9769C26.6905 70.1319 26.2248 68.8595 25.0437 67.592C24.8613 67.3951 24.578 67.1839 24.2371 66.987C24.6692 66.867 25.0677 66.6894 25.3318 66.4013C26.0904 65.5658 25.4134 64.4183 24.4867 63.9046C23.4113 63.3092 21.5291 63.3764 21.0586 64.5528C20.857 65.0473 20.9962 65.5947 21.2171 66.0844C20.2616 66.0364 19.3253 66.2428 18.6436 66.8814C19.5318 66.6702 20.5737 66.6317 21.7116 66.8334Z" fill="#00276F"/>
<path d="M21.822 74.2274L21.4091 76.0663C21.5579 76.7625 22.3405 76.6713 22.8495 76.3688C22.9599 76.3016 23.0607 76.2296 23.1375 76.1479C23.6129 75.639 23.6897 74.8084 23.44 74.1842C23.368 73.997 23.2336 73.8241 23.0511 73.7473C22.787 73.6321 22.5038 73.7281 22.2397 73.8721C22.1485 73.9249 22.062 73.9777 21.9756 74.0354C21.9036 74.0834 21.8268 74.141 21.822 74.2274Z" fill="#B28B67"/>
<path d="M7.73973 91.7714C6.82748 90.7295 6.78907 89.6012 6.78907 89.6012C6.78907 89.6012 6.501 88.9146 6.75066 88.6697C6.75066 88.6697 7.40364 89.3323 8.14304 90.0333L6.47219 88.372L6.29934 88.2184C6.29934 88.2184 6.03527 88.9386 6.48179 90.1725C7.05795 91.7665 13.3093 101.628 17.2991 102.008C17.9425 102.07 18.5907 101.806 19.2197 101.312C15.5131 99.4871 11.4319 96.0013 7.73973 91.7714Z" fill="#A57E5D"/>
<path d="M20.9817 94.4217C20.4872 93.7976 18.0145 93.3894 17.5872 90.5279C17.5584 90.3358 17.5488 90.1341 17.5488 89.9181C17.0879 91.2048 16.675 92.5012 16.3389 93.6055C18.3122 94.3545 20.5352 95.1851 21.5051 95.55C21.2986 95.0171 21.1162 94.5898 20.9817 94.4217Z" fill="#A57E5D"/>
<path d="M9.29532 89.6972C9.32893 89.6972 9.38654 89.7164 9.45856 89.75C9.41055 89.678 9.36254 89.6107 9.31932 89.5531C9.13687 89.3034 8.5127 88.4248 8.15741 88.5929C8.09499 88.6217 8.06618 88.6889 8.05658 88.7705L9.13687 89.846C9.14648 89.7548 9.19449 89.6972 9.29532 89.6972Z" fill="#B28B67"/>
<path d="M8.67596 155.677C8.68077 155.672 8.69037 155.667 8.69517 155.662C8.69517 155.662 11.1438 156.522 13.1508 156.306C13.242 156.296 13.338 156.306 13.4245 156.33L13.4005 156.229L14.7928 152.282L9.39616 152.258L8.67596 155.677Z" fill="#B28B67"/>
<path d="M7.09637 152.249L9.3914 152.258L14.7881 152.282L17.7697 152.297L19.8679 140.423C16.795 137.321 13.0884 133.231 10.9854 129.639C9.29537 137.763 7.09637 152.249 7.09637 152.249Z" fill="#4CA8ED"/>
<path d="M21.6635 124.838L23.0655 126.864C23.1951 126.638 23.3344 126.389 23.4832 126.134C25.3653 122.855 28.4958 117.444 30.4163 114.395C26.7625 118.673 21.6635 124.838 21.6635 124.838Z" fill="#4CA8ED"/>
<path d="M30.6516 148.139C30.6852 148.038 30.7188 147.937 30.7476 147.836C30.7476 147.836 33.0762 147.159 34.435 145.872C34.5694 145.743 34.7519 145.685 34.9343 145.69L31.2997 140.581L26.6617 144.082L30.6516 148.139Z" fill="#B28B67"/>
<path d="M36.7156 147.323L36.1298 146.785L36.8644 147.659C36.8596 147.539 36.8164 147.419 36.7156 147.323Z" fill="#B28B67"/>
<path d="M26.6569 144.082L31.295 140.581L32.1304 139.948L23.488 127.469L23.0655 126.859L21.6635 124.833C21.6635 124.833 26.7625 118.673 30.4163 114.39C31.9672 112.575 33.2587 111.092 33.7869 110.568C35.7026 108.667 36.3075 105.897 35.5105 102.8C35.0688 101.076 34.195 99.2469 32.8602 97.4128C32.8602 97.4128 31.2518 97.9842 28.9567 98.4979C28.3998 100.409 27.55 101.902 26.2536 102.373C24.9572 102.838 23.4496 102.795 21.822 102.339C19.4645 106.319 11.9793 118.995 9.63627 123.412C8.83445 124.92 9.53064 127.157 10.9854 129.634C13.0932 133.221 16.795 137.312 19.8679 140.418C21.3131 141.878 22.619 143.117 23.5553 143.986C24.4627 144.826 25.0197 145.316 25.0197 145.316L26.6569 144.082Z" fill="#62B4FF"/>
<path d="M10.1067 91.661C10.7021 91.7138 9.99628 91.0752 9.55456 90.6335C9.27608 90.3502 9.11764 90.0286 9.13685 89.8461L8.05655 88.7706L5.16136 85.8898C5.09894 85.8274 5.00292 85.8274 4.9405 85.8898L4.5708 86.2595C4.50838 86.322 4.50838 86.418 4.5708 86.4804L6.46732 88.3673L8.13817 90.0286C8.9544 90.816 9.87145 91.6418 10.1067 91.661Z" fill="white"/>
<path d="M17.5824 90.5279C18.0097 93.3895 20.4872 93.7976 20.9769 94.4217C21.1114 94.5946 21.2986 95.0171 21.4955 95.5501C21.8075 95.6653 21.99 95.7373 21.99 95.7373C21.99 95.7373 22.0716 93.6391 21.9228 91.2673L29.8497 92.2323C29.7537 94.3449 29.4992 96.6207 28.9519 98.5029C31.2469 97.9891 32.8554 97.4178 32.8554 97.4178C32.8554 97.4178 33.5179 89.3468 31.2949 84.7183C31.0549 84.219 30.7812 83.7772 30.4931 83.3691C28.2653 80.2531 24.8468 79.7585 24.8468 79.7585C24.8468 79.7585 24.4051 80.1186 23.8145 80.522C22.7486 81.2566 21.2026 82.14 20.9001 81.3382C20.8953 81.3478 20.8857 81.3574 20.8809 81.3718C20.66 81.7031 20.0455 82.7402 19.4021 84.0509C18.5042 85.8706 17.5584 88.2136 17.5392 89.9277C17.544 90.1294 17.5536 90.3358 17.5824 90.5279Z" fill="#AB4DFF"/>
<path d="M26.2535 102.373C27.5499 101.907 28.4045 100.414 28.9567 98.498C29.504 96.6206 29.7585 94.34 29.8545 92.2274L21.9275 91.2624C22.0716 93.6342 21.9948 95.7324 21.9948 95.7324C21.9948 95.7324 21.8123 95.6652 21.5002 95.5451C20.5304 95.1803 18.3121 94.3496 16.334 93.6006C14.8072 93.0245 13.4292 92.4963 12.8963 92.2851C11.5903 91.1616 10.0107 89.9996 9.45373 89.75C9.38171 89.7164 9.3289 89.6972 9.29048 89.6972C9.18966 89.6972 9.14164 89.7548 9.13204 89.846C9.11764 90.0284 9.27128 90.3501 9.54975 90.6334C9.98667 91.0751 10.6925 91.7185 10.1019 91.6609C9.86664 91.6417 8.94959 90.8111 8.13337 90.0332C7.39877 89.3323 6.74099 88.6697 6.74099 88.6697C6.49612 88.9145 6.7794 89.6011 6.7794 89.6011C6.7794 89.6011 6.81781 90.7294 7.73006 91.7713C11.4223 96.0061 15.5034 99.487 19.2052 101.316C20.103 101.758 20.9721 102.104 21.8123 102.339C23.4543 102.795 24.9572 102.838 26.2535 102.373Z" fill="#B28B67"/>
<path d="M34.435 145.872C33.0762 147.164 30.7476 147.836 30.7476 147.836C30.7187 147.937 30.6851 148.038 30.6515 148.139C29.8161 150.751 27.9916 153.209 26.9017 154.515C26.46 155.048 26.5512 155.902 27.1322 156.363L27.3866 156.57L33.734 151.85L37.4358 149.099L37.3638 148.263L36.8644 147.668L36.1298 146.794L35.4096 145.935C35.2848 145.786 35.1119 145.709 34.9343 145.7C34.7518 145.68 34.5694 145.743 34.435 145.872Z" fill="#E4E4E4"/>
<path d="M13.1508 156.306C11.1439 156.522 8.69519 155.662 8.69519 155.662C8.69039 155.667 8.68079 155.672 8.67599 155.677C6.23692 157.376 2.90001 158.293 1.0467 158.697C0.316905 158.855 -0.153623 159.595 0.0480319 160.31L0.139257 160.627L8.67599 160.661L13.6549 160.68L14.1303 159.969L13.9526 156.93C13.9334 156.627 13.703 156.397 13.4197 156.325C13.3333 156.306 13.242 156.296 13.1508 156.306Z" fill="#E4E4E4"/>
<path d="M16.3869 71.7067C16.3869 71.7067 15.7147 70.6024 16.2476 69.8485C16.4541 71.6923 19.4261 71.5194 19.4261 71.5194C19.4261 71.5194 18.3026 70.612 18.7059 69.1716C19.2292 70.2951 19.9686 70.9048 20.5592 71.2313C21.0873 71.5242 21.4859 71.5914 21.4859 71.5914C21.4859 71.5914 20.0983 70.4871 19.8582 68.8883C21.2506 72.5805 24.5395 71.8555 24.5395 71.8555C24.5395 71.8555 24.842 67.3855 21.7115 66.8333C20.5736 66.6317 19.5317 66.6701 18.6387 66.8813C17.0735 67.2558 15.9692 68.1777 15.6331 69.3588C15.4842 69.8774 15.4794 70.2855 15.5466 70.6072C15.6139 70.924 15.7483 71.1593 15.8923 71.3274C16.1276 71.6058 16.3869 71.7067 16.3869 71.7067Z" fill="#00276F"/>
</svg>
