<svg width="596" height="80" viewBox="0 0 596 80" fill="none" xmlns="http://www.w3.org/2000/svg">
<g filter="url(#filter0_d_4_3)">
<path d="M37.2 28.7C36.5 28.6 35.8 28.4 35.1 28.2C30.1 26.9 25.9 25.6 25.9 23C25.9 19.9 28.8 18.8 31.6 18.8C36.8 18.8 38.4 21.8 38.8 23.6L39.4 25.6L58.2 21L57.7 18.9C55.1 7.99999 45.1 0.899994 32.3 0.899994C16.6 0.899994 6.1 9.79999 6.1 23.1C6.1 35 12.5 41.9 26.7 45.4C27.8 45.7 28.8 45.9 29.8 46.1C36.2 47.7 39 48.6 39 50.9C39 54.9 33.3 55.2 31.5 55.2C25.6 55.2 22.8 52.1 22.1 49.1L21.6 46.9L17.7 48.1C17.7 49.4 18.7 52.2 18.7 52.2C20.4 55.9 24.5 59.4 31.5 59.4C38.8 59.4 43.3 56.2 43.3 50.9C43.3 45 37.2 43.6 30.7 42C29.8 41.8 28.8 41.6 27.8 41.3C15.4 38.3 10.3 33 10.3 23.1C10.3 12.3 19.2 5.09999 32.3 5.09999C42.3 5.09999 50.2 10.1 53 17.9L42.2 20.6C40.4 16.8 36.6 14.6 31.6 14.6C25.8 14.6 21.7 18 21.7 23C21.7 29.1 28.8 30.9 34 32.3C34.8 32.5 35.4 32.6 36.1 32.8C52.4 37.4 55.3 42.2 55.3 50.6C55.3 59.7 47.2 68.9 31.7 68.9C25.7 68.9 12 67.6 7.8 55.6C7.7 55.3 6.8 52.7 6.8 51.5L2.7 52.7L3.2 54.6C6 66.4 16.4 73.2 31.7 73.2C49.9 73.2 59.5 61.8 59.5 50.6C59.5 39.1 53.7 33.4 37.2 28.7Z" fill="url(#paint0_linear_4_3)"/>
<path d="M62.8328 2.09999V21.5H78.2328V72.2H82.4328V17.3H67.0328V6.3H109.633V17.3H94.2328V72.2H98.4328V21.5H113.833V2.09999H62.8328Z" fill="url(#paint1_linear_4_3)"/>
<path d="M139.672 46H161.072V27.4H139.672V21.5H164.072V2.09999H119.372V31.6H156.872V41.8H119.372V72H164.872V52.7H139.672V46ZM135.472 27.4H123.572V6.3H159.872V17.3H135.472V27.4ZM160.672 67.8H123.572V46H135.472V56.9H160.672V67.8Z" fill="url(#paint2_linear_4_3)"/>
<path d="M213.278 2.09999V35.5L193.878 6.59999L190.878 2.09999H189.678V67.8H177.778V2.09999H173.578V72H193.978V38.5L216.278 72H233.678V2.09999H213.278ZM218.578 67.8L193.878 30.9V14.2L217.478 49.4V6.3H229.478V67.8H218.578Z" fill="url(#paint3_linear_4_3)"/>
<path d="M299.795 58.7V58.8C296.195 62.9 291.495 65.9 286.195 67.5C283.095 68.4 279.795 68.9 276.295 68.9C258.195 68.9 244.995 55.5 244.995 37C244.995 18.5 258.195 5.09999 276.295 5.09999C285.795 5.09999 293.995 8.7 299.795 15.2L289.795 21.7C286.395 18.3 281.695 16.4 276.295 16.4C263.595 16.4 256.895 26.7 256.895 37C256.895 47.3 263.595 57.7 276.295 57.7C278.495 57.7 280.595 57.3 282.595 56.7C285.195 55.9 287.495 54.5 289.495 52.6C289.595 52.5 289.695 52.4 289.895 52.2C290.895 51.3 291.795 50.2 292.595 49L288.995 46.6L288.795 46.8L287.795 48.2C287.695 48.4 287.495 48.5 287.395 48.7C285.695 50.6 283.595 52 281.195 52.7C279.695 53.2 278.095 53.5 276.295 53.5C265.895 53.5 261.195 44.9 261.195 37C261.195 29.1 265.895 20.6 276.295 20.6C282.395 20.6 285.895 23.4 287.795 25.8L288.995 27.3L305.895 16.2L304.595 14.4C297.995 5.79999 287.795 0.899994 276.295 0.899994C266.395 0.899994 257.295 4.59999 250.795 11.2C244.395 17.8 240.795 27 240.795 37C240.795 47 244.395 56.2 250.795 62.8C257.295 69.5 266.395 73.2 276.295 73.2C287.595 73.2 297.795 68.3 304.295 59.9C304.395 59.8 304.495 59.7 304.595 59.5L305.895 57.8L302.395 55.5C301.595 56.6 300.695 57.7 299.795 58.7Z" fill="url(#paint4_linear_4_3)"/>
<path d="M328.057 2.09999V67.8H316.157V2.09999H311.957V72H332.257V2.09999H328.057Z" fill="url(#paint5_linear_4_3)"/>
<path d="M362.63 52.7V2.09999H342.23V72H346.43V6.3H358.33V72H387.13V52.7H362.63ZM382.83 67.8H362.63V56.9H382.83V67.8Z" fill="url(#paint6_linear_4_3)"/>
<path d="M452.761 25.9H436.061V35.6H426.361V52.3H436.061V62H440.361V30.2H448.461V62H452.761V52.3H462.461V35.6H452.761V25.9ZM436.061 48H430.661V39.9H436.061V48ZM458.161 48H452.761V39.9H458.161V48Z" fill="url(#paint7_linear_4_3)"/>
<path d="M544.098 1.49999V42.1C544.098 49.4 540.998 52.9 534.798 52.9C528.498 52.9 525.598 49.5 525.598 42.1V1.49999H521.298V42.1C521.298 51.8 526.098 57.1 534.798 57.1C543.398 57.1 548.298 51.6 548.298 42.1V5.69999H560.098V43.7C560.098 59.9 551.398 68.4 534.798 68.4C518.198 68.4 509.398 59.9 509.398 43.7V1.49999H505.198V43.7C505.198 62.3 515.698 72.6 534.798 72.6C553.798 72.6 564.298 62.3 564.298 43.7V1.49999H544.098Z" fill="url(#paint8_linear_4_3)"/>
<path d="M589.58 2.09999V67.8H577.68V2.09999H573.48V72H593.78V2.09999H589.58Z" fill="url(#paint9_linear_4_3)"/>
</g>
<defs>
<filter id="filter0_d_4_3" x="0.700001" y="0.899994" width="595.08" height="78.3" filterUnits="userSpaceOnUse" color-interpolation-filters="sRGB">
<feFlood flood-opacity="0" result="BackgroundImageFix"/>
<feColorMatrix in="SourceAlpha" type="matrix" values="0 0 0 0 0 0 0 0 0 0 0 0 0 0 0 0 0 0 127 0" result="hardAlpha"/>
<feOffset dy="4"/>
<feGaussianBlur stdDeviation="1"/>
<feComposite in2="hardAlpha" operator="out"/>
<feColorMatrix type="matrix" values="0 0 0 0 0 0 0 0 0 0 0 0 0 0 0 0 0 0 0.1 0"/>
<feBlend mode="normal" in2="BackgroundImageFix" result="effect1_dropShadow_4_3"/>
<feBlend mode="normal" in="SourceGraphic" in2="effect1_dropShadow_4_3" result="shape"/>
</filter>
<linearGradient id="paint0_linear_4_3" x1="352" y1="-153" x2="361" y2="42" gradientUnits="userSpaceOnUse">
<stop stop-color="#261E45"/>
<stop offset="1" stop-color="white"/>
</linearGradient>
<linearGradient id="paint1_linear_4_3" x1="352" y1="-153" x2="361" y2="42" gradientUnits="userSpaceOnUse">
<stop stop-color="#261E45"/>
<stop offset="1" stop-color="white"/>
</linearGradient>
<linearGradient id="paint2_linear_4_3" x1="352" y1="-153" x2="361" y2="42" gradientUnits="userSpaceOnUse">
<stop stop-color="#261E45"/>
<stop offset="1" stop-color="white"/>
</linearGradient>
<linearGradient id="paint3_linear_4_3" x1="352" y1="-153" x2="361" y2="42" gradientUnits="userSpaceOnUse">
<stop stop-color="#261E45"/>
<stop offset="1" stop-color="white"/>
</linearGradient>
<linearGradient id="paint4_linear_4_3" x1="352" y1="-153" x2="361" y2="42" gradientUnits="userSpaceOnUse">
<stop stop-color="#261E45"/>
<stop offset="1" stop-color="white"/>
</linearGradient>
<linearGradient id="paint5_linear_4_3" x1="352" y1="-153" x2="361" y2="42" gradientUnits="userSpaceOnUse">
<stop stop-color="#261E45"/>
<stop offset="1" stop-color="white"/>
</linearGradient>
<linearGradient id="paint6_linear_4_3" x1="352" y1="-153" x2="361" y2="42" gradientUnits="userSpaceOnUse">
<stop stop-color="#261E45"/>
<stop offset="1" stop-color="white"/>
</linearGradient>
<linearGradient id="paint7_linear_4_3" x1="352" y1="-153" x2="361" y2="42" gradientUnits="userSpaceOnUse">
<stop stop-color="#261E45"/>
<stop offset="1" stop-color="white"/>
</linearGradient>
<linearGradient id="paint8_linear_4_3" x1="352" y1="-153" x2="361" y2="42" gradientUnits="userSpaceOnUse">
<stop stop-color="#261E45"/>
<stop offset="1" stop-color="white"/>
</linearGradient>
<linearGradient id="paint9_linear_4_3" x1="352" y1="-153" x2="361" y2="42" gradientUnits="userSpaceOnUse">
<stop stop-color="#261E45"/>
<stop offset="1" stop-color="white"/>
</linearGradient>
</defs>
</svg>
