<svg width="762" height="947" viewBox="0 0 762 947" fill="none" xmlns="http://www.w3.org/2000/svg">
<path d="M745.525 191.459C749.644 193.517 755.822 199.693 757.881 203.811C759.941 207.928 762 214.104 762 220.28V442.62L718.751 417.915C710.513 413.798 704.335 407.622 700.216 399.387C696.097 391.152 694.038 382.917 694.038 374.683V257.337C694.038 253.22 691.978 247.044 689.919 242.926C687.859 238.809 683.741 234.691 679.622 232.633L420.13 82.3478C407.773 76.1717 393.357 72.0543 381 72.0543C368.643 72.0543 354.227 76.1717 341.87 82.3478L80.3191 232.633C76.2002 234.691 72.0813 238.809 70.0218 242.926C67.9624 247.044 65.903 251.161 65.903 257.337V354.096L525.162 619.668L490.152 640.254C479.854 646.431 469.557 648.489 457.2 648.489C444.844 648.489 434.546 646.431 424.249 640.254L16.4757 403.504C12.3568 401.446 6.17863 395.27 4.11917 391.152C2.05971 387.035 0 380.859 0 374.683V222.339C0 216.163 2.05971 209.987 4.11917 205.87C6.17863 201.752 12.3568 195.576 16.4757 193.517L327.454 14.4108C343.93 4.11733 362.465 0 381 0C399.535 0 418.07 4.11733 434.546 14.4108L745.525 191.459ZM327.454 932.589C343.93 942.883 362.465 947 381 947C399.535 947 418.07 942.883 434.546 932.589L745.525 753.483C749.644 751.424 755.822 747.307 757.881 741.13C759.941 734.954 762 730.837 762 724.661V572.317C762 566.141 759.941 559.965 757.881 555.848C755.822 551.73 751.703 545.554 745.525 543.496L337.751 306.746C327.454 300.569 317.157 298.511 304.8 298.511C292.444 298.511 282.146 300.569 271.849 306.746L236.838 327.332L696.098 592.904V689.663C696.098 693.78 694.038 699.956 691.979 704.074C689.919 708.191 685.8 712.309 681.681 714.367L422.189 864.652C409.832 870.828 395.416 874.946 383.06 874.946C370.703 874.946 356.287 870.828 343.93 864.652L82.3784 714.367C78.2595 712.309 74.1405 708.191 72.0811 704.074C70.0216 699.956 67.9622 695.839 67.9622 689.663V570.259C67.9622 562.024 65.9027 553.789 61.7838 545.554C57.6649 537.32 51.4866 531.144 43.2488 527.026L0 502.322V724.661C0 730.837 2.05971 737.013 4.11917 741.13C6.17863 745.248 12.3568 751.424 16.4757 753.483L327.454 932.589Z" fill="#66459C"/>
</svg>
