<svg xmlns="http://www.w3.org/2000/svg" viewBox="0 0 512 512"><path d="M468,56H44A28.032,28.032,0,0,0,16,84V428a28.032,28.032,0,0,0,28,28H468a28.032,28.032,0,0,0,28-28V84A28.032,28.032,0,0,0,468,56ZM32,84A12.013,12.013,0,0,1,44,72H468a12.013,12.013,0,0,1,12,12v20H32ZM480,428a12.013,12.013,0,0,1-12,12H44a12.013,12.013,0,0,1-12-12V120H480Z"/><path d="M72,336h77.856a119.91,119.91,0,0,0,105.217,63.983c.314.011.624.017.927.017s.613-.006.927-.017A119.907,119.907,0,0,0,362.144,336H440a8,8,0,0,0,8-8V232a8,8,0,0,0-8-8H362.137a119.492,119.492,0,0,0-105.23-63.984c-.307-.01-.61-.016-.907-.016s-.613.006-.927.017A119.91,119.91,0,0,0,149.856,224H72a8,8,0,0,0-8,8v96A8,8,0,0,0,72,336Zm96.376,0H206.2c4.059,17.11,9.939,31.752,17.159,42.617.02.031.041.06.062.09A104.854,104.854,0,0,1,168.376,336ZM256,384c-12.657,0-25.8-19.3-33.312-48h66.624C281.8,364.7,268.657,384,256,384Zm32.583-5.293c.021-.03.042-.059.062-.09,7.22-10.866,13.1-25.508,17.159-42.617h37.82A104.854,104.854,0,0,1,288.583,378.707ZM432,310.606l-19.27-16.517A32,32,0,1,0,383.472,312c.181,0,.361,0,.542,0a31.745,31.745,0,0,0,18.3-5.762L418.374,320H336V240h96Zm-64-30.87A16,16,0,1,1,395.126,291.5a15.714,15.714,0,0,1-11.39,4.5,15.9,15.9,0,0,1-11.235-4.873h0A15.9,15.9,0,0,1,368,279.736ZM343.655,224H305.8c-4.059-17.11-9.939-31.752-17.159-42.617-.052-.079-.1-.152-.156-.229A103.447,103.447,0,0,1,343.655,224ZM256,176c12.657,0,25.8,19.3,33.312,48H222.688C230.2,195.3,243.343,176,256,176Zm-32.583,5.293c-.021.03-.042.059-.062.09-7.22,10.865-13.1,25.507-17.159,42.617h-37.82A104.854,104.854,0,0,1,223.417,181.293ZM80,240H320v80H80Z"/><circle cx="56" cy="88" r="8"/><circle cx="88" cy="88" r="8"/><circle cx="120" cy="88" r="8"/></svg>