<svg width="165" height="35" viewBox="0 0 165 35" fill="none" xmlns="http://www.w3.org/2000/svg">
<path fill-rule="evenodd" clip-rule="evenodd" d="M102.926 25.8318C102.926 25.6607 102.756 25.4896 102.586 25.3185C102.332 25.233 102.077 25.233 101.822 25.233C101.568 25.233 101.313 25.233 101.058 25.1475C100.719 24.9764 100.719 24.4632 100.719 24.2921V0.513214C100.719 0.171071 100.549 0 100.209 0H96.8131C96.4735 0 96.4735 0.342142 96.4735 0.513214V10.0932C95.7943 9.57999 94.9453 9.06678 94.0963 8.8957C92.5681 8.38249 91.0399 8.38249 89.5117 8.38249C88.1533 8.38249 86.6251 8.72463 85.4365 9.23785C83.9083 9.92213 82.8895 11.2907 82.2103 12.6593C81.5311 14.1989 81.1915 15.9096 81.1915 17.6203C81.0217 19.8443 81.1915 22.0682 81.8707 24.2921C82.3801 25.6607 83.0593 26.8582 84.2479 27.7135C85.2667 28.5689 86.6251 29.0821 87.9835 29.2532C89.0023 29.4242 89.8513 29.4242 90.8701 29.4242C92.0587 29.4242 93.2473 29.2532 94.4359 28.911C95.4547 28.5689 96.4735 28.0557 97.1527 27.3714C97.4924 27.8846 97.832 28.3978 98.3414 28.74C99.1904 29.0821 100.039 29.2532 100.888 29.2532H102.417C102.586 29.2532 102.756 28.911 102.756 28.74C102.926 27.7135 102.926 26.6871 102.926 25.8318ZM96.4735 20.0153C96.4735 21.3839 96.1339 22.7525 95.4547 23.7789C94.9453 24.6343 93.9265 25.1475 92.9077 25.3185C91.8889 25.4896 90.7003 25.4896 89.6815 25.4896C88.4929 25.3185 87.3043 24.8053 86.6251 23.95C85.7761 22.9235 85.6063 21.555 85.6063 20.1864V20.1862C85.6063 18.9888 85.6063 17.6203 85.7761 16.4228C85.9459 15.3964 86.2855 14.37 86.9647 13.6857C87.4741 13.1725 88.3231 12.8303 89.1721 12.6593C90.7003 12.4882 92.0587 12.4882 93.5869 12.8303C94.6057 13.1725 95.2849 13.6857 95.7943 14.5411C96.4735 15.7386 96.4735 16.9361 96.4735 18.3046V20.0153ZM109.1 8.25944H115.462C116.699 8.25944 117.583 9.1198 117.76 10.3243C117.76 11.5288 116.876 12.3892 115.639 12.3892H109.277V13.0774V24.2621C109.277 24.7783 109.984 25.1225 110.514 25.2945C111.574 25.4666 112.811 25.4666 113.872 25.4666C114.048 25.4666 114.402 25.6387 114.402 25.9828V28.908C114.402 29.2522 114.225 29.4243 113.872 29.4243H110.691C109.63 29.4243 108.57 29.4243 107.686 29.0801C106.803 28.736 105.919 28.2197 105.389 27.3594C105.036 26.6711 104.682 25.9828 104.682 25.1225V0.516215C104.682 0.172072 104.859 0 105.212 0H108.747C108.923 0 109.1 0.344143 109.1 0.516215V8.25944ZM135.419 25.2054C135.169 25.0296 134.919 25.0296 134.669 25.0296C134.419 25.0296 134.169 25.0296 133.919 24.8539C133.67 24.5921 133.699 24.2329 133.73 23.8489V23.8486C133.741 23.7169 133.752 23.5823 133.752 23.4477V22.2173V14.8348C133.752 13.6044 133.585 12.374 133.085 11.1436C132.585 9.91323 131.751 9.03437 130.584 8.50705C129.417 7.80396 128.25 7.62819 127.083 7.62819H126.083H125.916H121.748C120.581 7.62819 119.747 8.50705 119.747 9.73746C119.747 10.9679 120.581 11.8467 121.748 11.8467H125.916H126.75C127.583 11.8467 128.417 12.0225 128.917 12.7256C129.417 13.4287 129.584 14.3075 129.584 15.0106C126.75 15.0106 123.749 15.0106 120.914 15.8895C119.58 16.241 118.247 16.9441 117.246 18.1745C116.246 19.4049 116.079 20.9869 115.913 22.5688C115.913 24.3265 116.246 26.26 117.413 27.4904C118.747 28.8966 120.581 29.2482 122.248 29.4239C124.249 29.4239 126.083 29.4239 127.917 28.7208C128.75 28.3693 129.584 27.842 130.084 27.3147C130.417 27.842 130.751 28.3693 131.251 28.7208C132.251 29.2482 133.585 29.2482 134.752 29.0724C134.919 29.0724 135.252 28.8966 135.252 28.7208V25.7327C135.586 25.5569 135.586 25.3812 135.419 25.2054ZM129.417 22.2173C129.084 23.0961 128.584 24.1508 127.75 24.6781C126.416 25.557 124.749 25.557 123.248 25.557C122.415 25.557 121.248 25.3812 120.748 24.5023C120.247 23.7992 120.247 23.0961 120.247 22.2173C120.247 21.3384 120.581 20.4596 121.414 19.9322C122.081 19.5807 122.748 19.4049 123.582 19.2292C125.582 18.8776 127.75 18.8776 129.751 18.8776C129.671 19.4672 129.629 20.0165 129.589 20.5447C129.546 21.1188 129.504 21.668 129.417 22.2173ZM157.863 18.4964C157.863 17.1627 157.694 15.8291 157.355 14.6622C156.863 13.3285 156.417 12.6596 155.402 11.4926C154.726 10.8258 153.608 10.1597 152.571 9.66047C150.542 8.99366 148.731 8.82755 146.702 8.99425C145.011 9.16095 143.32 9.66107 141.967 10.828C141.967 10.4946 141.967 10.1612 141.798 9.82777C141.798 9.49436 141.46 9.49436 141.29 9.49436C140.868 9.49436 140.445 9.53604 140.022 9.57771C139.599 9.61939 139.177 9.66107 138.754 9.66107C138.416 9.66107 138.247 10.1612 138.247 10.3279V34.4999C138.247 34.8333 138.416 35 138.754 35H142.136C142.474 35 142.474 34.6666 142.474 34.4999V28.1652C143.151 28.6653 143.827 29.1654 144.673 29.3321C146.025 29.6655 147.547 29.8322 149.069 29.8322C150.929 29.8322 152.79 29.4988 154.481 28.3319C156.402 26.4832 156.735 25.8169 157.017 24.8311C157.376 23.5798 157.863 21.4863 157.863 18.4964ZM153.466 19.9967C153.466 21.3303 153.297 22.8307 152.451 24.1643C151.944 24.9978 151.099 25.3312 150.084 25.6646C148.9 25.8313 147.716 25.8313 146.533 25.6646C145.687 25.4979 145.011 25.3312 144.334 24.8311C143.489 24.331 143.151 23.4975 142.812 22.664C142.788 22.5423 142.763 22.4242 142.739 22.3086C142.598 21.6323 142.474 21.042 142.474 20.3301C142.474 20.1022 142.472 19.8717 142.469 19.6399C142.45 18.0068 142.431 16.3094 143.32 14.9956C143.996 13.8287 145.349 13.3285 146.702 13.1618C147.886 12.9951 149.069 12.9951 150.084 13.3285C150.76 13.4953 151.437 13.8287 151.944 14.3288C152.62 14.8289 152.959 15.6624 153.128 16.3292C153.635 17.3294 153.635 18.6631 153.466 19.9967ZM51.3793 8.7179C51.2109 8.7179 50.8742 8.7179 50.8742 9.06137C50.8742 9.40484 50.8742 9.57658 50.7059 9.92005C51.3667 11.8751 52.0535 13.8565 52.7458 15.8541L52.7462 15.8552L52.7464 15.8557L52.7464 15.856C53.8176 18.9465 54.902 22.0755 55.9244 25.2045C56.0252 25.4615 56.1109 25.7186 56.1951 25.9711L56.1951 25.9711C56.3921 26.5619 56.5806 27.1275 56.9344 27.6088C57.1028 28.124 57.6078 28.6392 58.1128 28.9826C59.1228 29.4978 60.1329 29.3261 60.9745 28.6392C61.4796 28.2957 61.8162 27.7805 61.9846 27.0935C62.2125 26.3629 62.4404 25.6257 62.6695 24.8847C63.625 21.794 64.6018 18.6348 65.688 15.5873C66.193 16.9612 66.656 18.378 67.1189 19.7948C67.5818 21.2116 68.0448 22.6284 68.5498 24.0023C68.641 24.328 68.7198 24.641 68.7964 24.9448C69.0024 25.7627 69.1916 26.514 69.5598 27.2653C69.8965 27.9522 70.4015 28.8109 71.0749 29.1544C72.4216 29.8413 74.2733 29.1544 74.7783 27.7805L75.7883 24.6893C76.4617 23.1436 76.9667 21.598 77.4717 20.0524C78.0609 18.4209 78.608 16.8324 79.1551 15.2438C79.7022 13.6553 80.2493 12.0667 80.8385 10.4353C81.0068 10.0918 81.1752 9.57658 81.1752 9.23311C81.3435 8.88964 81.0068 8.7179 80.6701 8.7179H77.4717C77.135 8.7179 76.9667 8.88964 76.9667 9.06137C76.2934 11.208 75.5779 13.3117 74.8625 15.4155L74.8622 15.4163C74.1469 17.5198 73.4315 19.6233 72.7582 21.7698C72.6741 21.9415 72.632 22.0703 72.5899 22.1991C72.5478 22.3279 72.5057 22.4567 72.4216 22.6284C71.6511 20.0739 70.8256 17.5756 70.0079 15.1014L70.0079 15.1013L70.0079 15.1013L70.0079 15.1012L70.0078 15.101C69.3964 13.2506 68.7893 11.4136 68.2131 9.57658C68.2131 9.23311 68.2131 8.88964 67.8764 8.7179H66.6981H64.3413C64.0948 8.7179 64.0288 8.90197 63.9451 9.13535C63.9144 9.22078 63.8814 9.31281 63.8363 9.40484C62.4896 13.87 61.1429 18.3351 59.6278 22.6284C58.8704 20.3961 58.113 18.1209 57.3555 15.8456L57.3553 15.845L57.3553 15.8449C56.5977 13.5694 55.8402 11.2939 55.0827 9.06137C55.0827 8.7179 54.746 8.7179 54.4093 8.7179H51.3793ZM50.7694 14.6074C50.4228 13.2838 49.7298 11.9603 48.5169 10.9676C47.4772 9.97496 46.2643 9.47863 44.8782 9.14774C42.9722 8.65141 41.0662 8.65141 39.1602 8.81685C37.9473 8.9823 36.5611 9.31318 35.3482 9.80952C33.962 10.4713 32.9224 11.464 32.2293 12.6221C31.5362 13.6147 31.1897 14.9383 31.0164 16.0964C30.6699 18.0817 30.6699 19.9016 31.0164 21.887C31.1897 23.3759 31.7095 24.865 32.7491 26.1885C33.7888 27.5121 35.1749 28.3393 36.7344 28.8356C38.8136 29.4974 40.8929 29.4974 43.1454 29.3319C44.8782 29.1665 46.6109 28.6702 47.997 27.6775C49.3832 26.6848 50.2496 25.3613 50.7694 23.8723C51.0733 23.0018 51.2439 22.0041 51.3982 21.1024C51.4198 20.9758 51.4411 20.851 51.4625 20.7288C51.4211 20.2156 51.3896 19.7117 51.3586 19.215C51.2596 17.6305 51.1651 16.1189 50.7694 14.6074ZM46.6109 21.5561C46.4376 22.7142 45.7445 24.0377 44.5316 24.6995C43.1454 25.5267 41.4127 25.5267 39.8533 25.3613C38.4671 25.1958 37.2542 24.6995 36.3878 23.7068C35.5215 22.5487 35.1749 20.8943 35.1749 19.4053C35.1749 17.7508 35.3482 15.931 36.2146 14.6074C36.9077 13.6147 37.9473 13.1184 39.1602 12.953C39.68 12.7875 40.1998 12.7875 40.7196 12.7875C41.4127 12.7875 42.1058 12.7875 42.7989 12.953C43.6652 13.1184 44.5316 13.4493 45.0514 14.1111C45.9178 14.9383 46.2643 15.931 46.4376 16.9236C46.9574 18.4126 46.9574 19.9016 46.6109 21.5561ZM29.8962 8.7179C28.6658 8.7179 27.6112 8.88903 26.3808 9.23127C25.3262 9.57352 24.4473 9.91577 23.3927 10.9425C23.3927 10.6003 23.3927 10.0869 23.2169 9.57352C23.0411 9.23127 22.6896 9.23127 22.5138 9.23127C21.8107 9.23127 20.9319 9.23127 20.053 9.4024C19.7015 9.4024 19.5257 9.57352 19.5257 9.91577V28.9105C19.5257 29.0816 19.7015 29.4239 20.053 29.4239H22.8654C23.0411 29.3383 23.2169 29.3383 23.3707 29.3383C23.5245 29.3383 23.6563 29.3383 23.7442 29.2527C23.92 29.2527 23.92 28.9105 23.92 28.7394V19.8409C23.92 18.8142 23.92 17.9586 24.0958 16.9318C24.2715 16.0762 24.6231 15.2206 25.3262 14.5361C26.0293 13.6805 26.9081 13.3382 27.9628 13.1671C28.6658 13.1671 29.3689 13.1671 30.072 12.996C30.4236 12.8249 30.4236 12.4826 30.4236 12.3115V9.23127C30.4236 9.06015 30.2478 8.7179 29.8962 8.7179ZM8.68371 8.7179H10.6876C12.8586 8.7179 14.8625 9.38584 16.5325 10.8887C16.6508 11.007 16.7691 11.1043 16.8799 11.1956L16.88 11.1956C17.0821 11.3619 17.2596 11.5079 17.3674 11.7236C17.5344 11.8906 17.3674 12.2246 17.2004 12.2246C16.6994 12.642 16.282 13.0595 15.8854 13.4561L15.8853 13.4561C15.4887 13.8526 15.113 14.2284 14.6955 14.5623C14.5285 14.5623 14.1945 14.5623 14.0275 14.3953C13.0256 13.3934 11.6896 12.7255 10.1867 12.7255C9.35169 12.7255 8.51672 12.7255 7.84874 12.8925C7.01377 13.0595 6.1788 13.5604 5.51082 14.2284C4.84284 14.8963 4.50885 15.8982 4.34186 16.9001C4.17486 18.069 4.17486 19.4048 4.34186 20.7407C4.50885 21.9096 4.67585 22.9115 5.34382 23.7464C6.0118 24.5813 6.84677 25.0823 7.84874 25.2493C9.35169 25.5832 10.8546 25.5832 12.3576 25.0823C13.1926 24.7483 13.8605 24.2474 14.3615 23.7464C14.5285 23.5794 14.8625 23.5794 15.0295 23.7464C15.3635 24.0804 15.6974 24.3726 16.0314 24.6648L16.0315 24.6648C16.3655 24.957 16.6994 25.2493 17.0334 25.5832C17.2004 25.7502 17.3674 25.9172 17.3674 26.0842C17.3674 26.1677 17.3257 26.2512 17.2839 26.3347C17.2422 26.4182 17.2004 26.5016 17.2004 26.5851C16.1985 27.4201 15.1965 28.255 13.8605 28.7559C12.5246 29.2569 11.1886 29.4239 9.68568 29.4239C7.51475 29.4239 5.17683 29.0899 3.33989 27.754C2.33792 27.0861 1.50295 25.9172 1.00197 24.7483C0.166994 22.9115 0 20.9077 0 18.9039C0 16.9001 0.166994 14.7293 1.16896 12.8925C1.83694 11.3896 3.33989 10.0538 4.84284 9.38584C6.1788 8.88489 7.34776 8.7179 8.68371 8.7179ZM160.592 24.3179C160.209 24.3179 159.899 24.6281 159.899 25.0107V28.6219C159.899 29.0046 160.209 29.3147 160.592 29.3147H164.203C164.586 29.3147 164.896 29.0046 164.896 28.6219V25.0107C164.896 24.6281 164.586 24.3179 164.203 24.3179H160.592Z" fill="white"/>
</svg>
