<svg width="30" height="32" viewBox="0 0 30 32" fill="none" xmlns="http://www.w3.org/2000/svg">
<path d="M17.4693 14.585C17.4693 14.585 17.4693 12.3348 14.915 12.3348C11.0807 12.0125 10.7608 16.8408 14.595 16.8408C18.4293 16.5185 18.7493 21.669 14.595 21.669C11.7207 21.669 11.7207 19.0966 11.7207 19.0966" stroke="#2F80ED" stroke-width="2" stroke-miterlimit="10" stroke-linecap="round" stroke-linejoin="round"/>
<path d="M14.5947 10.7236V23.5971" stroke="#2F80ED" stroke-width="2" stroke-miterlimit="10" stroke-linecap="round" stroke-linejoin="round"/>
<path d="M15.8204 3.35594C14.6508 3.26148 13.2936 3.29482 11.8592 3.61152C11.8592 3.61152 7.95325 4.21158 4.86377 7.52301C4.86377 7.52301 1.63085 10.7011 1.12881 15.2515C1.12881 15.2515 0.350922 19.4964 2.61838 23.6801C2.61838 23.6801 4.19071 26.9027 7.42363 28.8807C7.42363 28.8807 10.629 31.1531 15.2246 30.992C15.2246 30.992 19.605 30.9864 23.1634 28.075C23.1634 28.075 26.9646 25.4914 28.1618 20.0187C28.1618 20.0187 29.37 16.1183 27.0694 11.0789C27.0694 11.0789 25.7012 8.06195 23.0531 6.13954C23.0531 6.13954 20.896 4.45049 19.6105 4.03934" stroke="white" stroke-width="2" stroke-miterlimit="10" stroke-linecap="round" stroke-linejoin="round"/>
<path d="M13.4371 1L16.2673 3.28911L13.415 5.77825" stroke="white" stroke-width="2" stroke-miterlimit="10" stroke-linecap="round" stroke-linejoin="round"/>
</svg>
