<svg width="184" height="230" viewBox="0 0 184 230" fill="none" xmlns="http://www.w3.org/2000/svg">
<ellipse cx="48.1551" cy="223.265" rx="48.1551" ry="6.5666" fill="#1E173C"/>
<path d="M110.537 151.182H84.8538C84.0913 151.182 83.4775 150.566 83.4775 149.802V124.015C83.4775 123.25 84.0913 122.634 84.8538 122.634H110.556C111.319 122.634 111.932 123.25 111.932 124.015V149.802C111.932 150.566 111.299 151.182 110.537 151.182Z" fill="#A8C8F3"/>
<path d="M110.537 118.246H84.8538C84.0913 118.246 83.4775 117.63 83.4775 116.865V91.078C83.4775 90.3131 84.0913 89.6973 84.8538 89.6973H110.556C111.319 89.6973 111.932 90.3131 111.932 91.078V116.865C111.932 117.636 111.299 118.246 110.537 118.246Z" fill="#74AAF3"/>
<path opacity="0.05" d="M110.537 85.3151H84.8538C84.0913 85.3151 83.4775 84.6992 83.4775 83.9343V58.1474C83.4775 57.3824 84.0913 56.7666 84.8538 56.7666H110.556C111.319 56.7666 111.932 57.3824 111.932 58.1474V83.9343C111.932 84.6992 111.299 85.3151 110.537 85.3151Z" fill="#F2F2F2"/>
<path d="M143.365 151.182H117.682C116.919 151.182 116.306 150.566 116.306 149.802V124.015C116.306 123.25 116.919 122.634 117.682 122.634H143.384C144.147 122.634 144.761 123.25 144.761 124.015V149.802C144.754 150.566 144.127 151.182 143.365 151.182Z" fill="#DBB5FF"/>
<path d="M143.365 118.246H117.682C116.919 118.246 116.306 117.63 116.306 116.865V91.078C116.306 90.3131 116.919 89.6973 117.682 89.6973H143.384C144.147 89.6973 144.761 90.3131 144.761 91.078V116.865C144.754 117.636 144.127 118.246 143.365 118.246Z" fill="#C88CFF"/>
<path d="M149.129 83.9408V58.1409C149.129 57.3824 149.743 56.7666 150.499 56.7666H176.214C176.97 56.7666 177.584 57.3824 177.584 58.1409V83.9408C177.584 84.6993 176.97 85.3151 176.214 85.3151H150.499C149.743 85.3151 149.129 84.6993 149.129 83.9408Z" fill="#D02461"/>
<path d="M149.129 116.877V91.0774C149.129 90.3189 149.743 89.7031 150.499 89.7031H176.214C176.97 89.7031 177.584 90.3189 177.584 91.0774V116.877C177.584 117.636 176.97 118.252 176.214 118.252H150.499C149.743 118.245 149.129 117.636 149.129 116.877Z" fill="#E25189"/>
<path d="M177.584 149.808C177.584 150.566 176.97 151.182 176.214 151.182H150.499C149.743 151.182 149.129 150.566 149.129 149.808V124.008C149.129 123.25 149.743 122.634 150.499 122.634H176.214C176.97 122.634 177.584 123.25 177.584 124.008V149.808Z" fill="#E878A4"/>
<path d="M143.365 85.3151H117.682C116.919 85.3151 116.306 84.6992 116.306 83.9343V58.1474C116.306 57.3824 116.919 56.7666 117.682 56.7666H143.384C144.147 56.7666 144.761 57.3824 144.761 58.1474V83.9343C144.754 84.6992 144.127 85.3151 143.365 85.3151Z" fill="#9858E8"/>
<path d="M45.3492 44.1266C45.3492 44.1266 35.8642 42.3115 33.0923 53.1112C30.3205 63.9109 23.8141 57.8952 23.0711 66.3029C22.3345 74.7041 15.3048 72.0203 17.4046 79.326C17.4046 79.326 16.3579 76.0783 20.1829 73.8873C24.0079 71.6962 24.7704 70.7109 24.7704 70.7109C24.7704 70.7109 18.3609 74.2568 19.1298 80.5123C22.8902 80.0456 25.1903 79.4362 29.2544 82.6255C33.3185 85.8149 47.3909 87.5198 53.0056 81.2707C58.6204 75.0217 59.0339 76.7719 59.0339 76.7719C59.0339 76.7719 62.5229 72.3315 58.0841 64.974C53.4967 57.3507 61.7799 44.9045 45.3492 44.1266Z" fill="#00276F"/>
<path fill-rule="evenodd" clip-rule="evenodd" d="M34.8184 121.104L50.1378 173.904L57.342 213.543H64.572L57.3614 121.104H34.8184Z" fill="#997659"/>
<path fill-rule="evenodd" clip-rule="evenodd" d="M27.9379 121.104C29.004 148.532 28.5841 163.493 28.345 165.989C28.1059 168.478 26.7491 185.17 17.4902 214.386H25.011C37.2679 186.356 41.5516 169.671 42.9537 165.989C44.3622 162.307 48.5103 147.345 54.5773 121.104H27.9379V121.104Z" fill="#B28B67"/>
<path fill-rule="evenodd" clip-rule="evenodd" d="M34.4893 121.104C38.4758 139.275 45.3699 168.277 55.165 208.111H65.7419C66.5237 167.227 63.1962 140.312 57.4458 121.104H34.4893V121.104Z" fill="#2F80ED"/>
<path fill-rule="evenodd" clip-rule="evenodd" d="M27.8786 121.104C28.9253 148.532 26.2116 175.557 17.8057 208.539H29.0933C41.376 180.931 50.1761 154.042 56.1914 121.104H27.8786Z" fill="#62B4FF"/>
<path fill-rule="evenodd" clip-rule="evenodd" d="M16.417 219.818L16.7465 214.483C16.7917 213.789 17.4702 213.31 18.155 213.388C21.6699 213.783 25.9601 212.292 25.9601 212.292C30.2245 215.313 36.0783 216.946 39.3218 217.672C40.5947 217.958 41.4152 219.261 41.0599 220.518L40.9048 221.076H25.9666H17.244L16.417 219.818Z" fill="#E4E4E4"/>
<path fill-rule="evenodd" clip-rule="evenodd" d="M55.7334 219.818L56.0629 214.483C56.1081 213.789 56.7866 213.31 57.4715 213.388C60.9863 213.783 65.2765 212.292 65.2765 212.292C69.5409 215.313 75.3947 216.946 78.6382 217.672C79.9111 217.958 80.7316 219.261 80.3763 220.518L80.2212 221.076H65.283H56.5669L55.7334 219.818Z" fill="#E4E4E4"/>
<path fill-rule="evenodd" clip-rule="evenodd" d="M85.6092 73.1217L70.251 77.2575L73.9403 83.889L85.9839 77.2381C91.5147 77.076 94.1444 76.6093 93.8665 75.8314C93.6275 75.1767 93.0201 75.047 92.4645 74.9303C92.0316 74.8396 91.6245 74.7553 91.4436 74.4312C91.0301 73.6922 92.6066 71.8512 94.1702 70.1722C95.7403 68.4868 94.5256 68.3701 93.7955 68.4868C91.2433 69.4397 88.5167 70.9825 85.6092 73.1217Z" fill="#B28B67"/>
<path fill-rule="evenodd" clip-rule="evenodd" d="M28.8086 122.083H59.7382C59.7382 122.083 49.2259 89.8201 48.9997 77.7953C48.9933 77.3869 48.2438 76.6673 47.9078 76.7646C44.2702 77.7953 40.1221 75.9932 40.1221 75.9932C32.7951 87.8624 30.2559 102.474 28.8086 122.083Z" fill="#F2F2F2"/>
<path fill-rule="evenodd" clip-rule="evenodd" d="M48.0638 93.7556C52.2635 114.752 51.5205 131.814 40.8596 131.483L24.3772 130.978C22.2967 113.19 29.9208 88.842 36.6728 76.6486C36.9312 76.1819 37.4739 75.3067 38.6951 75.3456L43.4828 75.4947C43.4828 75.5012 43.4893 75.5077 43.4893 75.5142C44.9301 75.5725 46.5131 75.6698 48.2318 75.78C57.0707 76.3439 69.3985 77.1348 83.4193 73.0703L84.8084 81.3548C72.0347 89.0883 59.1511 94.9873 48.0638 93.7556Z" fill="#C485FF"/>
<path d="M37.248 76.052L41.3897 59.2432L47.2047 66.4321L45.5894 76.3372C45.5959 76.3372 43.5606 76.5382 37.248 76.052Z" fill="#B28B67"/>
<path d="M44.6077 46.1549C44.6077 46.1549 35.2131 46.0512 36.7897 58.9252C37.2936 63.0286 38.1271 66.2568 40.0978 67.5209C46.7205 71.7798 52.1608 70.2953 54.1443 65.7901C55.0877 63.6444 55.779 60.7468 55.275 56.6434C53.6985 43.7694 44.6077 46.1549 44.6077 46.1549Z" fill="#B28B67"/>
<path d="M36.9834 48.8971C36.9834 48.8971 30.9874 47.27 33.3135 42.0776C35.6395 36.8917 44.446 36.5287 44.9888 44.0872C39.7552 44.9364 36.9834 48.8971 36.9834 48.8971Z" fill="#00276F"/>
<path d="M35.7675 57.1688C35.7675 57.1688 43.1591 58.219 45.6144 49.7919C45.3559 53.3701 42.4742 56.0603 42.4742 56.0603C42.4742 56.0603 46.3768 55.1139 48.2117 50.2197C49.3489 53.3507 47.01 55.5482 47.01 55.5482C47.01 55.5482 53.6133 55.4316 53.7554 51.3088C55.067 52.8905 54.2659 55.451 54.2659 55.451C54.2659 55.451 56.5273 54.1675 55.0412 50.129C53.5551 46.0904 48.005 43.7957 41.1755 45.5459C34.3396 47.2961 35.7675 57.1688 35.7675 57.1688Z" fill="#00276F"/>
<path d="M41.2214 63.6837C44.0449 69.3104 46.0285 73.699 47.3078 78.6905C43.373 74.0167 33.0674 79.7082 33.7782 75.1576C34.8313 68.4612 32.1499 54.2518 40.9888 55.0297" fill="#00276F"/>
<path d="M94.9842 58.1733C94.9325 58.0242 94.9002 57.8686 94.8937 57.7065L94.5836 53.2596C94.5319 52.5465 94.8485 51.8594 95.4236 51.4316C96.1278 50.913 97.0776 50.8806 97.8077 51.3667L97.8852 51.4186C98.5314 51.8464 98.9061 52.579 98.8867 53.3504L98.7834 56.5008C98.751 57.4019 98.5701 58.2964 98.2406 59.1327L98.0597 59.5994C97.6333 60.844 95.8758 60.8375 95.4623 59.5929L94.9842 58.1733Z" fill="#2F80ED"/>
<path d="M88.1874 64.5778C87.5736 64.3703 87.0438 63.9619 86.6884 63.4239L86.1521 62.6201C85.842 62.1469 85.8291 61.544 86.1328 61.0643C86.3072 60.7855 86.5721 60.5781 86.8887 60.4679L86.9146 60.4614C87.4379 60.2799 88.0259 60.4031 88.4329 60.7791L88.9175 61.2199C89.2923 61.5634 89.5572 62.0042 89.6864 62.4904L90.2873 64.7917C90.3196 64.9084 90.2744 65.038 90.1775 65.1093C90.0935 65.1741 89.9836 65.1936 89.8867 65.1612L88.1874 64.5778Z" fill="#2F80ED"/>
<path d="M105.16 72.791L107.247 74.0291C107.965 74.4569 108.572 75.0403 109.024 75.7469L109.58 76.6156C109.974 77.2249 110.116 77.9639 109.98 78.6834C109.754 79.8438 108.824 80.7448 107.661 80.9328C106.827 81.069 105.962 80.8226 105.328 80.2651L104.01 79.1113C103.603 78.7548 103.235 78.3399 102.931 77.8926L102.738 77.6139C102.137 76.7387 101.691 75.7664 101.419 74.7357L100.987 73.0956C100.967 73.0178 100.935 72.9336 100.896 72.8623C100.373 71.838 101.49 70.749 102.498 71.3065L105.16 72.791Z" fill="#2F80ED"/>
<path d="M86.5889 30.2347C86.6145 30.1613 86.6422 30.088 86.6698 30.0146C86.6422 30.088 86.6145 30.1613 86.5889 30.2347Z" fill="#FBBC05"/>
<path d="M86.9658 29.301C86.9994 29.2296 87.033 29.1583 87.0665 29.0869C87.031 29.1583 86.9974 29.2296 86.9658 29.301Z" fill="#FBBC05"/>
<path d="M87.1846 28.8468C87.2201 28.7774 87.2576 28.708 87.2952 28.6387C87.2576 28.708 87.2221 28.7774 87.1846 28.8468Z" fill="#FBBC05"/>
<path d="M87.4277 28.4043C87.4672 28.3369 87.5067 28.2695 87.5482 28.2021C87.5067 28.2695 87.4672 28.3369 87.4277 28.4043Z" fill="#FBBC05"/>
<path d="M86.3047 31.2015C86.3225 31.1262 86.3442 31.0529 86.3639 30.9775C86.3422 31.0529 86.3225 31.1262 86.3047 31.2015Z" fill="#FBBC05"/>
<path d="M86.1953 31.6947C86.2091 31.6213 86.2269 31.546 86.2427 31.4727C86.2269 31.548 86.2091 31.6213 86.1953 31.6947Z" fill="#FBBC05"/>
<path d="M86.4346 30.7161C86.4563 30.6408 86.48 30.5675 86.5037 30.4941C86.48 30.5675 86.4563 30.6408 86.4346 30.7161Z" fill="#FBBC05"/>
<path d="M86.7666 29.763C86.7962 29.6896 86.8258 29.6183 86.8574 29.5449C86.8258 29.6183 86.7962 29.6916 86.7666 29.763Z" fill="#FBBC05"/>
<path d="M87.6924 27.9726C87.7339 27.9072 87.7773 27.8418 87.8207 27.7764C87.7773 27.8418 87.7339 27.9072 87.6924 27.9726Z" fill="#FBBC05"/>
<path d="M104.786 40.3037C104.747 40.3552 104.707 40.4068 104.666 40.4563C104.707 40.4048 104.747 40.3533 104.786 40.3037Z" fill="#FBBC05"/>
<path d="M104.341 40.8329C104.378 40.7932 104.412 40.7496 104.447 40.71C104.412 40.7516 104.376 40.7932 104.341 40.8329Z" fill="#FBBC05"/>
<path d="M105.093 39.8975C105.054 39.953 105.014 40.0085 104.973 40.064C105.014 40.0085 105.054 39.953 105.093 39.8975Z" fill="#FBBC05"/>
<path d="M87.9775 27.5526C88.023 27.4891 88.0684 27.4257 88.1138 27.3643C88.0684 27.4277 88.023 27.4891 87.9775 27.5526Z" fill="#FBBC05"/>
<path d="M96.2684 44.2921C96.1854 44.2901 96.1005 44.2901 96.0176 44.2861C96.1025 44.2901 96.1854 44.2901 96.2684 44.2921Z" fill="#FBBC05"/>
<path d="M88.6133 26.7495C88.6626 26.694 88.71 26.6366 88.7614 26.5811C88.71 26.6366 88.6626 26.694 88.6133 26.7495Z" fill="#FBBC05"/>
<path d="M88.2852 27.1442C88.3325 27.0848 88.3799 27.0233 88.4273 26.9639C88.378 27.0253 88.3325 27.0848 88.2852 27.1442Z" fill="#FBBC05"/>
<path d="M86.0117 33.2076C86.0137 33.1501 86.0197 33.0946 86.0236 33.0371C86.0216 33.0946 86.0157 33.1501 86.0117 33.2076Z" fill="#FBBC05"/>
<path d="M95.1167 44.1985C95.0732 44.1925 95.0278 44.1886 94.9844 44.1826C95.0298 44.1886 95.0732 44.1925 95.1167 44.1985Z" fill="#FBBC05"/>
<path d="M94.5881 44.1136C94.5506 44.1056 94.5131 44.1017 94.4775 44.0938C94.5131 44.0997 94.5506 44.1056 94.5881 44.1136Z" fill="#FBBC05"/>
<path d="M86.0488 32.6983C86.0548 32.6309 86.0647 32.5635 86.0726 32.4941C86.0647 32.5635 86.0548 32.6309 86.0488 32.6983Z" fill="#FBBC05"/>
<path d="M90.7625 42.5651C90.7408 42.5512 90.7171 42.5373 90.6934 42.5215C90.7151 42.5354 90.7388 42.5492 90.7625 42.5651Z" fill="#FBBC05"/>
<path d="M90.4433 42.3455C90.386 42.3039 90.3268 42.2662 90.2715 42.2246C90.3268 42.2643 90.386 42.3039 90.4433 42.3455Z" fill="#FBBC05"/>
<path d="M95.6836 44.26C95.6224 44.254 95.5612 44.252 95.5 44.2461C95.5612 44.252 95.6224 44.254 95.6836 44.26Z" fill="#FBBC05"/>
<path d="M86.1104 32.1946C86.1202 32.1232 86.134 32.0499 86.1459 31.9785C86.134 32.0499 86.1202 32.1232 86.1104 32.1946Z" fill="#FBBC05"/>
<path d="M104.667 40.457C104.708 40.4075 104.747 40.3559 104.787 40.3044C104.85 40.2251 104.913 40.1458 104.973 40.0645C105.014 40.009 105.054 39.9535 105.093 39.898C105.129 39.8465 105.168 39.7969 105.204 39.7454C105.2 39.7494 105.194 39.7553 105.19 39.7593C105.099 39.8564 105.008 39.9535 104.913 40.0487C102.937 42.0329 100.255 43.1488 97.461 43.1488H97.459C97.3622 43.1488 97.2655 43.1449 97.1707 43.1409C97.0937 43.1389 97.0147 43.1389 96.9377 43.135C96.8192 43.129 96.7007 43.1191 96.5822 43.1092C96.5289 43.1052 96.4736 43.1032 96.4203 43.0973C96.2564 43.0814 96.0945 43.0596 95.9326 43.0358C95.9227 43.0339 95.9148 43.0339 95.9049 43.0319C95.5692 42.9823 95.2375 42.9149 94.9117 42.8337C94.9057 42.8317 94.8998 42.8317 94.8919 42.8297C93.0594 42.3678 91.3671 41.4144 90.0066 40.0507C88.03 38.0665 86.9202 35.3747 86.9182 32.5698C86.9182 32.4113 86.9222 32.2527 86.9301 32.0941C86.932 32.0446 86.936 31.997 86.938 31.9474C86.9439 31.8345 86.9518 31.7215 86.9636 31.6105C86.9676 31.5589 86.9735 31.5074 86.9775 31.4559C86.9913 31.333 87.0051 31.2081 87.0229 31.0852C87.0268 31.0515 87.0308 31.0178 87.0367 30.9841C87.0604 30.8295 87.0861 30.6749 87.1177 30.5222C87.1256 30.4826 87.1354 30.443 87.1433 30.4033C87.167 30.2883 87.1927 30.1734 87.2203 30.0584C87.2322 30.0089 87.246 29.9573 87.2579 29.9078C87.2855 29.7987 87.3171 29.6897 87.3487 29.5807C87.3605 29.5371 87.3744 29.4935 87.3862 29.4499C87.4316 29.3012 87.479 29.1545 87.5323 29.0078C87.5402 28.988 87.5481 28.9682 87.5541 28.9484C87.5995 28.8215 87.6488 28.6947 87.7002 28.5698C87.7199 28.5282 87.7377 28.4826 87.7575 28.437C87.8009 28.3339 87.8463 28.2328 87.8917 28.1317C87.9135 28.0861 87.9332 28.0405 87.9549 27.9969C88.0122 27.876 88.0714 27.7571 88.1346 27.6401C88.1445 27.6203 88.1563 27.5985 88.1662 27.5787C88.2393 27.4419 88.3163 27.3051 88.3953 27.1723C88.417 27.1347 88.4407 27.097 88.4644 27.0593C88.5236 26.9622 88.5848 26.8651 88.648 26.768C88.6757 26.7244 88.7053 26.6827 88.7329 26.6391C88.7527 26.6094 88.7705 26.5816 88.7902 26.5519C88.7922 26.5479 88.7942 26.546 88.7961 26.542C88.7843 26.5559 88.7724 26.5697 88.7606 26.5836C88.7092 26.6391 88.6618 26.6966 88.6125 26.7521C88.5493 26.8235 88.4881 26.8948 88.4269 26.9682C88.3775 27.0276 88.3321 27.0871 88.2847 27.1485C88.2274 27.2219 88.1702 27.2932 88.1149 27.3686C88.0675 27.43 88.024 27.4934 87.9786 27.5569C87.9253 27.6302 87.874 27.7055 87.8226 27.7809C87.7772 27.8423 87.7338 27.9077 87.6923 27.9731C87.6429 28.0485 87.5955 28.1258 87.5481 28.2031C87.5067 28.2705 87.4672 28.3379 87.4277 28.4053C87.3823 28.4826 87.3388 28.5599 87.2954 28.6392C87.2579 28.7085 87.2203 28.7779 87.1848 28.8473C87.1433 28.9266 87.1038 29.0059 87.0643 29.0871C87.0308 29.1585 86.9972 29.2299 86.9636 29.3012C86.9261 29.3825 86.8906 29.4637 86.855 29.547C86.8234 29.6184 86.7938 29.6917 86.7642 29.765C86.7306 29.8483 86.699 29.9315 86.6674 30.0168C86.6398 30.0901 86.6121 30.1635 86.5865 30.2368C86.5569 30.322 86.5292 30.4073 86.5016 30.4945C86.4779 30.5678 86.4542 30.6432 86.4325 30.7165C86.4068 30.8037 86.3831 30.8929 86.3594 30.9801C86.3396 31.0555 86.3199 31.1288 86.3001 31.2041C86.2784 31.2953 86.2587 31.3845 86.2389 31.4757C86.2231 31.549 86.2054 31.6224 86.1915 31.6977C86.1738 31.7908 86.158 31.886 86.1422 31.9811C86.1303 32.0525 86.1165 32.1239 86.1066 32.1972C86.0928 32.2963 86.081 32.3974 86.0691 32.4985C86.0612 32.5659 86.0513 32.6333 86.0454 32.7027C86.0355 32.8156 86.0276 32.9286 86.0197 33.0396C86.0158 33.0971 86.0099 33.1526 86.0079 33.2101C86.0039 33.3786 86 33.5491 86 33.7195C86 36.5263 87.1117 39.2162 89.0884 41.2003C89.4596 41.573 89.8545 41.9139 90.2712 42.2231C90.3285 42.2648 90.3857 42.3044 90.443 42.3441C90.5259 42.4035 90.6089 42.465 90.6938 42.5205C90.7155 42.5363 90.7392 42.5482 90.7629 42.5641C91.8924 43.3074 93.1522 43.8267 94.4772 44.0924C94.5148 44.1003 94.5523 44.1042 94.5878 44.1122C94.7201 44.1379 94.8524 44.1617 94.9867 44.1816C95.0301 44.1875 95.0756 44.1915 95.119 44.1974C95.2454 44.2153 95.3737 44.2331 95.5021 44.245C95.5633 44.2509 95.6245 44.2529 95.6857 44.2589C95.7963 44.2688 95.9089 44.2787 96.0195 44.2846C96.1024 44.2886 96.1853 44.2886 96.2702 44.2906C96.3611 44.2926 96.4519 44.2965 96.5427 44.2965H96.5447C99.3408 44.2965 102.02 43.1805 103.997 41.1964C104.116 41.0774 104.23 40.9565 104.343 40.8316C104.38 40.792 104.414 40.7484 104.449 40.7087C104.52 40.6275 104.595 40.5422 104.667 40.457Z" fill="#F89601"/>
<path d="M88.6468 26.7654C88.5836 26.8605 88.5224 26.9577 88.4631 27.0568C88.4394 27.0944 88.4177 27.1321 88.394 27.1698C88.315 27.3046 88.238 27.4393 88.165 27.5761C88.1531 27.5959 88.1432 27.6177 88.1334 27.6376C88.0722 27.7565 88.0109 27.8754 87.9537 27.9944C87.9339 28.04 87.9142 28.0855 87.8925 28.1311C87.8451 28.2322 87.8016 28.3333 87.7582 28.4364C87.7384 28.482 87.7187 28.5276 87.7009 28.5732C87.6496 28.698 87.6022 28.8249 87.5548 28.9518C87.5469 28.9716 87.539 28.9914 87.5331 29.0112C87.4817 29.1579 87.4324 29.3046 87.3869 29.4533C87.3731 29.4969 87.3613 29.5405 87.3494 29.5841C87.3178 29.6931 87.2882 29.8021 87.2586 29.9111C87.2448 29.9607 87.2329 30.0122 87.2211 30.0618C87.1934 30.1768 87.1678 30.2917 87.1441 30.4067C87.1362 30.4463 87.1263 30.486 87.1184 30.5256C87.0888 30.6783 87.0611 30.8329 87.0374 30.9875C87.0315 31.0212 87.0295 31.0549 87.0236 31.0886C87.0058 31.2115 86.99 31.3344 86.9782 31.4592C86.9723 31.5108 86.9683 31.5623 86.9644 31.6139C86.9545 31.7268 86.9466 31.8378 86.9387 31.9508C86.9367 32.0004 86.9328 32.048 86.9308 32.0975C86.9229 32.2561 86.9189 32.4147 86.9189 32.5732C86.9189 35.38 88.0307 38.0699 90.0073 40.054C91.3659 41.4178 93.0582 42.3712 94.8926 42.8331C94.8986 42.8351 94.9045 42.8351 94.9124 42.837C95.2402 42.9183 95.5719 42.9857 95.9057 43.0353C95.9155 43.0372 95.9234 43.0372 95.9333 43.0392C96.0952 43.063 96.2571 43.0828 96.421 43.1007C96.4744 43.1066 96.5296 43.1086 96.583 43.1126C96.7014 43.1225 96.8199 43.1324 96.9384 43.1383C97.0154 43.1423 97.0944 43.1423 97.1714 43.1443C97.2682 43.1463 97.363 43.1522 97.4597 43.1522H97.4617C100.258 43.1522 102.937 42.0362 104.914 40.0521C105.009 39.9569 105.1 39.8618 105.191 39.7627C105.193 39.7587 105.196 39.7547 105.198 39.7508C106.995 37.7983 108 35.2353 108 32.5693C108 29.7625 106.889 27.0726 104.912 25.0885C102.935 23.1003 100.254 21.9863 97.4577 21.9863C94.6636 21.9863 91.982 23.1023 90.0053 25.0865C89.5591 25.5364 89.1582 26.0221 88.8028 26.5374C88.7988 26.5414 88.7949 26.5454 88.7909 26.5513C88.7712 26.5811 88.7534 26.6088 88.7337 26.6385C88.704 26.6802 88.6744 26.7238 88.6468 26.7654ZM100.546 23.7207C101.857 24.1806 103.06 24.9339 104.061 25.9388C105.813 27.697 106.796 30.0796 106.796 32.5653V32.5673C106.796 35.053 105.813 37.4356 104.063 39.1938C102.313 40.952 99.9379 41.9391 97.4617 41.9391C94.9855 41.9391 92.6099 40.952 90.8604 39.1958C89.1089 37.4375 88.1255 35.0549 88.1255 32.5693V32.5673C88.1255 30.0816 89.1089 27.699 90.8584 25.9428C92.608 24.1826 94.9835 23.1955 97.4597 23.1955C97.6868 23.1955 97.8704 23.3798 97.8704 23.6078C97.8704 23.8357 97.6868 24.0201 97.4597 24.0201C95.2027 24.0201 93.0365 24.922 91.4409 26.5236C89.8474 28.1232 88.9509 30.2917 88.9489 32.5534V32.5554V32.5673C88.9489 34.8329 89.8474 37.0074 91.4429 38.609C93.0404 40.2106 95.2046 41.1106 97.4637 41.1106C99.7207 41.1106 101.887 40.2087 103.482 38.607C105.078 37.0034 105.974 34.831 105.974 32.5653V32.5633C105.974 30.2957 105.076 28.1232 103.48 26.5216C102.568 25.6058 101.47 24.92 100.276 24.4998C100.06 24.4244 99.9478 24.1885 100.023 23.9745C100.082 23.804 100.242 23.697 100.412 23.697C100.455 23.6989 100.501 23.7049 100.546 23.7207Z" fill="#FBBC05"/>
<path d="M100.019 23.9743C99.9444 24.1904 100.057 24.4243 100.272 24.4996C101.467 24.9198 102.565 25.6057 103.477 26.5214C105.075 28.1231 105.971 30.2975 105.971 32.5632V32.5652C105.971 34.8308 105.075 37.0053 103.479 38.6069C101.884 40.2105 99.7173 41.1104 97.4603 41.1104C95.2012 41.1104 93.037 40.2105 91.4395 38.6089C89.842 37.0073 88.9455 34.8328 88.9455 32.5671V32.5552V32.5533C88.9495 30.2916 89.846 28.1231 91.4375 26.5234C93.0331 24.9198 95.1993 24.0199 97.4563 24.0199C97.6834 24.0199 97.867 23.8356 97.867 23.6076C97.867 23.3797 97.6834 23.1953 97.4563 23.1953C94.9801 23.1953 92.6065 24.1844 90.855 25.9407C89.1055 27.6989 88.1221 30.0815 88.1221 32.5652V32.5671C88.1221 35.0528 89.1074 37.4354 90.857 39.1936C92.6085 40.9498 94.9821 41.937 97.4583 41.937C99.9345 41.937 102.308 40.9479 104.06 39.1916C105.809 37.4334 106.793 35.0508 106.793 32.5652V32.5632C106.793 30.0775 105.809 27.6929 104.058 25.9367C103.056 24.9317 101.852 24.1805 100.543 23.7186C100.497 23.7028 100.452 23.6948 100.406 23.6948C100.239 23.6988 100.079 23.8038 100.019 23.9743Z" fill="#F89601"/>
<path d="M102.313 31.5926C102.286 31.4228 102.164 31.2853 102.001 31.2343L99.4258 30.4483L98.612 27.8779C98.5611 27.7149 98.4204 27.5944 98.2509 27.5689L98.2254 27.5655C98.0644 27.5502 97.9067 27.6215 97.8152 27.7557L96.2724 29.9661L93.5801 29.9458C93.4088 29.9441 93.2529 30.0408 93.1749 30.1936C93.0986 30.3464 93.1139 30.5298 93.2173 30.6673L94.8398 32.82L93.9887 35.3785C93.9344 35.5415 93.9768 35.7198 94.0989 35.8403C94.1735 35.915 94.2718 35.9592 94.3718 35.9677C94.4346 35.9745 94.499 35.966 94.5617 35.9456L97.1082 35.0662L99.2749 36.6671C99.3427 36.7164 99.419 36.7452 99.4987 36.7537C99.5834 36.7622 99.6699 36.7452 99.7479 36.7062C99.9005 36.6281 99.9937 36.4702 99.9903 36.2987L99.9412 33.6027L102.132 32.034C102.271 31.9321 102.342 31.7606 102.313 31.5926Z" fill="white"/>
</svg>
